<svg xmlns="http://www.w3.org/2000/svg" width="193.549" height="177.948" viewBox="0 0 193.549 177.948"><defs><style>.a,.e,.w{fill:#fff;}.b{fill:#f5dbc4;}.c{fill:#ac967c;}.d{fill:#d44242;}.e{opacity:0.2;}.f{fill:#ccc;mix-blend-mode:color-burn;isolation:isolate;}.g{fill:#235b71;}.h{fill:#ebedfd;opacity:0.5;}.i{fill:#003346;}.j{fill:#f7faff;}.k{fill:#483569;}.l{fill:#d9aa81;}.m{fill:#fbb59e;}.n{fill:#f6967d;}.o{fill:#fb5252;}.p{fill:#312e3b;}.q{fill:#524e62;}.r{fill:#372749;}.s{fill:#b98a64;}.t{fill:#402512;}.u{fill:#d19264;}.v{fill:#ae6720;}.w{opacity:0.1;}</style></defs><g transform="translate(-3659.836 -3170.693)"><g transform="translate(3721.169 3170.693)"><g transform="translate(8.449)"><path class="a" d="M4002.35,3312.177c-.976,2.277-28.8,12.033-61.724,12.358-11.166.108-22.02-.339-31.437-1.138-18.362-1.545-31.275-4.417-30.421-6.992,1.3-3.9,4.553-29.6,4.228-66.02s-4.228-58.539-4.228-58.539c12.9-2.263,19.648-11.45,24.757-16.938,2.236-2.412,4.16-4.106,6.138-4.2,6.5-.325,16.586,5.529,41.628,6.5s40.652-5.529,44.88-2.927c3.1,1.911.068,25.218-.61,51.764a284.11,284.11,0,0,0,.61,29.215C3999.1,3291.362,4003.326,3309.9,4002.35,3312.177Z" transform="translate(-3878.727 -3170.693)"/><path class="b" d="M3900.642,3203.906c-4.418-.623-20.719-11.329-21.736-12.006-.013-.014-.04-.014-.054-.027,12.9-2.263,19.649-11.45,24.757-16.938l6.139-4.2C3910.4,3191.548,3905.195,3204.557,3900.642,3203.906Z" transform="translate(-3878.813 -3170.721)"/><path class="a" d="M3909.748,3170.734s-6.5,25.042-9.757,26.018-11.992-.65-21.085-4.851c-.013-.014-.04-.014-.054-.027,12.9-2.263,19.649-11.45,24.757-16.938C3905.845,3172.523,3907.77,3170.829,3909.748,3170.734Z" transform="translate(-3878.813 -3170.721)"/><g transform="translate(26.776 33.446)"><path class="b" d="M4032.931,3306.893a267.683,267.683,0,0,1-1.646,27.262s-2.28-.034-6-.086c-3.756-.069-8.968-.154-14.729-.274-1.166-.017-2.349-.034-3.549-.069-5.658-.12-11.642-.257-17.163-.429-1.115-.034-2.212-.069-3.275-.1-5.178-.171-9.756-.377-13-.583-2.932-.205-4.783-.411-5.006-.635-1.355-1.372-5.847-55.964-5.847-55.964,22.2,5.8,65.018-2.246,66.664,0C4031.011,3278.259,4032.931,3293.519,4032.931,3306.893Z" transform="translate(-3962.718 -3275.606)"/></g><rect class="c" width="65.369" height="4.147" transform="translate(30.369 21.889)"/><g transform="translate(20.338 102.749)"><rect class="c" width="83.089" height="2.994"/><rect class="c" width="83.089" height="2.994" transform="translate(0 10.208)"/><rect class="c" width="83.089" height="2.994" transform="translate(0 20.416)"/><rect class="c" width="83.089" height="2.994" transform="translate(0 30.625)"/></g><g transform="translate(64.651 1.652)"><path class="d" d="M4094.35,3182.271a6.4,6.4,0,0,1-12.789.406,1.38,1.38,0,0,1-.037-.406,6.421,6.421,0,0,1,6.4-6.4,6.468,6.468,0,0,1,6.431,6.4Z" transform="translate(-4081.523 -3175.876)"/><path class="e" d="M4091.5,3176.985c-.037,3.142-3.142,8.464-9.943,5.692a1.38,1.38,0,0,1-.037-.406,6.421,6.421,0,0,1,6.4-6.4A6.335,6.335,0,0,1,4091.5,3176.985Z" transform="translate(-4081.523 -3175.876)"/></g><path class="f" d="M4067.439,3430.456c-.976,2.277-28.8,12.033-61.724,12.358-11.166.108-22.02-.339-31.437-1.138,2.344-4.919,5.394-10.448,8.971-16.329.6-.989,1.206-1.979,1.843-2.995,1.477-2.358,3.049-4.783,4.675-7.222.664-.989,1.342-1.992,2.019-2.995,1.64-2.385,3.333-4.8,5.082-7.209.718-1,1.45-1.992,2.2-2.995q2.662-3.617,5.474-7.209c.772-1,1.572-2.005,2.372-2.995,3.035-3.794,6.166-7.534,9.35-11.166.935-1.071,1.884-2.127,2.818-3.171.406-.447.813-.894,1.22-1.328a191.887,191.887,0,0,1,20.5-19.54c6.924-5.6,13.659-9.865,19.852-12.2a284.112,284.112,0,0,0,.61,29.215C4064.187,3409.642,4068.415,3428.179,4067.439,3430.456Z" transform="translate(-3943.816 -3288.973)"/></g><g transform="translate(0 30.177)"><rect class="g" width="5.929" height="10.108" transform="translate(43.896 46.381) rotate(48.93)"/><circle class="h" cx="23.886" cy="23.886" r="23.886" transform="translate(36.028 16.132) rotate(-19.736)"/><path class="i" d="M4016.932,3319.94a29.814,29.814,0,1,0-42.064-2.885A29.816,29.816,0,0,0,4016.932,3319.94Zm-37.592-6.783a23.887,23.887,0,1,1,33.7,2.324A23.868,23.868,0,0,1,3979.34,3313.158Z" transform="translate(-3930.77 -3266.919)"/><g transform="translate(0 51.023)"><path class="i" d="M3891.654,3428.267l-2.15-2.468a1.142,1.142,0,0,0-1.442-.246c-4.715,2.742-28.441,16.725-33.73,23.49a8.671,8.671,0,0,0,1.587,12.7c2.021,1.38,30.652-26.9,35.692-31.908A1.139,1.139,0,0,0,3891.654,3428.267Z" transform="translate(-3852.224 -3425.398)"/><path class="i" d="M3895.529,3434.657l2.15,2.467a1.142,1.142,0,0,1,.047,1.462c-3.361,4.3-20.457,25.886-27.882,30.2a8.671,8.671,0,0,1-12.362-3.309c-1.09-2.192,30.842-26.684,36.489-30.992A1.14,1.14,0,0,1,3895.529,3434.657Z" transform="translate(-3855.787 -3431.43)"/></g><path class="j" d="M4032.843,3307.233c-4.072-3.322,16.207-7.532,20.672-.861S4035.95,3309.768,4032.843,3307.233Z" transform="translate(-3974.896 -3290.885)"/><path class="j" d="M4005.946,3327.873c-1.7-1.841-8.056,6.571-5.806,7.606S4008.554,3330.694,4005.946,3327.873Z" transform="translate(-3952.66 -3307.763)"/></g></g><g transform="translate(3659.836 3185.639)"><path class="k" d="M3739.6,3254.857c2.272-3.778-.4-7.377-3.01-7.145a4.255,4.255,0,0,0-3.471,1.858s1.265-5.124-4.017-5.108-7.9,5.514-7.9,5.514-4.931-1.115-5.454,4.121c-.639,6.385,6.482,13.778,7.6,13.568s6.93-12,9.763-13.858S3739.6,3254.857,3739.6,3254.857Z" transform="translate(-3697.9 -3235.89)"/><path class="l" d="M3762.1,3322.339c4.981,1.732,5.478,5.113,5.478,5.113a45.759,45.759,0,0,0-4.046,5.443c-1.709,2.79-1.432,8.138-1.432,8.138s-2.531-8.468-3.269-12.014a17.138,17.138,0,0,1,0-6.679Z" transform="translate(-3727.047 -3288.94)"/><path class="m" d="M3744.02,3319.04c1.511-.479,2.628-3,1.657-3.371-.746-.269-.949-1.269-1.354-3.167a17.65,17.65,0,0,1-.292-2.232c-.277-3.639-7.516-5.846-7.516-5.846.759,5.071.391,10.6-.531,11.853S3742.522,3319.521,3744.02,3319.04Z" transform="translate(-3711.654 -3276.737)"/><path class="n" d="M3737.818,3304.424c2.194,6.413,5.5,8.69,7.808,8.078a17.7,17.7,0,0,1-.292-2.232C3745.057,3306.631,3737.818,3304.424,3737.818,3304.424Z" transform="translate(-3712.958 -3276.737)"/><path class="m" d="M3748.424,3275.844c2.056,4.277,3.073,11.359-3.153,12.436-4.524.782-8-2.5-9.632-6.445a13.275,13.275,0,0,1-1.024-4.549c-.193-5.439,4.412-6.761,8.157-5.661A10.706,10.706,0,0,1,3748.424,3275.844Z" transform="translate(-3710.771 -3254.15)"/><path class="m" d="M3730.286,3294.531c-1.48,1.263-4.248-1.659-3.365-3.53,1.1-2.338,3.183-.318,3.426.415A12.285,12.285,0,0,1,3730.286,3294.531Z" transform="translate(-3705.418 -3266.846)"/><path class="n" d="M3731.914,3295.432c-.135-.9-.582-1.937-1.419-1.972-.711-.03-.364.887.14,1.322A4.727,4.727,0,0,0,3731.914,3295.432Z" transform="translate(-3707.694 -3269.268)"/><g transform="translate(35.221 23.089)"><path class="k" d="M3770.721,3294.712c1.035.02,1.193-.689,1.2-.7l.008-.041-.033-.026a3.175,3.175,0,0,1-.823-3.853.068.068,0,0,0-.035-.088.067.067,0,0,0-.089.035,3.356,3.356,0,0,0,.829,3.984c-.052.15-.307.691-1.381.522a.067.067,0,1,0-.02.133A2.72,2.72,0,0,0,3770.721,3294.712Z" transform="translate(-3770.316 -3290.001)"/></g><g transform="translate(36.676 23.665)"><path class="k" d="M3774.88,3292.835c-.011.543.189.987.445.992s.473-.431.483-.973-.188-.987-.445-.992S3774.891,3292.293,3774.88,3292.835Z" transform="translate(-3774.88 -3291.844)"/><path class="k" d="M3776.24,3291.826c.206-.043.694-.018.675.1s-.593.037-.678.02S3776.24,3291.826,3776.24,3291.826Z" transform="translate(-3775.779 -3291.806)"/></g><g transform="translate(32.696 23.587)"><path class="k" d="M3762.4,3292.592c-.01.542.189.987.445.992s.473-.431.484-.974-.189-.987-.445-.992S3762.408,3292.049,3762.4,3292.592Z" transform="translate(-3762.397 -3291.6)"/><path class="k" d="M3763.757,3291.582c.206-.043.694-.017.676.1s-.593.037-.678.019S3763.757,3291.582,3763.757,3291.582Z" transform="translate(-3763.296 -3291.563)"/></g><g transform="translate(31.49 21.916)"><path class="k" d="M3758.777,3287.174a.168.168,0,0,0,.145-.077,1.161,1.161,0,0,1,1.007-.442.167.167,0,1,0,.007-.335,1.491,1.491,0,0,0-1.3.6.169.169,0,0,0,.052.232A.171.171,0,0,0,3758.777,3287.174Z" transform="translate(-3758.613 -3286.319)"/></g><path class="o" d="M3767.993,3310.3c-.01.508.62.933,1.406.948s1.432-.384,1.442-.892-.62-.932-1.406-.948S3768,3309.8,3767.993,3310.3Z" transform="translate(-3733.513 -3280.134)"/><path class="o" d="M3756.572,3299.36c0,.189.415.351.937.361s.946-.135.95-.324-.415-.351-.936-.361S3756.576,3299.171,3756.572,3299.36Z" transform="translate(-3725.733 -3273.066)"/><g transform="translate(33.474 29.466)"><path class="k" d="M3767.578,3310.965a2.519,2.519,0,0,0,1.52-.307.068.068,0,0,0,0-.1.069.069,0,0,0-.095,0c-.456.439-2.992.41-4.055-.543a.069.069,0,0,0-.1.005.068.068,0,0,0,.005.1A4.46,4.46,0,0,0,3767.578,3310.965Z" transform="translate(-3764.837 -3310.002)"/></g><path class="k" d="M3733.436,3272.047c1.9-2.052,6.976-1.644,13.56-2.035s6.521-8.9-2.3-6.313-9.745.034-11.181,2.006S3733.436,3272.047,3733.436,3272.047Z" transform="translate(-3709.579 -3248.663)"/><path class="p" d="M3674.871,3701c-2.06,2.472-2.648,6.238-1.648,7.474s16.949,1.766,17.833,0-2.06-5.061-7.239-6.886A14.962,14.962,0,0,0,3674.871,3701Z" transform="translate(-3668.631 -3546.604)"/><path class="p" d="M3768.557,3701c-2.06,2.472-2.648,6.238-1.647,7.474s16.949,1.766,17.832,0-2.06-5.061-7.239-6.886A14.962,14.962,0,0,0,3768.557,3701Z" transform="translate(-3732.45 -3546.604)"/><path class="a" d="M3737.869,3338.332c1.061-2.262,2.482-3.533,2.931-3.619,1.1-.21,2.633,1.8,2.787,2.812.183,1.2,2.337,17.011-3.042,16.849s-10.349-15.638-10.466-17.415a2.706,2.706,0,0,1,2.625-2.7C3733.672,3334.258,3737.869,3338.332,3737.869,3338.332Z" transform="translate(-3707.682 -3297.06)"/><path class="q" d="M3714.057,3474.936c3.514,31.543,1.01,65.956,0,66.763s-15.777.647-17.279,0-3.271-53.959-3.271-53.959-7.608,53.389-8.408,53.959c-1.272.908-16.8,1.292-18.417-.97s.323-62.682,4.2-72.86C3673.626,3460.667,3714.057,3474.936,3714.057,3474.936Z" transform="translate(-3664.11 -3386.691)"/><path class="r" d="M3752.437,3351.923a48.471,48.471,0,0,1,3.25,10.232c.2,1.888-.639,5.407-3.25,4.467s-2.609-4.864-2.784-5.013l-.175-.149s1.441-9.637,1.54-9.835S3752.437,3351.923,3752.437,3351.923Z" transform="translate(-3720.899 -3308.858)"/><path class="l" d="M3712.724,3488.15c-3.17,5.342-49.889,3.638-52.684-.146-1.072-1.457,2.254-25.05,6.112-40.141.33-1.292.659-2.52,1-3.665h41.259S3715.894,3482.818,3712.724,3488.15Z" transform="translate(-3659.836 -3371.951)"/><path class="m" d="M3856.99,3470.211c4.949,4.2,5.892,7.469,4.242,9.782s-7.778,2.43-8.6-3.815S3856.99,3470.211,3856.99,3470.211Z" transform="translate(-3791.107 -3389.669)"/><path class="l" d="M3784.095,3350.763c9.518,5.039,27.825,35.331,27.33,38.079s-3.793,6.645-6.1,7.253-19-21.613-20.384-23.531S3784.095,3350.763,3784.095,3350.763Z" transform="translate(-3744.41 -3308.303)"/><path class="s" d="M3788.736,3370.026c7.653,9.32,8.11,24.18,6.469,26.382s-7.775-9.01-8.5-13.876S3788.736,3370.026,3788.736,3370.026Z" transform="translate(-3746.176 -3321.425)"/><path class="l" d="M3775.686,3393.786s-4.013,3.647-10.711,1.521a10.481,10.481,0,0,1-5.626-4.993,25.2,25.2,0,0,1-2.767-7.687l1.823-20.588.11-.495,3.2-14.834a4.215,4.215,0,0,1,.843.129,12.386,12.386,0,0,1,2.364.907c.311.147.5.256.5.256s4.444,6.524,8.081,25.426C3777.079,3392.027,3775.686,3393.786,3775.686,3393.786Z" transform="translate(-3725.74 -3305.542)"/><path class="s" d="M3776.432,3348.021a8.09,8.09,0,0,0-2.95,3.876,24.514,24.514,0,0,1,.586-4.783A12.386,12.386,0,0,1,3776.432,3348.021Z" transform="translate(-3737.252 -3305.817)"/><path class="l" d="M3705.844,3362.837a96.863,96.863,0,0,1,0,11.838c-.312,4.563-.744,10.308-1.119,12.69a4.674,4.674,0,0,1-.22.879c-.861,2.74-4.185,3.344-6.916,4.306-6.789,2.382-20.716-.394-22.274-.788-.714-.174.413-6.771,1.567-13.3.028-.174.064-.348.092-.522.193-1.1.385-2.2.568-3.261s.366-2.117.523-3.079c.513-3.088.824-5.433.632-5.947-1.045-2.8,4.2-20.258,5.735-21.568a8.745,8.745,0,0,1,5.159-1.915,11.651,11.651,0,0,1,3.033.174l2.538,3.931L3703,3358.43Z" transform="translate(-3670.228 -3302.427)"/><g transform="translate(31.489 61.107)"><path class="t" d="M3758.609,3410.316a1.056,1.056,0,1,0,1.051-1.062A1.056,1.056,0,0,0,3758.609,3410.316Z" transform="translate(-3758.609 -3409.254)"/><path class="t" d="M3758.764,3440.794a1.056,1.056,0,1,0,1.051-1.062A1.056,1.056,0,0,0,3758.764,3440.794Z" transform="translate(-3758.715 -3430.016)"/><path class="t" d="M3758.918,3471.271a1.056,1.056,0,1,0,1.051-1.062A1.057,1.057,0,0,0,3758.918,3471.271Z" transform="translate(-3758.819 -3450.776)"/><path class="t" d="M3759.073,3501.749a1.056,1.056,0,1,0,1.051-1.062A1.057,1.057,0,0,0,3759.073,3501.749Z" transform="translate(-3758.925 -3471.539)"/><path class="t" d="M3759.228,3532.226a1.056,1.056,0,1,0,1.051-1.062A1.056,1.056,0,0,0,3759.228,3532.226Z" transform="translate(-3759.031 -3492.299)"/><path class="t" d="M3758.609,3562.7a1.056,1.056,0,1,0,1.051-1.062A1.056,1.056,0,0,0,3758.609,3562.7Z" transform="translate(-3758.609 -3513.06)"/></g><path class="s" d="M3708.653,3391.417c-3.053-3.537-12.4-3.681-12.511-4.584s2.673-7.747.733-12.531-10.143,7.77-5.932,13.918S3708.653,3391.417,3708.653,3391.417Z" transform="translate(-3680.218 -3323.613)"/><path class="l" d="M3678.127,3348.241c-6.846,2.666-15.327,25.384-11.208,29.686s14.115,1.818,14.115,1.818-4.665-7.209-3.029-10.723a27.392,27.392,0,0,0,2.544-13.328C3680.308,3350,3678.127,3348.241,3678.127,3348.241Z" transform="translate(-3663.924 -3306.584)"/><path class="s" d="M3701.543,3436.344c-2.309,2.959-15.695,4.755-21.559,2.8-.119-.037-.229-.083-.339-.119.33-1.292.659-2.52,1-3.665.193-1.072.367-2.116.523-3.079a11.658,11.658,0,0,1,4.9-1.054c3.308.082,9.8,2.666,13.24,4.132C3700.663,3435.941,3701.543,3436.344,3701.543,3436.344Z" transform="translate(-3673.33 -3363.116)"/><g transform="translate(10.571)"><path class="u" d="M3730.722,3257.02c.269,2.236-7.957,5.062-18.373,6.316s-19.078.462-19.347-1.774c-.158-1.309,2.6-2.821,7.012-4.1.865-.252,1.8-.5,2.786-.723a79.854,79.854,0,0,1,8.575-1.489c1.107-.133,2.194-.241,3.255-.329,2.127-.176,4.146-.266,5.981-.264.575,0,1.129.007,1.667.021,4.6.136,7.792.857,8.359,2.06A.886.886,0,0,1,3730.722,3257.02Z" transform="translate(-3692.995 -3242.832)"/><path class="u" d="M3737.322,3230.4c-.316,1.258-1.826,3.007-5.43,4.136a26.44,26.44,0,0,1-6.394,1.049c-8.357.459-10.345-1.422-10.443-2.094-.063-.426-.109-.859-.139-1.294q-.047-.747-.044-1.5c.026-6.695,3.242-13.4,5.653-13.117,2.568.307,2.79,3.289,4.254,3.523s1.332-2.007,3.622-1.735a2.469,2.469,0,0,1,.919.345c2.359,1.323,6.145,6.065,7.509,8.876a8.374,8.374,0,0,1,.35.824A1.866,1.866,0,0,1,3737.322,3230.4Z" transform="translate(-3707.898 -3217.574)"/><path class="v" d="M3737.322,3253.945c-.316,1.258-1.826,3.007-5.43,4.137a26.453,26.453,0,0,1-6.394,1.049c-8.357.459-10.345-1.422-10.443-2.094-.063-.426-.109-.859-.139-1.294q-.047-.746-.044-1.5,1.46.474,2.829.776a26.438,26.438,0,0,0,12.272.056,22.177,22.177,0,0,0,5.539-2.138c.54-.3.979-.574,1.317-.8a8.4,8.4,0,0,1,.35.824A1.864,1.864,0,0,1,3737.322,3253.945Z" transform="translate(-3707.898 -3241.117)"/><path class="w" d="M3775.789,3236.052c-3.241,1.536-11.052,3.93-13.647,3.063-.79-.264-1.44-1.4-1.918-3.007a18.344,18.344,0,0,1-.442-1.873,32.022,32.022,0,0,1-.211-9.943c2.359,1.323,6.145,6.065,7.509,8.876a8.277,8.277,0,0,1,.35.824C3772.029,3234.128,3775.222,3234.849,3775.789,3236.052Z" transform="translate(-3738.147 -3222.15)"/></g><path class="r" d="M3750.038,3347.756c.151-.668,2.661-.9,3.3-.281s.042,1.607-.952,1.756S3749.877,3348.467,3750.038,3347.756Z" transform="translate(-3721.274 -3305.819)"/><path class="s" d="M3726.169,3349.093a36.7,36.7,0,0,0-5.6-6.927,11.654,11.654,0,0,1,3.033.174l2.538,3.931C3726.2,3347.856,3726.169,3349.093,3726.169,3349.093Z" transform="translate(-3701.209 -3302.427)"/><path class="l" d="M3720.07,3320.009a10.188,10.188,0,0,0-8.9,4.542s1.728-.217,4.37,1.89c4.124,3.29,5.62,13.524,5.62,13.524a47.06,47.06,0,0,0,.812-13.524A19.159,19.159,0,0,0,3720.07,3320.009Z" transform="translate(-3694.807 -3287.352)"/><path class="l" d="M3768.43,3336.8a28.729,28.729,0,0,0-3.08,10.571l-2.075-15.725s4.089.179,4.583.831S3768.43,3336.8,3768.43,3336.8Z" transform="translate(-3730.3 -3295.283)"/><path class="s" d="M3762.647,3393.241c7.249,7.165,1.611,63.58,1.611,63.58s4.819-23.1,3.744-41.572S3762.647,3393.241,3762.647,3393.241Z" transform="translate(-3729.871 -3337.239)"/><path class="m" d="M3744.582,3428.214c2.553-.976,7.726-2.081,9.589-1.041s1.029,4.422-2.556,5.722a12.457,12.457,0,0,1-8.482,0C3741.133,3432.05,3744.582,3428.214,3744.582,3428.214Z" transform="translate(-3716.154 -3360.068)"/><path class="p" d="M3716.436,3610.508c1.47,1.786-4.12,5.412-5.654,4.281S3715.3,3609.135,3716.436,3610.508Z" transform="translate(-3694.371 -3485.066)"/><path class="p" d="M3799.873,3610.508c1.47,1.786-4.12,5.412-5.655,4.281S3798.742,3609.135,3799.873,3610.508Z" transform="translate(-3751.209 -3485.066)"/><path class="l" d="M3669.233,3424.88c7.126,6.2,24.647,2.8,25.221,1.89s.98-4.413.219-5.428-13-1.912-14.692-3.9S3669.233,3424.88,3669.233,3424.88Z" transform="translate(-3666.237 -3353.539)"/><g transform="translate(8.447 81.13)"><path class="s" d="M3697.969,3472.059s.128,9.585-1.3,11.279-10.335,0-10.335,0,7.917.591,9.126-1.056S3697.969,3472.059,3697.969,3472.059Z" transform="translate(-3686.332 -3472.059)"/></g></g></g></svg>