<svg xmlns="http://www.w3.org/2000/svg" xmlns:xlink="http://www.w3.org/1999/xlink" width="192.215" height="181.848" viewBox="0 0 192.215 181.848"><defs><style>.a{fill:none;}.b{fill:#ffcfcf;}.c{fill:#f7f7f7;}.d{clip-path:url(#a);}.e{fill:#fff;}.f{clip-path:url(#b);}.g{fill:#ffc091;}.h{fill:#f58838;}.aa,.ac,.ag,.bf,.i{opacity:0.4;}.aa,.ac,.ag,.am,.aq,.as,.bg,.i{mix-blend-mode:multiply;}.aa,.ac,.ag,.am,.aq,.as,.bf,.bg,.i{isolation:isolate;}.j{fill:#ffa678;}.k{fill:#5b75a8;}.l{fill:#bababa;}.m{fill:#303030;}.n{fill:#f7ab71;}.o{fill:#ffe1cc;}.p{fill:#ffc2a3;}.q{fill:#753623;}.r{fill:#231f20;}.s{fill:#f5a265;}.t{fill:#8f4a35;}.u{fill:#375085;}.v{fill:#7799db;}.w{fill:#ffe478;}.x{clip-path:url(#c);}.aa,.y{fill:#ff9a66;}.ac,.z{fill:#7ab4d6;}.ab{clip-path:url(#d);}.ad{fill:#db6633;}.ae{fill:#ffbc9a;}.af{fill:#ff423d;}.ag{fill:#d97e4e;}.ah{fill:#ffa87b;}.ai{fill:#467fa1;}.aj{fill:#662f1f;}.ak{clip-path:url(#e);}.al,.am{fill:#ff9885;}.am,.aq,.as{opacity:0.5;}.an{fill:#253045;}.ao{fill:#000644;}.ap{fill:#f0634a;}.aq{fill:#91b4de;}.ar{fill:#e35e46;}.as{fill:#ffc73b;}.at{fill:#ffadaf;}.au{fill:#ffcccd;}.av{fill:#febfb2;}.aw{fill:#feae9d;}.ax{fill:#fe9e8c;}.ay{fill:#fffffb;}.az,.bg{fill:#dfdfeb;}.ba{fill:#fe8e90;}.bb{fill:#2a7bde;}.bc{fill:#5998bd;}.bd{fill:#c4c4cf;}.be{fill:#fed0c7;}.bf{fill:#ffbabc;mix-blend-mode:screen;}.bg{opacity:0.6;}.bh{fill:#feab9b;}</style><clipPath id="a"><rect class="a" width="181.848" height="192.215" transform="translate(192.215 0) rotate(90)"/></clipPath><clipPath id="b"><path class="b" d="M6114.249,1023.5l-4.236-4.415-3.077-3.206c-.714-.744-1.7-1.437-1.811-2.546-.138-1.425.125-2.947,0-4.406-1.1-12.607-10.227-22.111-20.394-21.227s-17.523,11.82-16.428,24.427,10.227,22.111,20.394,21.228a15.5,15.5,0,0,0,6.806-2.288c1.683-1.044,3.078-2.613,5.062-3.1,1.812-.446,3.648-.836,5.464-1.282l7.859-1.933A.751.751,0,0,0,6114.249,1023.5Z" transform="translate(-6068.193 -987.648)"/></clipPath><clipPath id="c"><path class="b" d="M5981.483,1527.829c-10.853-.52-19.1-12.37-18.428-26.469s10.021-25.107,20.872-24.587c7.8.374,14.247,6.612,17.008,15.326a4.639,4.639,0,0,0,1.882,2.535l10.119,8.357a.873.873,0,0,1-.073,1.512l-10.871,7.352a4.636,4.636,0,0,0-2.115,2.344C5996.3,1522.608,5989.285,1528.2,5981.483,1527.829Z" transform="translate(-5963.017 -1476.755)"/></clipPath><clipPath id="d"><path class="a" d="M5992.553,1700.014c-.306.03-.435.38-.575.654a4.459,4.459,0,0,1-4.667,2.372c-3.768-.354-3.736-2.022-4.3-2.016a23.505,23.505,0,0,0-3.4.356,16.593,16.593,0,0,0-3.4.762,6.189,6.189,0,0,0-2.274,1.859,10.991,10.991,0,0,0-2.29,4.269c-.208.759-.344,1.531-.538,2.294-.051.2-.368.943-.2,1.14.134.154,2.251-.515,3.494-.04s3.393,1.862,3.126,2.635a3.654,3.654,0,0,0-.164,2.572c.324,1.233,1.953,2.879,1.268,7.88-.466,3.4-1.58,6.866-1.218,7.613s5.884.86,10.986,1.067,10.761.893,10.433-.781-2.318-5.241-2.663-8.372,1.294-6.355,1.546-8.2.242-2.425.3-3.217c.062-.828.382-1.782,2.589-1.84s3.625,1.5,3.536.658c-.185-1.752-2.25-7.863-4.08-9.374A12.962,12.962,0,0,0,5992.553,1700.014Z" transform="translate(-5970.856 -1699.995)"/></clipPath><clipPath id="e"><path class="c" d="M7004.345,1023.03c-1.108-12.766-10.354-22.389-20.65-21.494s-17.745,11.968-16.634,24.734a27.075,27.075,0,0,0,2.843,10.129c2.172,4.158,4.142,7.018,5.086,11.691q.921,4.547,1.838,9.1a.76.76,0,0,0,1.248.419c3.086-2.723,5.781-5.9,9.11-8.347,2.987-2.2,6.6-2.9,9.445-5.284C7002.625,1038.957,7005,1030.613,7004.345,1023.03Z" transform="translate(-6966.951 -1001.478)"/></clipPath></defs><g transform="translate(-5759.979 -877.064)"><g class="d" transform="translate(5759.979 877.064)"><ellipse class="e" cx="30.604" cy="29.318" rx="30.604" ry="29.318" transform="translate(100.574 20.31)"/><g transform="translate(19.228 11.617)"><g transform="translate(13.15)"><path class="b" d="M6114.249,1023.5l-4.236-4.415-3.077-3.206c-.714-.744-1.7-1.437-1.811-2.546-.138-1.425.125-2.947,0-4.406-1.1-12.607-10.227-22.111-20.394-21.227s-17.523,11.82-16.428,24.427,10.227,22.111,20.394,21.228a15.5,15.5,0,0,0,6.806-2.288c1.683-1.044,3.078-2.613,5.062-3.1,1.812-.446,3.648-.836,5.464-1.282l7.859-1.933A.751.751,0,0,0,6114.249,1023.5Z" transform="translate(-6068.193 -987.648)"/><g class="f"><g transform="translate(0 2.812)"><g transform="translate(5.901 13.945)"><path class="g" d="M6149.433,1163.065a15.586,15.586,0,0,0-.394,2.62c-.1,1.018-.2,2.277-.293,3.727-.127,1.921-.254,4.173-.42,6.729-.025.56-.063,1.145-.1,1.743-.177,2.964-.216,4.885-.2,6.157v.026c.013,2.048.127,2.468-.089,2.938-.369.776-8.04.483-14.349.42-4.274-.038-6.105.305-6.7.026-.28-.127-.28-.407-.127-.929.471-1.615.42-4.083.891-8.752a23.089,23.089,0,0,0-.407-8.129v-.013c-.026-.153-.064-.305-.089-.458a.112.112,0,0,1-.013-.064c-.038-.178-.077-.343-.114-.5s-.077-.28-.1-.382c-.1-.5-.229-1-.356-1.565-.94-4.033-2.646-9.146-2.086-11.284a1.679,1.679,0,0,1,.179-.483,1.97,1.97,0,0,1,.814-.712,2.417,2.417,0,0,1,.318-.14c.178-.076.369-.153.56-.216.1-.038.2-.076.318-.115a15.681,15.681,0,0,1,1.845-.407,6.841,6.841,0,0,1,1.03-.191,17.777,17.777,0,0,0,2.71-.687,4.9,4.9,0,0,0,.445-.229,3.075,3.075,0,0,0,1.183-1.7,7.315,7.315,0,0,0,.318-2.15,2.411,2.411,0,0,0,0-.344l.229-.025,3.612-.369h.038l4.339-.445a.764.764,0,0,1-.013.115c-.025.127-.051.356-.089.636a14.652,14.652,0,0,0-.051,2.913,3.412,3.412,0,0,0,.2.776,3.06,3.06,0,0,0,1.717,1.094c.051.013.1.038.152.051a1,1,0,0,0,.179.064,54.848,54.848,0,0,1,5.215,1.794,1.736,1.736,0,0,1,.56.433C6151.8,1156.794,6149.865,1161.6,6149.433,1163.065Z" transform="translate(-6124.364 -1147.164)"/></g><g transform="translate(15.299 19.53)"><path class="h" d="M6224.573,1200.387a8.982,8.982,0,0,1-.2,2.112c-.2.522.458.954-2,2.01a15.073,15.073,0,0,1-4.032,1.463c-1.463.267-3.079.712-3.957.026s-.458-3.5-.458-3.5,2.431,2.748,5.368,1.819c2.468-.776,4.517-3.231,5.1-3.994A.994.994,0,0,0,6224.573,1200.387Z" transform="translate(-6213.826 -1200.324)"/></g><g transform="translate(0 19.873)"><path class="g" d="M6077.359,1243.486a7.423,7.423,0,0,1,1.17,2.659c.063.42-.268.814-.788,1.132a6.3,6.3,0,0,1-4.109.827.794.794,0,0,1-.471-.5,2.935,2.935,0,0,1-.146-1.091c0-.035-.008-.069-.007-.1a3.329,3.329,0,0,1,.014-.369c.012-.127.025-.254.038-.382a1.729,1.729,0,0,0,.013-.254,9.65,9.65,0,0,0-.064-1.73c0-.28-.992-2.557-2.085-5.572-.013-.013-.013-.025-.025-.038a42.633,42.633,0,0,1-2.684-10.927c-.14-2.76.483-4.9,1.476-10.571.114-.751.267-1.514.445-2.315.127-.649.292-1.323.458-2.01,1.959-7.938,7.938-8.561,8.917-8.651l.535,7.226s-.815,2.506-1.756,5.381c-.662,1.984-1.386,4.147-1.959,5.8-.293.852-.547,1.564-.738,2.048-.166.433-.305.84-.433,1.247a16.156,16.156,0,0,0-.42,6.552.155.155,0,0,0,.013.076c.127,1.31.318,3.168.573,4.949a7.615,7.615,0,0,0,.114.763c.166,1.018.344,1.972.535,2.786.076.318.152.623.241.89a1.171,1.171,0,0,0,.063.191c.039.127.089.242.127.343.013.026.013.051.039.076a2.188,2.188,0,0,0,.166.344C6076.851,1242.672,6077.1,1243.079,6077.359,1243.486Z" transform="translate(-6068.193 -1203.593)"/></g><g class="i" transform="translate(1.495 30.534)"><path class="j" d="M6091.025,1307.015c-.662,1.984-1.386,4.147-1.959,5.8-.674-2.837-4.859-4.758-6.64-5.432.114-.75.267-1.514.445-2.315.637.025,1.514.013,2.125.013.979,0,1.272-.1,3.969.8A6.122,6.122,0,0,1,6091.025,1307.015Z" transform="translate(-6082.426 -1305.069)"/></g><g transform="translate(23.388 21.705)"><path class="g" d="M6305.9,1240.264c-.216,3.384.14,6.284-2.086,5.508a17.653,17.653,0,0,1-1.845-.8c-.254-.115-.509-.255-.776-.381-.2-.1-.407-.216-.61-.331s-.408-.216-.611-.343c-.267-.14-.547-.305-.8-.471-.318-.191-.636-.382-.941-.585-.662-.432-1.285-.865-1.832-1.3-.14-.115-.28-.216-.407-.331-.292-.254-.56-.509-.788-.75-.319-.344-.573-.623-.789-.84l-.166-.165c-.114-.115-.2-.191-.292-.267a1.435,1.435,0,0,0-.178-.14.618.618,0,0,0-.14-.089,1.4,1.4,0,0,0-.191-.1c-.013,0-.039-.013-.051-.013h-.013a.679.679,0,0,0-.28-.051h-.013a2.531,2.531,0,0,0-.407.051h-.024c-.078.013-.153.025-.242.038-.764.1-1.3.1-1.5-.165a.461.461,0,0,1-.089-.306c.013-.56,1.2-7.022,2.251-6.144a5.2,5.2,0,0,1,.8.852c-.013.013,0,.013.013.025a2.746,2.746,0,0,0,1.3,1.158,33.711,33.711,0,0,0,3.244,1.463,2.747,2.747,0,0,0,.369.1c.789.14-3.09-11.449-3.141-11.627a43.683,43.683,0,0,1,3.332-3.231c.14,0,2.684,1.247,4.339,6.119a55.266,55.266,0,0,1,2.4,9.541v.038A19.151,19.151,0,0,1,6305.9,1240.264Z" transform="translate(-6290.827 -1221.03)"/></g><g transform="translate(2.862 52.681)"><path class="g" d="M6103.879,1529.053a3.557,3.557,0,0,1-.235-.993,5.575,5.575,0,0,0,.112-2.472,4.644,4.644,0,0,0-1.146-1.463,16.524,16.524,0,0,1-1.615-2.368c-.558-.929-1.019-3.393-1.358-5.864h-4.2c1.148,3.495,2.333,6.842,2.333,7.171,0,.275-.216,1.169-.325,2.094-.029.249-.05.5-.058.747a10.6,10.6,0,0,0,.309,1.963l.192,1.224c.535,2.079.876,2.665,1.166,2.576s.245-.445.134-.846.757,1.737,1.27,1.737.668-.371.089-1.734-.936-2.387-.757-2.231,1.448,3.319,1.959,3.43a.479.479,0,0,0,.557-.646c-.089-.245-.152-.642-.067-.512.194.295.758.089.557-.735a23.325,23.325,0,0,1-.668-3.367,1.8,1.8,0,0,0,.51-.366c.043-.055.061.483.065.518.053.387.107.62.143,1.012a2.318,2.318,0,0,0,.4,1.335C6103.623,1529.663,6104.025,1529.511,6103.879,1529.053Z" transform="translate(-6095.439 -1515.892)"/></g><g transform="translate(1.155 19.125)"><path class="k" d="M6115.349,1209.9c-.648.382-4.872,2.226-5.75,2.659s-.764.216-.98-.852c-.051-.318-.178,2.748-.293,5.317-.012.432-.038.84-.051,1.221-.038.954-.038,2.659-.038,4.541.025,3.435.051,7.442-.14,8.345-.127.573-.764.852-1.653.98a27.771,27.771,0,0,1-4.695-.038c-2.71-.127-14.438-.14-15.4,0s-.267-3.384-.077-5.025.8-8.472.725-9.617c-.063-.84-.063-1.679-.127-2.519,0-.089-.013-.178-.013-.28a5.845,5.845,0,0,0-.42-2.341,3.981,3.981,0,0,0-1.642-1.6c-1.564-.865-3.408-1-5.114-1.45-.521-.14-.839.407.153-2.748a33.9,33.9,0,0,1,3.842-7.2c1.094-1.679,7.518-2.531,8-2.811s1.882,4.808,5.5,4.936,5.61-3.066,6.373-4.2c.179-.254-.215-.852,3.168,0,5.394,1.361,7.047,6.03,7.811,8.141S6116,1209.527,6115.349,1209.9Z" transform="translate(-6079.186 -1196.464)"/></g><g class="i" transform="translate(18.131 34.401)"><path class="k" d="M6252.947,1347.161c-.012.432-.038.839-.05,1.221-.038.954-.038,2.659-.038,4.542-.561-.458-1.272-1.069-2.164-1.832-2.468-2.1-8.064-3.18-9.26-3.893s-.382-5.317-.382-5.317,8.218,2.7,10.164,3.816A6.816,6.816,0,0,1,6252.947,1347.161Z" transform="translate(-6240.783 -1341.882)"/></g><g transform="translate(17.689 24.973)"><path class="l" d="M6237.5,1252.476c.052-.018,4.372-.545,5.391-.248.633.184.716,1.776.716,1.776l-7.038-.064A1.642,1.642,0,0,1,6237.5,1252.476Z" transform="translate(-6236.574 -1252.137)"/><g transform="translate(0.006 0.603)"><path class="e" d="M6243.266,1271.085l-4.965.262a1.029,1.029,0,0,1-1.079-.971l-.589-11.159a1.013,1.013,0,0,1,.06-.4,1.029,1.029,0,0,1,.911-.677l4.964-.262a1.029,1.029,0,0,1,1.08.971l.59,11.159A1.03,1.03,0,0,1,6243.266,1271.085Z" transform="translate(-6236.631 -1257.874)"/></g><g transform="translate(3.122 5.138)"><circle class="m" cx="0.687" cy="0.687" r="0.687"/></g><g transform="translate(4.945 1.092)"><path class="m" d="M6284.491,1262.939l-.628.052a.2.2,0,0,1-.221-.187h0a.206.206,0,0,1,.188-.22l.627-.052a.2.2,0,0,1,.22.187h0A.205.205,0,0,1,6284.491,1262.939Z" transform="translate(-6283.641 -1262.531)"/></g></g><g transform="translate(17.569 30.342)"><path class="g" d="M6252.4,1318.546v.013c-.255-.127-.509-.254-.776-.394-.2-.1-.408-.216-.611-.331s-.407-.216-.611-.344c-.267-.14-.547-.305-.8-.471-.317-.191-.635-.382-.941-.585-.661-.432-1.285-.865-1.832-1.3-.14-.114-.28-.216-.407-.331-.292-.254-.56-.509-.789-.75-.318-.344-.572-.623-.788-.84a2.031,2.031,0,0,0-.166-.165c-.114-.115-.2-.191-.292-.267a1.383,1.383,0,0,0-.178-.14.631.631,0,0,0-.139-.089,1.485,1.485,0,0,0-.191-.1c-.013,0-.039-.013-.051-.013h-.014c-.025-.013-.05,0-.076,0a2.7,2.7,0,0,1-.343.013,2.288,2.288,0,0,1-.28-.013h-.025l-1.743-.127a19.7,19.7,0,0,1-3.739-.623c-.433-.267-.7-.89-1.019-1.119a.9.9,0,0,1-.28-1.043c.127-.382.025-.484-.2-.789s-.546-.534-.216-.865-.306-.509-.42-.878.114-1.056,1.081-.8a33.412,33.412,0,0,0,5.152.356c.941-.026.725.369.585-.674s-.013-2.684.42-2.633.254.56.458,1.336.61.827,1.018,1.807c.051.127.089.229.127.331-.012.013,0,.013.013.025a2.748,2.748,0,0,0,1.3,1.157,33.471,33.471,0,0,0,3.244,1.463c.025.025.025.051.038.076a17.286,17.286,0,0,1,2.812,6.093q.076.305.153.611C6252.064,1316.944,6252.23,1317.732,6252.4,1318.546Z" transform="translate(-6235.433 -1303.242)"/></g><g transform="translate(31.467 36.559)"><path class="n" d="M6367.9,1362.423a4.393,4.393,0,0,1,1.09.277c.326.117.637.243.95.334a3.407,3.407,0,0,0,1.839.219l.015,0a.165.165,0,0,1,.152.273,1.692,1.692,0,0,1-1.105.49,3.311,3.311,0,0,1-1.173-.146,5.459,5.459,0,0,1-1.011-.486,5.8,5.8,0,0,1-.823-.647l-.051-.05a.152.152,0,0,1,.117-.262Z" transform="translate(-6367.736 -1362.422)"/></g><g transform="translate(24.723 33.391)"><path class="n" d="M6303.612,1332.4a1.027,1.027,0,0,1,.4-.111,1.364,1.364,0,0,1,.382,0,1.074,1.074,0,0,1,.7.374.16.16,0,0,1-.211.232l-.017-.01a1.1,1.1,0,0,0-.528-.173c-.1-.006-.2-.025-.3-.022a1.822,1.822,0,0,1-.279,0l-.124-.04a.133.133,0,0,1-.086-.167A.135.135,0,0,1,6303.612,1332.4Z" transform="translate(-6303.537 -1332.27)"/></g><g transform="translate(18.407 34.869)"><path class="n" d="M6243.5,1346.34c1.531.132,3.018.328,4.544.405a.084.084,0,0,1,.079.087.085.085,0,0,1-.065.077,7.709,7.709,0,0,1-2.327.1,9.19,9.19,0,0,1-2.268-.506.081.081,0,0,1-.047-.107A.083.083,0,0,1,6243.5,1346.34Z" transform="translate(-6243.409 -1346.34)"/></g><g transform="translate(18.598 36.318)"><path class="n" d="M6245.336,1360.134c.592.047,1.166.154,1.741.245l.855.148a7.426,7.426,0,0,0,.844.118h.01a.1.1,0,0,1,.021.188,4.189,4.189,0,0,1-1.807-.021,8.66,8.66,0,0,1-1.71-.493.1.1,0,0,1,.046-.185Z" transform="translate(-6245.231 -1360.133)"/></g><g transform="translate(19.291 37.912)"><path class="n" d="M6251.917,1375.312a10.894,10.894,0,0,1,1.589.114l.778.107a3.2,3.2,0,0,0,.731.048l.04-.007a.081.081,0,0,1,.056.15,1.66,1.66,0,0,1-.846.183,6.524,6.524,0,0,1-.812-.043,6.168,6.168,0,0,1-1.568-.382.088.088,0,0,1-.046-.115A.09.09,0,0,1,6251.917,1375.312Z" transform="translate(-6251.831 -1375.309)"/></g><g transform="translate(8.311 64.336)"><path class="n" d="M6147.464,1626.913l.268.772c.1.258.167.521.27.773a14.929,14.929,0,0,0,.625,1.5.08.08,0,0,1-.034.108.085.085,0,0,1-.089-.01,3.388,3.388,0,0,1-.906-1.455,5.045,5.045,0,0,1-.291-1.689.077.077,0,0,1,.079-.075.075.075,0,0,1,.07.051Z" transform="translate(-6147.306 -1626.838)"/></g><g transform="translate(5.783 64.635)"><path class="n" d="M6123.412,1629.735a9.006,9.006,0,0,1,.631,2.628v.01a.079.079,0,0,1-.14.059,3.4,3.4,0,0,1-.535-1.294,4.874,4.874,0,0,1-.11-1.377.08.08,0,0,1,.086-.074A.083.083,0,0,1,6123.412,1629.735Z" transform="translate(-6123.244 -1629.687)"/></g><g transform="translate(10.762 65.315)"><path class="o" d="M6170.969,1636.155s-.381.011-.325.2.318.732.48.649S6171.047,1636.147,6170.969,1636.155Z" transform="translate(-6170.638 -1636.155)"/></g><g transform="translate(12.925)"><g class="i" transform="translate(2.487 14.696)"><path class="j" d="M6223.285,1157.222c-1.615.865-3.55,1.743-4.809,1.692-1.667-.076-2.519-1.31-3.574-2.023a7.331,7.331,0,0,0,.318-2.15,3.7,3.7,0,0,1-.268-.356l.5-.013,7.683-.064h.2A14.616,14.616,0,0,0,6223.285,1157.222Z" transform="translate(-6214.902 -1154.309)"/></g><g transform="translate(1.749 3.285)"><path class="g" d="M6217.6,1052.073a2.769,2.769,0,0,1,0,.331c.013.432.013.89-.012,1.361v.064c-.013.191-.025.369-.039.547a8.4,8.4,0,0,1-.407,2.086,3.625,3.625,0,0,1-.293.636,2.157,2.157,0,0,1-.279.369c-.421.445-.776.814-1.094,1.132l-.013.013a4.611,4.611,0,0,1-2.06,1.361,3.054,3.054,0,0,1-3.206-1.081c-.064-.064-.115-.14-.179-.191,0-.013,0-.013-.012-.025-.089-.1-.179-.191-.268-.28a.013.013,0,0,0-.013-.013c-.292-.305-.56-.56-.789-.852a3.825,3.825,0,0,1-.268-.356,4.472,4.472,0,0,1-.585-2.239c0-.114-.012-.242-.025-.369-.026-.547-.064-1.208-.1-1.908v-.013c0-.064-.013-.127-.013-.2a1.164,1.164,0,0,0-.013-.2c-.1-2.2-.114-4.63.585-5.177a2.48,2.48,0,0,1,.382-.242c.127-.064.279-.14.445-.2a7.481,7.481,0,0,1,.764-.28q.286-.1.61-.191a9.968,9.968,0,0,1,3.8-.394c.05.013.089.013.127.026a.525.525,0,0,1,.127.051.373.373,0,0,1,.127.038,2.323,2.323,0,0,1,.344.191,3.062,3.062,0,0,1,.331.229,2.148,2.148,0,0,1,.3.28l.178.178c.077.089.153.178.216.267.127.166.242.331.356.509a2.581,2.581,0,0,1,.178.318,5.114,5.114,0,0,1,.547,1.425c0,.013.012.026.012.038a4.928,4.928,0,0,1,.076.6s.026.191.051.5a.35.35,0,0,0,.013.114v.039c.025.241.051.56.063.916.013.153.013.306.013.458A.645.645,0,0,1,6217.6,1052.073Z" transform="translate(-6207.878 -1045.688)"/></g><g class="i" transform="translate(0.9 2.717)"><path class="p" d="M6210.212,1046.829c-.066-.164-1.648-4.072-2.554-4.182a4.729,4.729,0,0,0-2.392.532c-.661.275-2.642.716-2.936.5s.928-.9.316-.734-1.141.33-1.179,1.339.021,1.3-.353,1.882a3.983,3.983,0,0,0-.28,1.87,9.671,9.671,0,0,1-.941-2.913,4.72,4.72,0,0,1,.273-2.983c.329-.754-.221-.577.778-.968s1.015-.873,2.6-.891a13.877,13.877,0,0,1,2.662.331c1.118.1,1.566.013,2.14.623s.335.46,1.2,1.453S6210.212,1046.829,6210.212,1046.829Z" transform="translate(-6199.792 -1040.275)"/></g><path class="q" d="M6201.19,1016.846c.211.4-1.169,2.129-4.086,2.342s-4.279-1.293-5.358-.191c-1.3,1.331.037-3.078,1.891-3.961S6199.563,1013.8,6201.19,1016.846Z" transform="translate(-6191.226 -1014.415)"/><g transform="translate(8.374 2.273)"><path class="q" d="M6272.011,1036.054a3.861,3.861,0,0,1,2.542,1.633c.838,1.391.149,4.968.149,4.968a8.611,8.611,0,0,1-.968.879c-.078-.02-.174-2.869-.956-3.972a8.616,8.616,0,0,0-1.835-1.917C6270.884,1037.645,6272.011,1036.054,6272.011,1036.054Z" transform="translate(-6270.94 -1036.054)"/></g><g transform="translate(0.32 3.642)"><path class="q" d="M6194.724,1049.085a4.362,4.362,0,0,0-.347,3.116c.372,2.082.637,2.912.617,2.93s.9.4.9.4-.278-2.223.1-2.7-.093-1.675.2-1.943,1.391-.7,1.509-.953S6194.724,1049.085,6194.724,1049.085Z" transform="translate(-6194.271 -1049.085)"/></g><g transform="translate(9.117 0.142)"><path class="q" d="M6278.876,1018.766a2.406,2.406,0,0,0-.467-2.563c-1.032-1.219.32.357-.068,1.693S6278.876,1018.766,6278.876,1018.766Z" transform="translate(-6278.012 -1015.765)"/></g><g transform="translate(9.633 2.154)"><path class="q" d="M6282.924,1035.04s.7-.438,1.7.357-.505-.292-.927.109S6282.924,1035.04,6282.924,1035.04Z" transform="translate(-6282.924 -1034.92)"/></g><g transform="translate(3.621 3.886)"><path class="q" d="M6229.072,1051.786a5.476,5.476,0,0,1-2.924,1.254c-1.369-.041.771.016,1.137-1.093S6229.072,1051.786,6229.072,1051.786Z" transform="translate(-6225.696 -1051.409)"/></g><g transform="translate(6.865 7.412)"><path class="q" d="M6259.882,1085.868a2.453,2.453,0,0,0-1.424-.832c-1.1-.195-1.806.089-1.88.4s1.154.2,1.558.234S6260.206,1086.23,6259.882,1085.868Z" transform="translate(-6256.575 -1084.972)"/></g><g transform="translate(2.053 7.651)"><path class="q" d="M6210.813,1088.114a2.454,2.454,0,0,1,1.434-.814c1.1-.181,1.8.113,1.875.424s-1.156.188-1.561.214S6210.484,1088.472,6210.813,1088.114Z" transform="translate(-6210.771 -1087.245)"/></g><g transform="translate(2.818 8.668)"><path class="r" d="M6220.239,1097.359a2.051,2.051,0,0,0-.507-.346,1.333,1.333,0,0,0-.66-.073,1.4,1.4,0,0,0-1.022.7,2.915,2.915,0,0,1,1.06-.295,2.021,2.021,0,0,1,.5.048,3.535,3.535,0,0,0,.579.1.074.074,0,0,0,.074-.074A.076.076,0,0,0,6220.239,1097.359Z" transform="translate(-6218.051 -1096.923)"/></g><g transform="translate(7.311 8.519)"><path class="r" d="M6260.851,1095.93a2.081,2.081,0,0,1,.511-.34,1.336,1.336,0,0,1,.66-.064,1.4,1.4,0,0,1,1.014.712,2.925,2.925,0,0,0-1.056-.308,2.015,2.015,0,0,0-.5.042,3.562,3.562,0,0,1-.581.089.074.074,0,0,1-.073-.075A.077.077,0,0,1,6260.851,1095.93Z" transform="translate(-6260.825 -1095.507)"/></g><g transform="translate(5.677 8.082)"><path class="s" d="M6246.026,1091.488a.647.647,0,0,1,.114.418c.046.757.05,1.517.029,2.275a.554.554,0,0,1-.166.463.38.38,0,0,1-.5-.146,1.1,1.1,0,0,1-.133-.556q-.051-.859-.1-1.717a1.47,1.47,0,0,1,.032-.521.42.42,0,0,1,.725-.215Z" transform="translate(-6245.262 -1091.346)"/></g><g transform="translate(4.506 10.783)"><path class="s" d="M6234.185,1117.121a.078.078,0,0,1,.15.038,1.109,1.109,0,0,0,0,.485c.028.07.043.079.09.08l.275-.012a.608.608,0,0,1,.594.241.591.591,0,0,0,.447.358.544.544,0,0,0,.507-.358.607.607,0,0,1,.594-.24l.275.012c.046,0,.063-.01.089-.08a1.116,1.116,0,0,0,0-.492.076.076,0,0,1,.058-.086.078.078,0,0,1,.094.055,1.251,1.251,0,0,1,.053.577.3.3,0,0,1-.291.241l-.273,0c-.176,0-.342.03-.374.124a.813.813,0,0,1-.429.455.755.755,0,0,1-.964-.455c-.033-.093-.2-.124-.374-.124l-.273,0a.3.3,0,0,1-.291-.241A1.257,1.257,0,0,1,6234.185,1117.121Z" transform="translate(-6234.117 -1117.064)"/></g><g transform="translate(3.929 13.214)"><path class="e" d="M6233.068,1140.217c.025.038.011.106-.066.219a2.4,2.4,0,0,1-2.453.9,3.789,3.789,0,0,1-1.321-.494,1.883,1.883,0,0,1-.55-.409c-.165-.237.1-.223.287-.222.609.006,1.213.115,1.821.131C6231.308,1140.362,6233.012,1140.131,6233.068,1140.217Z" transform="translate(-6228.626 -1140.198)"/></g><g transform="translate(11.098 8.539)"><path class="g" d="M6296.869,1096.736s.72-1.285,1.083-.994.3,1.157-.012,1.829-.162,1.789-.424,1.864-.564-.852-.564-.852Z" transform="translate(-6296.869 -1095.699)"/></g><g transform="translate(0.533 9.082)"><path class="g" d="M6197.777,1101.875s-.971-1.281-1.3-.952-.172,1.183.212,1.816.358,1.761.626,1.807.468-.909.468-.909Z" transform="translate(-6196.297 -1100.869)"/></g><g transform="translate(3.592 15.98)"><path class="h" d="M6231.168,1166.746a8.221,8.221,0,0,1-1.431.865,3.67,3.67,0,0,1-1.545.4,2.73,2.73,0,0,1-1.5-.408c-.476-.247-.731-.82-1.266-1.072.251.134.339.428.5.66a2.985,2.985,0,0,0,.587.655,2.828,2.828,0,0,0,1.685.554A4.17,4.17,0,0,0,6231.168,1166.746Z" transform="translate(-6225.423 -1166.527)"/></g><g transform="translate(0.533 0.776)"><path class="t" d="M6205.288,1023.794a6.186,6.186,0,0,0-4.826-1.975,4.6,4.6,0,0,0-2.477,1.047,6.874,6.874,0,0,0-.951.942c-.268.356-.492.74-.736,1.1a9.646,9.646,0,0,1,1.867-1.8,4.524,4.524,0,0,1,2.336-.9,5.464,5.464,0,0,1,2.5.352A9.291,9.291,0,0,1,6205.288,1023.794Z" transform="translate(-6196.298 -1021.801)"/><g transform="translate(9.452 2.267)"><path class="t" d="M6286.277,1043.382a2.731,2.731,0,0,1,.971.978,4.753,4.753,0,0,1,.558,1.253,17.822,17.822,0,0,1,.567,2.765,7.37,7.37,0,0,0,.065-1.446,6.716,6.716,0,0,0-.262-1.438,4.2,4.2,0,0,0-.686-1.309A2.142,2.142,0,0,0,6286.277,1043.382Z" transform="translate(-6286.277 -1043.382)"/></g><g transform="translate(8.918 3.11)"><path class="t" d="M6281.192,1051.408a4.382,4.382,0,0,1,.829.882,4.635,4.635,0,0,1,.569,1.031,8.9,8.9,0,0,1,.534,2.35,4.3,4.3,0,0,0,.105-1.252,4.534,4.534,0,0,0-.279-1.246A3.1,3.1,0,0,0,6281.192,1051.408Z" transform="translate(-6281.192 -1051.408)"/></g><g transform="translate(2.043 2.267)"><path class="t" d="M6221.94,1043.382a2.672,2.672,0,0,1-1.38.751,5.835,5.835,0,0,1-1.58.081c-1.073-.053-2.134-.293-3.23-.441a10.628,10.628,0,0,0,1.563.55,10.174,10.174,0,0,0,1.645.281,5.126,5.126,0,0,0,1.682-.182,2.521,2.521,0,0,0,.763-.4A3.85,3.85,0,0,0,6221.94,1043.382Z" transform="translate(-6215.75 -1043.382)"/></g><g transform="translate(2.252 1.462)"><path class="t" d="M6222.717,1036.131a8.6,8.6,0,0,0-2.512-.415,4.051,4.051,0,0,0-2.469.6,4.2,4.2,0,0,1,1.225-.2c.411-.016.823-.036,1.239-.012C6221.032,1036.1,6221.862,1036.163,6222.717,1036.131Z" transform="translate(-6217.736 -1035.716)"/></g><g transform="translate(0.358 3.415)"><path class="t" d="M6200.563,1054.311a2.3,2.3,0,0,0-.83,1.581,3.339,3.339,0,0,0,.216,1.779c.065-.6.064-1.164.169-1.723a6.069,6.069,0,0,1,.153-.831A3.022,3.022,0,0,1,6200.563,1054.311Z" transform="translate(-6199.702 -1054.311)"/></g></g><g transform="translate(0.939 9.606)"><path class="s" d="M6200.753,1108.075a.112.112,0,0,0,.038-.006.117.117,0,0,0,.074-.148,17.362,17.362,0,0,1-.455-1.709.9.9,0,0,1-.013-.094,2.3,2.3,0,0,1,.391.408.119.119,0,0,0,.165.021.117.117,0,0,0,.021-.164c-.475-.612-.646-.539-.7-.513-.153.07-.111.3-.1.385a17.345,17.345,0,0,0,.463,1.739A.117.117,0,0,0,6200.753,1108.075Z" transform="translate(-6200.162 -1105.852)"/></g><g transform="translate(11.321 9.298)"><path class="s" d="M6299.233,1105.147a.1.1,0,0,1-.036-.006.116.116,0,0,1-.074-.148,17.5,17.5,0,0,0,.453-1.709c.008-.041.012-.072.014-.094a2.3,2.3,0,0,0-.392.408.119.119,0,0,1-.165.021.117.117,0,0,1-.021-.164c.476-.612.646-.539.7-.513.153.07.111.3.1.385a17.488,17.488,0,0,1-.463,1.739A.118.118,0,0,1,6299.233,1105.147Z" transform="translate(-6298.988 -1102.925)"/></g><g class="i" transform="translate(5.475 14.87)"><path class="j" d="M6244.567,1156.266c.078-.429-1.247-.373-1.229,0S6244.4,1157.182,6244.567,1156.266Z" transform="translate(-6243.338 -1155.965)"/></g></g><g class="i" transform="translate(0.167 41.462)"><path class="j" d="M6070.029,1409.42s-.726,2.426.3,3.126S6070.483,1407.738,6070.029,1409.42Z" transform="translate(-6069.78 -1409.099)"/></g><g transform="translate(3.539 41.576)"><path class="n" d="M6104.892,1416.729a.161.161,0,0,0,.013.076c-.305-1.17-.636-2.557-.763-3.231-.268-1.348-1.5-.841-2-.878-.666-.049.028-.184,1.262-.464.6-.14,1.295-.973,1.905-2.055A16.147,16.147,0,0,0,6104.892,1416.729Z" transform="translate(-6101.886 -1410.178)"/></g><g transform="translate(2.729 54.385)"><path class="n" d="M6096.347,1539.394c0,.013-.013.013-.025.025a9.732,9.732,0,0,0-.063-1.73c0-.28-.993-2.557-2.086-5.572.585,1.081,1.208,2.188,1.717,3.028a10.706,10.706,0,0,0,.98,1.463c.8.763.928.483,1.158.763C6098.2,1537.575,6097.034,1538.669,6096.347,1539.394Z" transform="translate(-6094.172 -1532.118)"/></g><g transform="translate(27.474 28.7)"><path class="u" d="M6329.972,1287.639a5.084,5.084,0,0,1,1.191,1.031,7.874,7.874,0,0,1,.889,1.321,6.414,6.414,0,0,1,.778,3.115.174.174,0,0,1-.176.172.169.169,0,0,1-.147-.1l0-.009c-.206-.476-.368-.943-.582-1.39s-.4-.9-.659-1.314c-.235-.428-.47-.86-.737-1.274l-.775-1.288,0-.008a.184.184,0,0,1,.052-.248A.162.162,0,0,1,6329.972,1287.639Z" transform="translate(-6329.719 -1287.617)"/></g><g class="i" transform="translate(7.814 29.109)"><path class="k" d="M6163.173,1317.165a27.752,27.752,0,0,1-4.694-.038c-2.709-.127-14.438-.14-15.405,0s-.267-3.384-.076-5.025.8-8.472.725-9.617c-.063-.84-.063-1.679-.127-2.519,0-.089-.013-.178-.013-.28l.471-2.417,2.557-5.763s-2.429,19.908-2.429,21.88-1.883,2.862,3.32,2.7A151.484,151.484,0,0,1,6163.173,1317.165Z" transform="translate(-6142.574 -1291.507)"/></g><g transform="translate(8.909 28.572)"><path class="u" d="M6153,1292.956a20.7,20.7,0,0,1,1.228-3.395,10.314,10.314,0,0,1,1.988-3.088.276.276,0,0,1,.408.369l-.01.013a9.69,9.69,0,0,0-.875,1.467c-.257.522-.525,1.044-.756,1.585-.5,1.067-.948,2.164-1.462,3.232a.277.277,0,0,1-.368.136A.282.282,0,0,1,6153,1292.956Z" transform="translate(-6152.998 -1286.397)"/></g><g transform="translate(25.525 37.107)"><path class="n" d="M6324.108,1371.478c-.217,3.384.14,6.284-2.087,5.508a17.675,17.675,0,0,1-1.845-.8v.013c-.254-.127-.509-.254-.776-.394-.2-.1-.406-.216-.61-.331s-.407-.216-.61-.344c-.267-.14-.547-.305-.8-.471-.318-.191-.636-.382-.942-.585-.661-.432-1.284-.865-1.831-1.3-.14-.115-.279-.216-.408-.331-.291-.254-.559-.509-.787-.75-.319-.344-.573-.623-.789-.84l-.166-.165c-.115-.114-.2-.191-.292-.267a1.466,1.466,0,0,0-.179-.14.618.618,0,0,0-.14-.089,1.356,1.356,0,0,0-.191-.1c-.012,0-.038-.013-.051-.013h-.012c-.026-.013-.052,0-.077,0a2.663,2.663,0,0,1-.343.013.405.405,0,0,0,.127-.064h.013a1.07,1.07,0,0,0,.471-.445c.559-1.043.712-2,.852-1.934s-.712,2.125,0,2.646a70.412,70.412,0,0,0,7.01,3.485c1.794.764,3.271,1.247,3.46.878.445-.9.8-6.208.84-6.717A19.2,19.2,0,0,1,6324.108,1371.478Z" transform="translate(-6311.171 -1367.646)"/></g><g transform="translate(26.779 20.682)"><path class="v" d="M6323.5,1211.292a5.617,5.617,0,0,1,1.784.406,10.619,10.619,0,0,1,6.815,6.509c.1.276.172.63-.045.828a.53.53,0,0,1-.592.033,1.515,1.515,0,0,1-.451-.435c-.868-1.115-1.677-2.279-2.628-3.324a9.528,9.528,0,0,0-3.371-2.51,9.688,9.688,0,0,1-1.2-.5c-.366-.21-1.169-.917-.359-1Z" transform="translate(-6323.104 -1211.289)"/></g></g></g></g><g transform="translate(2.101 51.381)"><path class="w" d="M5981.483,1527.829c-10.853-.52-19.1-12.37-18.428-26.469s10.021-25.107,20.872-24.587c7.8.374,14.247,6.612,17.008,15.326a4.639,4.639,0,0,0,1.882,2.535l10.119,8.357a.873.873,0,0,1-.073,1.512l-10.871,7.352a4.636,4.636,0,0,0-2.115,2.344C5996.3,1522.608,5989.285,1528.2,5981.483,1527.829Z" transform="translate(-5963.017 -1476.755)"/><path class="b" d="M5981.483,1527.829c-10.853-.52-19.1-12.37-18.428-26.469s10.021-25.107,20.872-24.587c7.8.374,14.247,6.612,17.008,15.326a4.639,4.639,0,0,0,1.882,2.535l10.119,8.357a.873.873,0,0,1-.073,1.512l-10.871,7.352a4.636,4.636,0,0,0-2.115,2.344C5996.3,1522.608,5989.285,1528.2,5981.483,1527.829Z" transform="translate(-5963.017 -1476.755)"/><g class="x"><g transform="translate(0.187 3.1)"><path class="q" d="M6028.416,1511.762c-2.966-.807-6,.578-8.187,2.461a13.72,13.72,0,0,0-4.647,7.368,20.628,20.628,0,0,0-.139,8.763,19.049,19.049,0,0,0,3.435,8.041l.2-.163a20.074,20.074,0,0,1-3.206-7.957,21.535,21.535,0,0,1,.139-8.577,13.3,13.3,0,0,1,4.467-7.18,12.355,12.355,0,0,1,3.66-2.217,7.179,7.179,0,0,1,4.195-.3Z" transform="translate(-6009.762 -1510.975)"/><path class="q" d="M6029.06,1519.87c-.038-.041.016-.123.018-.112l-.082.049-.168.1-.34.207c-.228.14-.449.289-.666.444a14.427,14.427,0,0,0-1.25,1,13,13,0,0,0-2.053,2.424,13.456,13.456,0,0,0-2.114,5.888,33.375,33.375,0,0,0-.033,6.2,15.962,15.962,0,0,0,1.585,6.03.22.22,0,0,0,.292.087.206.206,0,0,0,.1-.271l-.018-.037a17.356,17.356,0,0,1-1.264-5.863,37.866,37.866,0,0,1,.072-6.066,12.8,12.8,0,0,1,1.924-5.641,13.148,13.148,0,0,1,1.916-2.351,13.734,13.734,0,0,1,1.154-1.009c.2-.158.409-.31.622-.455l.322-.216.166-.109.084-.055a.435.435,0,0,0,.171-.234.218.218,0,0,0-.436-.007Z" transform="translate(-6016.21 -1518.255)"/><path class="q" d="M6040.419,1511.337s-4.82.886-6.73,7.342-.623,15.837,2.626,16.484,6.17-2.334,6.032-2.526-4.176-9.516-4.176-9.516Z" transform="translate(-6025.654 -1510.804)"/><path class="y" d="M5978.194,1738.438s-7.394,9.327-9.4,11.381-3.6,1.454-3.9-1.1a79.12,79.12,0,0,1,.7-13.743c.537-3.206,2.818-8.473,4.866-8.959s4.993,3.525,4.993,3.525-3.312,7.647-3.608,8.781,5.033-3.38,5.033-3.38Z" transform="translate(-5964.802 -1702.892)"/><path class="q" d="M6136.875,1515.194c2.636.694,4.556,3.006,5.756,5.456s1.869,5.153,3.073,7.611a10.467,10.467,0,0,0,5.1,5.241,33.889,33.889,0,0,1,6.363,3.787,28.634,28.634,0,0,1,5.165,4.606c2.928,3.424,4.765,8.079,3.772,12.473a11.807,11.807,0,0,1-4.926,7.072,9.353,9.353,0,0,1-7.159,1.6c-3.615-.827-6.005-4.155-8.139-7.187-4.275-6.075-9.025-12.274-10.058-19.63C6134.842,1529.251,6137.372,1522.205,6136.875,1515.194Z" transform="translate(-6117.651 -1514.256)"/><path class="y" d="M5993.25,1653.975c2.75-.314,4.923-.648,5.624-1.165.572-.443.7-1.759.789-3.494a11.011,11.011,0,0,0,0-1.107c-.056-.885-.074-1.439-.093-1.771l-.037-.554,7.38.018s-.018.24-.018.609a18.84,18.84,0,0,0,.165,2.694c.148,1.125.462,2.14,1.089,2.288,1.477.332,6.711.99,7.984,2.521,1.292,1.531,2.957,3.705,3.788,9.222a73.951,73.951,0,0,1,1.1,8.53l-5.476-.539c-.571-2.354-1.569-6.316-1.583-6.948,0-.885-6.162-5.719-6.162-5.719l-9.724-2.03s-9.487,4.1-9.265,3.159C5989.031,1658.767,5990.5,1654.289,5993.25,1653.975Z" transform="translate(-5986.285 -1631.218)"/><path class="y" d="M6135.906,1815.73a4.8,4.8,0,0,1,1.292,2.731c.442,1.845,2.749,3.229,4.3,4.557.058.049.11.092.166.14h-8.032a4,4,0,0,1-1.32-1.007C6131.349,1820.951,6135.243,1814.881,6135.906,1815.73Z" transform="translate(-6114.576 -1783.148)"/><path class="z" d="M5970.884,1711.665c.137.154,2.257-.531,3.489-.051,1.25.479,3.4,1.865,3.131,2.635a3.727,3.727,0,0,0-.154,2.583c.136.479.461,1.026.769,1.813a10.152,10.152,0,0,1,.65,4.243c-.017.547-.069,1.146-.155,1.813-.478,3.4-1.59,6.877-1.231,7.613.376.753,5.885.855,11,1.078,5.1.205,10.761.89,10.436-.787-.206-1.043-1.061-2.823-1.761-4.773v-.017a16.282,16.282,0,0,1-.907-3.575,10.126,10.126,0,0,1,.222-3.216,2.737,2.737,0,0,1,.085-.359c.393-1.848,1.1-3.49,1.231-4.636.257-1.848.239-2.429.308-3.216.018-.12.035-.257.051-.376.154-.719.667-1.4,2.532-1.454,2.206-.068,3.627,1.488,3.541.65-.188-1.745-2.259-7.869-4.089-9.375a12.9,12.9,0,0,0-7.493-2.292c-.306.034-.445.393-.581.667a4.457,4.457,0,0,1-4.67,2.361c-3.763-.359-3.729-2.019-4.294-2.019a24.943,24.943,0,0,0-3.4.359,16.4,16.4,0,0,0-3.4.77,6.082,6.082,0,0,0-2.275,1.848,11.045,11.045,0,0,0-2.292,4.277c-.206.753-.343,1.523-.531,2.292C5971.038,1710.724,5970.712,1711.459,5970.884,1711.665Z" transform="translate(-5970.201 -1679.598)"/><path class="aa" d="M6091.272,1650.987c.018.332.037.886.092,1.771a10.729,10.729,0,0,1,0,1.107,9.966,9.966,0,0,0,3.856,2.011c1.144.111,2.6-1.162,3.542-2.122a18.93,18.93,0,0,1-.166-2.693C6096.567,1651.006,6092.877,1650.932,6091.272,1650.987Z" transform="translate(-6077.986 -1635.766)"/><path class="y" d="M6074.866,1542.737c-.051,2.335.348,4.777,1.843,5.892,1.4,1.045,2.265,2.516,3.7,2.548,1.723.038,2.687-1.39,4.389-3.122,1.137-1.157,1.483-3.113,1.527-5.063.095-4.278-2.395-7.8-5.559-7.874S6074.961,1538.459,6074.866,1542.737Z" transform="translate(-6063.3 -1532.086)"/><path class="aa" d="M6079.221,1535.345a6.135,6.135,0,0,1-1.527-2.037c-.384-1.047-2.23-2.371-3.423-3.283s-.948-1.5-1.005-1.411a18.845,18.845,0,0,1-3.53,2.587c-1.281.582-2.307,5.361-2.076,7.291s-1.55-5.811-1.246-6.661a14.013,14.013,0,0,1,3.783-3.716c.688-.282,3.81-1.064,3.81-1.064a5.839,5.839,0,0,1,1.221-.651c.152.043,6.034,7.835,6.034,7.835Z" transform="translate(-6055.708 -1524.283)"/><g transform="translate(0.636 20.351)"><g class="ab"><g transform="translate(0.977 1.422)"><circle class="e" cx="1.483" cy="1.483" r="1.483" transform="translate(20.356 1.187) rotate(-13.282)"/><circle class="e" cx="1.483" cy="1.483" r="1.483" transform="translate(24.95 7.552) rotate(-9.217)"/><circle class="e" cx="1.483" cy="1.483" r="1.483" transform="translate(28.681 2.804)"/><circle class="e" cx="1.483" cy="1.483" r="1.483" transform="translate(12.779)"/><circle class="e" cx="1.483" cy="1.483" r="1.483" transform="translate(20.519 31.647) rotate(-67.5)"/><circle class="e" cx="1.483" cy="1.483" r="1.483" transform="translate(3.518 2.974) rotate(-73.36)"/><circle class="e" cx="1.483" cy="1.483" r="1.483" transform="matrix(0.237, -0.971, 0.971, 0.237, 2.898, 12.68)"/><circle class="e" cx="1.483" cy="1.483" r="1.483" transform="translate(7.935 25.217) rotate(-61.181)"/><circle class="e" cx="1.483" cy="1.483" r="1.483" transform="translate(6.374 31.245) rotate(-40.657)"/><circle class="e" cx="1.483" cy="1.483" r="1.483" transform="translate(15.196 21.422) rotate(-76.285)"/><circle class="e" cx="1.483" cy="1.483" r="1.483" transform="translate(22.524 18.897) rotate(-83.992)"/><circle class="e" cx="1.483" cy="1.483" r="1.483" transform="translate(9.1 5.856) rotate(-17.47)"/><circle class="e" cx="1.483" cy="1.483" r="1.483" transform="translate(15.17 28.612) rotate(-82.127)"/><circle class="e" cx="1.483" cy="1.483" r="1.483" transform="translate(9.1 16.361) rotate(-17.47)"/><circle class="e" cx="1.483" cy="1.483" r="1.483" transform="translate(20.967 26.296) rotate(-61.181)"/><circle class="e" cx="1.483" cy="1.483" r="1.483" transform="translate(17.57 9.702)"/><circle class="e" cx="1.483" cy="1.483" r="1.483" transform="translate(0 7.628) rotate(-67.5)"/></g></g></g><path class="q" d="M6066.039,1508.1c-.007.2-.517,1.815-3.683,3.316s-3.662,3-3.962,5.365.721,4.9.514,4.686-3.2-3.9-2.478-7.74,2.49-5.961,4.217-6.631S6066.139,1505.22,6066.039,1508.1Z" transform="translate(-6046.704 -1506.266)"/><path class="y" d="M6081.977,1786.234s-1.976.264-2.347,1.329,2.531.37,2.531.37Z" transform="translate(-6067.538 -1756.823)"/><g transform="translate(12.571 22.8)"><rect class="e" width="8.142" height="9.939" rx="4.071" transform="translate(8.255 9.938) rotate(179.347)"/><path class="l" d="M6086.088,1724.1a.627.627,0,0,1,.416-.172l6.968-.08a.663.663,0,0,1,.433.162,1.2,1.2,0,0,0-1.064-.628l-5.7.065A1.2,1.2,0,0,0,6086.088,1724.1Z" transform="translate(-6085.917 -1723.374)"/><g transform="translate(3.212 5.212)"><circle class="m" cx="1.105" cy="1.105" r="1.105"/></g><g transform="translate(0.789 1.174)"><path class="m" d="M6092.305,1735.141h1.013a.33.33,0,0,0,.329-.329h0a.33.33,0,0,0-.329-.328h-1.013a.33.33,0,0,0-.329.328h0A.33.33,0,0,0,6092.305,1735.141Z" transform="translate(-6091.976 -1734.484)"/></g></g><path class="ac" d="M6040.188,1841.23a10.162,10.162,0,0,1,.65,4.243c.975-1.334,2.36-3.182,3.489-4.448,1.984-2.207,1.865-1.181,3.2-.616a15.169,15.169,0,0,1,4.96,3.353c1.284,1.318,4.6,4.636,6.638,6.638a16.422,16.422,0,0,1-.906-3.575,10.126,10.126,0,0,1,.223-3.216l-4.055-3.935s-7.7-2.754-8.623-2.754-2,1.112-2.6,1.677C6042.771,1838.972,6041.283,1840.2,6040.188,1841.23Z" transform="translate(-6032.269 -1802.183)"/><path class="y" d="M6158.966,1787.725c0-.066.331-1.969-.209-2.824a8.837,8.837,0,0,1-1.243-2.547c-.118-.683-.416-1.562-.74-.9a5.178,5.178,0,0,0-.1,2.836,3.593,3.593,0,0,0,.675,1.153Z" transform="translate(-6136.384 -1752.337)"/><path class="y" d="M6101.233,1809.111c-.018.629.053,1.136.3,1.328a12.931,12.931,0,0,0,2.2,1.258,9.907,9.907,0,0,0,2.988,1.048h.017c.891,0,1.957-4.4,2.219-5.573a2.436,2.436,0,0,0,.07-.28c-.017-.035-.14-.07-.332-.14-.245-.087-.611-.21-1.048-.384-.3-.087-.629-.21-.979-.35-.018,0-.035-.017-.053-.017a.017.017,0,0,0-.017-.017,10.859,10.859,0,0,0-1.52-.4c-1.328-.28-2.865-.4-3.092-.052A12.221,12.221,0,0,0,6101.233,1809.111Z" transform="translate(-6086.898 -1773.9)"/><path class="ac" d="M6202.279,1787.246c-.616.975.206,1.831.821,2.224.394-1.848,1.095-3.49,1.231-4.636.257-1.848.24-2.429.309-3.216.017-.12.034-.257.052-.376l-.53-1.146-2.43-3.267S6203.2,1785.758,6202.279,1787.246Z" transform="translate(-6176.841 -1748.405)"/><path class="y" d="M5967.582,1817.523a31.755,31.755,0,0,0,3.782-2.511,5.574,5.574,0,0,0,.925-.948c-.108.29-.187.519-.222.653-.3,1.135,5.033-3.38,5.033-3.38l1.321,3.5s-7.395,9.327-9.4,11.381-3.6,1.454-3.9-1.1a47.339,47.339,0,0,1,.228-7.159A2.923,2.923,0,0,0,5967.582,1817.523Z" transform="translate(-5965.028 -1779.288)"/><path class="aa" d="M5996.169,1848.1a5.794,5.794,0,0,0-2.145,1.238,7.1,7.1,0,0,0-1.563,1.91.091.091,0,0,0,.039.121.089.089,0,0,0,.092-.006c.681-.473,1.261-1.007,1.878-1.506l.9-.777c.3-.263.589-.543.881-.826a.092.092,0,0,0,.007-.127A.1.1,0,0,0,5996.169,1848.1Z" transform="translate(-5989.547 -1812.19)"/><path class="q" d="M6142.777,1588.059a.429.429,0,0,0-.155-.159,2.813,2.813,0,0,0-1.744-.5,5.586,5.586,0,0,0-1.314.286,1.467,1.467,0,0,0-.4.166.5.5,0,0,0-.235.35.307.307,0,0,0,.219.331.5.5,0,0,0,.256-.041c1.1-.381,2.216-.859,3.326-.233A.163.163,0,0,0,6142.777,1588.059Z" transform="translate(-6120.635 -1578.876)"/><path class="q" d="M6084.245,1588.285a.262.262,0,0,1,.029-.076.568.568,0,0,1,.22-.192,3.427,3.427,0,0,1,2.021-.434c.307.028,1.886.314,1.566.851a.46.46,0,0,1-.436.19,1.567,1.567,0,0,1-.475-.15,4.186,4.186,0,0,0-1.444-.363,2.353,2.353,0,0,0-1.424.37A.2.2,0,0,1,6084.245,1588.285Z" transform="translate(-6071.693 -1579.027)"/><g transform="translate(12.719 9.658)"><path class="e" d="M6094.419,1602.747s.247.174.154.231-.421-.04-.68.057a1.42,1.42,0,0,1-.919.134,2.477,2.477,0,0,1-.957-.377,6.31,6.31,0,0,1,.612-.478,8.164,8.164,0,0,1,.843-.154A9.741,9.741,0,0,1,6094.419,1602.747Z" transform="translate(-6091.372 -1601.745)"/><path class="z" d="M6099.669,1603.837a.451.451,0,1,0,.451-.451A.451.451,0,0,0,6099.669,1603.837Z" transform="translate(-6098.22 -1602.842)"/><path class="m" d="M6101.278,1605.277a.282.282,0,1,0,.282-.282A.282.282,0,0,0,6101.278,1605.277Z" transform="translate(-6099.66 -1604.282)"/><path class="ad" d="M6089.1,1599.413a1.284,1.284,0,0,0-.978-1.122,1.83,1.83,0,0,0-1.831.389c-.318.292-.413.359-.413.359l.219.144.484.07,1.43-.657Z" transform="translate(-6085.877 -1598.204)"/><path class="m" d="M6090.891,1601.245c-.017-.042-.035-.084-.056-.124a1.517,1.517,0,0,0-.5-.558,1.217,1.217,0,0,0-.917-.213,2.068,2.068,0,0,0-.818.376,2.276,2.276,0,0,0-.321.29c-.053.047-.04.069-.1.073s-.131-.022-.2-.031l-.016.03a.688.688,0,0,0,.174.146.305.305,0,0,0,.286-.013c.137-.065.246-.123.369-.175a4.286,4.286,0,0,1,.7-.273,1.241,1.241,0,0,1,.689.072,2.851,2.851,0,0,1,.676.421Z" transform="translate(-6087.745 -1600.107)"/></g><g transform="translate(18.697 9.658)"><path class="e" d="M6142.952,1602.747s-.248.174-.154.231.421-.04.68.057a1.42,1.42,0,0,0,.919.134,2.469,2.469,0,0,0,.956-.377,6.283,6.283,0,0,0-.611-.478,8.26,8.26,0,0,0-.843-.154A9.682,9.682,0,0,0,6142.952,1602.747Z" transform="translate(-6142.777 -1601.745)"/><path class="z" d="M6151.972,1603.837a.451.451,0,1,1-.451-.451A.451.451,0,0,1,6151.972,1603.837Z" transform="translate(-6150.199 -1602.842)"/><path class="m" d="M6153.243,1605.277a.282.282,0,1,1-.282-.282A.282.282,0,0,1,6153.243,1605.277Z" transform="translate(-6151.638 -1604.282)"/><path class="ad" d="M6142.776,1599.413a1.286,1.286,0,0,1,.979-1.122,1.833,1.833,0,0,1,1.832.389c.318.292.413.359.413.359l-.219.144-.486.07-1.43-.657Z" transform="translate(-6142.776 -1598.204)"/><path class="m" d="M6143.494,1601.245a1.164,1.164,0,0,1,.056-.124,1.517,1.517,0,0,1,.5-.558,1.216,1.216,0,0,1,.916-.213,2.068,2.068,0,0,1,.818.376,2.28,2.28,0,0,1,.322.29c.053.047.04.069.1.073s.13-.022.2-.031l.016.03a.694.694,0,0,1-.173.146.306.306,0,0,1-.286-.013c-.137-.065-.245-.123-.369-.175a4.3,4.3,0,0,0-.7-.273,1.24,1.24,0,0,0-.689.072,2.854,2.854,0,0,0-.677.421Z" transform="translate(-6143.418 -1600.107)"/></g><path class="ae" d="M6126.2,1593.816s.152,2.656.152,3.172-.053.542-.344.568-.5-.04-.476-.74.251-2.844.277-3.074.132-.513.2-.5S6126.189,1593.575,6126.2,1593.816Z" transform="translate(-6108.648 -1584.107)"/><path class="ad" d="M6139.114,1624.881c0,.222.079.393.028.554.032.166-.052.267-.152.471a.053.053,0,0,0,.021.073.065.065,0,0,0,.026.006c.258,0,.436-.281.476-.536a.811.811,0,0,0-.322-.619.051.051,0,0,0-.069.017A.081.081,0,0,0,6139.114,1624.881Z" transform="translate(-6120.686 -1612.369)"/><path class="ad" d="M6114.541,1624.425a.906.906,0,0,0-.4.571.591.591,0,0,0,.351.625.051.051,0,0,0,.062-.037.055.055,0,0,0,0-.034c-.088-.2-.152-.332-.088-.5a2.449,2.449,0,0,1,.151-.559.05.05,0,0,0-.03-.064A.066.066,0,0,0,6114.541,1624.425Z" transform="translate(-6098.449 -1612.008)"/><path class="m" d="M6119.443,1634.879c-.008-.013-.542-.408-.642-.269S6119.508,1634.978,6119.443,1634.879Z" transform="translate(-6102.616 -1621.101)"/><path class="m" d="M6132.625,1634.09s-.148-.145-.4.025-.353.293-.249.264S6132.69,1634.185,6132.625,1634.09Z" transform="translate(-6114.376 -1620.611)"/><g transform="translate(15.185 14.586)"><path class="e" d="M6109.354,1645.513c-.006.005,0,.023.011.045,0,0-.006,0,.005.005.107.311,1.016,1.867,2.206,1.738a2.812,2.812,0,0,0,2.1-1.732.1.1,0,0,0,.011-.04v-.005c-.005-.006-.005-.006-.005-.011s-.9-.576-1.461-.339-.552.321-.693.276a1.958,1.958,0,0,0-1.139-.265,3.929,3.929,0,0,0-.981.293C6109.376,1645.49,6109.359,1645.5,6109.354,1645.513Z" transform="translate(-6109.352 -1645.117)"/><path class="af" d="M6109.856,1645.479a7.025,7.025,0,0,0,1.9.35c.609-.045.626-.028,1.456-.124.383-.045.7-.084.919-.135a.068.068,0,0,0,.005-.056s-.9-.576-1.46-.339-.553.321-.694.276a1.96,1.96,0,0,0-1.14-.265A3.943,3.943,0,0,0,6109.856,1645.479Z" transform="translate(-6109.803 -1645.117)"/><path class="af" d="M6109.534,1649.078c.107.31,1.015,1.867,2.206,1.738a2.813,2.813,0,0,0,2.1-1.732.11.11,0,0,0,.011-.039,3.923,3.923,0,0,1-1.822,1.015A3.485,3.485,0,0,1,6109.534,1649.078Z" transform="translate(-6109.514 -1648.631)"/></g><path class="q" d="M6130.207,1509.791s-.842,2.3.93,3.459,3.619,2.079,3.674,3.32,1.369,2.755,1.245,4.654,3.808-.959,1.988-5.724a11.532,11.532,0,0,0-4.155-5.812C6132.426,1508.538,6129.761,1507.528,6130.207,1509.791Z" transform="translate(-6112.651 -1508.209)"/><path class="y" d="M6135.641,1813.49a4.535,4.535,0,0,1,1.223,2.586c.42,1.747,2.6,3.057,4.071,4.315s2.118,1.826,2.118,1.477a25.043,25.043,0,0,0-.586-4.936l6.01-.065a38.475,38.475,0,0,1,.721,8.711c0,1.852-1.029,5.191-2.9,4.649a15.976,15.976,0,0,1-6.412-4.647c-1.957-2.289-3.209-3.668-3.791-4.211-2.182-2.035-2.488-1.108-4.1-2.32C6130.831,1818.175,6135.012,1812.686,6135.641,1813.49Z" transform="translate(-6114.249 -1781.144)"/><path class="ag" d="M6101.233,1811.381c-.018.629.053,1.136.3,1.328a12.931,12.931,0,0,0,2.2,1.258c.245-.052.507-.122.751-.192a6.177,6.177,0,0,0,1.538-.664c1.45-.891.3-1.712.174-1.817s.665-.175,1.188-.559c.507-.4-.279-1.066-.455-1.136-.1-.052-.052-.14-.017-.315a1,1,0,0,0,.017-.524.821.821,0,0,0-.314-.489.017.017,0,0,0-.017-.017,10.809,10.809,0,0,0-1.52-.4C6104.709,1808.184,6102.4,1810.316,6101.233,1811.381Z" transform="translate(-6086.898 -1776.17)"/><g transform="translate(11.211 30.5)"><path class="ah" d="M6072.845,1802.092a.506.506,0,0,0,.031.1,1.535,1.535,0,0,0,1.45.98,31.96,31.96,0,0,0,4.6-.807c.714-.231.729-.832.4-1.039-.149-.093-.283-.307,0-.4s1.282-.213,1.2-.8-.556-.363-.63-.433.384-.47.113-.975-.885-.37-1.488-.316a.236.236,0,0,1-.125-.007c.04-.057.143-.082.2-.107a.957.957,0,0,0,.517-.365.43.43,0,0,0-.281-.574,2.935,2.935,0,0,0-.989-.075,17.613,17.613,0,0,1-4.379-.594c-.937-.267-1.623.148-1.653.762s.069.626-.114.975-.337.97.1,1.258.564.466.406.942-.049.777.263.937A.787.787,0,0,1,6072.845,1802.092Z" transform="translate(-6071.52 -1796.599)"/><g class="i" transform="translate(1.996 1.52)"><path class="y" d="M6094.985,1811.146c-.726-.038-1.449.009-2.169-.013-.36-.019-.719.023-1.076.013a6.188,6.188,0,0,1-1-.069l-.051-.011a.137.137,0,0,0-.1.252,2.568,2.568,0,0,0,1.133.271,7.789,7.789,0,0,0,1.1.035,17.823,17.823,0,0,0,2.183-.2.143.143,0,0,0,.115-.166A.145.145,0,0,0,6094.985,1811.146Z" transform="translate(-6090.518 -1811.063)"/></g><g class="i" transform="translate(2.459 2.984)"><path class="y" d="M6100.333,1825.008c-.885.125-1.764.29-2.647.372a8.127,8.127,0,0,1-2.558-.024l-.021-.006a.141.141,0,0,0-.121.251,2.569,2.569,0,0,0,1.384.364,6.391,6.391,0,0,0,1.376-.083,15.534,15.534,0,0,0,2.656-.6.142.142,0,0,0,.088-.18A.144.144,0,0,0,6100.333,1825.008Z" transform="translate(-6094.927 -1825.007)"/></g><g class="i" transform="translate(2.29 4.465)"><path class="y" d="M6098.285,1839.105c-.791.121-1.609.332-2.415.383a7.852,7.852,0,0,1-2.368-.022l-.015,0a.142.142,0,0,0-.1.259,3.783,3.783,0,0,0,2.562.366,8.833,8.833,0,0,0,2.458-.726.14.14,0,0,0-.084-.263Z" transform="translate(-6093.316 -1839.099)"/></g><path class="ae" d="M6141.473,1816.465a.736.736,0,0,1-.265.059,2.373,2.373,0,0,1-.423-.007.392.392,0,0,1-.232-.082.323.323,0,0,1-.062-.32.637.637,0,0,1,.368-.419.592.592,0,0,1,.8.334.382.382,0,0,1-.089.368A.35.35,0,0,1,6141.473,1816.465Z" transform="translate(-6133.232 -1813.649)"/><path class="ae" d="M6145.5,1828.963s-.817.251-.921.035-.057-.54.491-.625S6145.781,1828.812,6145.5,1828.963Z" transform="translate(-6136.864 -1825.026)"/><path class="ae" d="M6138.8,1844.125a.588.588,0,0,1-.138.07,1.775,1.775,0,0,1-.289.083.358.358,0,0,1-.174,0,.17.17,0,0,1-.1-.208.418.418,0,0,1,.233-.27.422.422,0,0,1,.534.091.163.163,0,0,1,0,.168A.227.227,0,0,1,6138.8,1844.125Z" transform="translate(-6131.097 -1838.798)"/><path class="ae" d="M6135.02,1805.236a.62.62,0,0,1-.137.07,1.862,1.862,0,0,1-.29.083.353.353,0,0,1-.173,0,.17.17,0,0,1-.1-.208.417.417,0,0,1,.233-.27.422.422,0,0,1,.534.09.163.163,0,0,1,0,.168A.224.224,0,0,1,6135.02,1805.236Z" transform="translate(-6127.714 -1803.994)"/></g><path class="ai" d="M6201.979,1778.613a.157.157,0,0,1,.153.063c.014.02,0-.021,0-.021l-.011-.073-.033-.16-.073-.325c-.049-.218-.127-.425-.2-.637a6.76,6.76,0,0,0-.567-1.222,5.2,5.2,0,0,0-.832-1.1,3.019,3.019,0,0,0-1.223-.724.228.228,0,0,0-.238.358l.012.016c.259.339.5.646.714.985.256.3.43.68.677,1.007s.419.712.662,1.061l.342.542.186.27.1.137.058.074.038.052a.317.317,0,0,0,.2.131.218.218,0,0,0,.038-.435Z" transform="translate(-6174.32 -1746.239)"/><path class="ai" d="M6036.725,1766.116a8.766,8.766,0,0,0-1.322,3.165,15.826,15.826,0,0,0-.551,3.371.221.221,0,0,0,.414.118l.013-.021a16.132,16.132,0,0,0,1.317-3.149,8.647,8.647,0,0,0,.547-3.355.23.23,0,0,0-.233-.226A.249.249,0,0,0,6036.725,1766.116Z" transform="translate(-6027.493 -1738.731)"/><path class="aa" d="M6243.457,1897.213a4.558,4.558,0,0,0-4.369-2.443.089.089,0,0,0-.078.1.092.092,0,0,0,.063.076,9.8,9.8,0,0,1,2.248.947,8.993,8.993,0,0,1,1.011.664c.329.237.66.491.981.759a.088.088,0,0,0,.125,0A.1.1,0,0,0,6243.457,1897.213Z" transform="translate(-6210.204 -1853.937)"/><path class="q" d="M6129.646,1507.073a11.578,11.578,0,0,1,5.842,2.7,9.28,9.28,0,0,1,1.927,2.493,16.448,16.448,0,0,1,1.058,3.044,21.7,21.7,0,0,0,2.767,6.408,13.6,13.6,0,0,0,5.359,4.619c1.113.531,2.085.865,3.029,1.418a28.944,28.944,0,0,1,2.765,1.8,31.117,31.117,0,0,1,4.937,4.4,18.861,18.861,0,0,1,3.521,5.52,10.787,10.787,0,0,1,.519,6.451.214.214,0,0,0,.159.258.216.216,0,0,0,.253-.14,10.992,10.992,0,0,0-.1-6.861,18.407,18.407,0,0,0-3.459-5.99,28.5,28.5,0,0,0-10.963-8.174c-3.931-1.873-6.2-5.885-7.412-10.095a13.892,13.892,0,0,0-1.292-3.287,10.465,10.465,0,0,0-2.361-2.7,10.991,10.991,0,0,0-6.528-2.285.213.213,0,0,0-.04.424Z" transform="translate(-6112.149 -1506.606)"/><path class="aj" d="M6056.3,1522.74a11.438,11.438,0,0,0-4.9,2.727,8.454,8.454,0,0,0-2.606,5.1,16.967,16.967,0,0,0,.287,5.619,21.977,21.977,0,0,0,1.8,5.25.214.214,0,0,0,.4-.157l0-.01a36.606,36.606,0,0,1-1.181-5.261,18.594,18.594,0,0,1-.088-5.273,7.823,7.823,0,0,1,2.159-4.517,14.051,14.051,0,0,1,4.271-3.073l.017-.008a.214.214,0,0,0-.149-.4Z" transform="translate(-6039.866 -1521.003)"/><path class="aj" d="M6159.4,1538.1a21.736,21.736,0,0,1,3.3,5.208,13.981,13.981,0,0,1,.956,2.9,28.91,28.91,0,0,0,.608,3.094,14.466,14.466,0,0,0,2.914,5.659,11.181,11.181,0,0,0,2.436,2.117,29.539,29.539,0,0,0,2.829,1.422c3.657,1.845,7.134,4.393,9.236,7.92a11.893,11.893,0,0,1,1.676,5.792,14.972,14.972,0,0,1-1.35,5.954l-.008.018a.214.214,0,0,0,.394.165,15.474,15.474,0,0,0,1.543-6.139,12.359,12.359,0,0,0-1.7-6.112c-2.177-3.712-5.727-6.339-9.454-8.264-.947-.511-1.935-.843-2.768-1.385a10.433,10.433,0,0,1-2.295-1.958,13.775,13.775,0,0,1-2.82-5.365,28.566,28.566,0,0,1-.627-3.044,14.555,14.555,0,0,0-1.025-3.025,21.99,21.99,0,0,0-3.525-5.252.214.214,0,0,0-.322.281Z" transform="translate(-6138.901 -1534.43)"/><path class="ad" d="M5971.409,1944.223s1.46,1.925.57,1.853S5970.232,1943.4,5971.409,1944.223Z" transform="translate(-5970.201 -1898.072)"/><path class="ad" d="M6268.747,1955.554s1.315-2.027,1.55-1.165S6268.375,1956.939,6268.747,1955.554Z" transform="translate(-6236.778 -1907.122)"/></g></g></g><g transform="translate(107.566 1.453)"><path class="c" d="M7004.345,1023.03c-1.108-12.766-10.354-22.389-20.65-21.494s-17.745,11.968-16.634,24.734a27.075,27.075,0,0,0,2.843,10.129c2.172,4.158,4.142,7.018,5.086,11.691q.921,4.547,1.838,9.1a.76.76,0,0,0,1.248.419c3.086-2.723,5.781-5.9,9.11-8.347,2.987-2.2,6.6-2.9,9.445-5.284C7002.625,1038.957,7005,1030.613,7004.345,1023.03Z" transform="translate(-6966.951 -1001.478)"/><g class="ak"><g transform="translate(-0.123 3.369)"><path class="al" d="M7058.284,1222.258s-22.487,1.6-22.393-.659.941-6.021.659-11.573-5.519-15.651-4.14-22.737,5.71-7.465,8.783-9.285a6.487,6.487,0,0,0,2.909-4.324,5.565,5.565,0,0,0,.066-1.437c-.017-.232-.045-.461-.082-.689-.05-.314-.116-.625-.19-.929-.12-.5-.267-1-.414-1.489-.029-.1-.1-.45-.174-.764a1.3,1.3,0,0,0-.208-.557l.4.173.389.169,9.409,5.081a18.661,18.661,0,0,0-1,2.819,6.5,6.5,0,0,0-.128.663c-.187,1.411,1.506,1.035,3.2,2.07s2.164,3.575,1.788,6.774.282,17.688.376,22.2S7058.284,1222.258,7058.284,1222.258Z" transform="translate(-7025.203 -1153.71)"/><path class="am" d="M7148.1,1174.713a18.744,18.744,0,0,0-1,2.819,23.786,23.786,0,0,1-4.768-1.69,8.146,8.146,0,0,1-3.442-2.813c-.051-.314-.116-.625-.191-.93-.119-.5-.267-1-.413-1.488-.03-.1-.1-.45-.175-.764.063-.134.132-.267.192-.384l.39.169Z" transform="translate(-7120.006 -1155.186)"/><path class="al" d="M7150.151,1088.677c-1.41.229-3.965-.267-6.866-1.067a3.991,3.991,0,0,1-2.861-3.816s-1.107-4-.687-5.989a5.9,5.9,0,0,1,3.067-4.23,4.99,4.99,0,0,1,.615-.252,5.435,5.435,0,0,1,1.45-.271,5.922,5.922,0,0,1,1.793.186,3.281,3.281,0,0,1,1.488.753,9.978,9.978,0,0,1,.751,1.031,18.642,18.642,0,0,1,1.328,2.288c.153.439.725,1.144.629,1.793s-.249,1.029.1,1.449a3.036,3.036,0,0,1,.535,2.25,8.7,8.7,0,0,0,.113,3.09C7151.793,1087.19,7151.563,1088.449,7150.151,1088.677Z" transform="translate(-7121.377 -1068.895)"/><path class="am" d="M7156.981,1072.861a4.921,4.921,0,0,1-2.137.122c-2.069-.218-3.637-.312-3.481.393a2.651,2.651,0,0,1-.533,2.729c-.94.909-1.208,1.741-.785,3.763a6.147,6.147,0,0,0,2.383,3.34s-2.367.706-2.869-.894a16.1,16.1,0,0,1-.882-3.79,36.584,36.584,0,0,1,.809-5.416,15.384,15.384,0,0,1,1.4-1.7,2.306,2.306,0,0,1,1.174-.783,1.8,1.8,0,0,1,.89.26,2.363,2.363,0,0,0,1.793.186,3.278,3.278,0,0,1,1.488.753A9.694,9.694,0,0,1,7156.981,1072.861Z" transform="translate(-7129.458 -1066.736)"/><path class="an" d="M7121.183,1048.374c-.019-.459-.554-1.219-1.126-1.237s-3.29.116-3.9.63c-.886.753-1.979,2.821-3.7,1.247s-1.335-4.4-1.335-4.4.062-.441.132-1.078a.853.853,0,0,1,.437-.666l0,0a1.651,1.651,0,0,0,.661-2.393c-.484-.483.586-1.7,3.154-1.5s3.037.483,3.371-.687c.815-2.857-.079-5.926-3.879-4.274-2.417,1.05-2.262,2.285-3.663,2.036-2.289-.407-4.686,2.009-4.263,3.79s-.06,1.82-1.078,3.325c-1.342,1.984.838,5,2.416,4.711a.666.666,0,0,0,.137-.04.867.867,0,0,1,1.168.675c.088.516.158.929.2,1.14a5.7,5.7,0,0,0,1.653,2.625c1.278.93,5.665,1.771,6.969,1.9,1.646.161,2.432-.263,2.811-1.682A24.979,24.979,0,0,0,7121.183,1048.374Z" transform="translate(-7090.899 -1033.553)"/><path class="ao" d="M7178.33,1115.213a.123.123,0,0,1-.013-.171,3.938,3.938,0,0,1,.813-.744,2.836,2.836,0,0,1,1.191-.492,3.616,3.616,0,0,1,.643-.015,5.5,5.5,0,0,1,.61.063c.246.044.477.1.716.168.526.141.39.384.271.633h0a.381.381,0,0,1-.538.242,5.164,5.164,0,0,0-.618-.173c-.17-.041-.343-.073-.517-.1a4.456,4.456,0,0,0-.495-.041,2.336,2.336,0,0,0-.938.261,4.318,4.318,0,0,0-.766.487.18.18,0,0,1-.232-.006Z" transform="translate(-7155.963 -1105.354)"/><path class="ao" d="M7231.572,1116.793l.019-.017a.437.437,0,0,1,.179-.066,3.124,3.124,0,0,1,.935-.033.394.394,0,0,1,.212.067.343.343,0,0,1,.1.277.331.331,0,0,1-.085.247.481.481,0,0,1-.317.069,1.249,1.249,0,0,0-.606.181.3.3,0,0,1-.217.069.235.235,0,0,1-.132-.135,1.152,1.152,0,0,1-.125-.485A.223.223,0,0,1,7231.572,1116.793Z" transform="translate(-7203.611 -1107.927)"/><path class="e" d="M7210.916,1174.985s3.777-.515,3.758-.286a1.208,1.208,0,0,1-1.335,1.221C7212.117,1175.881,7210.648,1175.02,7210.916,1174.985Z" transform="translate(-7185.135 -1159.818)"/><path class="ap" d="M7227.759,1124.372a.99.99,0,0,0-.07.486.869.869,0,0,0,.188.433c.025.032.054.06.082.091l.1.1.2.2c.133.136.261.278.384.426a3.8,3.8,0,0,1,.632.988,1.174,1.174,0,0,1,.09.634.628.628,0,0,1-.155.313.731.731,0,0,1-.27.181.093.093,0,0,1-.085-.164c.307-.193.256-.517.1-.827a4.953,4.953,0,0,0-.6-.889c-.117-.142-.236-.282-.359-.422l-.185-.209-.095-.108c-.032-.042-.067-.082-.1-.126a1.064,1.064,0,0,1-.014-1.206.092.092,0,0,1,.161.086Z" transform="translate(-7199.936 -1114.708)"/><path class="ap" d="M7217.152,1151.458a2.478,2.478,0,0,0-.076.308.472.472,0,0,0,.023.218.845.845,0,0,0,.151.215c.042.033.078.076.121.115a1.2,1.2,0,0,1,.134.125l.008.009a.1.1,0,0,1-.08.165,1.339,1.339,0,0,1-.2-.033,1.446,1.446,0,0,1-.2-.08.784.784,0,0,1-.33-.345.616.616,0,0,1,0-.51.659.659,0,0,1,.313-.32.1.1,0,0,1,.131.046.093.093,0,0,1,.006.068Z" transform="translate(-7190.295 -1138.943)"/><path class="ao" d="M7225.967,1160.1c.083-.03,1.323-.19,1.237.084S7225.489,1160.278,7225.967,1160.1Z" transform="translate(-7198.556 -1146.744)"/><path class="z" d="M7059.148,1264.577c-1.619.448-3.546,2.653-4.542,3.906-.365.459-.606.79-.659.86-.365.471-1.176.455-1.767-1.861a9.958,9.958,0,0,0-.247-1.024c.03,6.048.146,12.587.582,15.318.658,4.14,2.231,12.311,1.855,12.941s-5.638.04-10.845-.376-13.6,1.27-14.418,1c-.325-.106-.3-.862-.132-1.938.251-1.637.815-4.018.928-5.984.016-.264.028-.531.04-.8.135-3.058.032-6.392-.665-8.295a99.8,99.8,0,0,1-2.851-10.547,22.363,22.363,0,0,1-.664-5.762,13.379,13.379,0,0,1,3.1-6.769,7.489,7.489,0,0,1,3.356-2.39,11.266,11.266,0,0,0,2.117-.862c1.705-.9,2.5-1.859,2.7-1.524a6.91,6.91,0,0,0,6.1,4.644c3.565.41,3.768-3.206,3.816-3.59.083-.638.438-1.157,6.989,1.007,5.169,1.709,5.54,7.668,6.2,9.273S7061.365,1263.966,7059.148,1264.577Z" transform="translate(-7019.434 -1227.624)"/><path class="aq" d="M7040.267,1265.565c-1.28,4.012-3.958,10.04-3.958,17.891,0,6.6.083,13.4-.44,16.733.136-3.058.032-6.392-.665-8.295a99.408,99.408,0,0,1-2.851-10.547l2.441-12.531a7.478,7.478,0,0,1,3.355-2.39A11.321,11.321,0,0,0,7040.267,1265.565Z" transform="translate(-7025.359 -1241.192)"/><path class="al" d="M6980.42,1136.074a22.22,22.22,0,0,0-.058,2.358c.028,1.144.587,2.2-.294,3.991a5.623,5.623,0,0,1-1.53,1.925c-.005.009-.01.021-.015.03a5.506,5.506,0,0,0-.3.616,30.171,30.171,0,0,0-1.106,4c-.548,2.19-1.33,12.909-2.034,15.961-.049.216-.1.422-.162.617a5.8,5.8,0,0,1-4.139,4.232c-2.114.783-2.662.783-4.148-3.207a4.912,4.912,0,0,1-.281-1.432c-.2-3.553,1.807-6.978,3.248-10.084.062-.134.123-.267.182-.4.427-.958.794-1.921,1.158-2.913.445-1.217.885-2.437,1.283-3.671.151-.469.3-.941.42-1.421a2.36,2.36,0,0,0,.124-.6.377.377,0,0,0-.021-.128,4.161,4.161,0,0,0-.213-.469,22.238,22.238,0,0,0-2.848-3.991,2.847,2.847,0,0,1-.225-.292c-.014-.01-.026-.015-.04-.025s-.05-.04-.073-.06c-.329-.318-.609-.6-.91-.915l-.882-.918c-.349-.382-.7-.753-1.037-1.144-.225-.258-.445-.523-.66-.805a.393.393,0,0,1,.574-.531l.013.011c.294.263.623.525.947.785l.991.768,1.086.828a3.725,3.725,0,0,1,.326-.422c-.177-.228-.347-.459-.516-.694-.361-.5-.7-1.016-1.03-1.536s-.646-1.05-.944-1.59c-.153-.269-.3-.542-.441-.815l-.209-.4-.1-.2c-.032-.068-.044-.1-.067-.158l-.064-.154a.4.4,0,0,1,.584-.493c.083.055.189.126.255.177l.2.156.369.32c.236.218.463.438.681.666.438.453.847.926,1.242,1.406s.771.977,1.125,1.485c.128.183.252.367.376.555.172-.13.347-.258.523-.388-.7-.948-1.339-1.942-1.957-2.945-.376-.623-.751-1.248-1.107-1.882l-1.03-1.852-.042-.075a.545.545,0,0,1,.841-.67,14.472,14.472,0,0,1,1.564,1.679c.472.57.914,1.157,1.347,1.75a33.429,33.429,0,0,1,1.939,2.975,1.983,1.983,0,0,1,.25-.07c-.123-.29-.245-.583-.368-.871l-.76-1.79c-.257-.593-.53-1.174-.8-1.759s-.579-1.138-.885-1.7l-.009-.015a.574.574,0,0,1,.912-.679,11.406,11.406,0,0,1,1.31,1.631,17.615,17.615,0,0,1,1.039,1.784c.307.611.588,1.234.833,1.872.167.446.325.9.461,1.355.1.346.124.642.461.86a5.945,5.945,0,0,1,.77.619c.25.233.487.478.717.73a4.354,4.354,0,0,0,.667.749,2.38,2.38,0,0,0,.354-.775c.242-.777.106-1.6.345-2.392a5.638,5.638,0,0,1,1.114-2.01c.4-.465.773-.485.956-.29a.574.574,0,0,1,.041.642A6.538,6.538,0,0,0,6980.42,1136.074Z" transform="translate(-6965.776 -1118.996)"/><path class="al" d="M7122.27,1139.818s-1.105-1.406-1.907-.757-.592,1.183-.115,2.213,1.526,1.259,1.66,1.888.954.477.954-.191a9.12,9.12,0,0,0-.42-1.984C7122.309,1140.415,7122.428,1140,7122.27,1139.818Z" transform="translate(-7103.643 -1127.824)"/><path class="al" d="M7123.172,1139.818s-1.106-1.406-1.908-.757-.592,1.183-.115,2.213,1.527,1.259,1.66,1.888.954.477.954-.191a9.12,9.12,0,0,0-.42-1.984C7123.21,1140.415,7123.33,1140,7123.172,1139.818Z" transform="translate(-7104.449 -1127.824)"/><path class="ar" d="M7125.886,1145.069s-.02-.011-.038-.021l-.062-.029c-.043-.019-.088-.034-.132-.049a1.035,1.035,0,0,0-.269-.047.3.3,0,0,0-.347.219,1.46,1.46,0,0,0-.01.544,2.386,2.386,0,0,0,.151.552,2.079,2.079,0,0,0,.277.493.951.951,0,0,0,.19.181.482.482,0,0,0,.231.073l.3.042a.784.784,0,0,1,.334.119.512.512,0,0,1,.131.147c.033.06.047.1.068.143a.456.456,0,0,0,.061.1s.005,0-.01,0a.068.068,0,0,0-.055.014c-.012.017,0,0,.006-.018h0a.094.094,0,0,1,.11-.075.1.1,0,0,1,.076.11l0,.012a.222.222,0,0,1-.059.117.135.135,0,0,1-.125.032.172.172,0,0,1-.074-.04.623.623,0,0,1-.113-.148c-.057-.108-.084-.163-.146-.2a1.491,1.491,0,0,0-.538-.1l-.078-.009-.039-.005-.05-.013a.585.585,0,0,1-.174-.079,1.184,1.184,0,0,1-.253-.232,2.168,2.168,0,0,1-.323-.559,2.558,2.558,0,0,1-.161-.619,1.546,1.546,0,0,1,.034-.661.515.515,0,0,1,.24-.3.612.612,0,0,1,.361-.068,1.277,1.277,0,0,1,.324.079c.05.02.1.042.148.067.024.012.049.027.072.041a.418.418,0,0,1,.086.067.094.094,0,0,1-.144.121Z" transform="translate(-7108.046 -1133.015)"/><g transform="translate(22.901 9.664)"><path class="ar" d="M7183.778,1126.445a2.2,2.2,0,0,1,1.846-.9c1.072.043,1.07.87,1.07.87l-2.033.033-.414.419Z" transform="translate(-7183.778 -1125.541)"/><path class="e" d="M7192.63,1130.86s0,0,0,0h-.064a2.689,2.689,0,0,1-1.284-.3,1.764,1.764,0,0,1,1.663-.516.266.266,0,0,1,.063.024.831.831,0,0,1,.125.052C7193.324,1130.378,7193.44,1130.845,7192.63,1130.86Z" transform="translate(-7190.492 -1129.521)"/><path class="ao" d="M7201.8,1131.263a.392.392,0,1,1-.384-.4A.393.393,0,0,1,7201.8,1131.263Z" transform="translate(-7199.204 -1130.302)"/><path class="ao" d="M7188.09,1129.136l.063-.08.006-.006a2.515,2.515,0,0,1,.486-.464,2.1,2.1,0,0,1,.624-.315,1.263,1.263,0,0,1,.734-.017,1,1,0,0,1,.334.175.661.661,0,0,1,.139.143.332.332,0,0,1,.059.226.094.094,0,0,1-.182.017l-.006-.017c-.021-.057-.073-.089-.166-.135a.776.776,0,0,0-.127-.052.594.594,0,0,0-.132-.033,1.226,1.226,0,0,0-.551.041,2.5,2.5,0,0,0-.547.24,5.087,5.087,0,0,0-.523.355l.005-.006-.083.06,0,0a.1.1,0,0,1-.131-.135Z" transform="translate(-7187.62 -1127.927)"/></g><g transform="translate(27.988 9.521)"><path class="ar" d="M7233.652,1124.189a2.108,2.108,0,0,0-.43.026c-1.059.178-.952,1-.952,1l1.622-.18A1.624,1.624,0,0,0,7233.652,1124.189Z" transform="translate(-7232.26 -1124.188)"/><path class="e" d="M7235.139,1129.367a2.151,2.151,0,0,0-.018-.238,1.462,1.462,0,0,0-1.187-.013.253.253,0,0,0-.061.032.772.772,0,0,0-.117.067c-.159.276-.214.754.589.667,0,0,0,0,0,0l.064-.008a2.837,2.837,0,0,0,.663-.159.677.677,0,0,0,.027-.088A2.279,2.279,0,0,1,7235.139,1129.367Z" transform="translate(-7233.506 -1128.49)"/><path class="ao" d="M7241.466,1129.723a.393.393,0,1,0-.017.418A1.7,1.7,0,0,0,7241.466,1129.723Z" transform="translate(-7239.838 -1128.965)"/><path class="ao" d="M7233.783,1127.37a1.875,1.875,0,0,0-.382-.108,1.26,1.26,0,0,0-.729.076.989.989,0,0,0-.309.216.651.651,0,0,0-.12.159.323.323,0,0,0-.03.232.094.094,0,0,0,.183-.006l0-.018c.014-.059.062-.1.147-.155a.865.865,0,0,1,.12-.068.614.614,0,0,1,.126-.05,1.223,1.223,0,0,1,.552-.029,2.325,2.325,0,0,1,.488.137A1.637,1.637,0,0,0,7233.783,1127.37Z" transform="translate(-7232.203 -1126.919)"/></g><path class="am" d="M6985.507,1170.643a.573.573,0,0,0-.042-.642c-.113.211-.25.5-.419.884-.54,1.223-.495,3.622-.683,5.438a5.925,5.925,0,0,1-2.673,4.206c-1.43,1.035-1.959,1.624-3.066,1.411s-3.268-3.412-5.15-5.363a9.626,9.626,0,0,0-2.192-1.776c.341.391.689.762,1.038,1.144l.882.918c.3.311.581.6.911.915a.926.926,0,0,0,.071.06c.014.009.026.015.039.025a3.127,3.127,0,0,0,.227.292,22.225,22.225,0,0,1,2.847,3.991,4.18,4.18,0,0,1,.214.469.308.308,0,0,1,.016.071.445.445,0,0,1,0,.045,2.376,2.376,0,0,1-.124.614c-.118.48-.269.952-.42,1.421-.4,1.234-.837,2.454-1.283,3.671-.363.992-.73,1.955-1.158,2.913-.06.135-.119.269-.183.4-1.44,3.107-3.448,6.531-3.248,10.084a4.882,4.882,0,0,0,.281,1.432c1.486,3.989,2.033,3.989,4.146,3.207a5.807,5.807,0,0,0,4.141-4.232c-1.609.646-6.437,2.409-6.87.491-.517-2.305,5.74-15.383,6.586-16.936s1.858-3.858,1.858-3.858l-1.07,1.312a8.1,8.1,0,0,1,1.07-1.312,1.419,1.419,0,0,1,1.727-.277,5.442,5.442,0,0,1,.3-.615l.016-.03a5.621,5.621,0,0,0,1.529-1.925c.881-1.79.322-2.847.294-3.991a22.35,22.35,0,0,1,.059-2.358A6.51,6.51,0,0,1,6985.507,1170.643Zm-7.679,12.242s-.011,0-.021-.011Z" transform="translate(-6970.542 -1155.667)"/><path class="ap" d="M7033.2,1282.586a2.5,2.5,0,0,1,.619.242c.184.092.36.18.538.255a1.287,1.287,0,0,0,.958.13.448.448,0,0,0,.1-.046c.029-.023.059-.045.089-.065a.718.718,0,0,0,.083-.085,1.132,1.132,0,0,0,.085-.094c.119-.159.237-.319.35-.482s.217-.33.332-.508c.029-.045.062-.091.1-.139.018-.024.042-.051.063-.075a.6.6,0,0,1,.095-.076.378.378,0,0,1,.257-.053.855.855,0,0,1,.18.061.135.135,0,0,1-.076.256h-.008a.507.507,0,0,0-.119-.007c-.026.01-.03.011-.034.024a1.322,1.322,0,0,0-.1.2c-.079.182-.167.381-.268.566a5.829,5.829,0,0,1-.33.544,1.719,1.719,0,0,1-.112.142.961.961,0,0,1-.127.138l-.158.12a.976.976,0,0,1-.177.093,1.232,1.232,0,0,1-.763.063,2.294,2.294,0,0,1-.64-.249,4.759,4.759,0,0,1-.532-.354c-.162-.122-.329-.26-.462-.342l-.029-.019a.132.132,0,0,1-.042-.182A.13.13,0,0,1,7033.2,1282.586Z" transform="translate(-7025.977 -1255.529)"/><path class="aq" d="M7079.125,1349.361c.659,4.14,2.232,12.311,1.856,12.941s-5.638.039-10.844-.376-13.6,1.27-14.418,1c-.326-.105-.3-.862-.132-1.938,4.667-2.292,20.643.062,22.04.124,1.5.07-.095-10.841,0-14.691s.375-17.79.4-19.662.49-.48,1.095,2.874a31.213,31.213,0,0,0,2.092,6.434c-.366.459-.607.79-.659.86-.366.47-1.176.455-1.768-1.861a9.82,9.82,0,0,0-.246-1.023C7078.574,1340.091,7078.692,1346.63,7079.125,1349.361Z" transform="translate(-7046.045 -1295.209)"/><path class="ap" d="M7031.613,1162.335a.951.951,0,0,1,.192-.289,1.021,1.021,0,0,1,.284-.215.735.735,0,0,1,.371-.089.505.505,0,0,1,.351.162.074.074,0,0,1-.062.122h-.011a.9.9,0,0,0-.262.014,1.2,1.2,0,0,0-.24.088c-.165.076-.329.194-.515.3l-.005,0a.073.073,0,0,1-.1-.029A.074.074,0,0,1,7031.613,1162.335Z" transform="translate(-7024.692 -1148.275)"/><path class="ap" d="M7003.477,1166.89a.938.938,0,0,1,.191-.312,1.233,1.233,0,0,1,.309-.254,1.031,1.031,0,0,1,.429-.145.664.664,0,0,1,.437.1.064.064,0,0,1,0,.1.1.1,0,0,1-.061.026h-.013a1.334,1.334,0,0,0-.311.055,1.609,1.609,0,0,0-.272.123c-.186.1-.365.241-.572.37l-.005,0a.1.1,0,0,1-.123-.012A.063.063,0,0,1,7003.477,1166.89Z" transform="translate(-6999.513 -1152.244)"/><path class="ap" d="M6987.884,1186.823a.632.632,0,0,1,.11-.217,1.051,1.051,0,0,1,.2-.2,1.019,1.019,0,0,1,.3-.163.607.607,0,0,1,.334-.021c.03.008.037.035.015.059a.1.1,0,0,1-.043.026l-.009,0a1.333,1.333,0,0,0-.227.089,1.519,1.519,0,0,0-.189.122c-.128.093-.248.208-.388.321l0,0a.091.091,0,0,1-.092.016A.03.03,0,0,1,6987.884,1186.823Z" transform="translate(-6985.561 -1170.166)"/><path class="as" d="M7202.56,1845.03l.021-.437A.89.89,0,0,1,7202.56,1845.03Z" transform="translate(-7177.685 -1759.392)"/></g></g></g><g transform="translate(0 27.411)"><path class="at" d="M6502.3,1528.467s17.543,8.752,20.564,24.606,32.781-14.287,33.114-15.047-9.982-30.6-12.466-33.945-28.461-12.375-28.461-12.375l-10.215,12.2Z" transform="translate(-6443.545 -1466.165)"/><path class="au" d="M6486.462,1448.25s-15.025,12.011-19.726.254c-3.138-7.889-26.929-25.953-41.62-38.909-7.248-6.392-12.27-11.536-11.512-13.59a.584.584,0,0,1,.08-.166c.6-1.25,2.543-1.514,5.364-1.029a42.467,42.467,0,0,1,7.474,2.166c11.162,4.13,26.854,12.907,36.119,20.346.778.625,1.542,1.266,2.3,1.936,1.72,1.482,3.392,3.054,5.017,4.656A78.61,78.61,0,0,1,6486.462,1448.25Z" transform="translate(-6364.101 -1379.243)"/><path class="av" d="M6428.244,1411.635c-.112.3-.3,1.828-.395,2.04-7.248-6.392-14.807-13.67-14.048-15.724a.554.554,0,0,1,.079-.166,33.007,33.007,0,0,0,3.663,3.2c.542.255,1.25-2.287,1.7-4.226a42.494,42.494,0,0,1,7.474,2.166C6426.832,1402.941,6429.166,1409.036,6428.244,1411.635Z" transform="translate(-6364.298 -1381.188)"/><path class="aw" d="M6738.049,1797.38c-.329,8.517-8.147,29.226-13.165,38.914-1.435,2.752-2.343,4.438-2.343,4.438l-5.725-4.716c-.741-1.093-1.442-2.144-2.13-3.154a61.859,61.859,0,0,0-6.563-9.589c-.68-.737-1.429-1.476-2.231-2.229a.028.028,0,0,0-.026-.028c-3.517-3.32-7.842-7.134-10.184-14.52-.5-1.552-1.08-5.137-1.49-6.346-.975-2.939-1.585-5.066-1.222-7.431s1.714-4.983,4.619-8.877a64.518,64.518,0,0,1,11.392-11.231c4.4-3.427,9.092-6.26,12.877-7.259,2.867-.772,5.234-.477,6.545,1.406,1.456,2.076,3.273,4.487,5.087,7.144C6737.71,1780.072,6738.346,1789.749,6738.049,1797.38Z" transform="translate(-6614.091 -1710.708)"/><path class="ax" d="M6712.759,2006.831s.637-8.252-8.223-8.466c-5.93-.138-8.861,2.406-10.344,4.175-.975-2.939-1.585-5.066-1.222-7.431,3.626-1.192,10.283-3.235,13.188-3.2,4.09.045,13.082-.817,15.578-.805S6712.759,2006.831,6712.759,2006.831Z" transform="translate(-6614.091 -1913.098)"/><g transform="translate(61.78)"><path class="an" d="M6568.467,1331.72l-.787.018L6557.3,1332l-4.116.1-9.015.228-4.446.112-.153.007a6.518,6.518,0,0,1-6.668-6.351l-1.785-70.127a6.545,6.545,0,0,1,6.351-6.667l28.9-.729a6.52,6.52,0,0,1,6.669,6.337l1.468,58.126.316,12.013A6.546,6.546,0,0,1,6568.467,1331.72Z" transform="translate(-6531.114 -1248.573)"/><path class="ay" d="M6592.89,1375.034l-25.959.655a5.056,5.056,0,0,1-5.167-4.911l-1.48-58.652a5.056,5.056,0,0,1,4.911-5.166l25.96-.655a5.055,5.055,0,0,1,5.166,4.911l1.481,58.652A5.055,5.055,0,0,1,6592.89,1375.034Z" transform="translate(-6557.217 -1300.238)"/><circle class="ay" cx="1.952" cy="1.952" r="1.952" transform="translate(21.274 77.668) rotate(-4.637)"/><path class="ay" d="M.461,0H11.734a.461.461,0,0,1,.461.461v0a.461.461,0,0,1-.461.461H.461A.461.461,0,0,1,0,.461v0A.461.461,0,0,1,.461,0Z" transform="translate(15.21 3.4) rotate(-1.446)"/></g><g transform="translate(68.176 11.5)"><g transform="translate(0.773 31.388)"><rect class="az" width="29.42" height="11.457" rx="5.729" transform="translate(0 0.743) rotate(-1.446)"/><g transform="translate(2.008 1.635)"><path class="e" d="M6627.291,1676.811a4.417,4.417,0,0,1-2.718,4.06,4.305,4.305,0,0,1-1.694.336,4.462,4.462,0,0,1-1.723-.352,4.409,4.409,0,1,1,6.135-4.044Z" transform="translate(-6618.473 -1672.389)"/><circle class="ba" cx="1.051" cy="1.051" r="1.051" transform="translate(3.223 4.472) rotate(-82.101)"/><path class="ba" d="M6646.729,1721.873l0,1.713a1.721,1.721,0,0,1-.117.164,4.3,4.3,0,0,1-1.694.336,4.447,4.447,0,0,1-1.722-.352.651.651,0,0,1-.1-.136l0-1.733a1.724,1.724,0,0,1,.243-.88,2.137,2.137,0,0,1,3.166.035A1.713,1.713,0,0,1,6646.729,1721.873Z" transform="translate(-6640.508 -1715.268)"/></g><g transform="translate(13.116 2.472)"><rect class="e" width="13.036" height="1.228" rx="0.614" transform="translate(0 0.329) rotate(-1.446)"/><rect class="e" width="13.036" height="1.228" rx="0.614" transform="translate(0.152 6.362) rotate(-1.446)"/><rect class="e" width="7.956" height="1.228" rx="0.614" transform="matrix(1, -0.025, 0.025, 1, 0.012, 2.356)"/><rect class="e" width="12.247" height="1.246" rx="0.623" transform="matrix(1, -0.025, 0.025, 1, 0.104, 4.37)"/></g><g transform="translate(26.853 3.786)"><circle class="bb" cx="1.58" cy="1.58" r="1.58" transform="matrix(0.875, -0.484, 0.484, 0.875, 0, 1.53)"/><g transform="translate(1.358 1.31)"><path class="e" d="M6868.589,1707a.255.255,0,0,1-.172-.114l-.473-.735a.255.255,0,0,1,.077-.355.259.259,0,0,1,.354.077l.255.4.515-.813a.257.257,0,1,1,.434.274l-.729,1.152a.254.254,0,0,1-.261.116Z" transform="translate(-6867.904 -1705.334)"/></g></g></g><g transform="translate(0 46.674)"><rect class="az" width="29.42" height="11.457" rx="5.729" transform="translate(0 0.743) rotate(-1.446)"/><g transform="translate(2.008 1.635)"><path class="e" d="M6619.929,1822.324a4.418,4.418,0,0,1-2.718,4.06,4.3,4.3,0,0,1-1.694.335,4.463,4.463,0,0,1-1.723-.352,4.409,4.409,0,1,1,6.136-4.044Z" transform="translate(-6611.11 -1817.902)"/><circle class="bc" cx="1.051" cy="1.051" r="1.051" transform="translate(3.256 4.514) rotate(-84.177)"/><path class="bc" d="M6639.366,1867.385l0,1.713a1.667,1.667,0,0,1-.116.165,4.3,4.3,0,0,1-1.695.335,4.456,4.456,0,0,1-1.722-.352.73.73,0,0,1-.1-.136l0-1.733a1.734,1.734,0,0,1,.244-.88,2.136,2.136,0,0,1,3.165.035A1.692,1.692,0,0,1,6639.366,1867.385Z" transform="translate(-6633.146 -1860.78)"/></g><g transform="translate(13.116 2.472)"><rect class="e" width="13.036" height="1.228" rx="0.614" transform="translate(0 0.329) rotate(-1.446)"/><rect class="e" width="13.036" height="1.228" rx="0.614" transform="translate(0.152 6.362) rotate(-1.446)"/><path class="e" d="M.614,0H7.342a.614.614,0,0,1,.614.614v0a.614.614,0,0,1-.614.614H.614A.614.614,0,0,1,0,.614v0A.614.614,0,0,1,.614,0Z" transform="matrix(1, -0.025, 0.025, 1, 0.012, 2.356)"/><rect class="e" width="12.247" height="1.246" rx="0.623" transform="matrix(1, -0.025, 0.025, 1, 0.104, 4.37)"/></g><g transform="translate(27.421 4.354)"><circle class="bb" cx="1.58" cy="1.58" r="1.58"/><g transform="translate(0.791 0.742)"><path class="e" d="M6861.227,1852.509a.252.252,0,0,1-.171-.114l-.474-.735a.257.257,0,0,1,.432-.278l.255.4.515-.813a.256.256,0,0,1,.433.274l-.729,1.152a.254.254,0,0,1-.262.116Z" transform="translate(-6860.541 -1850.847)"/></g></g></g><g transform="translate(0.284 0)"><rect class="az" width="29.42" height="11.457" rx="5.729" transform="translate(0 0.743) rotate(-1.446)"/><g transform="translate(2.008 1.635)"><path class="e" d="M6622.628,1378.028a4.418,4.418,0,0,1-2.718,4.06,4.306,4.306,0,0,1-1.695.335,4.461,4.461,0,0,1-1.723-.352,4.409,4.409,0,1,1,6.135-4.044Z" transform="translate(-6613.811 -1373.606)"/><circle class="ba" cx="1.051" cy="1.051" r="1.051" transform="translate(3.042 4.161) rotate(-68.222)"/><path class="ba" d="M6642.065,1423.089l0,1.713a1.674,1.674,0,0,1-.116.164,4.306,4.306,0,0,1-1.695.335,4.453,4.453,0,0,1-1.722-.352.731.731,0,0,1-.1-.136l0-1.732a1.724,1.724,0,0,1,.244-.88,2.136,2.136,0,0,1,3.165.035A1.691,1.691,0,0,1,6642.065,1423.089Z" transform="translate(-6635.845 -1416.484)"/></g><g transform="translate(13.116 2.472)"><rect class="e" width="13.036" height="1.228" rx="0.614" transform="translate(0 0.329) rotate(-1.446)"/><rect class="e" width="13.036" height="1.228" rx="0.614" transform="translate(0.152 6.362) rotate(-1.446)"/><rect class="e" width="7.956" height="1.228" rx="0.614" transform="translate(0.012 2.356) rotate(-1.446)"/><rect class="e" width="12.247" height="1.246" rx="0.623" transform="translate(0.104 4.37) rotate(-1.446)"/></g><g transform="translate(27.421 4.354)"><circle class="bb" cx="1.58" cy="1.58" r="1.58"/><g transform="translate(0.791 0.742)"><path class="e" d="M6863.927,1408.213a.255.255,0,0,1-.171-.114l-.474-.735a.256.256,0,0,1,.077-.355.26.26,0,0,1,.355.077l.255.4.514-.813a.257.257,0,1,1,.434.274l-.729,1.152a.257.257,0,0,1-.216.12A.228.228,0,0,1,6863.927,1408.213Z" transform="translate(-6863.241 -1406.551)"/></g></g></g><g transform="translate(0.338 15.557)"><rect class="az" width="29.42" height="11.457" rx="5.729" transform="translate(0 0.743) rotate(-1.446)"/><g transform="translate(2.008 1.635)"><path class="e" d="M6623.145,1526.119a4.417,4.417,0,0,1-2.718,4.06,4.3,4.3,0,0,1-1.695.336,4.409,4.409,0,1,1,.017-8.818A4.41,4.41,0,0,1,6623.145,1526.119Z" transform="translate(-6614.327 -1521.697)"/><circle class="bd" cx="1.051" cy="1.051" r="1.051" transform="translate(3.053 4.187) rotate(-69.288)"/><path class="bd" d="M6642.582,1571.181l0,1.713a1.806,1.806,0,0,1-.117.164,4.3,4.3,0,0,1-1.695.335,4.448,4.448,0,0,1-1.722-.352.723.723,0,0,1-.1-.135l0-1.733a1.714,1.714,0,0,1,.244-.88,2.135,2.135,0,0,1,3.165.035A1.692,1.692,0,0,1,6642.582,1571.181Z" transform="translate(-6636.362 -1564.576)"/></g><g transform="translate(13.116 2.472)"><rect class="e" width="13.036" height="1.228" rx="0.614" transform="translate(0 0.329) rotate(-1.446)"/><rect class="e" width="13.036" height="1.228" rx="0.614" transform="translate(0.152 6.362) rotate(-1.446)"/><rect class="e" width="7.956" height="1.228" rx="0.614" transform="translate(0.012 2.356) rotate(-1.446)"/><rect class="e" width="12.247" height="1.246" rx="0.623" transform="translate(0.105 4.37) rotate(-1.446)"/></g><g transform="translate(27.421 4.354)"><circle class="bb" cx="1.58" cy="1.58" r="1.58"/><g transform="translate(0.791 0.742)"><path class="e" d="M6864.442,1556.3a.254.254,0,0,1-.172-.114l-.474-.735a.257.257,0,0,1,.433-.278l.255.4.514-.813a.255.255,0,0,1,.354-.08.258.258,0,0,1,.08.354l-.729,1.152a.255.255,0,0,1-.215.12A.221.221,0,0,1,6864.442,1556.3Z" transform="translate(-6863.756 -1554.642)"/></g></g></g></g><path class="be" d="M6923.256,2088.359l-58.22-2.211-2.862,1.863s-.066-.1-.172-.262c-.066-.083-.132-.194-.225-.319s-.186-.277-.291-.443c-3.781-5.7-22.395-33.815-34.589-51.937-.741-1.093-1.442-2.144-2.129-3.154-.848-1.259-1.641-2.435-2.4-3.542a85.488,85.488,0,0,0-6.4-8.277.029.029,0,0,0-.027-.027.572.572,0,0,0-.079-.1c3.443,2.963,11.161,4.312,9.736.081-.039-.123-.091-.247-.142-.385a7.754,7.754,0,0,0-.841-1.5,13.441,13.441,0,0,1-1.881-3.94l-.013-.014c-1.568-5.256-.014-11.074,1.747-16.33a86.053,86.053,0,0,0,2.965-9.376c1.525-7.7,27.413,26.065,32.708,33.677S6923.256,2088.359,6923.256,2088.359Z" transform="translate(-6724.172 -1909.742)"/><path class="aw" d="M6854.067,2314.915l-2.862,1.863s-.066-.1-.172-.263c-.066-.083-.132-.194-.225-.318s-.185-.276-.291-.442c-3.781-5.7-22.4-33.816-34.59-51.938-.741-1.093-1.442-2.144-2.13-3.154-.847-1.259-1.64-2.435-2.394-3.542a85.554,85.554,0,0,0-6.4-8.277.028.028,0,0,0-.026-.027.609.609,0,0,0-.08-.1c-.013-.014-.013-.028-.027-.028a6.013,6.013,0,0,1-.708-.724c-.053-.07-.079-.111-.079-.111-.45-.678-.594-.926-.369-.635,2.362,3.091,12.179,5.9,10.919,1.579-.04-.123-.092-.248-.143-.385a7.72,7.72,0,0,0-.842-1.5,13.477,13.477,0,0,1-1.881-3.94c.3.524,6.689,11.392,12.228,21.123,3.118,5.466,5.97,10.559,7.346,13.261C6834.3,2283.228,6847.706,2304.8,6854.067,2314.915Z" transform="translate(-6713.204 -2138.509)"/><path class="at" d="M6808.906,2290.311a5.961,5.961,0,0,1-.708-.724c-.053-.07-.079-.111-.079-.111A8.274,8.274,0,0,1,6808.906,2290.311Z" transform="translate(-6717.238 -2180.128)"/><path class="be" d="M6923.345,1514.067s-9.361-22.581-9.373-28.991,3.841-11.916-.791-26.6-11.868-19.4-12.462-24.371-.461-12.131-2.507-12.127-8.473,2.067-8.6,13.614,2.63,8.118,4.113,19.516-6.4,7.67-5.474,34.125,25.932,31.668,26.514,31.229S6923.345,1514.067,6923.345,1514.067Z" transform="translate(-6788.888 -1403.765)"/><path class="bf" d="M6967.8,1432.644s-1.158-.8-2.583,1.028-.105,8.77.475,9.682,2.831.579,3.1-.3S6968.409,1432.814,6967.8,1432.644Z" transform="translate(-6857.26 -1413.151)"/><g transform="translate(97.197 91.937)"><path class="av" d="M6887.639,2165.583a110.878,110.878,0,0,1,6.292,14.587l-8.152-13.553c-2.746-4.483-5.466-8.973-8.271-13.412-1.366-2.248-2.8-4.414-4.151-6.764a49.275,49.275,0,0,1-3.471-7.3,25.562,25.562,0,0,1-1.635-7.981,12.55,12.55,0,0,1,.549-4.063,6.741,6.741,0,0,1,2.174-3.364,7.058,7.058,0,0,0-1.444,3.539,12.386,12.386,0,0,0,.049,3.791,28.373,28.373,0,0,0,2.271,7.28c2.148,4.689,5.105,8.908,7.969,13.413Z" transform="translate(-6868.247 -2123.736)"/></g><path class="be" d="M6453.7,1753.4c-2.434,1.005-8.184-.432-10.362-4.772-1.983-3.956,1.117-7.142,1.686-7.684a1.144,1.144,0,0,1,.094-.084c2.343-1.967,4.207.432,8.233,3.219a5.743,5.743,0,0,1,1.541,1.529C6456.943,1748.532,6455.75,1752.567,6453.7,1753.4Z" transform="translate(-6390.189 -1688.504)"/><path class="be" d="M6468.008,1846.708c-2.1,1.175-7.471.5-9.916-3.185a5.475,5.475,0,0,1-.368-5.416,7.477,7.477,0,0,1,1.139-1.813c1.914-2.039,3.862-.069,7.8,2.018a5.412,5.412,0,0,1,2.263,2.191C6470.235,1842.854,6469.542,1845.842,6468.008,1846.708Z" transform="translate(-6403.164 -1773.785)"/><path class="av" d="M6473.58,1840.5c-3.609,1.452-8.289-.571-11.206-2.4a7.479,7.479,0,0,1,1.14-1.813c1.913-2.039,3.862-.069,7.8,2.018A5.417,5.417,0,0,1,6473.58,1840.5Z" transform="translate(-6407.815 -1773.785)"/><path class="au" d="M6473.854,1814.257a1.242,1.242,0,0,1,1.266-.841c1.5.2,5.851-.106,5.948,1.84.125,2.49-.629,3.716-1.44,3.621-1.946-.228-5.771-1.141-5.983-2.779A3.624,3.624,0,0,1,6473.854,1814.257Z" transform="translate(-6417.87 -1754.07)"/><path class="au" d="M6498.1,1906.653a.94.94,0,0,1,.957-.636c1.132.152,4.426-.08,4.5,1.391.094,1.883-.476,2.811-1.09,2.739-1.474-.172-4.364-.863-4.525-2.1A2.744,2.744,0,0,1,6498.1,1906.653Z" transform="translate(-6439.625 -1836.946)"/><path class="av" d="M6474.829,1745.612a8.066,8.066,0,0,1-2.144-.015c-2.311-.312-5.773-2.9-7.724-4.649.063-.06.093-.084.093-.084,2.344-1.967,4.208.432,8.234,3.219A5.75,5.75,0,0,1,6474.829,1745.612Z" transform="translate(-6410.129 -1688.504)"/><path class="be" d="M6457.1,1547.205s-7.529-1.548-9.085,4.023c-.561,2.008-.315,8.832.782,11.089,2.83,5.825,5.462,10.073,9.811,8.427s3.056-6.511,1.41-9.384-2.948-4.2-2.765-4.6S6457.1,1547.205,6457.1,1547.205Z" transform="translate(-6394.702 -1515.657)"/><path class="au" d="M6477.2,1685.108a1.322,1.322,0,0,1,1.619-.137c1.506.949,5.34,3.675,4.787,5.534-.707,2.38-2.425,3.6-3.043,2.868s-4.53-5.027-4.2-6.659A2.977,2.977,0,0,1,6477.2,1685.108Z" transform="translate(-6420.311 -1638.936)"/><path class="au" d="M6995.831,1605.992a12.244,12.244,0,0,1,.918.885c5.806,6.245,8.488,14.886,9.034,23.394s-.862,17.009-2.294,25.414c-.069.4-.2.885-.6,1-.631.181-.975-.717-.994-1.373-.154-5.383.817-10.735.954-16.118a52.453,52.453,0,0,0-8.808-30.317c-.477-.712-2.188-3.057-1.238-3.9C6993.558,1604.3,6994.888,1605.176,6995.831,1605.992Z" transform="translate(-6882.272 -1567.317)"/><path class="bg" d="M6673.035,1723.09c-.611,2.127-1.208,4.156-1.789,6.06q-.206.674-.408,1.328c-.316,1.022-.643,2.012-.95,2.958-.461,1.467-.918,2.824-1.368,4.106-.007.022-.015.045-.022.067l-4.116.1-9.016.228,3.11-6.912.706-1.574,12.4-27.659S6678.262,1704.691,6673.035,1723.09Z" transform="translate(-6580.534 -1654.184)"/><g transform="translate(0 44.83)"><path class="be" d="M6049.887,1732.264s-13.208,8.644-16.3,12.986c-2.206,3.087-9.109,13.532-15.511,20.991a38.309,38.309,0,0,1-7.162,6.861c-7.193,4.655-13.459,1.041-15.2,5.594l-.36,1.341-.384,1.214-14.907,47.115a5.388,5.388,0,0,1-7.52,3.207l-26.514-13.073a5.38,5.38,0,0,1-2.779-6.379c.882-2.924,2.144-7.059,3.581-11.595,3.487-11.032,8-24.429,10.526-28.49,4.524-7.3,4.987-9.3,4.993-15.038.014-5.6,1.688-25.406,3.588-32.634.039-.187.091-.373.142-.545,1.971-6.737,4.055-7.391,6.49-6.883s5.135-1.452,7.706-4.585c2.783-3.38,5.418-1.194,7.435-.439,1.979.722,4.475,2.215,8.968-2.626,4.467-4.845,7.981-1.122,10.407.169a2.167,2.167,0,0,0,1.6.069,5.174,5.174,0,0,0,3.436-3.413c2.971-8.662,12-21.981,15.069-27.153,3.431-5.838,9.273-4.167,9.372,1.612,0,.3-.018.644-.05.984-.03.629-1.259,4.219-1.418,4.885-1.609,6.511-12.409,21.658-17.271,32.985q-.262.563-.479,1.091c-2.24,5.572-3.025,15.965-3.227,23.354a1.246,1.246,0,0,0,2.247.772c3.577-4.869,11.808-13.938,17.291-15.426a56.441,56.441,0,0,1,7.554-1.524C6050.643,1726.463,6054.246,1729.22,6049.887,1732.264Z" transform="translate(-5943.017 -1675.32)"/><path class="bf" d="M6753.8,1692.64a3.823,3.823,0,0,1-.3.786c-.691,1.4-1.785,4.229-3.738,4.018a2.772,2.772,0,0,1-1.74-1.18,1.642,1.642,0,0,1-.338-1.656,9.448,9.448,0,0,1,2.048-4.349,2.327,2.327,0,0,1,3.4.271A2.112,2.112,0,0,1,6753.8,1692.64Z" transform="translate(-6663.078 -1688.132)"/><path class="bf" d="M6896.807,2182.414a2.146,2.146,0,0,0-1.292-.287,15.354,15.354,0,0,0-2.583.308c-1.134.249-3.557,1.138-3.573,2.748-.023,2.294,1.643,3.238,2.556,2.858,1.4-.583,7.678-3.346,4.992-5.552C6896.875,2182.462,6896.841,2182.437,6896.807,2182.414Z" transform="translate(-6789.945 -2128.883)"/><path class="av" d="M6586.409,1793.526c1.962-.746,8.566-11.947,15.822-16.1,3.859-2.209,7.209-3.367,10.194-5.053a55.089,55.089,0,0,0-7.559,1.528c-5.484,1.486-13.716,10.549-17.292,15.418a1.239,1.239,0,0,1-2.24-.762c.2-7.394.981-17.785,3.229-23.362.14-.349.3-.717.469-1.085,4.864-11.333,15.663-26.481,17.279-32.993.16-.668,1.379-4.247,1.419-4.885.023-.342.046-.683.041-.983-6.252,10.388-22.03,34.391-24.605,46.566C6578.2,1795.3,6584.45,1794.249,6586.409,1793.526Z" transform="translate(-6514.239 -1720.004)"/><path class="bh" d="M6495.607,2025.036c-1.56,3.183-3.108,6.056-4.445,9.078-.679,1.5-1.348,3-1.952,4.55-.649,1.542-1.17,3.129-1.91,4.775a14.658,14.658,0,0,1-.027-5.306,19.084,19.084,0,0,1,1.549-5.088,20.121,20.121,0,0,1,2.8-4.507A14.345,14.345,0,0,1,6495.607,2025.036Z" transform="translate(-6429.894 -1988.298)"/><path class="bh" d="M6355.377,2047.994a66.576,66.576,0,0,1-2.146,7.147c-.389,1.14-.817,2.267-1.249,3.416a30.743,30.743,0,0,1-1.57,3.506,12.735,12.735,0,0,1,.39-7.771,14.608,14.608,0,0,1,1.766-3.5A9.813,9.813,0,0,1,6355.377,2047.994Z" transform="translate(-6307.22 -2008.844)"/><path class="bh" d="M6225.477,2084.593a11.328,11.328,0,0,1,0,2.935,18.99,18.99,0,0,1-.531,2.677,24.051,24.051,0,0,1-.863,2.543c-.346.843-.729,1.646-1.209,2.595a5.58,5.58,0,0,1-.785-2.94,9.846,9.846,0,0,1,.375-2.878,11.207,11.207,0,0,1,1.1-2.642A8.117,8.117,0,0,1,6225.477,2084.593Z" transform="translate(-6192.771 -2041.598)"/><path class="au" d="M6006.918,2186.658c.25,1.919-11.141-2.883-12.337-1.668s-15.344,33.384-15.344,33.384l.006-.041c3.486-11.031,8-24.429,10.526-28.49,4.523-7.3,4.986-9.3,4.992-15.038.014-5.6,1.688-25.406,3.588-32.634-1.026,11.956-2.573,33.06-1.176,36.373C5999.13,2183.2,6006.655,2184.737,6006.918,2186.658Z" transform="translate(-5975.433 -2093.127)"/><path class="av" d="M6406.9,2540.8a38.3,38.3,0,0,1-7.161,6.861c-7.193,4.655-13.46,1.042-15.2,5.594l-.36,1.341-.385,1.214c-1.583-3.86-6.6-8.075-6.292-8.309.383-.292,2.025,1.2,10.255,1.387C6393.709,2549.036,6402.5,2543.731,6406.9,2540.8Z" transform="translate(-6331.846 -2449.884)"/><g transform="translate(72.11 22.907)"><g transform="translate(0 2.64)"><path class="ax" d="M6637.559,1922.056a5.182,5.182,0,0,1-2.429.713,6.369,6.369,0,0,1-2.466-.3,5.18,5.18,0,0,1-2.244-1.361,2.973,2.973,0,0,1-.941-2.517l.007-.035a.065.065,0,0,1,.076-.052.062.062,0,0,1,.046.037,4.106,4.106,0,0,0,1.445,1.665,7.156,7.156,0,0,0,2.037.942,13.707,13.707,0,0,0,2.2.53c.749.113,1.507.2,2.264.241a.065.065,0,0,1,.061.068.064.064,0,0,1-.031.052Z" transform="translate(-6629.443 -1918.501)"/></g><g transform="translate(1.692 0.943)"><path class="ax" d="M6652.111,1905.21a5.29,5.29,0,0,1-1.931.294,6.665,6.665,0,0,1-1.934-.313,7.861,7.861,0,0,1-.927-.388,4.593,4.593,0,0,1-.841-.6,2.56,2.56,0,0,1-.924-1.8v-.011a.032.032,0,0,1,.033-.034.033.033,0,0,1,.031.021,3.176,3.176,0,0,0,1.173,1.382,5.852,5.852,0,0,0,1.668.775,13.216,13.216,0,0,0,3.651.608.033.033,0,0,1,.032.035.034.034,0,0,1-.021.031Z" transform="translate(-6645.554 -1902.355)"/></g><g transform="translate(3.044)"><path class="ax" d="M6663.486,1895.766a4,4,0,0,0-.9-1.168,5.044,5.044,0,0,0-1.221-.838,5.9,5.9,0,0,0-.709-.272,3.484,3.484,0,0,0-.772-.111,1.934,1.934,0,0,0-1.446.5l-.006.007a.026.026,0,0,0,0,.036.026.026,0,0,0,.028,0,2.4,2.4,0,0,1,1.362-.144,4.447,4.447,0,0,1,1.316.448,10.007,10.007,0,0,1,2.313,1.573.026.026,0,0,0,.04-.03Z" transform="translate(-6658.423 -1893.375)"/></g></g><g transform="translate(84.832 64.681)"><g transform="translate(0 1.025)"><path class="ax" d="M6756.063,2304.563a4.317,4.317,0,0,1-1.993.182,4.71,4.71,0,0,1-1.795-.575,3.465,3.465,0,0,1-1.391-1.327,2.1,2.1,0,0,1-.149-2l.012-.025a.057.057,0,0,1,.069-.028.043.043,0,0,1,.027.035,2.7,2.7,0,0,0,.72,1.439,4.857,4.857,0,0,0,1.328.988,9.785,9.785,0,0,0,1.547.706c.54.19,1.093.364,1.656.5a.044.044,0,0,1,.031.059.057.057,0,0,1-.035.034Z" transform="translate(-6750.545 -2300.788)"/></g><g transform="translate(1.771)"><path class="ax" d="M6771.787,2294.073a4.242,4.242,0,0,1-1.523-.057,4.852,4.852,0,0,1-1.391-.507,5.471,5.471,0,0,1-.614-.42,3.011,3.011,0,0,1-.5-.564,1.759,1.759,0,0,1-.3-1.467l0-.008a.03.03,0,0,1,.033-.021.024.024,0,0,1,.02.02,2.1,2.1,0,0,0,.577,1.19,4,4,0,0,0,1.088.811,9.611,9.611,0,0,0,2.622.97.023.023,0,0,1,.016.031.03.03,0,0,1-.022.02Z" transform="translate(-6767.404 -2291.03)"/></g></g><path class="ax" d="M6814.639,2164.245a19.624,19.624,0,0,1,4.175-1.686,23.128,23.128,0,0,1,4.452-.816,13.928,13.928,0,0,1,4.576.334,6.144,6.144,0,0,1,3.81,2.464,8.231,8.231,0,0,0-4.012-1.419,21.375,21.375,0,0,0-4.272-.02C6820.486,2163.313,6817.612,2163.833,6814.639,2164.245Z" transform="translate(-6723.073 -2110.595)"/></g></g></g></g></g></svg>