<svg xmlns="http://www.w3.org/2000/svg" width="221.348" height="137.34" viewBox="0 0 221.348 137.34"><defs><style>.a{fill:#ffdfc5;}.b{fill:#ad6949;}.c,.f{fill:#c3b8d4;}.c,.j{opacity:0.6;}.d{fill:#874b30;}.e{fill:#4d2f19;}.g,.j{fill:#ffd7a6;}.h{fill:#d68458;}.h,.k,.m{opacity:0.4;}.i{fill:#deab6b;}.k{fill:#ffd9e3;}.l{fill:#e0b089;}.m{fill:#bad4b8;}.n{fill:#e3eee3;}</style></defs><g transform="translate(-5153.141 -714.39)"><g transform="translate(5153.141 714.39)"><g transform="translate(44.959)"><path class="a" d="M5380.127,1127.029c-.322-.244-.561-.745-.889-.984a8.081,8.081,0,0,0-1.356-.748,25.142,25.142,0,0,0-3.66-1.181c-1.113-.318-2.2-.911-3.336-1.13-1.195-.231-2.426-.488-3.635-.619-2.778-.3-5.4.357-8.121.671a15.82,15.82,0,0,0-4.34,1.546c-.591.25-1.16.477-1.729.784-.617.334-1.118.794-1.7,1.178a.547.547,0,0,0-.244.392l-.006.041a.5.5,0,0,0,.746.441c.541-.356,1.022-.785,1.584-1.107a16.436,16.436,0,0,1,1.732-.8,16.825,16.825,0,0,1,4.409-1.5c2.6-.371,5.181-.965,7.832-.6,1.12.152,2.281.356,3.387.6,1.068.24,2.091.768,3.15,1.071a24.453,24.453,0,0,1,3.646,1.194,5.713,5.713,0,0,1,1.2.692c.371.308.5.774.944,1a.5.5,0,0,0,.733-.3l.011-.04A.472.472,0,0,0,5380.127,1127.029Z" transform="translate(-5343.082 -1013.12)"/><path class="b" d="M5391.494,721.452a.5.5,0,0,0-.173-.362.4.4,0,0,0-.21-.265,3.556,3.556,0,0,0-.542-.275.493.493,0,0,0-.485.126,5.651,5.651,0,0,0-.853,1.778c-.281.721-.53,1.458-.768,2.195-.5,1.552-.939,3.061-1.573,4.553a19.957,19.957,0,0,0-.807,2.258,11.16,11.16,0,0,1-.7,1.66,32.472,32.472,0,0,0-1.532,3.827c-.95,3.009-2.392,5.836-3.327,8.858-.743,2.4-1.273,4.866-1.939,7.292-.474,1.343-1.022,2.641-1.425,4.025-.565,1.946-1.342,3.805-2.062,5.7a25.247,25.247,0,0,0-.883,2.867,19.792,19.792,0,0,1-1.074,2.781,17.238,17.238,0,0,0-.706,2.217c-.267.977-.693,1.9-.918,2.887-.132.582-.285,1.164-.419,1.748-.05.122-.1.243-.149.365-.557,1.417-.833,2.953-1.319,4.4-.584,1.743-1.041,3.508-1.5,5.287-.234.9-.556,1.766-.813,2.657a16.241,16.241,0,0,1-.55,1.932.566.566,0,0,0-.045.2c-.052.154-.105.308-.154.463-.569,1.813-.976,3.71-1.468,5.55-.539,2.016-1.053,4.038-1.605,6.051-.5,1.836-.812,3.737-1.352,5.558a29.636,29.636,0,0,0-.921,2.87c-.2,1.07-.332,2.139-.609,3.2-.577,2.192-.985,4.429-1.748,6.557-.377,1.056-.536,2.113-.99,3.157a24.771,24.771,0,0,0-.989,2.836,40.064,40.064,0,0,0-1.656,6.369.419.419,0,0,0,.085.329.438.438,0,0,0,.473.447,2.036,2.036,0,0,1,.776.109.506.506,0,0,0,.633-.481,10.828,10.828,0,0,1,.18-1.958c.145-.456.378-.848.486-1.314.3-1.282.578-2.574.883-3.86.316-1.339.678-2.658,1.025-3.988.6-2.3,1.508-4.468,2.207-6.731.5-1.614.936-3.253,1.34-4.887.382-1.54.737-3.078,1.12-4.617.407-1.639.551-3.36,1.081-4.968a30.291,30.291,0,0,0,.983-4.285c.257-1.449.692-2.829,1.057-4.256.191-.746.472-1.477.635-2.229a12.394,12.394,0,0,1,.665-2.449c.768-1.788,1.236-3.878,1.943-5.668a12.807,12.807,0,0,0,.713-2.956,26.209,26.209,0,0,1,1.091-2.52,9.073,9.073,0,0,0,.49-1.726c.194-.735.47-1.443.716-2.161.412-1.2.777-2.435,1.14-3.649.189-.634.415-1.268.554-1.915a18.022,18.022,0,0,1,.425-2.159c.238-.691.617-1.318.883-2,.22-.562.373-1.15.6-1.707a14.388,14.388,0,0,0,1.006-3c.2-1.108.7-2.152.851-3.26.371-.854.709-1.718,1.017-2.611.486-1.416.613-2.986,1.2-4.354a32.929,32.929,0,0,0,1.187-3.571,10.629,10.629,0,0,1,.556-1.8,9.056,9.056,0,0,0,.429-.95c.029-.081.049-.21.08-.325.027-.061.054-.122.08-.183a.226.226,0,0,1,.022-.027.424.424,0,0,0,.159-.389c.467-1.067.943-2.129,1.367-3.217.4-1.013.742-2,1.211-2.979.414-.865.859-1.757,1.2-2.657.719-1.925,1.167-3.956,1.889-5.87.351-.932.824-1.83,1.145-2.767a4.037,4.037,0,0,1,.463-1.027A.94.94,0,0,0,5391.494,721.452Z" transform="translate(-5346.098 -718.889)"/><path class="b" d="M5403.747,723.65c-.549-.2-.7-.477-1.307-.395a.488.488,0,0,0-.35.349c-.292,1.114-.659,2.2-1,3.3-.375,1.2-.618,2.4-.911,3.623-.607,2.538-1.07,5.13-1.87,7.611-.343,1.065-.866,2.054-1.234,3.11-.234.672-.5,1.328-.747,2s-.342,1.366-.57,2.037c-.816,2.4-1.878,4.777-2.5,7.238-.315,1.243-.815,2.356-1.238,3.557a12.274,12.274,0,0,1-.629,1.783c-.318.591-.611,1.181-.879,1.8-1.005,2.326-2.026,4.636-3.024,6.967-1.033,2.411-2.284,4.751-3.158,7.227a30.091,30.091,0,0,0-1.063,3.2c-.3,1.29-.712,2.493-1.071,3.767-.353,1.252-.687,2.44-.927,3.719-.243,1.3-.75,2.552-.89,3.865a12.1,12.1,0,0,1-.265,2.113c-.2.692-.4,1.372-.56,2.075-.589,2.591-1.584,4.878-1.968,7.541a31.638,31.638,0,0,1-1.7,5.6c-1.147,3.342-1.668,6.926-3.151,10.155-1.491,3.246-2.144,6.777-3.14,10.187-.909,3.111-2.02,6.172-2.692,9.357a.616.616,0,0,0-.039.418.484.484,0,0,0,0,.268c.2.727,1.416,1.385,1.755.4a2.723,2.723,0,0,0,.012-.787,4.717,4.717,0,0,1,.153-.864c.125-.689.218-1.39.359-2.088.689-3.424,2.319-6.568,3.12-9.959a28.084,28.084,0,0,1,1.822-4.257c.658-1.586,1.155-3.212,1.677-4.845.539-1.688.947-3.393,1.438-5.094.241-.833.571-1.634.787-2.476a10.534,10.534,0,0,0,.442-1.895.509.509,0,0,0-.016-.17c.258-1.584.5-3.183.851-4.745.322-1.428.8-2.8,1.071-4.218.285-.771.606-1.531.858-2.279a36.752,36.752,0,0,0,1.288-4.3c.144-.711.055-1.463.13-2.184a14.787,14.787,0,0,1,.566-2.612c.46-1.588.717-3.219,1.2-4.8a11.285,11.285,0,0,1,.837-1.911c.367-.7.581-1.447.934-2.151a89.71,89.71,0,0,0,4.5-10.656c.506-1.447,1.121-2.918,1.7-4.344,1-2.443,1.95-4.906,2.729-7.409.489-1.573,1.179-3.148,1.811-4.667,1.029-2.472,1.7-5.059,2.594-7.577.352-1,.93-1.907,1.273-2.907.362-1.055.316-2.219.624-3.3q.5-1.761,1.022-3.514c.6-2.006,1.477-3.9,1.566-6.02A.531.531,0,0,0,5403.747,723.65Z" transform="translate(-5354.604 -720.871)"/><path class="b" d="M5356.016,828.286a14.953,14.953,0,0,0-1.442-3.658c-.623-1.308-1.265-2.607-1.882-3.916-.307-.649-.516-1.332-.787-1.994-.25-.614-.581-1.156-.774-1.8-.74-2.447-1.514-4.869-2.149-7.345-.545-2.127-1.076-4.285-1.75-6.374-.666-2.063-1.155-4.3-1.821-6.412-.35-1.108-.839-2.2-1.113-3.327-.562-2.31-1.136-4.6-1.748-6.893-.287-1.077-.59-2.134-.939-3.2-.382-1.166-.48-2.364-.8-3.546-.3-1.112-.58-2.228-.865-3.349-.764-3-2.042-5.883-2.907-8.87-.65-2.24-.947-4.554-1.657-6.782-.62-1.944-.976-3.889-1.735-5.791a8.182,8.182,0,0,1-.319-1.57,12.615,12.615,0,0,0-.623-1.672c-.189-.529-.472-1.111-.716-1.7-.114-.517-.3-1.006-.46-1.518-.015-.1-.025-.205-.03-.305a.472.472,0,0,0-.158-.349c-.172-.668-.292-1.357-.423-2.031-.289-1.488-.8-2.862-1.16-4.325-.211-.851-.377-1.722-.659-2.554-.238-.7-.606-1.349-.855-2.043a36.628,36.628,0,0,1-.89-3.97c-.39-1.628-.708-3.261-1.067-4.893a45.133,45.133,0,0,1-1.193-4.807,31.15,31.15,0,0,0-.6-3.533c-.17-.755-.46-1.48-.69-2.218a13.866,13.866,0,0,1-.864-2.53.513.513,0,0,0-.129-.3.486.486,0,0,0-.47-.327,1.047,1.047,0,0,0-.171.023.55.55,0,0,0-.476.116l-.066.061c-.028.015-.1.06-.107.066a.564.564,0,0,0-.123.118c-.012.008-.025.017-.038.024a.484.484,0,0,0-.2.589.514.514,0,0,0,.02.2c.382,1.286.734,2.576,1.176,3.839.259.742.419,1.516.621,2.279.54,3.311,1.239,6.586,1.9,9.877a89.822,89.822,0,0,0,2.928,11.354c.62,1.821,1.205,3.656,1.792,5.49.591,1.85,1,3.749,1.584,5.6.573,1.831,1.3,3.609,1.838,5.45.578,1.968,1.007,3.976,1.451,5.977a74.583,74.583,0,0,0,3.177,10.842,45.365,45.365,0,0,1,1.321,4.932c.24.92.611,1.806.862,2.725.258.94.382,1.912.645,2.848.47,1.673,1.06,3.3,1.53,4.974.252.9.537,1.785.784,2.684s.347,1.816.6,2.7c.479,1.652.953,3.263,1.318,4.951.168.779.2,1.57.334,2.354a22.413,22.413,0,0,0,.808,2.677c.62,2.031,1.375,4.037,2.12,6.023.355.944.676,1.9,1.022,2.847a8.517,8.517,0,0,1,.271,1.252,20.251,20.251,0,0,0,1.27,3.989c.37.822.643,1.674,1.025,2.491.433.926.913,1.791,1.414,2.678a12.849,12.849,0,0,1,.6,1.281,6.585,6.585,0,0,1,.382.859.513.513,0,0,0,.47.675C5355.147,829.254,5356.187,829.3,5356.016,828.286Z" transform="translate(-5321.125 -714.39)"/><path class="c" d="M5378.27,1075.852a25.676,25.676,0,0,0,.122,3.623.481.481,0,0,1-.069.253.408.408,0,0,1-.068.4,1.724,1.724,0,0,1-.229.244c-.137.39-.324.471-.658.708a23.661,23.661,0,0,1-6.635,3.625,26.2,26.2,0,0,1-7.491,1.276,25.556,25.556,0,0,1-6.735-.729c-2.242-.553-4.143-1.851-6.206-2.856a10.721,10.721,0,0,1-2.4-1.823,2.131,2.131,0,0,1-.668-1.471,2.911,2.911,0,0,1-.167-1.48,10.3,10.3,0,0,0-.123-1.979c-.066-.671-.009-1.344-.071-2.017-.066-.725-.134-1.465-.15-2.193a31.611,31.611,0,0,1,.215-3.632,78.629,78.629,0,0,0-.043-10.644c.4.043.792.087,1.185.15.129.021.258.042.386.065a15.313,15.313,0,0,0,2.579.353c1.711.011,3.382.379,5.094.392,1.646.013,3.345-.188,4.989-.042.924-.059,1.848-.1,2.779-.1,2.567-.006,5.179.425,7.732.1a35.384,35.384,0,0,1,4.233-.69c.278,0,.555-.014.832-.03.532-.03,1.062-.08,1.591-.131q-.077,2.643-.155,5.284c-.054,1.83.152,3.566.138,5.381-.01,1.285.232,2.52.23,3.807,0,.86.086,1.711.054,2.579A13.058,13.058,0,0,1,5378.27,1075.852Z" transform="translate(-5339.871 -965.421)"/><path class="a" d="M5377.853,991.484c.014-1.815-.192-3.551-.139-5.381q.079-2.643.156-5.284.019-.571.034-1.142c.018-2.288.136-4.581.206-6.867.058-1.978.7-4.9.015-6.762-.244-.671-.574-.754-1.041-1.069a4.628,4.628,0,0,0-.771-.586.406.406,0,0,0-.047-.079c-.8-1.084-2.257-1.534-3.362-2.21-.5-.3-4.1-2.12-4.09-2.433.017-.6.164-1.9.177-3.181a1.14,1.14,0,0,0,.753-.121c.29-.189.291-.519.271-.832a8.492,8.492,0,0,1,0-1.058c.032-.527.16-1.358-.512-1.541a2.641,2.641,0,0,0-.932.049c-.13.013-.312.066-.467.091a.429.429,0,0,0-.315-.093c-1,.069-2.021.168-3.02.16-1.3-.012-2.591.163-3.889.216a37.187,37.187,0,0,1-3.9-.294c-.2-.014-.472,0-.71-.024a.643.643,0,0,0-.4-.124.531.531,0,0,0-.565,0c-.018.008-.038.016-.053.024.1-.122.056-.054-.181-.058-.111,0-.225-.008-.336,0a1.892,1.892,0,0,0-.735.121c-.593.281-.545,1-.486,1.561.054.518-.025,1.365.416,1.708a1.37,1.37,0,0,0,.844.224c.133,0,.267.014.4.023.07,1.453.085,2.9-.158,3.065-.376.259-.815.479-1.15.682-1.969,1.185-3.818,2.561-5.768,3.781-.355.222-.691.471-1.027.723a2.148,2.148,0,0,0-.574.538,3.165,3.165,0,0,0-.253.905,8.947,8.947,0,0,0-.05,2.193q0,1.391.018,2.782c.025,1.854.075,3.708.131,5.562q.038,1.223.078,2.447c.016.518.038,1.038.06,1.559a78.55,78.55,0,0,1,.043,10.644,31.831,31.831,0,0,0-.215,3.632c.017.727.084,1.467.151,2.193.061.673,0,1.346.07,2.017a10.262,10.262,0,0,1,.122,1.979,2.917,2.917,0,0,0,.168,1.48,2.129,2.129,0,0,0,.667,1.471,10.725,10.725,0,0,0,2.4,1.823c2.063,1.005,3.963,2.3,6.207,2.856a25.561,25.561,0,0,0,6.734.729,26.216,26.216,0,0,0,7.492-1.276,23.668,23.668,0,0,0,6.634-3.625c.334-.237.522-.318.658-.708a1.67,1.67,0,0,0,.229-.244.406.406,0,0,0,.068-.4.485.485,0,0,0,.07-.253,25.679,25.679,0,0,1-.122-3.623,13.059,13.059,0,0,0,.294-1.583c.032-.868-.057-1.718-.055-2.579C5378.084,994,5377.843,992.769,5377.853,991.484Zm-1.337,11.769a.629.629,0,0,0,.061.23,4.247,4.247,0,0,0-.438.232,4.707,4.707,0,0,0-.625.559,5.568,5.568,0,0,1-1.651,1.232,19.141,19.141,0,0,1-3.64,1.321c-1.129.273-2.319.355-3.459.592a22.8,22.8,0,0,1-8.33-.02,36.027,36.027,0,0,1-3.606-.745c-1.166-.321-2.145-1.1-3.317-1.4a6.315,6.315,0,0,1-2.244-.96c-.436-.336-.749-.711-1.2-1.03a1.437,1.437,0,0,1-.224-.507c0-.018,0-.034,0-.052.011-1.541-.11-3.085-.1-4.616.006-.788-.094-1.556-.048-2.343.044-.769.085-1.52.083-2.3,0-1.356.193-2.714.245-4.069.035-.908-.135-1.787-.077-2.69.05-.747.077-1.5.139-2.245a30.675,30.675,0,0,0-.053-3.475,14,14,0,0,1,.037-1.78,25.673,25.673,0,0,0-.432-5.249,33.846,33.846,0,0,1-.2-4.743,9.93,9.93,0,0,1,.233-2.343c.333-1.128,1.335-1.019,2.193-1.542a40.016,40.016,0,0,0,3.609-2.5c.805-.622,2.084-2.219,3.123-2.395a.469.469,0,0,0,.322-.227c.329-.533.018-1.253,0-1.825-.006-.244.3-3.309.089-3.321,1.459.09,2.9.4,4.357.463a8.476,8.476,0,0,0,2.541-.214,18.96,18.96,0,0,1,2.775-.617c-.017.924-.038,1.853-.1,2.773a10.689,10.689,0,0,0-.037,2.707,1.293,1.293,0,0,0,.1.329.436.436,0,0,0,.246.366c1.508.8,3.187,1.568,4.736,2.405,1.5.811,2.876,1.96,4.433,2.661a1.561,1.561,0,0,1,.709.515.809.809,0,0,1,.1.44c0,.433-.163.99-.186,1.308-.068.936-.087,1.877-.069,2.816.008,1.271-.2,2.512-.233,3.781a30.808,30.808,0,0,1,.19,3.242c-.125.97-.248,1.948-.3,2.924,0,.032-.005.062-.007.095-.067,1.3-.062,2.628-.1,3.931s.124,2.559.114,3.846c-.014,2.228.2,4.4.325,6.618a19.932,19.932,0,0,1-.131,3.88A20.015,20.015,0,0,0,5376.516,1003.253Z" transform="translate(-5339.443 -889.022)"/><path class="a" d="M5373.976,999.217c-.16-.34-.6-.557-.9-.762a12.685,12.685,0,0,1-1.587-1.332c-.862-.826-1.6-1.572-2.882-1.437-.606.064-1.214.241-1.821.331a11.367,11.367,0,0,0-2.021.553,9.364,9.364,0,0,1-1.517.413c-.609.105-1.479.161-1.643.924-.186.872.86,1.18,1.495,1.386a6.515,6.515,0,0,0,1.982.238c1.314.008,2.559.29,3.859.418,1.271.124,2.584.2,3.861.255C5373.4,1000.229,5374.375,1000.066,5373.976,999.217Z" transform="translate(-5350.758 -920.39)"/><path class="a" d="M5432.153,1003.359c-.166-.481-.519-.443-.951-.483a8.979,8.979,0,0,0-1.975-.262,6.922,6.922,0,0,0-2.225.739,18.414,18.414,0,0,1-2.453.84.507.507,0,0,0,.124.99,4.186,4.186,0,0,0,.861-.063.532.532,0,0,0,.167.006c1.033-.136,2.042-.2,3.077-.413a20.027,20.027,0,0,0,3.021-.738A.512.512,0,0,0,5432.153,1003.359Z" transform="translate(-5396.608 -925.464)"/></g><path class="d" d="M5213.988,1064.974a1.9,1.9,0,0,0-1.019-.96,25.62,25.62,0,0,0-3.93-1.61,45.82,45.82,0,0,0-7.462-1.647c-3.982-.557-8-1.145-12.02-1.3a128.974,128.974,0,0,0-21.467.757,71.414,71.414,0,0,0-11.012,2.2,10.065,10.065,0,0,0-1.707.7,8.4,8.4,0,0,0-2.019,1.071.453.453,0,0,0-.085.108.427.427,0,0,0-.114.346,77.435,77.435,0,0,0,1.023,4.026c.55.922,2.028,1.177,2.956,1.449,1.271.373,2.55.716,3.833,1.038a87.115,87.115,0,0,0,10.271,1.994c3.505.442,7.056.585,10.583.727,4.056.163,8.117.2,12.173.034a59.226,59.226,0,0,0,12.791-2.012,25.174,25.174,0,0,0,3.434-1.036,8.869,8.869,0,0,0,1.78-.869c.536-.383.917-.215,1.156-.94a12.782,12.782,0,0,0,.255-1.533c.155-.77.341-1.515.43-2.3C5213.887,1065.14,5214.044,1065.08,5213.988,1064.974Z" transform="translate(-5153.149 -967.007)"/><g transform="translate(76.321 60.348)"><path class="e" d="M5496.081,1138.877a3.763,3.763,0,0,0-.224-.62c-.932-1.988-3.426-2.722-5.219-3.628a20.664,20.664,0,0,0-2.455-1.14,25.883,25.883,0,0,0-7.429-1.642c-2.521-.107-5.022.257-7.529-.216a19.131,19.131,0,0,0-3.379-.1c-1.347-.01-2.736.084-4.077-.028a33.521,33.521,0,0,0-3.383-.3,40.242,40.242,0,0,0-16.829,4.032c-2.733,1.4-7.8,4.918-7.2,8.555.152.916.873,1.4,1.535,1.963,3.647,3.094,8.385,2.393,12.766,2.468,1.133.019,2.247.3,3.375.329,4.373.123,8.689,1.011,13.052,1.169a91.547,91.547,0,0,0,13.421-.077c3.863-.429,9.962-1.378,12.292-4.943A8.069,8.069,0,0,0,5496.081,1138.877Z" transform="translate(-5438.31 -1079.997)"/><path class="e" d="M5498.473,1071.837a26.467,26.467,0,0,0-4.279-6.819,11.307,11.307,0,0,0-2.812-2.317,36.233,36.233,0,0,0-12.187-4.938,45.131,45.131,0,0,0-13.708-.092c-3.854.426-7.856,1.552-10.885,4.1a7.918,7.918,0,0,0-2.683,5.39c-.171,1.531,1.261,2.671,2.317,3.515a28.029,28.029,0,0,0,8.137,4.227,57.784,57.784,0,0,0,10.662,3.1c2.92.477,5.564.1,8.479.12,2.247.016,4.48-.1,6.727-.006,2.405.1,4.847.627,7.253.345a3.8,3.8,0,0,0,2.029-.734C5499.333,1076.209,5499.278,1074.025,5498.473,1071.837Z" transform="translate(-5448.266 -1025.792)"/><path class="e" d="M5503.986,1009.556c-.566-4.448-8.278-5.734-11.675-6.418a47.316,47.316,0,0,0-15.523-.357,27.321,27.321,0,0,0-8.694,2.574c-2.278,1.153-5.657,3.044-6.284,5.764a4.783,4.783,0,0,0,1.082,4.267c.27.266.629.392.9.658a7.473,7.473,0,0,0,.67.7,7.269,7.269,0,0,0,1.641,1.175c2.393.89,4.681.594,7.138.286,2.835-.356,5.589-.88,8.438-1.112,3.51-.287,7.167-.525,10.71-1.023C5495.991,1015.562,5504.683,1015.035,5503.986,1009.556Z" transform="translate(-5455.435 -985.6)"/><path class="e" d="M5493.26,947.313c-4.579-5.734-13.147-7.379-20.053-7.438-4.562-.039-13.066.954-14.326,6.562a4.812,4.812,0,0,0,1.563,4.625c1.084.764,2.514.912,3.694,1.5a28.168,28.168,0,0,0,4.552,2c7.241,2.145,14.745,4.275,22.259,2.23a6.22,6.22,0,0,0,3.9-2.391c1.136-1.881.313-4.358-.916-6.177Q5493.61,947.751,5493.26,947.313Z" transform="translate(-5453.304 -939.874)"/></g><path class="f" d="M5219.833,1077.458a29.166,29.166,0,0,0-7.751-2.264c-6.923-1.149-15-1.092-21.992-.861-2.767.091-22.247.565-22.126,3.817a1.335,1.335,0,0,0-.284.589,1.767,1.767,0,0,0,.917,1.7,4.527,4.527,0,0,1,.813.457,3.243,3.243,0,0,0,1.063.8c.8.307,1.683.489,2.5.746,1.018.318,2.065.357,3.1.613.841.208,1.651.441,2.5.6.926.174,1.872.17,2.8.29,4.25.546,8.6,1.337,12.9.924a47.106,47.106,0,0,1,5.909-.313c2.089.069,4.121-.3,6.195-.344,3.67-.073,7.679-.18,10.939-2.091.861-.5,1.75-.936,2.582-1.494,1.531-1.026,1.929-2.22-.031-3.147Z" transform="translate(-5163.772 -977.9)"/><path class="b" d="M5213.892,1078.313c-.175-.088-4.091,1.476-5.138,1.84a57.043,57.043,0,0,1-8.863,1.891c-10.4,1.8-21.161,1.218-31.565-.323a56.48,56.48,0,0,1-14.682-3.9c-.518-.23-.5-.223-.5.578a8.428,8.428,0,0,0,.123,1.565,61.658,61.658,0,0,0,3.274,11.428c2.341,5.99,5.159,12.761,8.752,18.081.422.625.919,1.184,1.384,1.774a14.179,14.179,0,0,0,5.79,4.477c5.1,2.161,10.466,2.035,16.3,2.073a18.555,18.555,0,0,0,6.642-1.023c6.117-1.833,8.582-6.328,10.771-12,2.992-7.754,6.3-16.969,7.71-25.171C5213.968,1079.156,5214.115,1078.424,5213.892,1078.313Z" transform="translate(-5153.14 -980.46)"/><path class="d" d="M5172.284,1103.148a18.459,18.459,0,0,1-1.142-3.255,2.879,2.879,0,0,0-.867-1.788,1.493,1.493,0,0,0-1.653-.4c-.822.309-.843,1.294-.706,2.022a9.855,9.855,0,0,0,1.479,3.253,6.763,6.763,0,0,0,2.251,2.281c.268.141,1.066.475,1.33.156C5173.381,1104.931,5172.463,1103.586,5172.284,1103.148Z" transform="translate(-5163.915 -995.046)"/><path class="d" d="M5208.672,1112.377a29.537,29.537,0,0,0-.752-3.615,11.518,11.518,0,0,0-.412-1.529,2.531,2.531,0,0,0-.326-.885c-.523-1.447-2.366-1.888-2.934-.174a5.049,5.049,0,0,0,.472,3.3,10.153,10.153,0,0,0,1.431,2.964c.319.364,1.551,1.574,2.153,1.436C5208.834,1113.755,5208.692,1112.751,5208.672,1112.377Z" transform="translate(-5190.474 -1000.506)"/><path class="d" d="M5255.82,1112.613a3.131,3.131,0,0,0-.832-2.077l-.021-.017c-.009-.006-.015-.013-.023-.018a.2.2,0,0,0-.169-.03,2.059,2.059,0,0,0-2.033.491c-.563.726-.33,1.855-.258,2.692a28.756,28.756,0,0,0,.315,3.665c.122.557.314,1.554.88,1.863,1.374.748,1.9-3.127,2.032-3.849.02-.113.034-.225.047-.336A5.268,5.268,0,0,0,5255.82,1112.613Z" transform="translate(-5225.816 -1004.422)"/><path class="d" d="M5304.152,1110.26a1.433,1.433,0,0,0-2.622-.454,6.175,6.175,0,0,0-1.016,3.126,14.233,14.233,0,0,1-.744,3.242c-.246.638-.69,1.933.46,1.668a4.537,4.537,0,0,0,2-1.679,7.445,7.445,0,0,0,1.619-2.884,6.328,6.328,0,0,0,.309-3Z" transform="translate(-5260.312 -1003.488)"/><path class="d" d="M5348.841,1102.1a2.088,2.088,0,0,0-2.232.506,6.633,6.633,0,0,0-1.4,2.856c-.418,1.288-.734,2.63-1.177,3.895-.146.418-.3.791.229.906.877.192,1.946-1.159,2.4-1.709a17.378,17.378,0,0,0,1.76-2.952C5348.791,1104.908,5350.309,1102.157,5348.841,1102.1Z" transform="translate(-5292.844 -998.219)"/><path class="g" d="M5264.45,1021.639c-.249-1.021-.716-1.96-.926-3a17.91,17.91,0,0,0-.892-3.148c-.254-.641-.615-2.661-1.547-1.505a3.617,3.617,0,0,0-.582,1.544c-.149.764-.207,1.511-.4,2.271a13.213,13.213,0,0,1-1.606,3.542,5.629,5.629,0,0,0-.942,2.434,6.891,6.891,0,0,0,.359,2.856c.2.631.753,3.173,1.934,2.351.331-.231.419-.814.482-1.178.1-.56.137-.474.5-.282a2.764,2.764,0,0,1,1.038,1.955c.025.773-.227,2.015.984,1.232s1.711-2.919,2.081-4.227C5265.37,1024.907,5264.826,1023.175,5264.45,1021.639Z" transform="translate(-5229.583 -933.546)"/><path class="e" d="M5269.858,1064.824a.193.193,0,0,0-.033-.107c-.048-1.192-.161-2.377-.188-3.574-.006-.281-.011-.563-.034-.843s-.11-.546-.127-.821c-.024-.41.479-1.419.029-1.7-.375-.231-.669.264-.7.6a16.116,16.116,0,0,0,.076,3.9c.07.858.179,1.721.214,2.566a.194.194,0,0,0,.019.074.314.314,0,0,0,0,.043c0,.03,0,.062,0,.093a.286.286,0,0,0,0,.059.27.27,0,0,0,.151.22.4.4,0,0,0,.458-.038.3.3,0,0,0,.066-.115.173.173,0,0,0,.045-.078A.976.976,0,0,0,5269.858,1064.824Z" transform="translate(-5237.789 -965.835)"/><path class="d" d="M5496.322,954.867a5.124,5.124,0,0,0-2.228-.526,23.9,23.9,0,0,0-2.577-.169,16.1,16.1,0,0,0-2.851-.062,31.181,31.181,0,0,1-3.119.374,17.516,17.516,0,0,0-2.734-.1c-.3.054-.618.174-.644.54s.292.624.717.794a.2.2,0,0,0,.106.048l.032,0a6.416,6.416,0,0,0,1.736.279.179.179,0,0,0,.146-.063,29.7,29.7,0,0,0,5.649.23c1.241-.1,2.389-.35,3.612-.557.621-.105,1.716.007,2.192-.469A.206.206,0,0,0,5496.322,954.867Z" transform="translate(-5394.108 -889.92)"/><path class="d" d="M5550.438,981.111q-.486-.126-.985-.209a.166.166,0,0,0-.124-.02c-.632-.1-1.273-.165-1.9-.224-1.112-.105-2.142-.811-3.28-.6a.2.2,0,0,0-.141.247c.434,1.081,2.15,1.322,3.143,1.464a17.808,17.808,0,0,0,2.7.226,9.7,9.7,0,0,0,1.906.168.2.2,0,0,0,.14-.139C5552.061,981.265,5551.2,981.182,5550.438,981.111Z" transform="translate(-5439.394 -908.926)"/><path class="d" d="M5506.912,1012.539a50,50,0,0,0-6.055.061c-1.959.068-3.939.114-5.887.366a42.076,42.076,0,0,0-6.973,1.258c-1.035.316-2.085.583-3.118.908-1.136.357-2.206.845-3.319,1.26a.213.213,0,0,0-.129.26c-.162.089-.326.179-.5.259-.2.092-.062.445.15.369a7.32,7.32,0,0,1,1.718-.179,16.136,16.136,0,0,0,2.541-.373c1.871-.479,3.76-.951,5.653-1.367,1.952-.429,3.941-.424,5.907-.693a42.994,42.994,0,0,1,6.188-.4c1.39.008,3.213.206,4.51-.469C5508.563,1013.294,5507.587,1012.6,5506.912,1012.539Z" transform="translate(-5393.129 -932.686)"/><path class="d" d="M5491.985,1067.919a10.02,10.02,0,0,0-3.769-.475c-1.317-.01-2.62.176-3.927.155a4.326,4.326,0,0,0-2.731.67.738.738,0,0,0-.478.335.209.209,0,0,0,.029.244c.238.275.4.17.75.2.556.054,1.08.249,1.642.281,1.21.069,2.441.109,3.652.118,1.444.011,2.889.032,4.333.033.4,0,1.955.164,2.015-.534C5493.547,1068.408,5492.36,1068.068,5491.985,1067.919Z" transform="translate(-5393.292 -972.954)"/><path class="d" d="M5545.252,1104.054c-1.7-.246-3.325-.618-5-.995a34.415,34.415,0,0,1-5.078-1.64,18.536,18.536,0,0,0-4.742-1.337c-.845-.086-1.7-.115-2.541-.233a11.211,11.211,0,0,0-2.587-.176.205.205,0,0,0-.193.146c-.234,1.483,2.708,1.977,3.636,2.354a60.414,60.414,0,0,0,6.952,2.154c1.728.47,3.516.879,5.267,1.289a19.022,19.022,0,0,0,4.835.612,3.369,3.369,0,0,0,1.472-.425c.228-.113.665-.2.708-.518C5548.107,1104.389,5545.731,1104.124,5545.252,1104.054Z" transform="translate(-5425.552 -996.54)"/><path class="d" d="M5567.917,1142.851a7.243,7.243,0,0,0-3.23-.935,29.885,29.885,0,0,0-5.4.193c-.8.126-1.6.277-2.393.441a21.9,21.9,0,0,1-2.921.728.2.2,0,0,0-.174.129.573.573,0,0,0-.384.7c.162.648,1.314.436,1.766.347.705-.138,1.39-.231,2.1-.332.688-.1,1.382.046,2.068-.066a13.075,13.075,0,0,1,4.024.117c1.193.191,2.4.274,3.6.468.562.091,2,.239,2.288-.492C5569.615,1143.245,5568.414,1143.105,5567.917,1142.851Z" transform="translate(-5446.269 -1027.47)"/></g><g transform="translate(5243.798 718.111)"><path class="h" d="M5562.65,1144.719c-.052-2.273.07-4.562.084-6.833.008-1.154-.044-2.306-.089-3.46-.5.069-1,.171-1.5.269-.482.1-.963.191-1.431.252-.709.094-1.416.222-2.131.277-.071.008-.14.012-.211.016-.248.013-.567.041-.894.052,0,.334,0,.669,0,1,.009,1.061.042,2.12.078,3.18.007,1.444-.025,2.884.063,4.327.014.211.031.422.049.633v.1a12.389,12.389,0,0,0,.518,4.384c.269.7.873,1.13,1.188,1.8.256.542.322,1.236.834,1.629.953.736,1.561-.262,1.809-1.1.2-.677.567-1.262.8-1.912C5562.85,1148.093,5562.688,1146.238,5562.65,1144.719Z" transform="translate(-5539.187 -1025.731)"/><path class="a" d="M5666.376,1143.807c-.15-.771-1.527-1.272-2.092-1.63a19.136,19.136,0,0,0-2.782-1.745c-1.154-.486-2.368-.836-3.525-1.323a31.371,31.371,0,0,0-3.55-.967c-.551-.159-1.111-.18-1.669-.3-.5-.108-.978-.329-1.5-.4-2.073-.285-4.165-.443-6.224-.779a.216.216,0,0,0-.148.029c-2.495-.143-4.987.067-7.482,0-2.168-.055-4.709-.413-6.787.342-.007,0-.01.007-.017.01a63.09,63.09,0,0,0-9.1,1.969,32.948,32.948,0,0,0-4.1,1.841,10.825,10.825,0,0,0-3.422,2.031.194.194,0,0,0-.137.061,1.635,1.635,0,0,0-.41,1.532c.1.329.7.789.926.311a.216.216,0,0,0-.021-.224c1.019-.585,1.873-1.476,2.94-2.029a36.373,36.373,0,0,1,4.363-2.03,28.531,28.531,0,0,1,5.909-1.089c1.995-.262,3.966-.573,5.977-.7,3.539-.218,7.04-.225,10.577-.212a44.379,44.379,0,0,1,11.472,1.769c1.661.46,3.305.988,4.933,1.534a15.762,15.762,0,0,1,2.524,1.538c.755.41,1.486.764,2.21,1.213a.189.189,0,0,0,.237-.018C5665.942,1144.539,5666.49,1144.392,5666.376,1143.807Z" transform="translate(-5580.855 -1027.296)"/><path class="i" d="M5676.04,987.163c-.15-1.014-.077-2.055-.3-3.069a32.489,32.489,0,0,1-.958-3.759c-.093-.936-.347-1.433-1.293-1.474-.752-.032-1.684-.045-2.142.675a2.011,2.011,0,0,0-.219,1.084,13.7,13.7,0,0,1-.273,2.588,29.069,29.069,0,0,0-.441,3.24c-.126,1.377-.537,2.622-.746,3.969s-.087,2.689-.7,3.946a7.424,7.424,0,0,0-.371.925c-1.513,1.091-3.378,1.792-4.9,2.791a16.085,16.085,0,0,0-2.657,2.264,17.618,17.618,0,0,0-1.839,1.944.217.217,0,0,0,.241.318,11.123,11.123,0,0,0,4.449-2.79,8.961,8.961,0,0,1,2.181-1.279,15.908,15.908,0,0,1,1.9-.773l0,.018a17.134,17.134,0,0,1-.9,3.33c-.2.447-.3.918-.51,1.36a8.056,8.056,0,0,1-1.058,2.108c-.784.832-1.9,1.049-2.757,1.759a8.4,8.4,0,0,0-2.2,2.807c-.316.631-.822,1.119-1.157,1.735a19.6,19.6,0,0,1-1.05,2.009c-.848,1.206-2.592,1.848-3.859,2.506-.068.036-.138.07-.208.1a3.093,3.093,0,0,0-.543-.164,9.409,9.409,0,0,0-2.365.062,11.79,11.79,0,0,0-1.983.268,8.155,8.155,0,0,0-1.954.51.217.217,0,0,0,.049.394,20.857,20.857,0,0,0,3.626-.019,5.041,5.041,0,0,1,.767.1,16.482,16.482,0,0,0-1.47.809c-1.183.744-1.76,2-2.949,2.75a13.4,13.4,0,0,1-3.678,1.579,13.434,13.434,0,0,0-1.66-.821,5.021,5.021,0,0,0-2.614-.25c-.234.038-.175.344,0,.415a13.227,13.227,0,0,1,2.416,1.114,11.2,11.2,0,0,0-1.831.615,15.519,15.519,0,0,0-1.7,1.043,9.957,9.957,0,0,1-2.047.841c-.183.062-.361.129-.539.2-.571.025-1.093.24-1.665.266-.677.031-1.317.772-1.992.838-.994.1-1.9-.252-2.8.177-.445.211-.73.435.043.616,3.059.719,3.489-.118,5.977-.241a23.1,23.1,0,0,1,2.349-.274,10.57,10.57,0,0,0,3.334-.473c1.263-.342,2.526-.614,3.794-.937a14.7,14.7,0,0,0,3.2-1.038c.981-.507,1.763-1.408,2.828-1.728a18.942,18.942,0,0,1,1.925-.274,8.838,8.838,0,0,1,2.038-.18c1.315.042,2.62-.173,3.934-.246a3.1,3.1,0,0,0,2.153-1.4c.46-.55.891-1.1,1.341-1.647a8.235,8.235,0,0,1-.2,2.288,29.13,29.13,0,0,0-.54,3.441c-.027.213.308.295.4.112.362-.714.893-1.326,1.22-2.045a8.38,8.38,0,0,0,.567-2.27,16.954,16.954,0,0,0,.3-2.116c.009-.384-.015-.8-.03-1.219.685-.623,1.413-1.209,2.119-1.8a11.33,11.33,0,0,0,2.113-2.888c.534-.9.9-1.943,1.474-2.813-.045.728-.1,1.455-.1,2.2-.016,2.2-.214,4.539.756,6.561a.217.217,0,0,0,.394-.049,25.949,25.949,0,0,0,.044-3.034c.061-1.11.333-2.178.434-3.276a14.239,14.239,0,0,0,.3-3.034c-.057-.51-.135-1-.206-1.5a9.6,9.6,0,0,0,.648-.983,14.158,14.158,0,0,0,1.138-3.474,43.7,43.7,0,0,0,.909-4.482,20.625,20.625,0,0,0,.551-3.693,5.094,5.094,0,0,1,.458-2.361,19.256,19.256,0,0,0,.8-1.9A5.86,5.86,0,0,0,5676.04,987.163Z" transform="translate(-5592.23 -911.792)"/><path class="b" d="M5697.089,730.094c-.227-1.438-1.416-1.564-2.661-1.7a17.894,17.894,0,0,0-4.558.1,94.676,94.676,0,0,1-10.341.505.556.556,0,0,0-.542.534,3.989,3.989,0,0,0-.021.637.493.493,0,0,0-.141.359c0,1.609.259,3.17.361,4.77.091,1.438.13,2.874.22,4.311.1,1.575.335,3.117.324,4.7-.01,1.379.083,2.686.156,4.05a15.321,15.321,0,0,0,.478,3.676c.332,1.114.455,1.979,1.67,2.238,1.3.278,2.66.528,3.977.7a14.234,14.234,0,0,0,3.323.013c1.348-.153,2.2-.393,3.534-.554a7.081,7.081,0,0,1,.985-.125,4.334,4.334,0,0,0,.867.1.966.966,0,0,0,.744-.674,3.875,3.875,0,0,0,.167-1.47,13.38,13.38,0,0,1,.323-2.112c.219-1.475.284-3.2.393-4.709.169-2.349.213-4.676.522-7.019a33.771,33.771,0,0,0,.156-4.16A26.315,26.315,0,0,0,5697.089,730.094Z" transform="translate(-5628.792 -728.296)"/><path class="e" d="M5559.142,1038.369c-.712-1.114-2.292-1.1-3.417-.669-1.568.6-2.027,1.925-2.042,3.487-.017,1.758-.1,3.528.056,5.279.113,1.287.332,2.585.543,3.855a.461.461,0,0,0,.666.349.563.563,0,0,0,.28.033,7.264,7.264,0,0,1,2.3-.12,5.943,5.943,0,0,0,1.768.323.758.758,0,0,0,.718-.792c.081-.788.029-1.613.076-2.408C5560.266,1044.77,5560.833,1041.015,5559.142,1038.369Z" transform="translate(-5537.114 -954.695)"/><path class="a" d="M5560.807,1125.345c-.237.65-.6,1.235-.8,1.912-.249.833-.856,1.832-1.809,1.1-.511-.393-.577-1.087-.834-1.629-.316-.669-.92-1.1-1.188-1.8a12.355,12.355,0,0,1-.517-4.384v-.1c-.018-.211-.036-.422-.049-.633-.088-1.443-.057-2.882-.063-4.327-.036-1.059-.069-2.118-.079-3.18,0-.334,0-.669,0-1,0-.29,0-.581,0-.872-.048-.853-.154-1.682-.146-2.543.013-1.806-.288-3.6-.219-5.408a.544.544,0,0,1,.838-.424.562.562,0,0,1,.885.57,24.3,24.3,0,0,0-.216,4.62c-.031,1.082-.05,2.163-.066,3.245.007.114.013.228.017.344,0,.134.007.267.008.4.011.85-.028,1.7.007,2.542.028.68.031,1.359.031,2.036q.035.879.075,1.748c.039.891.019,1.789.037,2.684.064.683.149,1.363.179,2.051a5.588,5.588,0,0,0,.989,3.223c.409.541.46,1.181.807,1.73a1.591,1.591,0,0,1,.123.2,5.06,5.06,0,0,0,.316-1.162c.155-.459.446-.849.636-1.291a6.661,6.661,0,0,0,.422-.931c.048-1.666.084-3.336.077-5-.008-1.78-.01-3.59-.1-5.367-.042-.827-.011-1.653-.019-2.48,0-.172-.008-.344-.02-.514-.046-.807-.165-1.613-.142-2.423.059-1.932-.117-3.866-.051-5.8a.5.5,0,0,1,.434-.494.54.54,0,0,1,1.034.216c-.057.951.132,1.929.1,2.891s.055,1.905.059,2.865c0,.827.033,1.651.063,2.476.046,1.154.1,2.306.089,3.459-.014,2.271-.136,4.56-.083,6.833C5561.673,1122.248,5561.836,1124.1,5560.807,1125.345Z" transform="translate(-5538.173 -1001.74)"/><path class="j" d="M5665.557,997.247c.026-1.323-.078-2.635-.069-3.961.045-6.228.144-12.459-.02-18.685-.16-6.2-.485-12.392-.139-18.6.091-1.642-.153-3.288,0-4.935q.213-2.323.293-4.645a10.8,10.8,0,0,0-1.884-.123,6.252,6.252,0,0,0-.946.1c-.8.152-1.555.374-2.369.472a23.857,23.857,0,0,1-3.016.071,24.694,24.694,0,0,0-2.59.02,16.567,16.567,0,0,1-3.294.17c-1.512-.155-3.04-.209-4.559-.27-.949-.039-1.819-.23-2.777-.216-.943.015-1.889.111-2.824.091-1.877-.035-3.735.061-5.609.048-2.045-.015-4.1-.213-6.134-.092-1.817.109-3.615.475-5.424.585a26.633,26.633,0,0,1-2.782.171,14.989,14.989,0,0,0-2.577.167,23.886,23.886,0,0,1-5.046-.176c0-.009,0-.015,0-.024a.215.215,0,1,0-.43-.005c-.279-.015-.557-.025-.837-.028a.19.19,0,0,0-.175.1l-.409.017c-.022,4.3,0,8.6-.044,12.905-.024,2.542-.071,5.085-.165,7.627-.2,5.554.121,11.066.322,16.608.079,2.192.19,4.362.071,6.548-.1,1.908.271,3.8.18,5.7-.073,1.485-.219,2.962-.324,4.442-.064.873-.666,3.665.139,4.256.737,1.945,2.995,2.561,4.745,3.166a23.494,23.494,0,0,0,6.5,1.747,29.147,29.147,0,0,1,3.823.564,29.129,29.129,0,0,0,3.206.275c.419.029.834.034,1.248.022,1.152.142,2.3.092,3.475.167a45.512,45.512,0,0,0,5.171.1c1.468-.076,2.972.054,4.435-.091.76-.074,1.508-.142,2.268-.192a8.3,8.3,0,0,0,1.053-.094c3.547.013,6.852-1.072,10.137-2.245,1.107-.4,2.236-.64,3.329-1.089,1.181-.487,2.238-1.1,3.381-1.646a.448.448,0,0,0,.26-.345.549.549,0,0,0,.032-.187,30.682,30.682,0,0,1,.231-4.333A32.717,32.717,0,0,0,5665.557,997.247Z" transform="translate(-5579.607 -887.951)"/><path class="a" d="M5665.557,873.653c.026-1.323-.078-2.635-.069-3.961.045-6.228.144-12.459-.02-18.685-.16-6.2-.485-12.392-.139-18.6.091-1.642-.153-3.288,0-4.935q.213-2.323.293-4.645c.05-1.216.076-2.436.087-3.658a.474.474,0,0,0,.1-.3,10.653,10.653,0,0,0-1.265-3.675,26.353,26.353,0,0,0-1.887-3.339c-1.369-2.042-3.105-3.851-4.5-5.878-.734-1.069-1.364-2.244-2.142-3.28a24.6,24.6,0,0,1-2.6-3.945c-.577-1.2-1.333-2.282-2-3.424-.642-1.091-1.437-2.081-2.1-3.147a7.532,7.532,0,0,0,.024-.844,22.122,22.122,0,0,0-.122-4.779c-.029-.147-.061-.308-.094-.472.381-.017.763-.042,1.129-.065a1.84,1.84,0,0,0,.435-.081,1.461,1.461,0,0,0,.668-.073.476.476,0,0,0,.093-.055c.035-.008.069-.019.1-.029-.046.047-.02.03.02-.006a1.105,1.105,0,0,0,.739-1.08,33.215,33.215,0,0,0-.042-4.165.521.521,0,0,0-.116-.326c-.03-.134-.062-.27-.1-.407-.021-.1-.044-.209-.062-.313-.045-.256-.134-.5-.19-.748a1.971,1.971,0,0,0-.17-.61,1.2,1.2,0,0,0-.992-.593,1.4,1.4,0,0,0-.511.1c-.336.054-.682.163-.969.212-.633.109-1.266.18-1.906.253a44.448,44.448,0,0,1-8.9.407c-1.566-.142-3.138-.309-4.7-.475-1.589-.167-3.212-.017-4.808-.082-.656-.026-1.306-.1-1.964-.15-.421-.031-1.176-.278-1.55.054-1.033.909-.627,3.114-.52,4.322a11.411,11.411,0,0,0,.175,2.354.538.538,0,0,0,.5.389,5.829,5.829,0,0,0,1.022.3,6.911,6.911,0,0,0,1.717.413c0,1.175.13,2.343.126,3.522a9.952,9.952,0,0,0,.195,1.844,15.3,15.3,0,0,1,.082,1.8,12.768,12.768,0,0,0-1.358,1.813c-.67,1.061-1.7,1.858-2.466,2.866a45.927,45.927,0,0,1-2.826,3.8,37.425,37.425,0,0,0-2.6,3.638,54.69,54.69,0,0,0-3.665,5.533c-.34.613-.605,1.272-.95,1.885-.3.542-.678,1-.945,1.562a18.377,18.377,0,0,0-1.7,4.09,21.813,21.813,0,0,0-.154,3.815c-.007.7-.01,1.4-.013,2.1-.022,4.3,0,8.6-.044,12.905-.024,2.542-.071,5.085-.165,7.627-.2,5.554.121,11.066.322,16.608.079,2.192.19,4.362.071,6.548-.1,1.908.271,3.8.18,5.7-.073,1.485-.219,2.962-.324,4.442-.064.873-.666,3.665.139,4.256.737,1.945,2.995,2.561,4.745,3.166a23.5,23.5,0,0,0,6.5,1.747,29.137,29.137,0,0,1,3.823.564,29.114,29.114,0,0,0,3.206.275c.419.029.834.034,1.248.022,1.152.142,2.3.092,3.475.167a45.526,45.526,0,0,0,5.171.1c1.468-.076,2.972.054,4.435-.091.76-.074,1.508-.142,2.268-.193a8.3,8.3,0,0,0,1.053-.094c3.547.013,6.852-1.072,10.137-2.245,1.107-.4,2.236-.64,3.329-1.089,1.181-.487,2.238-1.1,3.381-1.646a.448.448,0,0,0,.26-.345.549.549,0,0,0,.032-.187,30.683,30.683,0,0,1,.231-4.333A32.717,32.717,0,0,0,5665.557,873.653Zm-1.611-16.255c-.141,2.786-.273,5.607-.293,8.4-.021,2.69-.018,5.378-.059,8.067-.019,1.134.152,2.261.124,3.386a39.985,39.985,0,0,0-.169,4.444c0,.011,0,.023.006.034-.013.006-.026.008-.039.015-.674.367-1.2.878-1.843,1.259a8.966,8.966,0,0,1-2.653.827c-.888.22-1.7.526-2.614.668s-1.831.241-2.747.378c-3.391.5-6.717,1.456-10.118,1.843a21.7,21.7,0,0,1-4.682-.124c-1.527-.155-3.076-.463-4.612-.472-1.806-.011-3.648.081-5.452-.037-1.633-.109-3.23-.351-4.85-.569a18.675,18.675,0,0,1-2.71-.732c-1.9-.55-4.4-.787-6.1-1.8a10.46,10.46,0,0,1-1.233-.851,3.286,3.286,0,0,1-.529-.428c-.122-.584.147-1.6.051-2.3a16.535,16.535,0,0,1,.134-3.365c.086-1.243.151-2.491.242-3.735.243-3.313.065-6.71.089-10.033.015-2.111.007-4.277-.109-6.385a18.342,18.342,0,0,1-.127-2.65c.113-1.258-.044-2.521-.033-3.78.04-4.722.609-9.574.322-14.281-.156-2.539-.323-5.1-.3-7.643.009-1.263.085-2.5.152-3.757,0-.054.007-.11.01-.163.055-1.052.138-2.171.1-3.249.053-.787.089-1.575.095-2.367a.662.662,0,0,0-.019-.151,21.259,21.259,0,0,1,1.607-2.864c.309-.646.623-1.289.933-1.935a81.314,81.314,0,0,1,8-12.2c.412-.481.829-.96,1.241-1.446.79-.924,1.655-1.783,2.417-2.729a16.064,16.064,0,0,1,1.463-1.487.473.473,0,0,1,.1-.3q.252-.347.494-.7c.17-.309.375-.6.486-.8a.524.524,0,0,1,.115-.143,21.733,21.733,0,0,0,.155-3.895c-.095-1.417-.261-2.826-.288-4.238a.546.546,0,0,0,.018-.133,14.811,14.811,0,0,0-.087-3.457,2.365,2.365,0,0,1-.037-.771c.009-.123-.043-.226.061-.292a.667.667,0,0,1,.537.013,7.231,7.231,0,0,0,1.357.195c.68.063,1.362.106,2.044.135,1.371.055,2.746.061,4.118.017,1.32-.042,2.641-.024,3.96-.032.667,0,1.335-.034,2-.063a5.451,5.451,0,0,1,1.764-.125c.335.106.123.636.1.874-.034.478.112.924.108,1.389.061,1.044.174,2.057.143,3.1-.034,1.173-.118,2.345-.124,3.52,0,.82-.008,1.649,0,2.478.045.282.1.563.164.839.09.155.188.309.3.465,1.191,1.653,2.069,3.461,3.265,5.118,1.575,2.183,3.074,4.445,4.6,6.663,1.612,2.338,3.215,4.636,4.765,7.012.679,1.042,1.27,2.138,1.858,3.231a26.576,26.576,0,0,1,2.051,3.635,12.3,12.3,0,0,1,.082,3.789c0,.073,0,.144,0,.213-.008,1.492-.008,2.983-.019,4.475-.008,1.119.058,2.2-.039,3.321-.425,4.87-.069,9.851-.188,14.731-.034,1.392.219,2.785.209,4.188a.532.532,0,0,0,.077.283C5663.587,852.4,5664.073,854.9,5663.945,857.4Z" transform="translate(-5579.607 -764.357)"/><path class="k" d="M5532.439,1158.772l.034-4.784a31.674,31.674,0,0,0-.018-3.7c-.006-.062-.015-.127-.022-.189a4.927,4.927,0,0,0-.76.089c-.278.061-.555.127-.83.2-.839.218-1.669.472-2.519.66a32.338,32.338,0,0,1-7.546.97c-2.6-.049-5.17-.027-7.753-.327a27.385,27.385,0,0,0-3.406-.337c-1.339.007-2.736-.016-4.071.1-1.271.1-2.573.143-3.85.134-1.254-.009-2.416.172-3.652.282-1.376.119-2.839-.029-4.227-.05h-.147c-.525,0-1.042-.012-1.558-.029,0,.144,0,.286,0,.431a27.01,27.01,0,0,0-.242,3.969c-.01,1.448.042,2.869.111,4.308a7.234,7.234,0,0,0,.178,1.616c.19.69.149,1.351.3,2.038a2.2,2.2,0,0,0,1.043,1.376,9.11,9.11,0,0,0,2.764,1.408,38.846,38.846,0,0,0,6.012,1.686c1.267.17,2.5.494,3.76.722,1.279.235,2.521.162,3.8.281a31.988,31.988,0,0,0,5.655-.14c1.049-.085,2.137-.215,3.21-.392a.534.534,0,0,0,.06,0,58.609,58.609,0,0,0,8.7-2.277,6.625,6.625,0,0,0,1.764-.951,15.35,15.35,0,0,0,1.634-.981,3.68,3.68,0,0,0,.521-.528c.188-.233.583-.314.772-.636a1.648,1.648,0,0,0,.105-1.256c0-.013,0-.026-.006-.039A19.306,19.306,0,0,0,5532.439,1158.772Z" transform="translate(-5491.874 -1037.206)"/><path class="a" d="M5532.255,1126.7c0,.013,0,.026.006.039a1.647,1.647,0,0,1-.105,1.256c-.189.322-.584.4-.772.636a3.686,3.686,0,0,1-.521.528,15.412,15.412,0,0,1-1.634.981,6.646,6.646,0,0,1-1.764.951,58.668,58.668,0,0,1-8.7,2.277.566.566,0,0,1-.06,0c-1.073.177-2.161.307-3.21.392a32.011,32.011,0,0,1-5.655.14c-1.28-.119-2.522-.046-3.8-.281-1.255-.229-2.493-.552-3.76-.723a38.833,38.833,0,0,1-6.012-1.686,9.118,9.118,0,0,1-2.764-1.408,2.2,2.2,0,0,1-1.043-1.376c-.15-.688-.109-1.348-.3-2.038a7.232,7.232,0,0,1-.178-1.615c-.07-1.438-.122-2.859-.111-4.308a27.013,27.013,0,0,1,.242-3.969c0-.144,0-.286,0-.431,0-.286.015-.57.045-.858.1-.985.141-1.949.285-2.912.006-.181.009-.364.02-.544a3.356,3.356,0,0,1,.911-2.458,1.817,1.817,0,0,1,.4-.475,4.8,4.8,0,0,1,.658-.439,22.915,22.915,0,0,1,2.527-1.837c.017-.013.035-.021.052-.034a.479.479,0,0,1,.208-.156c.08-.034.158-.074.237-.11.225-.123.457-.238.692-.346,1.119-.616,2.169-1.409,3.313-1.971,1.24-.607,2.339-1.414,3.525-2.118a2.493,2.493,0,0,1,.4-.283.52.52,0,0,1,.227-.091l.039-.006a.554.554,0,0,1,.553.23c.151-.6,1.115-.3,1.022.354-.063.439-.366.521-.709.7-.631.329-1.276.634-1.9.976-1.158.635-2.122,1.5-3.21,2.241-2.087,1.429-4.429,2.458-6.537,3.875a.511.511,0,0,1-.136.068,4.756,4.756,0,0,0-.522,1.43c-.114.654-.132,1.323-.249,1.98a14.433,14.433,0,0,0-.141,2.819c.007.461.019.919.016,1.376-.011,1.468.074,2.915.063,4.384l-.017,2.385a11.964,11.964,0,0,0,.066,2.712.5.5,0,0,1-.013.275,4.885,4.885,0,0,0,.911.633c.252.2.468.438.742.615a13.583,13.583,0,0,0,2.055.992,17.819,17.819,0,0,0,2,.6c.779.225,1.513.588,2.3.789.767.195,1.6.272,2.378.415.844.154,1.7.016,2.547.1,1.607.162,3.24.206,4.854.218a38.517,38.517,0,0,0,9.266-.844,31.208,31.208,0,0,0,5.158-1.366c.789-.347,1.538-.77,2.292-1.184.343-.189,1.615-.666,1.671-1.053.054-.351.345-.643.4-1.045s.03-.828.076-1.241c.083-.761-.022-1.543.029-2.309.036-.531.087-1.058.143-1.588l.042-5.912a.528.528,0,0,1,.04-.2c0-.06,0-.118,0-.179,0-.189,0-.381.008-.57-.024-.839-.149-1.689-.216-2.522s-.875-1.289-1.408-1.82a14.253,14.253,0,0,0-2.025-1.2c-.955-.689-1.971-1.312-2.933-1.991a12.427,12.427,0,0,0-1.673-1.084c-.717-.354-1.479-.6-2.191-.948-1.246-.614-2.423-1.354-3.709-1.891-.632-.263-.346-1.3.293-1.036.112.046.219.1.328.147a.436.436,0,0,1,.437-.044c.685.263,1.422.43,2.089.732.539.243,1.026.582,1.553.849,1.149.576,2.265,1.1,3.351,1.776.937.583,1.89,1.18,2.807,1.792.377.253.726.558,1.118.8a9.749,9.749,0,0,1,2.584,1.863.516.516,0,0,1,.253.361,2.994,2.994,0,0,1,.4,1.019c.229,1.142.394,2.319.526,3.48.008.062.016.127.022.19a31.674,31.674,0,0,1,.018,3.7l-.034,4.784A19.3,19.3,0,0,1,5532.255,1126.7Z" transform="translate(-5491.874 -1001.496)"/><path class="l" d="M5556.417,1086.243c0-.677,0-1.357-.022-2.036.048-.659.042-1.332.027-1.951-.017-.685-.034-1.639-.875-1.483h-.011c-1.8.177-3.683-.042-5.495-.016-1.726.025-3.4-.14-5.11.015a.618.618,0,0,0-.66.1.586.586,0,0,0-.167.257.6.6,0,0,0-.133.345c-.054,1.641.029,3.263.009,4.9a.51.51,0,0,0,.578.52,9.449,9.449,0,0,0,2.423.536,23.9,23.9,0,0,0,3.026.194,26.348,26.348,0,0,0,3.843-.211c.557-.079,1.115-.156,1.671-.24a1.887,1.887,0,0,0,.54-.256c.2-.111.173-.224.277-.389A.519.519,0,0,0,5556.417,1086.243Z" transform="translate(-5530.015 -986.387)"/><g transform="translate(73.428 47.319)"><path class="m" d="M5814.383,1146.286c-.013-.859-.271-1.664-.3-2.508-.062-1.623.092-3.221-.107-4.839a24.128,24.128,0,0,1-.147-2.864,1.006,1.006,0,0,0,.169-.459c-.5.061-.989.135-1.478.211-.095.014-.187.029-.28.039-1.1.136-2.185.066-3.294.163-2.83.249-5.615.252-8.46.232-3.222-.023-6.438-.143-9.654-.167a28.728,28.728,0,0,0-3.467-.07c-1.637.182-3.276,0-4.908.15-1.446.134-2.882.461-4.327.565-1.577.111-3.106-.188-4.669-.2-.8,0-1.617.062-2.411.017-.828-.049-1.6-.266-2.437-.259-.2,0-.406.015-.6.035-.417.042-.829.117-1.255.18-.086.012-.17.022-.255.028-.009.669-.007,1.339-.012,2.008-.012,1.629-.123,3.2-.237,4.82-.1,1.39.35,2.762.332,4.159-.013.826-.1,1.685-.044,2.509.037.521.134,1.03.179,1.549a.537.537,0,0,0-.1.307,4.264,4.264,0,0,0,2.317,3.768c1.712.97,3.776.708,5.606,1.134a23.712,23.712,0,0,0,2.494.56c.9.11,1.787.043,2.689.114.977.078,1.874.347,2.871.337.456.07.935.274,1.391.318.8.079,1.6-.079,2.411-.034,1.741.094,3.472,0,5.21.117,2.939.189,5.849-.418,8.78-.58a48.138,48.138,0,0,0,8.8-1.1,22.393,22.393,0,0,0,2.316-.844,5.247,5.247,0,0,0,1.471-.734,3.926,3.926,0,0,0,1.266-2.427.55.55,0,0,0-.092-.418c.165-1.262.122-2.58.218-3.851C5814.4,1147.607,5814.391,1146.94,5814.383,1146.286Z" transform="translate(-5766.23 -1073.921)"/><path class="a" d="M5814.383,1096.647c-.013-.859-.271-1.664-.3-2.507-.062-1.623.092-3.222-.107-4.839a24.13,24.13,0,0,1-.147-2.864,1.006,1.006,0,0,0,.169-.459,2.323,2.323,0,0,0-.009-.5c-.03-.278-.041-.579-.088-.868a.493.493,0,0,0,.028-.163,4.236,4.236,0,0,0-.191-1.846c-.273-.557-.95-.956-1.423-1.362a20.076,20.076,0,0,0-3.178-1.973,35.489,35.489,0,0,0-3.538-1.855,13.579,13.579,0,0,0-4.185-1.332c-1.886-.541-3.687-1.288-5.574-1.822a.745.745,0,0,0-.129-.025c-.006-1.307-.075-2.616-.11-3.92a9.838,9.838,0,0,0-.02-1.393c.106-.981-.629-1.154-1.619-1.058-.96.092-1.921.178-2.883.248-.85.061-1.683-.033-2.535-.022-.671.008-1.329-.029-2-.064a5.4,5.4,0,0,0-1.965-.029c-.6.243-.6,1.386-.484,2.106-.015.135-.025.252-.038.338a31.849,31.849,0,0,0-.143,4.075,12.8,12.8,0,0,1-2,.45,23.418,23.418,0,0,0-3.146.929c-1.685.543-3.143,1.505-4.77,2.17-.963.391-1.968.688-2.914,1.118a9.622,9.622,0,0,0-2.019,1.391c-.077.062-.152.124-.227.188-.107.057-.216.115-.325.174l-.33.166a2.563,2.563,0,0,0-1.045.834,6.929,6.929,0,0,0-.456,2,.582.582,0,0,0-.02.1c-.007.058-.012.116-.019.174a4.541,4.541,0,0,0-.055.471.455.455,0,0,0,0,.1c-.057.708-.082,1.42-.091,2.13-.009.669-.007,1.339-.012,2.008-.012,1.629-.123,3.2-.237,4.82-.1,1.39.35,2.762.332,4.159-.013.826-.1,1.685-.044,2.509.037.521.134,1.03.179,1.549a.536.536,0,0,0-.1.307,4.264,4.264,0,0,0,2.317,3.768c1.712.97,3.776.707,5.606,1.134a23.712,23.712,0,0,0,2.494.56c.9.11,1.787.043,2.689.114.977.078,1.874.347,2.871.337.456.07.935.274,1.391.318.8.079,1.6-.079,2.411-.034,1.741.094,3.472,0,5.21.117,2.939.189,5.849-.418,8.78-.58a48.127,48.127,0,0,0,8.8-1.1,22.45,22.45,0,0,0,2.316-.844,5.247,5.247,0,0,0,1.471-.734,3.926,3.926,0,0,0,1.266-2.427.55.55,0,0,0-.092-.418c.165-1.262.122-2.58.218-3.851C5814.4,1097.969,5814.391,1097.3,5814.383,1096.647Zm-1.646.937c-.129,1.68-.1,3.368-.114,5.051a.07.07,0,0,0,0,.017,1.08,1.08,0,0,0-.007.448.631.631,0,0,0,.017.065,2.716,2.716,0,0,1-.237.614,1.75,1.75,0,0,1-.13.261c-.961.766-2.691.943-3.648,1.255a20.06,20.06,0,0,1-4.744.878c-1.238.084-2.554.162-3.824.171a33.838,33.838,0,0,1-3.736.061c-.461.059-.922.127-1.375.2a25.119,25.119,0,0,1-4,.242c-2.944-.021-5.865-.4-8.806-.423-1.55-.013-3.061-.252-4.6-.4-1.2-.114-2.408-.2-3.6-.392a11.436,11.436,0,0,1-3.855-1.143,10.593,10.593,0,0,1-1.736-.959,1.881,1.881,0,0,1-.3-.362l.011-1.543a.529.529,0,0,0-.069-.27c0-.934,0-1.849.1-2.8a17.67,17.67,0,0,0-.13-4.34,34.753,34.753,0,0,1,.061-7.517c.054-.816.1-1.629.1-2.438a.424.424,0,0,0-.007-.1.6.6,0,0,0,.133-.3,6.859,6.859,0,0,1,1.574-1.528,19.742,19.742,0,0,1,1.866-1.418c1.6-.972,3.484-1.419,5.135-2.311a15.077,15.077,0,0,1,1.7-.915c.723-.277,1.443-.543,2.155-.848a19.35,19.35,0,0,1,2.5-.817,20.4,20.4,0,0,0,1.937-.808.7.7,0,0,0,.122-.068.209.209,0,0,0,.275-.2c0-.527,0-1.055-.005-1.584a17.313,17.313,0,0,0,.123-3.946c.581.069,1.161.163,1.745.187.764.033,1.513-.058,2.271-.087,1.072-.04,2.146.037,3.221.012.293-.007.823.053,1.277.024a19.09,19.09,0,0,0,0,2.254c0,.445.039.883.019,1.324a6.248,6.248,0,0,0-.085,1.579c.151.543,1.016.6,1.563.607,1.739.5,3.387,1.234,5.134,1.711a.113.113,0,0,0,.025.009.6.6,0,0,0,.347.1l.032,0a9.372,9.372,0,0,1,2.283.88c.751.442,1.516.844,2.259,1.3.637.388,1.226.855,1.864,1.234.66.39,1.372.731,2,1.164a7.356,7.356,0,0,0,.648.388,11.118,11.118,0,0,0,1.037.877c.383.369.928.67.955,1.234a.525.525,0,0,0,.086.261.487.487,0,0,0-.011.1c0,.553-.028,1.1-.047,1.648a21.251,21.251,0,0,0,.019,2.585c.137,1.6.125,3.167.183,4.769a13.317,13.317,0,0,0,.325,1.858A8.509,8.509,0,0,1,5812.736,1097.585Z" transform="translate(-5766.23 -1024.283)"/><g transform="translate(23.447)"><path class="e" d="M5946.592,906.278c-.831-1.966-3.473-1.06-4.864-.244a13.55,13.55,0,0,0-1.678,1.394c-.692.584-1.307,1.244-1.979,1.848a14.17,14.17,0,0,0-2.94,3.182.183.183,0,0,0-.163.235c0,.015.01.027.014.041a.2.2,0,0,0,.1.256,8.165,8.165,0,0,0,.734,1.021,8.737,8.737,0,0,0,1.167,1.625c.22.192.5.308.716.513.253.242.443.54.71.773.248.216.632.535.99.477.373-.061.664-.454.9-.707.547-.584,1.1-1.162,1.618-1.771.9-1.057,2.11-1.8,2.951-2.916.353-.468.663-.982,1.035-1.432a5.914,5.914,0,0,0,1.008-1.524A3.831,3.831,0,0,0,5946.592,906.278Z" transform="translate(-5913.25 -905.099)"/><path class="n" d="M5870.268,991.747c-.413-.04-.824-.036-1.237-.043-.2,0-.4-.009-.609-.026-.774-.062-1.535-.244-2.316-.294a8.047,8.047,0,0,1-1.522-.252,4.961,4.961,0,0,1-1.111-.439c-.669.66-1.332,1.327-1.96,2.031-.141.158-.278.319-.417.479l-.069.068a12.383,12.383,0,0,0-2.752,3.452c-.306.68-.189,1.413-.443,2.108-.2.565-.652,1.1-.57,1.739.146,1.2,1.283.924,2.05.516.624-.331,1.294-.486,1.925-.774,1.607-.143,2.812-1.564,3.865-2.658,1.579-1.635,3.292-3.16,4.916-4.745.382-.372.752-.752,1.117-1.137A4.663,4.663,0,0,1,5870.268,991.747Z" transform="translate(-5856.338 -967.785)"/><path class="a" d="M5878.105,955.286c-.715.63-1.278,1.452-1.982,2.108s-1.316,1.379-2,2.058c-.585.583-1.151,1.184-1.715,1.787-.425.453-.848.911-1.28,1.36-.365.385-.735.765-1.117,1.137-1.623,1.585-3.337,3.11-4.916,4.745-1.054,1.094-2.258,2.515-3.865,2.658-.631.288-1.3.443-1.925.774-.767.408-1.9.679-2.05-.516-.082-.64.366-1.175.57-1.739.254-.7.137-1.428.443-2.108a12.383,12.383,0,0,1,2.752-3.452l.069-.068c.139-.161.276-.321.417-.479.629-.7,1.291-1.37,1.96-2.031.357-.353.715-.7,1.071-1.058.727-.769,1.457-1.539,2.2-2.292q.354-.355.714-.707c.206-.205.414-.408.622-.611.573-.633,1.088-1.292,1.706-1.89,1.292-1.261,2.359-2.74,3.689-3.959a.544.544,0,0,1,.892.3.562.562,0,0,1,.219,1.03,24.155,24.155,0,0,0-3.436,3.094c-.793.739-1.573,1.487-2.354,2.236-.076.086-.154.169-.234.255s-.184.192-.277.286c-.6.6-1.227,1.173-1.8,1.793-.464.5-.944.977-1.425,1.453l-.473.511c-.241.258-.479.517-.718.774-.605.654-1.257,1.272-1.882,1.913-.441.526-.864,1.066-1.331,1.57a5.6,5.6,0,0,0-1.6,2.97c-.1.671-.514,1.156-.661,1.79a1.959,1.959,0,0,1-.056.23c.3-.041.793-.468,1.048-.593.434-.214.917-.282,1.364-.457a6.461,6.461,0,0,0,.959-.355c1.218-1.136,2.43-2.286,3.607-3.461,1.249-1.248,2.521-2.511,3.712-3.809l.033-.036c.56-.612,1.168-1.171,1.75-1.759.124-.122.241-.248.354-.374.541-.6,1.029-1.254,1.621-1.8,1.415-1.318,2.668-2.8,4.089-4.116a.494.494,0,0,1,.656-.04A.54.54,0,0,1,5878.105,955.286Z" transform="translate(-5856.338 -938.611)"/><path class="l" d="M5924.343,933.714a.435.435,0,0,0-.089-.246c-.028-.039-.059-.076-.088-.114a.047.047,0,0,0-.011-.014,40.677,40.677,0,0,0-3.729-3.955,39.666,39.666,0,0,0-4.058-3.769.518.518,0,0,0-.427-.213c-.859.106-1.583,1.19-2.154,1.758a30.745,30.745,0,0,0-2.734,2.921.583.583,0,0,0,0,.715.565.565,0,0,0,.088.2,1.157,1.157,0,0,0,.066.354,8.575,8.575,0,0,0,1.046,1.516,21.856,21.856,0,0,0,1.762,2.34,19.648,19.648,0,0,0,4.781,3.565.529.529,0,0,0,.855.164l4.614-4.588A.491.491,0,0,0,5924.343,933.714Z" transform="translate(-5895.651 -919.967)"/><path class="n" d="M5856.42,1032.349a9.063,9.063,0,0,0-.517-2.069c-.124-.374-.143-.7-.609-.637a.2.2,0,0,0-.135.113.225.225,0,0,0-.062.088,14.265,14.265,0,0,0-1.191,4.988c-.012.663-.244,1.372.239,1.925a.917.917,0,0,0,1.093.3C5856.715,1036.324,5856.547,1033.662,5856.42,1032.349Z" transform="translate(-5853.839 -996.304)"/></g></g></g></g></svg>