<svg xmlns="http://www.w3.org/2000/svg" xmlns:xlink="http://www.w3.org/1999/xlink" width="850" height="149" viewBox="0 0 850 149"><defs><style>.a{fill:#d0defe;}.b{clip-path:url(#a);}.c{fill:#eaf1ff;}.d{opacity:0.526;}.e{fill:#fff;}.f{fill:#e9f5df;}.g{fill:#d5ebc1;}.h{fill:#f4f7ff;}.i{fill:#ccdbf8;}.j{fill:#c6e5ac;}.k{fill:#a6d66b;}</style><clipPath id="a"><path class="a" d="M30,0H820a30,30,0,0,1,30,30V149a0,0,0,0,1,0,0H0a0,0,0,0,1,0,0V30A30,30,0,0,1,30,0Z" transform="translate(535 207)"/></clipPath></defs><g class="b" transform="translate(-535 -207)"><path class="c" d="M30,0H820a30,30,0,0,1,30,30V149a0,0,0,0,1,0,0H0a0,0,0,0,1,0,0V30A30,30,0,0,1,30,0Z" transform="translate(535 207)"/><g class="d" transform="translate(-97.977 -261.56) rotate(22)"><g transform="translate(742.896 10.216)"><path class="e" d="M819.839,450.236c4.621-24.924,20.617-46.43,39.384-63.469,12.936-11.744,27.291-21.749,41.536-31.812,11.851-8.371,29.113-17.412,33.554-32.313,3.495-11.727-2.919-25.395-15.4-27.99-12.242-2.544-20.36,5.5-28.3,13.451-4.833,4.841-11.54,11-18.563,12.12-10.159,1.618-14.982-9.325-11.856-18.034,13.239-36.878,52.575-64.4,86.7-80.305,7.519-3.506,15.284-6.6,22.224-11.152,14.365-9.416,25.123-29.34,13.661-45.235a27.13,27.13,0,0,0-30.918-9.138c-13.427,5.227-20.375,20.24-32.523,27.988a12.663,12.663,0,0,1-5.567,2.215c-5.268.464-9.677-4.851-9.966-10.131-.647-11.816,11.71-24.178,19.657-31.555a91.776,91.776,0,0,1,32.013-19.385c9.518-3.327,19.827-6.234,26.945-13.815,9.2-9.8,2.249-23.924-10.664-24.167-7.445-.14-14.012,3.925-21.39,4.14-13.006.379-1.505-16.471,1.837-20.42,6.167-7.287,14.68-13.147,20.012-21.074,6.913-10.279,10.261-30.529-2.3-37.2-15.813-8.4-30.062,3.468-33.763,23.1-2.621,13.9-1.735,28.679-7.017,42.012-4.427,11.174-22.737,28.86-27.89,8.366a67.7,67.7,0,0,0-8.777-20.192c-3.924-6.071-9.491-11.871-16.666-12.757-10.422-1.287-19.413,8.8-21.035,19.178s2,20.759,5.251,30.745c11.367,34.944,18.511,74,3.856,107.7-2.205,5.07-5.428,10.4-10.755,11.879-5.605,1.557-11.605-1.929-14.905-6.721-10.48-15.209-8.786-34.6-16.8-50.741-7.764-15.641-26.247-25.414-40.165-10.506-18.1,19.394-4.72,49,5.1,68.993,13.343,27.172,25.741,55.713,34.5,84.757,2.657,8.811,2.238,27.963-12.246,20.864-10.848-5.317-18.912-14.794-29.486-20.545-25.131-13.671-44.224,11.846-32.854,35.351C757.4,367.468,783.92,377.5,800.846,395.3c14.077,14.807,17.9,36.672,19.9,57" transform="translate(-742.896 -10.216)"/></g><g transform="translate(766.539 39.399)"><path class="c" d="M771.255,333.3a1.371,1.371,0,0,1,1.935-.093c3.712,3.369,7.45,6.532,11.065,9.59,10.958,9.27,21.307,18.026,29.3,31,8.787,14.273,13.893,27.426,15.641,40.433q1.815-11.831,3.93-23.614c9.421-68.8.924-134.1-24.969-190.155a1.371,1.371,0,0,1,2.489-1.15c22.39,48.474,31.882,103.773,28.156,162.25a965.938,965.938,0,0,1,44.7-150.028c.011-.043,0-.086.019-.128,14.161-38.781,14.2-89.355.09-125.846a1.37,1.37,0,1,1,2.556-.988c11.58,29.954,13.778,69.234,6.613,103.979q8.571-20.482,18.077-40.553a1.332,1.332,0,0,1,.155-.336l.008-.011A951.51,951.51,0,0,1,967.375,45.416a1.371,1.371,0,0,1,2.315,1.47,947.933,947.933,0,0,0-51.5,92.191A126.976,126.976,0,0,1,969.309,106.6a1.37,1.37,0,0,1,.859,2.6c-22.368,7.383-44.1,22.65-56.8,39.877a963.649,963.649,0,0,0-52.654,137.33c26.647-49.659,58.835-78.279,103.007-91.982a1.371,1.371,0,1,1,.811,2.618c-47.046,14.595-80.319,46.466-107.868,103.324q-12.617,44.79-20.836,90.653-.613,4.481-1.322,8.979c14.915-35.866,40.484-58.451,79.429-70.479a1.371,1.371,0,0,1,.808,2.62c-43.2,13.342-69.592,39.962-83.036,83.758q-3.768,24.782-6.243,49.732a1.37,1.37,0,0,1-1.363,1.237,1.233,1.233,0,0,1-.135-.007,1.37,1.37,0,0,1-1.23-1.5q1.775-18.1,4.273-36.124c0-.028-.013-.052-.011-.081,1.108-17.5-3.908-34.631-15.785-53.925-7.76-12.6-17.947-21.223-28.731-30.348-3.634-3.073-7.392-6.252-11.137-9.654A1.371,1.371,0,0,1,771.255,333.3Z" transform="translate(-770.899 -44.78)"/></g></g><g transform="translate(452.283 -180.168) rotate(22)"><g transform="translate(742.896 10.216)"><path class="f" d="M805.843,370.2c3.78-20.39,16.867-37.984,32.22-51.924,10.583-9.608,22.327-17.793,33.981-26.025,9.7-6.849,23.818-14.245,27.45-26.435,2.859-9.594-2.388-20.776-12.6-22.9-10.015-2.081-16.657,4.5-23.15,11-3.954,3.961-9.441,9-15.186,9.915-8.311,1.323-12.257-7.629-9.7-14.753,10.831-30.17,43.012-52.682,70.927-65.7,6.152-2.868,12.5-5.4,18.181-9.123,11.752-7.7,20.553-24,11.176-37.007a22.2,22.2,0,0,0-25.294-7.476c-10.985,4.276-16.669,16.558-26.607,22.9a10.36,10.36,0,0,1-4.554,1.812c-4.31.379-7.917-3.968-8.153-8.288-.529-9.667,9.58-19.78,16.081-25.815a75.082,75.082,0,0,1,26.19-15.859c7.786-2.721,16.22-5.1,22.044-11.3,7.53-8.018,1.84-19.572-8.724-19.771-6.091-.115-11.463,3.211-17.5,3.387-10.641.31-1.232-13.475,1.5-16.706,5.045-5.962,12.01-10.755,16.372-17.241,5.656-8.41,8.394-24.976-1.881-30.435C915.681,5.58,904.024,15.292,901,31.349c-2.144,11.37-1.419,23.463-5.741,34.37-3.621,9.142-18.6,23.61-22.817,6.844a55.388,55.388,0,0,0-7.181-16.519c-3.21-4.967-7.764-9.712-13.634-10.436-8.526-1.053-15.882,7.2-17.209,15.69s1.638,16.983,4.3,25.153c9.3,28.588,15.144,60.542,3.155,88.11-1.8,4.148-4.441,8.507-8.8,9.718-4.586,1.274-9.494-1.578-12.194-5.5-8.573-12.443-7.188-28.305-13.743-41.511-6.352-12.8-21.473-20.792-32.859-8.595-14.811,15.866-3.862,40.087,4.17,56.443,10.916,22.23,21.059,45.579,28.224,69.34,2.174,7.208,1.831,22.876-10.018,17.069-8.874-4.35-15.472-12.1-24.122-16.808-20.56-11.184-36.18,9.692-26.878,28.921,9.116,18.845,30.811,27.05,44.658,41.614,11.517,12.114,14.64,30,16.282,46.635" transform="translate(-742.896 -10.216)"/></g><g transform="translate(762.238 34.09)"><path class="g" d="M771.19,280.82a1.122,1.122,0,0,1,1.583-.076c3.036,2.756,6.095,5.343,9.052,7.846,8.964,7.584,17.431,14.747,23.967,25.363,7.188,11.677,11.366,22.438,12.8,33.078q1.485-9.679,3.215-19.319c7.707-56.287.756-109.7-20.427-155.566a1.122,1.122,0,0,1,2.036-.941c18.317,39.657,26.083,84.9,23.034,132.737A790.242,790.242,0,0,1,863.016,181.2a1.044,1.044,0,0,1,.016-.1c11.585-31.727,11.615-73.1.074-102.955a1.121,1.121,0,1,1,2.091-.808c9.473,24.506,11.272,56.64,5.41,85.065q7.012-16.757,14.788-33.176a1.088,1.088,0,0,1,.127-.275l.007-.009A778.441,778.441,0,0,1,931.636,45.3a1.122,1.122,0,0,1,1.894,1.2A775.51,775.51,0,0,0,891.4,121.924a103.879,103.879,0,0,1,41.822-26.565,1.121,1.121,0,0,1,.7,2.13c-18.3,6.04-36.08,18.53-46.464,32.623a788.337,788.337,0,0,0-43.076,112.35c21.8-40.626,48.133-64.04,84.27-75.251a1.121,1.121,0,1,1,.664,2.142c-38.489,11.94-65.709,38.014-88.247,84.529q-10.321,36.642-17.046,74.163-.5,3.666-1.082,7.346c12.2-29.342,33.12-47.819,64.981-57.659a1.121,1.121,0,0,1,.661,2.143c-35.344,10.915-56.933,32.693-67.932,68.522q-3.082,20.274-5.107,40.686a1.121,1.121,0,0,1-1.115,1.012,1,1,0,0,1-.111-.006,1.121,1.121,0,0,1-1.006-1.225q1.453-14.809,3.5-29.553c0-.023-.011-.043-.009-.066.906-14.313-3.2-28.332-12.914-44.116-6.349-10.312-14.682-17.363-23.5-24.827-2.973-2.514-6.047-5.115-9.111-7.9A1.121,1.121,0,0,1,771.19,280.82Z" transform="translate(-770.899 -44.78)"/></g></g><g transform="translate(567.775 286.855)"><path class="h" d="M343.577-26.355c8.971-4.886,17.315-9.519,25.131-16.1a65.386,65.386,0,0,0-51.9,20.508Q322.362-33.349,327.4-45c9.866-.779,19.193-7.337,26.823-13.659,7.891-6.538,13.443-14.521,15.73-24.511-16.071,5.094-30.793,19.243-40.614,33.689q6.513-15.427,12.07-31.24c23.66-20.091,16.23-59.136,16.23-59.136a64.769,64.769,0,0,0-17.992,58.539Q333.606-64.19,326.454-47.5c1.258-16.4.879-31.444-3.451-47.409a53.863,53.863,0,0,0,3.045,48.348q-5.684,13.2-12.038,26.1c3.043-19.56-1.894-38.786-14.692-53.913a48.327,48.327,0,0,0-1.468,29.513,48.333,48.333,0,0,0,16.019,24.691Q307.715-7.7,300.96,4.463C307.276-24.519,278.3-46.621,278.3-46.621,270.4-13.564,294.549,4.471,299.23,7.613q-6.337,11.234-13.184,22.172C287.631,1.6,263.834-19.69,263.834-19.69c-7.285,27.361,16.734,47.348,21.329,50.875q-9.6,15.262-20.159,29.9C269.169,28.034,248.234,3.2,248.234,3.2c-8.286,38.907,11.607,56.18,15.76,59.3q-10.664,14.712-22.258,28.72c5.578-35.774-18.095-65.5-18.095-65.5-5.073,32.439,13.715,61.447,17.242,66.546q-8.035,9.689-16.491,19.015c9.024-29.719-15.242-60.063-15.242-60.063-7.259,35.393,10.307,57.486,13.9,61.558q-11.151,12.227-23,23.787c9.874-38.212-22.076-66.02-22.076-66.02-4.548,39.434,16.8,62.98,20.93,67.132q-16.005,15.555-33.176,29.838c17.2-35.7-6.119-74.936-6.119-74.936-17.945,46.9.77,71.96,4.493,76.3a554.911,554.911,0,0,1-75.8,52.577.93.93,0,0,0,.928,1.612,556.675,556.675,0,0,0,76.418-53.052c42.863,21.648,80.98-4.236,80.98-4.236-39.764-14.143-66.72-4.348-77.112.971q15.977-13.425,30.943-27.991c44.9,22.76,89.258-6.734,89.258-6.734-42.845-11.034-78.582,1.551-87.792,5.312q11.65-11.418,22.65-23.474c39.313,18.151,73.578-.89,73.578-.89-39.627-11.658-65.2-3.392-72.382-.441q8.524-9.412,16.635-19.186c45.4,14.426,87.983-19.865,87.983-19.865-48-7.063-75.677,9.271-85.168,16.424q10.633-13.029,20.518-26.645C306.188,72.971,341.521,41.5,341.521,41.5c-40.821-5.306-64.672,10.774-73.189,18.1q9.622-13.514,18.479-27.545c27.207,9.916,61.5-15.665,61.5-15.665-33.77-5-53.365,7.745-59.909,13.1q6.57-10.571,12.691-21.411c12.5-.314,19.627-1.827,29.458-5.161,10.116-3.431,19.385-10.9,26.888-18.505-20.071-.236-40.257,8.34-55.289,21.74q6.992-12.529,13.335-25.4C325.319-18.865,334.91-21.635,343.577-26.355Z" transform="translate(0 0)"/></g><g transform="matrix(-0.891, -0.454, 0.454, -0.891, 1627.693, 389.57)"><path class="h" d="M343.577-26.355c8.971-4.886,17.315-9.519,25.131-16.1a65.386,65.386,0,0,0-51.9,20.508Q322.362-33.349,327.4-45c9.866-.779,19.193-7.337,26.823-13.659,7.891-6.538,13.443-14.521,15.73-24.511-16.071,5.094-30.793,19.243-40.614,33.689q6.513-15.427,12.07-31.24c23.66-20.091,16.23-59.136,16.23-59.136a64.769,64.769,0,0,0-17.992,58.539Q333.606-64.19,326.454-47.5c1.258-16.4.879-31.444-3.451-47.409a53.863,53.863,0,0,0,3.045,48.348q-5.684,13.2-12.038,26.1c3.043-19.56-1.894-38.786-14.692-53.913a48.327,48.327,0,0,0-1.468,29.513,48.333,48.333,0,0,0,16.019,24.691Q307.715-7.7,300.96,4.463C307.276-24.519,278.3-46.621,278.3-46.621,270.4-13.564,294.549,4.471,299.23,7.613q-6.337,11.234-13.184,22.172C287.631,1.6,263.834-19.69,263.834-19.69c-7.285,27.361,16.734,47.348,21.329,50.875q-9.6,15.262-20.159,29.9C269.169,28.034,248.234,3.2,248.234,3.2c-8.286,38.907,11.607,56.18,15.76,59.3q-10.664,14.712-22.258,28.72c5.578-35.774-18.095-65.5-18.095-65.5-5.073,32.439,13.715,61.447,17.242,66.546q-8.035,9.689-16.491,19.015c9.024-29.719-15.242-60.063-15.242-60.063-7.259,35.393,10.307,57.486,13.9,61.558q-11.151,12.227-23,23.787c9.874-38.212-22.076-66.02-22.076-66.02-4.548,39.434,16.8,62.98,20.93,67.132q-16.005,15.555-33.176,29.838c17.2-35.7-6.119-74.936-6.119-74.936-17.945,46.9.77,71.96,4.493,76.3a554.911,554.911,0,0,1-75.8,52.577.93.93,0,0,0,.928,1.612,556.675,556.675,0,0,0,76.418-53.052c42.863,21.648,80.98-4.236,80.98-4.236-39.764-14.143-66.72-4.348-77.112.971q15.977-13.425,30.943-27.991c44.9,22.76,89.258-6.734,89.258-6.734-42.845-11.034-78.582,1.551-87.792,5.312q11.65-11.418,22.65-23.474c39.313,18.151,73.578-.89,73.578-.89-39.627-11.658-65.2-3.392-72.382-.441q8.524-9.412,16.635-19.186c45.4,14.426,87.983-19.865,87.983-19.865-48-7.063-75.677,9.271-85.168,16.424q10.633-13.029,20.518-26.645C306.188,72.971,341.521,41.5,341.521,41.5c-40.821-5.306-64.672,10.774-73.189,18.1q9.622-13.514,18.479-27.545c27.207,9.916,61.5-15.665,61.5-15.665-33.77-5-53.365,7.745-59.909,13.1q6.57-10.571,12.691-21.411c12.5-.314,19.627-1.827,29.458-5.161,10.116-3.431,19.385-10.9,26.888-18.505-20.071-.236-40.257,8.34-55.289,21.74q6.992-12.529,13.335-25.4C325.319-18.865,334.91-21.635,343.577-26.355Z" transform="translate(0 0)"/></g><g transform="translate(290.855 253.163) rotate(18)"><path class="i" d="M343.577-26.355c8.971-4.886,17.315-9.519,25.131-16.1a65.386,65.386,0,0,0-51.9,20.508Q322.362-33.349,327.4-45c9.866-.779,19.193-7.337,26.823-13.659,7.891-6.538,13.443-14.521,15.73-24.511-16.071,5.094-30.793,19.243-40.614,33.689q6.513-15.427,12.07-31.24c23.66-20.091,16.23-59.136,16.23-59.136a64.769,64.769,0,0,0-17.992,58.539Q333.606-64.19,326.454-47.5c1.258-16.4.879-31.444-3.451-47.409a53.863,53.863,0,0,0,3.045,48.348q-5.684,13.2-12.038,26.1c3.043-19.56-1.894-38.786-14.692-53.913a48.327,48.327,0,0,0-1.468,29.513,48.333,48.333,0,0,0,16.019,24.691Q307.715-7.7,300.96,4.463C307.276-24.519,278.3-46.621,278.3-46.621,270.4-13.564,294.549,4.471,299.23,7.613q-6.337,11.234-13.184,22.172C287.631,1.6,263.834-19.69,263.834-19.69c-7.285,27.361,16.734,47.348,21.329,50.875q-9.6,15.262-20.159,29.9C269.169,28.034,248.234,3.2,248.234,3.2c-8.286,38.907,11.607,56.18,15.76,59.3q-10.664,14.712-22.258,28.72c5.578-35.774-18.095-65.5-18.095-65.5-5.073,32.439,13.715,61.447,17.242,66.546q-8.035,9.689-16.491,19.015c9.024-29.719-15.242-60.063-15.242-60.063-7.259,35.393,10.307,57.486,13.9,61.558q-11.151,12.227-23,23.787c9.874-38.212-22.076-66.02-22.076-66.02-4.548,39.434,16.8,62.98,20.93,67.132q-16.005,15.555-33.176,29.838c17.2-35.7-6.119-74.936-6.119-74.936-17.945,46.9.77,71.96,4.493,76.3a554.911,554.911,0,0,1-75.8,52.577.93.93,0,0,0,.928,1.612,556.675,556.675,0,0,0,76.418-53.052c42.863,21.648,80.98-4.236,80.98-4.236-39.764-14.143-66.72-4.348-77.112.971q15.977-13.425,30.943-27.991c44.9,22.76,89.258-6.734,89.258-6.734-42.845-11.034-78.582,1.551-87.792,5.312q11.65-11.418,22.65-23.474c39.313,18.151,73.578-.89,73.578-.89-39.627-11.658-65.2-3.392-72.382-.441q8.524-9.412,16.635-19.186c45.4,14.426,87.983-19.865,87.983-19.865-48-7.063-75.677,9.271-85.168,16.424q10.633-13.029,20.518-26.645C306.188,72.971,341.521,41.5,341.521,41.5c-40.821-5.306-64.672,10.774-73.189,18.1q9.622-13.514,18.479-27.545c27.207,9.916,61.5-15.665,61.5-15.665-33.77-5-53.365,7.745-59.909,13.1q6.57-10.571,12.691-21.411c12.5-.314,19.627-1.827,29.458-5.161,10.116-3.431,19.385-10.9,26.888-18.505-20.071-.236-40.257,8.34-55.289,21.74q6.992-12.529,13.335-25.4C325.319-18.865,334.91-21.635,343.577-26.355Z" transform="translate(0 0)"/></g><g transform="translate(562.184 -54.096)"><path class="j" d="M-70.607,608.891c-7.311-8.639-8.673-20.684-9.662-31.958-1.234-14.08-2.225-28.987,4.08-41.637,6.5-13.032,19.5-21.258,30.223-31.108,12.521-11.5,22.488-26.093,27-42.484,2.584-9.387,3.362-19.208,6.1-28.551C-6.96,413.018,8.1,396.12,26.647,386.3c26.774-14.171,62.673-16.447,78.617-42.2,11-17.766,8.862-42.436,23.235-57.6,14.425-15.223,39.946-14.746,55.014-29.334,11.1-10.743,14.047-27.185,21.568-40.675a66.075,66.075,0,0,1,41.774-31.663c8.619-2.063,17.6-2.356,26.17-4.62s17.136-7.044,20.809-15.11c5.181,8.415,2.026,19.307-2.838,27.909s-11.757,16.063-15.534,25.195c-7.048,17.04-2.3,37.486-10.531,53.986-8.9,17.832-30.47,26.169-40.633,43.311-9.612,16.214-7.128,36.866-13.552,54.586-9.567,26.392-37.6,43.2-45.644,70.1-6.793,22.7,1.656,49.743-11.77,69.27-8.8,12.8-25.172,19.032-33.235,32.3-9.8,16.138-4.376,37.263-10.1,55.257-5.87,18.455-22.839,31.352-40.653,38.949C22.372,655.99-37.619,647.873-70.607,608.891Z"/><path class="k" d="M-44.781,561.325h-.053a1.5,1.5,0,0,1-1.447-1.551c.681-19.541,20.591-31.579,29.119-35.848,4.1-2.054,8.4-3.912,12.56-5.71,9.979-4.316,20.3-8.778,28.246-16.151,7.724-7.166,12.9-16.808,17.9-26.134,4.878-9.089,9.923-18.489,17.388-25.87,6.7-6.623,15.09-11.365,23.207-15.951,10.544-5.959,20.5-11.587,27.091-20.978,4.321-6.162,6.8-13.609,9.191-20.811,2.634-7.923,5.357-16.116,10.563-22.889,4.979-6.477,11.833-11.136,18.462-15.643,7.247-4.927,14.092-9.58,18.766-16.418,4.729-6.92,6.385-14.812,8.138-23.168,1.355-6.463,2.757-13.146,5.72-19.273,6.091-12.593,17.945-20.306,29.564-27.127,17.529-10.29,23.706-15.314,29.766-35.5,2.352-7.83,5.338-15.859,11.216-21.543,3.782-3.657,8.466-6.073,12.995-8.41,1.564-.806,3.18-1.64,4.718-2.505,5.855-3.3,17.959-12.368,19.4-18.4a1.5,1.5,0,0,1,2.918.7c-1.779,7.42-15.064,17.059-20.852,20.317-1.585.892-3.226,1.739-4.813,2.557-4.536,2.341-8.821,4.551-12.285,7.9-5.652,5.465-8.347,13.318-10.429,20.249-6.342,21.124-13.184,26.693-31.12,37.222-11.222,6.587-22.657,14.009-28.381,25.846-2.8,5.8-4.167,12.3-5.487,18.583-1.735,8.275-3.53,16.832-8.6,24.244-4.993,7.307-12.4,12.34-19.555,17.207-6.433,4.373-13.085,8.9-17.77,14.991-4.9,6.371-7.422,13.966-10.1,22.006-2.462,7.407-5.008,15.066-9.582,21.588-6.978,9.946-17.7,16.006-28.072,21.866-7.944,4.49-16.159,9.132-22.573,15.474-7.144,7.063-12.08,16.26-16.853,25.155-5.122,9.541-10.416,19.408-18.507,26.914-8.325,7.723-18.885,12.289-29.1,16.705-4.12,1.781-8.38,3.624-12.407,5.64-8.05,4.029-26.839,15.335-27.464,33.269A1.5,1.5,0,0,1-44.781,561.325Z"/></g></g></svg>