<svg xmlns="http://www.w3.org/2000/svg" width="110.666" height="75.98" viewBox="0 0 110.666 75.98"><defs><style>.a{fill:none;stroke:#203a84;stroke-miterlimit:22.926;stroke-width:3px;fill-rule:evenodd;}</style></defs><path class="a" d="M213.519,253.6l2.476-.344m.938-.129,5.436-.754m1.552-.215,44.8-6.214a2.3,2.3,0,0,0,1.507-3.742L266,237.1c-4.965-5.677-3.323-10.745,4.677-11.653l12.241-.754m1.131-.069,4.509-.275m1.554-.131,2.915-.184m3.42,6.9-1.953.454m-.989.231-6.309,1.467c-1.558.25-2.622,2.051-1.175,3.17L295.8,243.8c9.239,7.129,2.889,13.274-6.032,15.059l-34.426,6.892m-1.556.312-5.476,1.1m-1.445.29-4.828.967m65.944-25.947c-4.274-.319-10.242-3.272-9.6-10.244.567-6.16-1.293-7.284-1.494-10.6-.282-4.7,2.653-5.076,2.512-8.537-.193-13.243,19.811-7.849,19.753,2.439.188,3.757,3.05,3.443,3.314,7.845.211,3.494-1.563,3.343-1.244,8.668.521,8.636-6.087,9.665-10.594,10.669m.168-5.628v13.327m-67.339-16.007c-1.66-.182-5.362-.915-7.4-3.228m-.975-24.3c1.445-5.42,5.342-9.858,11.219-8.248a7.205,7.205,0,0,1,4.759,3.857c.414,1.064.793,2.092,3.206,2.636a7.242,7.242,0,0,1,5.411,6.291c.275,2.551,2.662,3.613,2.412,8.947-.424,8.985-7.816,13.223-15.719,14.309m-21.6,4.012c-7.007-.45-10.39-8.264-7.8-14.46,1.335-3.2-1.248-3.369.1-7.306.745-2.183,2.532-2.771,2.055-4.575-2.073-7.812,12.8-9.532,16.491-.714,1.253,3,1.312,6.469,2.432,7.767,1.891,2.192.652,6.4-1.283,8.433-1.9,2,0,3.748-1.509,6.852-1.454,2.993-5.283,3.472-8.156,4.212m.426-3.509v10.088m18.729-13.8v8.947m-20.029,17.12,4.458-.618m3.365,2.294,4.456-.619m1.649-2.838,3.42-.476m9.783,2.152,3.418-.474m-12.472,4.318,3.42-.474m12.358-7.315,2.5-.348m14.766-46.721a6.661,6.661,0,1,1,1.612-4.347m-4.44.791h18.618m-7-4.057h15.183m-28.421,12.853h12.3m-4.44-16.439h4.934" transform="translate(-213.312 -193.912)"/></svg>