<svg xmlns="http://www.w3.org/2000/svg" width="79.79" height="81.161" viewBox="0 0 79.79 81.161"><defs><style>.a{fill:none;stroke:#203a84;stroke-linecap:round;stroke-linejoin:round;stroke-width:3px;}</style></defs><g transform="translate(-1078.415 -1450.5)"><line class="a" y1="38" transform="translate(1117.915 1492)"/><line class="a" y1="27" transform="translate(1094.915 1503)"/><g transform="translate(1099.113 1468.455)"><path class="a" d="M1180.49,1633.052a22.557,22.557,0,0,1-24.918,0" transform="translate(-1148.833 -1587.44)"/><path class="a" d="M1231.052,1544.212a42.864,42.864,0,0,1,3.946,16.382c0,6.51-2.713,11.154-6.738,14.073" transform="translate(-1196.602 -1529.056)"/><path class="a" d="M1147.425,1515.156c3.639-8.19,9.356-15.156,15.252-15.156s11.612,6.966,15.252,15.156" transform="translate(-1143.479 -1500)"/><path class="a" d="M1139.861,1544.212a42.857,42.857,0,0,0-3.946,16.382c0,6.51,2.713,11.154,6.738,14.073" transform="translate(-1135.915 -1529.056)"/></g><path class="a" d="M1259.915,1622.168V1592" transform="translate(-118.294 -92.006)"/><circle class="a" cx="8.233" cy="8.233" r="8.233" transform="translate(1086.771 1452)"/><line class="a" x2="71" transform="translate(1082.915 1530)"/><line class="a" y1="8" x2="9" transform="translate(1117.915 1497)"/><line class="a" x2="5" y2="5" transform="translate(1089.915 1505)"/><line class="a" y1="5" x2="7" transform="translate(1141.915 1503)"/><g transform="translate(1130.769 1479.425)"><path class="a" d="M1236.369,1532.483a8.464,8.464,0,0,1,2.742-.483c8.331,0,15.084,12.709,15.084,23.311s-6.753,15.084-15.084,15.084c-4.265,0-8.108-1.184-10.852-3.753" transform="translate(-1228.259 -1532)"/></g><g transform="translate(1079.915 1479.425)"><path class="a" d="M1099.113,1533.063A8.9,8.9,0,0,0,1095,1532c-8.331,0-15.084,12.709-15.084,23.311s6.753,15.084,15.084,15.084c4.265,0,8.108-1.184,10.852-3.753" transform="translate(-1079.915 -1532)"/></g></g></svg>