<svg xmlns="http://www.w3.org/2000/svg" width="93.771" height="75.464" viewBox="0 0 93.771 75.464"><defs><style>.a{fill:none;stroke:#203a84;stroke-linecap:round;stroke-linejoin:round;stroke-width:3px;}</style></defs><g transform="translate(-259.031 -300.983)"><g transform="translate(296.728 302.483)"><path class="a" d="M280.186,321.607c0-3.182,4.207-3.182,4.207-6.367s-4.207-3.19-4.207-6.378,4.207-3.19,4.207-6.379" transform="translate(-280.186 -302.483)"/><path class="a" d="M282.3,316.826c0-3.184,4.206-3.184,4.206-6.366" transform="translate(-278.403 -295.753)"/></g><g transform="translate(263.133 320.371)"><path class="a" d="M281.739,345.123c5.472-.013,10.29-.21,13.205-.5a16.011,16.011,0,0,0,2.53-.4h.013l.018-.007c.063-.031.125-.063.192-.094s.125-.066.186-.1a9,9,0,0,0,1.63-1.536,9.758,9.758,0,0,0,2.093-4.661" transform="translate(-245.281 -290.551)"/><path class="a" d="M306.18,312.211c16.363.317,28.615,1.611,28.615,3.158,0,1.787-16.3,3.232-36.4,3.232s-36.4-1.446-36.4-3.232c0-1.593,12.993-2.919,30.089-3.184" transform="translate(-261.939 -312.185)"/><path class="a" d="M303.247,327.016a85,85,0,0,0,.946-10.331" transform="translate(-227.133 -308.388)"/><path class="a" d="M302.947,329.01a46.858,46.858,0,0,1-3.02,6.695" transform="translate(-229.934 -297.988)"/><path class="a" d="M279.5,359.367c1.322.024,2.692.037,4.093.037a148.692,148.692,0,0,0,16.786-.78,15.972,15.972,0,0,0,3.1-.618l.011-.005h.006l.022-.011-.039.017.011-.005h.006l.022-.011c.159-.1.312-.2.465-.3v-.006c17.872-12.027,16.041-43.769,16.041-43.769" transform="translate(-247.166 -310.729)"/><path class="a" d="M262.022,313.911s-.819,13.821,3.759,26.677" transform="translate(-261.965 -310.729)"/><path class="a" d="M303.729,336.381A6.275,6.275,0,0,0,310,330.114v-4.088a6.266,6.266,0,0,0-3.131-5.424" transform="translate(-226.726 -305.083)"/><path class="a" d="M306.57,317.488h0a11.167,11.167,0,0,1,11.166,11.166v4.088a11.167,11.167,0,0,1-11.166,11.166h-6.208" transform="translate(-229.567 -307.71)"/><path class="a" d="M282.237,341.783h-.5" transform="translate(-245.281 -287.211)"/></g><g transform="translate(260.582 335.889)"><g transform="translate(0 17.425)"><path class="a" d="M264.717,334.859a17.269,17.269,0,0,1,6.663-.927,13.637,13.637,0,0,1,6.156,1.586c4.195,2.38,5.505,6.875,5.823,8.12" transform="translate(-257.092 -326.804)"/><path class="a" d="M279.4,343.343a5.515,5.515,0,0,1-3.241,2.463c-1.525.372-3.295-.133-5.161-.654a4.059,4.059,0,0,1-.548-.148,43.036,43.036,0,0,1-6.883-2.589c-1.84-.878-3.568-2.48-2.8-4.7.586-1.7,2.222-2.9,3.606-3.892a20.729,20.729,0,0,1,6.26-3.013c3.151-.972,7.714-1.337,10.432.889a4.723,4.723,0,0,1,.173,7.181" transform="translate(-260.582 -330.052)"/><path class="a" d="M271.928,334.2s-3.064.585-3.6,3.413" transform="translate(-254.05 -326.548)"/></g><g transform="translate(21.593)"><path class="a" d="M286.054,324.409a17.415,17.415,0,0,0-7.873,5.384c-3.024,3.706-3.522,7.652-3.872,10.38a26.457,26.457,0,0,0,1.125,11.468l.015.066a5.967,5.967,0,0,0,5.686,4.637c2.3.057,4.829.09,7.039.09" transform="translate(-270.761 -317.389)"/><path class="a" d="M277.489,336.638l-.365.007a5.677,5.677,0,0,1-4.5-7.495,7.679,7.679,0,0,1,.721-1.536c3.4-5.576,11.793-7.336,17.787-6.966,2.469.155,6.151.572,7.318,3.147,1.44,3.175-2.03,6.615-3.719,9.009-2.9,4.11-7.24,9.8-12.965,7.215" transform="translate(-272.293 -320.601)"/><path class="a" d="M276.318,327.712a4.939,4.939,0,0,1,5.282-.1" transform="translate(-268.896 -315.313)"/></g></g></g></svg>