<svg xmlns="http://www.w3.org/2000/svg" width="87.731" height="75.257" viewBox="0 0 87.731 75.257"><defs><style>.a{fill:none;stroke:#203a84;stroke-linecap:round;stroke-linejoin:round;stroke-width:2.5px;}</style></defs><g transform="translate(1.25 1.39)"><line class="a" y1="30.791" transform="translate(81.261 41.781)"/><g transform="translate(0 0)"><path class="a" d="M403.347,156.777c-1.123.813-3.5,3.047-2.743,4.74.664,1.487,3.485,1.962,5.4.93,1.617-.875,2.863-2.976,2.215-4.694a3.021,3.021,0,0,0-2.277-1.895A3.518,3.518,0,0,0,403.347,156.777Z" transform="translate(-360.086 -116.419)"/><path class="a" d="M402.6,171.458c-1.124.813-3.5,3.047-2.744,4.738.664,1.487,3.485,1.964,5.4.93,1.615-.873,2.861-2.975,2.213-4.692a3.018,3.018,0,0,0-2.277-1.895A3.511,3.511,0,0,0,402.6,171.458Z" transform="translate(-360.664 -105.106)"/><path class="a" d="M401.482,165.293c-1.323,1.939-1.3,4.258.05,5.179,1.1.753,2.96-.551,4.841-1.845,1.291-.887,2.08-1.448,2.162-2.371.108-1.22-1.078-2.389-2.212-2.808A4.374,4.374,0,0,0,401.482,165.293Z" transform="translate(-360.051 -110.706)"/><path class="a" d="M401.448,144.614c-2-.283-4.816-.5-6.817-.761a79.978,79.978,0,0,0-10.889-.744c-.974,0-2.479,1.4-3.152,3.152-1.416,3.754,2.78,7.915,10.429,17.971,1.647,2.2,3.116,4.2,4.373,5.931a25.731,25.731,0,0,1,4.125,8.977q.319,1.328.531,2.39a98.265,98.265,0,0,1,1.806,17.263" transform="translate(-375.606 -126.223)"/><path class="a" d="M402.773,136.8H382.751a5.238,5.238,0,0,0-5.094,5.372v25.321a5.238,5.238,0,0,0,5.094,5.372h8.9" transform="translate(-377.657 -131.085)"/><path class="a" d="M412.892,136.8h17.752a5.238,5.238,0,0,1,5.092,5.372v25.321a5.238,5.238,0,0,1-5.092,5.372h-7.215" transform="translate(-350.505 -131.085)"/><line class="a" y1="30.791" transform="translate(5.09 41.782)"/><path class="a" d="M407.962,156.266a8.906,8.906,0,0,1,.018,1.56,4.4,4.4,0,0,1-.4,1.928,2.169,2.169,0,0,1-1.62.811,5.293,5.293,0,0,1-4.163-1.337c-2.762-2.449-9.285-8.054-14.239-10.914" transform="translate(-370.027 -122.212)"/><path class="a" d="M394.038,138.442a21.94,21.94,0,0,0-.172,6.4c.609,2.844,1.316,3.492,1.25,5.168a7.349,7.349,0,0,1-1.826,4.007.535.535,0,0,0,.255.834,13.082,13.082,0,0,0,1.427.411.588.588,0,0,1,.467.637l-.17,1.682a.906.906,0,0,0,.411.83l.77.5-.234.682a.9.9,0,0,0,.069.74l.159.282a5.6,5.6,0,0,1,.342,1.905,2.749,2.749,0,0,0,.611,1.351c.457.508,1.245.39,1.687.352,1.356-.115,2.9-.218,4.72-.342" transform="translate(-365.696 -129.819)"/><line class="a" y1="0.111" x2="0.734" transform="translate(30.756 28.983)"/><path class="a" d="M402.774,134.8a10.409,10.409,0,0,1,10.54.46c4.526,2.748,7.385,9.451,2.551,13.405a7.862,7.862,0,0,1-.653.48" transform="translate(-358.302 -133.572)"/><path class="a" d="M409.914,166.17a2.716,2.716,0,0,0,1.507-1.154,3.018,3.018,0,0,0-.042-2.794c-.682-1.271-1.937-1.261-2.927-1.948-2.858-1.99.356-7.141-2.065-10.6-2.316-3.309-7.753-2.16-11.309-5.79-.5-.512-1.68-1.751-1.457-3.107a3.217,3.217,0,0,1,.809-1.42,12.835,12.835,0,0,1,7.417-4.827,12.612,12.612,0,0,1,8.141.388,12.22,12.22,0,0,1,5.119,4.007l.22.218c1.7,1.714,10.046,10.5,7.305,17.033a11.913,11.913,0,0,1-3.693,4.534,40,40,0,0,1-3.639,1.836c-.241.1-.8.388-1.262.611" transform="translate(-365.377 -133.218)"/><line class="a" y1="1.69" x2="4.429" transform="translate(20.686 26.435)"/><path class="a" d="M411.7,144.7c2.019-.266,5.276-.6,7.295-.885a79.99,79.99,0,0,1,10.889-.744c.974,0,2.479,1.4,3.152,3.152,1.417,3.754-2.78,7.915-10.429,17.971-1.647,2.2-3.116,4.2-4.373,5.949a25.5,25.5,0,0,0-4.126,8.959q-.319,1.328-.531,2.39a99.157,99.157,0,0,0-1.806,17.334" transform="translate(-351.422 -126.254)"/><path class="a" d="M405.14,152.182v.724a5.277,5.277,0,0,0,2.321,4.449,5.715,5.715,0,0,0,.669.366,5.556,5.556,0,0,0,2.4.462c2.874-.048,4.959-2.049,7.582-4.256,1.7-1.42,4.177-3.4,7.435-5.652" transform="translate(-356.479 -122.241)"/><line class="a" x1="7.049" y1="2.354" transform="translate(58.862 25.703)"/></g></g></svg>