<svg xmlns="http://www.w3.org/2000/svg" width="73.712" height="76.955" viewBox="0 0 73.712 76.955"><defs><style>.a{fill:none;stroke:#203a84;stroke-linecap:round;stroke-linejoin:round;stroke-width:2.5px;}</style></defs><g transform="translate(-26.867 -30.022)"><path class="a" d="M44.79,62.23" transform="translate(19.21 35.658)"/><path class="a" d="M94.618,60.967c1.033,6.48-8.331,9.674-13.229,10.223-2.462.275-4.929.084-7.388.138-2.671.058-5.344.071-8.015.088-6.463.037-13.021.275-19.5-.032a25.383,25.383,0,0,1-10.793-2.6c-2.8-1.5-6.663-4.1-6.121-7.772" transform="translate(1.62 34.202)"/><path class="a" d="M44.79,62.23a92.232,92.232,0,0,0,12.635,4.091" transform="translate(19.21 35.658)"/><path class="a" d="M42.463,39.063l-.032-.054" transform="translate(16.492 8.903)"/><path class="a" d="M40.943,51.837c.316,4.7.738,9.61-.773,14.067l-.863,2.548" transform="translate(12.893 23.683)"/><path class="a" d="M49.389,51.687c-.319,4.7-.566,10.727.943,15.188l.594,1.748" transform="translate(24.232 23.51)"/><g transform="translate(67.616 47.965)"><path class="a" d="M76.188,76.639l2,3.865L73.93,82.153l-3.286-1.78-2.791-1.509c-1.238-1.614-2.877-3.594-4.347-5.342a16.552,16.552,0,0,1-3.88-9.922c-.155-3.441-.426-7.819-.9-11.2-.319-2.335-1.121-4.709-3.433-5.753-1.98-.9-4.246-.8-6.319-1.36-1.476-.4-2.529-1.076-2.505-2.692a9.376,9.376,0,0,1,.874-3.564" transform="translate(-46.47 -39.034)"/><line class="a" x1="7.636" y1="5.8" transform="translate(11.417 36.511)"/><line class="a" y1="2.217" x2="2.711" transform="translate(24.171 39.121)"/></g><g transform="translate(28.117 31.282)"><path class="a" d="M54.418,39.428c0,.295-.006.581-.015.874,0,0-.024,4.625-1.539,7.6a.269.269,0,0,1-.03.069,5.77,5.77,0,0,1-4.563,2.893A5.459,5.459,0,0,1,43.3,47.972v-.006l-.032-.069c-1.554-3.233-1.554-8.135-1.554-8.135-.015-.349-.006-.7,0-1.044q.023-.652.069-1.27a7.2,7.2,0,0,1,1.255-3.573,6.066,6.066,0,0,1,1.522-1.5l.024-.015A6.387,6.387,0,0,1,48.8,31.316a5.546,5.546,0,0,1,2.684,1,7.52,7.52,0,0,1,2.83,4.84A21.993,21.993,0,0,1,54.418,39.428Z" transform="translate(-12.461 -31.282)"/><path class="a" d="M58.956,39.037a9.354,9.354,0,0,1,.874,3.558c.022,1.616-1.022,2.3-2.505,2.692-2.073.564-4.339.456-6.319,1.36-2.311,1.044-3.116,3.418-3.433,5.753-.471,3.379-.743,7.756-.9,11.2a16.541,16.541,0,0,1-3.883,9.922c-1.468,1.748-3.108,3.728-4.345,5.342L35.656,80.37,32.37,82.15,28.117,80.5l2-3.865" transform="translate(-28.117 -22.347)"/><line class="a" y1="5.8" x2="7.636" transform="translate(12.66 53.195)"/><line class="a" x1="2.711" y1="2.217" transform="translate(4.83 55.805)"/></g><path class="a" d="M46.744,63.4l7.384-3.555s1.885-.243,4.41-.544" transform="translate(21.462 32.286)"/><path class="a" d="M37.343,59.3c2.445.295,4.227.544,4.227.544A92.066,92.066,0,0,0,53.37,65.6" transform="translate(10.63 32.286)"/></g></svg>