<svg xmlns="http://www.w3.org/2000/svg" width="20.077" height="20.073" viewBox="0 0 20.077 20.073"><defs><style>.a{fill:#1f489a;}</style></defs><path class="a" d="M10.035,7.128a5.146,5.146,0,1,0,5.146,5.146A5.138,5.138,0,0,0,10.035,7.128Zm0,8.492a3.346,3.346,0,1,1,3.346-3.346,3.352,3.352,0,0,1-3.346,3.346Zm6.557-8.7a1.2,1.2,0,1,1-1.2-1.2A1.2,1.2,0,0,1,16.593,6.917ZM20,8.135A5.94,5.94,0,0,0,18.38,3.93a5.979,5.979,0,0,0-4.206-1.621c-1.657-.094-6.624-.094-8.282,0A5.971,5.971,0,0,0,1.687,3.925,5.96,5.96,0,0,0,.065,8.131c-.094,1.657-.094,6.624,0,8.282a5.94,5.94,0,0,0,1.621,4.206A5.987,5.987,0,0,0,5.892,22.24c1.657.094,6.624.094,8.282,0a5.94,5.94,0,0,0,4.206-1.621A5.979,5.979,0,0,0,20,16.413c.094-1.657.094-6.62,0-8.277ZM17.86,18.191A3.387,3.387,0,0,1,15.952,20.1c-1.321.524-4.457.4-5.917.4s-4.6.116-5.917-.4a3.387,3.387,0,0,1-1.908-1.908c-.524-1.321-.4-4.457-.4-5.917s-.116-4.6.4-5.917A3.387,3.387,0,0,1,4.119,4.449c1.321-.524,4.457-.4,5.917-.4s4.6-.116,5.917.4A3.387,3.387,0,0,1,17.86,6.357c.524,1.321.4,4.457.4,5.917S18.384,16.874,17.86,18.191Z" transform="translate(0.005 -2.238)"/></svg>