<svg xmlns="http://www.w3.org/2000/svg" width="236.279" height="69.48" viewBox="0 0 236.279 69.48"><defs><style>.a{fill:#203a84;}</style></defs><g transform="translate(1161.462 -245.146)"><path class="a" d="M-922.349,266.632a12.428,12.428,0,0,1,.411-1.44c.166-.469.309-.939.425-1.4a5.571,5.571,0,0,0,.26-.83,4.763,4.763,0,0,1,.238-.753,5.587,5.587,0,0,0,.268-.849c.056-.254.113-.522.173-.826a5.2,5.2,0,0,1,.634-1.991l.287-1.095.009-.074c0-.218.043-.371.118-.422l.075-.05.035-.082a6.475,6.475,0,0,0,.4-1.283c.086-.427.184-.862.286-1.27l.337-1.012.011-.042c.109-.6.249-1.2.415-1.783s.308-1.192.423-1.813a2.687,2.687,0,0,0,.179-.969,2.062,2.062,0,0,1,.146-.772l.022-.055v-.059a4.773,4.773,0,0,0-.092-1.078c-.171-.765-.57-1.006-.887-1.071a5.043,5.043,0,0,0-.917-.259c-.307-.055-.6-.111-.884-.168a1.349,1.349,0,0,0-1.572.551q-.168.25-.374.541c-.143.2-.272.385-.375.542a13.654,13.654,0,0,0-1.3,2.093,4.529,4.529,0,0,1-.355.711,2.494,2.494,0,0,1-.564.6l-.054.055c-.17.227-.327.44-.467.638a5.048,5.048,0,0,0-.4.673l-.023.062a2.6,2.6,0,0,1-.364.725,1.232,1.232,0,0,0-.358.647,1.013,1.013,0,0,1-.164.389l-.019.033q-.255.51-.51,1.063a4.412,4.412,0,0,1-.541.894,3.582,3.582,0,0,0-.446.538c-.108.16-.214.321-.32.481l-.017.025a2.372,2.372,0,0,0-.289.579,1.839,1.839,0,0,1-.218.433q-.338.506-.674,1.012c-.229.342-.459.717-.686,1.114s-.439.778-.636,1.145a6.125,6.125,0,0,1-.664.983l-.084.085-.859,1.44a1.574,1.574,0,0,0-.661,1.214,5.412,5.412,0,0,1-.5.549l-.323.425-.014.068a.73.73,0,0,1-.187.413,2.128,2.128,0,0,0-.425.465,1.289,1.289,0,0,0-.29.38.815.815,0,0,0-.2.531.221.221,0,0,1-.079.164l-.037.045a1.28,1.28,0,0,1-.267.305,3.391,3.391,0,0,0-.37.324l-.044.044-.023.058a1.792,1.792,0,0,1-.4.615,2.758,2.758,0,0,0-.513.7l-.753,1.17c-.271.434-.565.867-.873,1.288a10.361,10.361,0,0,1-1.024,1.187l-.632.979-.015.027a6.617,6.617,0,0,1-.564.927,4.631,4.631,0,0,1-.767.81.906.906,0,0,0-.335.3,1.766,1.766,0,0,1-.216.25l-.069.069-.016.1a1.888,1.888,0,0,1-.59.931l-.688.858-2.432,2.768a13.76,13.76,0,0,1-1.361,1.2,11.724,11.724,0,0,1-1.422.936c-.289.117-.539.228-.764.341a2.993,2.993,0,0,1-.575.22,2.46,2.46,0,0,1-.512-.063,2.99,2.99,0,0,1-.686-.621,7.88,7.88,0,0,1-.61-.937,7.79,7.79,0,0,1-1.138-3.652l-.012-.072a5.344,5.344,0,0,1-.2-1.038,4.693,4.693,0,0,0-.226-1.081l-.017-.041a.285.285,0,0,1,.017-.19.87.87,0,0,0,.008-.6,10.147,10.147,0,0,1-.077-1.226v-1.307a.833.833,0,0,0-.124-.447s0,0,.008-.007l.023-.062a4.192,4.192,0,0,0,.092-1.5,5.4,5.4,0,0,1,0-1.317l0-1.61c.055-.281.1-.563.125-.843a3.205,3.205,0,0,0-.041-.9c0-.331-.015-.683-.043-1.049a2.336,2.336,0,0,1,.112-.934,2.121,2.121,0,0,0,.015-1.234,7.734,7.734,0,0,0-.044-.794,3.651,3.651,0,0,1,.041-.891l.006-.044-.006-.044c-.055-.381-.1-.757-.124-1.119-.027-.343-.041-.717-.041-1.114a2.372,2.372,0,0,0-.456-1.5,1.837,1.837,0,0,0-1.283-1.154,6.567,6.567,0,0,0-1.416-.222c-.518-.028-1.006-.043-1.45-.043a4.2,4.2,0,0,0-1.319.226,2.967,2.967,0,0,0-1.173.706c-.4.4-.761.791-1.071,1.157s-.642.786-.98,1.237l-.036.063a6.591,6.591,0,0,1-.564,1.047c-.231.347-.485.713-.764,1.1-.277.443-.549.9-.808,1.361s-.521.928-.808,1.446q-.25.5-.5.96a6.282,6.282,0,0,0-.433.99c-.212.369-.43.723-.648,1.052a2.979,2.979,0,0,0-.464,1.259l-.314.629c-.217.435-.44.838-.661,1.2a7.4,7.4,0,0,0-.624,1.3,3.738,3.738,0,0,1-.428.974,4.679,4.679,0,0,0-.49,1.019l-1,2.086a7.19,7.19,0,0,0-.44,1.1,4.159,4.159,0,0,1-.378.882,4.325,4.325,0,0,0-.634,1.226q-.165.534-.328,1.106l-.229.382a9.6,9.6,0,0,0-.74,1.436c-.188.456-.391.9-.6,1.331a1.054,1.054,0,0,0-.258.546.462.462,0,0,1-.126.258l-.057.057-.021.078c-.165.608-.335,1.2-.5,1.763a5.657,5.657,0,0,1-.8,1.6l-.023.037a1.668,1.668,0,0,0-.2.587c-.331.993-.723,2.111-1.155,3.3-.34.737-.641,1.468-.9,2.174-.248.69-.544,1.436-.871,2.2a2.365,2.365,0,0,0-.241.772,2.883,2.883,0,0,1-.192.685l-.056.14.331.551.046.058a2.529,2.529,0,0,0,.956.535,3.38,3.38,0,0,0,1.115.229h.927l.074-.009a1.707,1.707,0,0,0,1.115-.73l.282-1.161c.285-.912.555-1.823.8-2.706a20.531,20.531,0,0,1,.956-2.659l.014-.04a26.559,26.559,0,0,1,1.667-4.334l.014-.036c.278-.834.6-1.676.96-2.5.367-.848.723-1.7,1.047-2.514.282-.564.541-1.139.769-1.709.215-.54.46-1.085.728-1.622a.7.7,0,0,0,.221-.473.458.458,0,0,1,.062-.18c.385-.937.808-1.9,1.259-2.853l1.351-2.871c.5-1.117,1.012-2.206,1.514-3.238s1.069-2.1,1.677-3.144c.432-.756.871-1.506,1.3-2.229q.631-1.052,1.307-2.15a15.391,15.391,0,0,1,1.948-2.522l.138-.069a2.8,2.8,0,0,1,.047.58l0,.033c.054.5.1,1,.125,1.5s.041,1.008.041,1.5v.575a14.755,14.755,0,0,0-.005,3.106,1.313,1.313,0,0,0-.033.584.733.733,0,0,1-.024.343,2.565,2.565,0,0,0-.19.957v.815a7.736,7.736,0,0,0,.044,1.844,5.132,5.132,0,0,1-.041,1.671l0,.054a.658.658,0,0,1-.025.2,1.2,1.2,0,0,0-.059.394v.058l.022.054a1.716,1.716,0,0,1,.106.789,2.144,2.144,0,0,0,.231,1.15.609.609,0,0,1-.062.574l-.044.072v.084a2.481,2.481,0,0,0,.169,1v.607l0,.037a12.939,12.939,0,0,0,.6,2.633c.28.814.595,1.63.935,2.424l.018.036a8.14,8.14,0,0,0,.569.832,2.88,2.88,0,0,0,.777.692,6.927,6.927,0,0,0,4.648,1.744,6.355,6.355,0,0,0,1.9-.267,8.766,8.766,0,0,0,1.629-.706c.455-.284.874-.573,1.247-.86a11.165,11.165,0,0,0,1.1-.967c.437-.492.912-.981,1.414-1.456a8.925,8.925,0,0,0,1.4-1.7l.048-.075v-.023a2.656,2.656,0,0,1,.248-.271,6.008,6.008,0,0,0,.792-1.052c.67-.95,1.376-1.88,2.1-2.766.738-.909,1.451-1.851,2.12-2.8l.017-.028q.42-.756.883-1.555a6.857,6.857,0,0,1,1.09-1.413l.032-.038c.283-.4.555-.8.809-1.193s.52-.816.8-1.263l1.588-2.425a16.642,16.642,0,0,0,1.116-1.632c.337-.56.7-1.122,1.083-1.666a20.179,20.179,0,0,0,1.5-2.44,14.966,14.966,0,0,1,1.529-2.355l.61-1.209c.461-.749.914-1.471,1.347-2.146.317-.5.625-.992.919-1.481a1.347,1.347,0,0,0-.046.348,2.242,2.242,0,0,1-.183.928,8.552,8.552,0,0,1-.448.854l-.022.044a8.5,8.5,0,0,0-.306.919,4,4,0,0,0-.137,1.05,1.086,1.086,0,0,1-.033.262,1.67,1.67,0,0,0-.051.371l-.41,1.559a1.99,1.99,0,0,1-.512.88c-.11.11-.171.28-.174.853l-.232.93a3.563,3.563,0,0,0-.524,1.342l-.007.051.01.05a1.416,1.416,0,0,1-.035.7,3.288,3.288,0,0,0-.137.807,1.9,1.9,0,0,0-.508,1.265c-.053.209-.106.405-.157.587a3.41,3.41,0,0,1-.224.564,3.59,3.59,0,0,0-.546,2.008,3.536,3.536,0,0,1-.233,1.242,7.263,7.263,0,0,1-.648,1.294l-.046.074v.087a.852.852,0,0,1-.2.5,1.268,1.268,0,0,0-.22.718,1.128,1.128,0,0,1-.137.5l-.032.064v.072a7.186,7.186,0,0,1-.157,1.347,3.417,3.417,0,0,0-.221.943.845.845,0,0,1-.351.592l-.063.068a.619.619,0,0,0-.054.692,1.493,1.493,0,0,1-.066.393l-.169.507c-.166.5-.335.978-.5,1.423a6.257,6.257,0,0,0-.355,1.418l0,.037a.989.989,0,0,1-.332.712l-.063.062-.019.087a28.056,28.056,0,0,0-.512,3.154l0,.032a.923.923,0,0,1-.18.56c-.4.4-.534.772-.411,1.1a1.991,1.991,0,0,1-.22.816,1.579,1.579,0,0,0-.128,1.155q-.159.635-.316,1.267l-.338,1.349c-.112.445-.226.93-.339,1.441a7.264,7.264,0,0,0-.176,1.546c-.11.443-.205.909-.291,1.421a9.116,9.116,0,0,0-.13,1.445c-.109.432-.233.884-.367,1.343a4.023,4.023,0,0,0-.146,1.5,4.032,4.032,0,0,0-.336,2.306,2.387,2.387,0,0,0-.163.706v.59a13.621,13.621,0,0,1-.083,1.484l-.028.253c-.047.422-.094.844-.137,1.244a5.943,5.943,0,0,0-.044,1.911,12.559,12.559,0,0,1,.123,1.769l.009.074a2.475,2.475,0,0,0,.563,1.129,2.533,2.533,0,0,0,2.178,1.294,2.542,2.542,0,0,0,1.721-.458,1.287,1.287,0,0,0,.479-1.1,1.22,1.22,0,0,0-.556-.941.891.891,0,0,0-.8-.135,1.176,1.176,0,0,1-.12-.567c-.057-.629-.129-1.23-.213-1.788a3.54,3.54,0,0,1,.117-1.554l.013-.087c0-.026,0-.044,0-.056a.67.67,0,0,0,.083-.366l-.007-.067a2.781,2.781,0,0,1,.039-1.37,4.347,4.347,0,0,0,.141-1.577,6.251,6.251,0,0,0,.165-1.454,5.588,5.588,0,0,1,.153-1.338,4.737,4.737,0,0,0,.225-1.083c.027-.327.069-.69.121-1.061l1.182-5.907c.11-.609.237-1.213.376-1.8s.269-1.208.376-1.8c.226-.8.413-1.57.554-2.3a15.223,15.223,0,0,1,.625-2.247c.28-.955.524-1.927.723-2.891a18.141,18.141,0,0,1,.876-2.917,3.314,3.314,0,0,0,.183-.963,8.207,8.207,0,0,0,.413-1.249c.451-1.467.89-2.953,1.3-4.419s.884-2.959,1.386-4.41Z" transform="translate(-126.479 0)"/><path class="a" d="M-773.778,311.227c.1.1.176.177.222.222a1.091,1.091,0,0,0,.307.208l.063.031h.045a2.215,2.215,0,0,1,.261.117l.064.032h.072a1.46,1.46,0,0,0,1.234-.642.4.4,0,0,0,.274-.3.356.356,0,0,0-.034-.226,5.335,5.335,0,0,1,.76-1.16l.044-.065a2.012,2.012,0,0,1,.13-.228.755.755,0,0,0,.124-.394c.047-.241.083-.448.109-.621a.768.768,0,0,0-.446-.766,3.556,3.556,0,0,0-1.356-.865l-.047-.016H-772a1.833,1.833,0,0,0-.739.189.357.357,0,0,0-.209.018.468.468,0,0,0-.245.44,3.6,3.6,0,0,0-.587,1.217l-.3,1.2a2.071,2.071,0,0,0,.263,1.558Z" transform="translate(-269.437 -42.714)"/><path class="a" d="M-727.276,297.24a.783.783,0,0,0-.566-.094c-.039-.011-.093-.027-.165-.051a2.336,2.336,0,0,1-.584-.392,6.248,6.248,0,0,0-.469-.826l-.021-.03a1.092,1.092,0,0,1-.27-.517c-.026-.2-.065-.435-.113-.68-.05-.3-.1-.6-.148-.924s-.1-.751-.145-1.253a1.176,1.176,0,0,0-.106-.458l.027-.054,0-.061c.147-2.111.334-4.093.556-5.888a31.47,31.47,0,0,1,.849-4.538l.742-3.342.007-.066a1.084,1.084,0,0,1,.205-.643,6.8,6.8,0,0,0,.5-.836c.449-.647.88-1.251,1.282-1.794.425-.574.816-1.143,1.147-1.665a22.957,22.957,0,0,0,1.844-2.748c.52-.916,1.028-1.821,1.515-2.7.352-.554.668-1.084.938-1.576.279-.508.568-1.061.853-1.633l.743-1.337c.248-.447.5-.926.749-1.422s.487-1,.711-1.5.437-1.024.64-1.581l.019-.051v-.054a.72.72,0,0,1,.05-.326,11.054,11.054,0,0,0,.687-2.253c.146-.753.272-1.5.374-2.2a2.747,2.747,0,0,0-1.144-2.729.873.873,0,0,0-.444-.179,1,1,0,0,1-.283-.082l-.064-.024a7.058,7.058,0,0,0-1.127-.194c-.316-.024-.673-.061-1.062-.11l-.038,0a.44.44,0,0,0-.387.17,3.116,3.116,0,0,0-.909.861q-.669,1.042-1.3,2.045c-.421.667-.836,1.358-1.232,2.054l-.029.071a5.707,5.707,0,0,1-.848,1.689l-.054.078v.1a.411.411,0,0,1-.134.3l-.057.057-.021.078a11.908,11.908,0,0,1-.507,1.484q-.291.692-.652,1.489a16.831,16.831,0,0,0-1.1,2.345,13.769,13.769,0,0,0-.714,2.614,1.448,1.448,0,0,0-.157.477c-.154.414-.284.781-.4,1.118l-.337,1.012-.444,1.481c-.3.948-.575,1.876-.82,2.758s-.475,1.8-.67,2.682a6.921,6.921,0,0,1-.63,1.618,4.214,4.214,0,0,0-.387.622c-.1.2-.221.416-.36.648l-.028.06a.386.386,0,0,1-.116.187,2.955,2.955,0,0,0-.331.289l-.051.051-.023.068a2.62,2.62,0,0,1-.5.829,4.889,4.889,0,0,0-.573.794c-.133.131-.264.251-.393.357a2.216,2.216,0,0,0-.423.464c-.244.341-.489.66-.729.948a2.759,2.759,0,0,1-.666.6l-.058.046a8.694,8.694,0,0,0-.808.924,7.372,7.372,0,0,1-.681.788,32.929,32.929,0,0,1-4.322,3.738,5.974,5.974,0,0,0-.957.578,2.217,2.217,0,0,1-.849.344h-.189a1.217,1.217,0,0,0-.41.065c-.093-.185-.185-.382-.277-.591a.564.564,0,0,1,0-.467l.022-.055v-.059a2.456,2.456,0,0,1,.065-.6,2.8,2.8,0,0,0,.083-.631,15.732,15.732,0,0,1,.576-1.9c.239-.648.483-1.245.724-1.777.19-.284.387-.568.586-.85a.3.3,0,0,0,.089-.129c.28-.4.566-.789.86-1.176.55-.725,1.095-1.431,1.62-2.1l.878-.878a1.7,1.7,0,0,1,.468-.272.422.422,0,0,1,.313-.042.815.815,0,0,0,.053.271l.028.084.069.056a1.3,1.3,0,0,1,.424.572q.14.386.28.738a.835.835,0,0,0,.123.44,2.94,2.94,0,0,1,.2.43l.023.057.044.044a1.408,1.408,0,0,0,1.032.312,1.614,1.614,0,0,0,.711-.171,1.7,1.7,0,0,0,.523-.307.591.591,0,0,0,.243-.421.458.458,0,0,0-.1-.31l-.342-.822a5.536,5.536,0,0,0-.5-1.35,2.909,2.909,0,0,0-1.036-1.118l-.049-.025c-.235-.093-.494-.212-.793-.361a2.152,2.152,0,0,0-.953-.255h-.966a.727.727,0,0,0-.558.195l-.355.118a4.361,4.361,0,0,0-.56.239,4.091,4.091,0,0,0-1.164.882c-.309.332-.632.667-.96,1l-.195.1-.046.091a2.421,2.421,0,0,1-.3.461c-.119.143-.226.261-.316.352l-.046.059a6.388,6.388,0,0,1-.566.778,10.468,10.468,0,0,0-.679.9,6.841,6.841,0,0,0-.65.921c-.17.292-.377.609-.615.941l-.035.065q-.087.219-.175.489a28.527,28.527,0,0,1-3.141,2.425,5.48,5.48,0,0,1-.946.6,9.3,9.3,0,0,0-1.017.563,6.058,6.058,0,0,1-2.347.412,3.073,3.073,0,0,1-2.273-.95l-.026-.023a2.5,2.5,0,0,1-.53-.562l-.554-.831-.051-.034a.8.8,0,0,1-.262-.354q-.143-.32-.285-.606a8.891,8.891,0,0,0-.415-1.422,3,3,0,0,1-.165-1.375v-.52l0-.038a2.576,2.576,0,0,1,0-.825,3.973,3.973,0,0,0,.081-.82,3.06,3.06,0,0,0,0-.966,9.256,9.256,0,0,0-.228-.99,1.37,1.37,0,0,0-.57-.922,4.766,4.766,0,0,0-2.038-1.01l-.435-.007-.038,0c-.406.051-.812.115-1.206.189a3.776,3.776,0,0,0-1.309.534,9.377,9.377,0,0,0-1.152,1c-.323.323-.634.617-.938.886,0-.023,0-.05.008-.081.023-.214.06-.457.108-.722s.087-.529.114-.763c.037-.338,0-.528-.138-.669a2.33,2.33,0,0,0-1.976-.515c-.763.17-.853.609-.838.858q-.07.214-.168.54c-.075.253-.151.528-.226.83s-.148.578-.221.848a3.141,3.141,0,0,1-.165.5l-.3.831a8.144,8.144,0,0,0-.483,1.251,2.469,2.469,0,0,1-.263.157l-.044.022-.035.035a6.231,6.231,0,0,1-.636.529,6.977,6.977,0,0,0-.685.569l-.725.544a.649.649,0,0,1-.08.053.52.52,0,0,0-.325.162c-.02.02-.108.1-.495.423a15.054,15.054,0,0,1-1.783,1.2,24.716,24.716,0,0,1-2.274,1.174,23.038,23.038,0,0,1-2.456.953,13.667,13.667,0,0,1-2.252.545,7.483,7.483,0,0,1-2.177-.037,1.1,1.1,0,0,1-1.041-1.165l-.007-.049a2.418,2.418,0,0,1,.034-1.189c.118-.427.254-.872.394-1.3l1.254-2.876a1.893,1.893,0,0,0,.367-1.139,1.715,1.715,0,0,0-.57-1l-.036-.036-.046-.022-.023-.012a.674.674,0,0,0-.116-.151l-.049-.041a4.539,4.539,0,0,0-.478-.279l-.1-.052-.418-.209a.78.78,0,0,0-.6-.015.789.789,0,0,0-.451.336.393.393,0,0,0-.091.252.394.394,0,0,0,.025.134,10.75,10.75,0,0,1-.549,1.287c-.246.49-.493.961-.737,1.4l-.7,2.461a4.693,4.693,0,0,0,.309,2.916,4.1,4.1,0,0,0,.97,1.863,8.192,8.192,0,0,0,1.7,1.123l.069.026c.393.1.735.2,1.017.291a2.932,2.932,0,0,0,.89.164,6.912,6.912,0,0,0,1.006.074,6.918,6.918,0,0,0,2.04-.31c.945-.291,1.8-.54,2.552-.74l.05-.018a17.786,17.786,0,0,1,1.75-.73,2.994,2.994,0,0,0,1.294-.875,1.643,1.643,0,0,1,.3-.081.921.921,0,0,0,.55-.243c.314-.223.586-.4.81-.538a7.288,7.288,0,0,0,.736-.5c.216-.167.472-.35.762-.544l.112-.077c-.028.056-.055.113-.084.164a1.08,1.08,0,0,0-.2.686.985.985,0,0,0,.143,1.174l.87.615a.328.328,0,0,0-.016.2c.063.264.354.264.494.264a1.053,1.053,0,0,0,.9-.329c.133-.132.271-.258.407-.372a2.227,2.227,0,0,0,.414-.45,2.367,2.367,0,0,0,.456-.79l.371-.966c.117-.307.24-.6.364-.874a4.315,4.315,0,0,1,.307-.583,10.264,10.264,0,0,1,1.154-1.37l.031-.035a15.068,15.068,0,0,1,1.71-1.966c.605-.581,1.26-1.149,1.94-1.684.2-.149.412-.311.635-.485a2.225,2.225,0,0,1,.467-.274,1.871,1.871,0,0,1-.025.5,1.662,1.662,0,0,0,.085.931,1.953,1.953,0,0,1,.089.365l-.031.062v.071a15.7,15.7,0,0,0,.227,2.462,7.405,7.405,0,0,0,.845,2.5,8.361,8.361,0,0,0,1.079,1.656c.392.467.819.957,1.27,1.456l.036.033a8.243,8.243,0,0,0,2.16,1.16,6.455,6.455,0,0,0,2.338.476q.16,0,.317-.01l.04-.005a3.923,3.923,0,0,1,.758-.069,3.087,3.087,0,0,0,.967-.157,6.1,6.1,0,0,0,1.62-.543,13.534,13.534,0,0,0,1.444-.836l.026-.019c.171-.142.347-.273.525-.4l-.059.684a1.179,1.179,0,0,0,.081.451,2.3,2.3,0,0,0,.873,1.526,1.826,1.826,0,0,0,.821.861,5.918,5.918,0,0,0,1.162.359,5.587,5.587,0,0,0,2.091-.075,6.345,6.345,0,0,0,2.967-1.326l.383-.307c.441-.392.886-.762,1.322-1.1a10.562,10.562,0,0,0,1.365-1.288c.635-.635,1.267-1.23,1.88-1.769a14.3,14.3,0,0,0,1.746-1.849,2.659,2.659,0,0,0,.76-.851,4.9,4.9,0,0,1,.4-.555c-.12.555-.23,1.1-.326,1.635s-.2,1.04-.294,1.473a5.438,5.438,0,0,0-.156,1.005c-.048.287-.1.564-.144.826a6.023,6.023,0,0,1-.212.813l-.015.047v.049a3.566,3.566,0,0,1-.1.786,1.768,1.768,0,0,0,.009.916.442.442,0,0,0-.039.1.58.58,0,0,0-.069.574.118.118,0,0,1,.011.088l-.046.092.02.1a2.27,2.27,0,0,1,.033.653,2.736,2.736,0,0,0,.02.714,1.456,1.456,0,0,0-.009,1.073,1.527,1.527,0,0,1,.04.9l-.016.047v.049a.881.881,0,0,0,.124.5c.034.052.068.11.1.175a.569.569,0,0,0,.145.342,2.166,2.166,0,0,0,.372,1.158l-.066.066.1.2a2.324,2.324,0,0,0,.553.686,5.272,5.272,0,0,1,.6.632l.022.025a3.106,3.106,0,0,0,1.233.742,2.5,2.5,0,0,0,.8.126,3.322,3.322,0,0,0,.878-.125l.057-.019a2.55,2.55,0,0,0,.28-.046l.059-.012.05-.033a1.641,1.641,0,0,0,.507-.589.685.685,0,0,0,.084-.541A.624.624,0,0,0-727.276,297.24Zm8.507-43.482a2.1,2.1,0,0,1,0,.908,18.293,18.293,0,0,0-.6,2.015l-.439,1.9q-.736,1.619-1.4,3.053c-.439.952-.912,1.909-1.4,2.845l-.035.067v.3s-.005.028-.059.082a4.205,4.205,0,0,0-.64.8c-.15.25-.35.6-.605,1.059a3.452,3.452,0,0,0-.243.611c-.043.148-.107.331-.19.545a4.081,4.081,0,0,0-.4.475,4.49,4.49,0,0,0-.35.58q-.589.881-1.139,1.69-.2.3-.415.622c.169-.609.376-1.248.618-1.906.344-.934.693-1.857,1.038-2.742l.017-.061a3.59,3.59,0,0,1,.205-.753,4.162,4.162,0,0,1,.485-.827l.04-.078a32.271,32.271,0,0,1,1.618-3.9c.611-1.222,1.26-2.5,1.925-3.776q.372-.671.783-1.455a15.651,15.651,0,0,1,.838-1.421l.025-.046A3.06,3.06,0,0,1-718.769,253.758Z" transform="translate(-259.465 -3.675)"/><path class="a" d="M-565.821,277.675l.189-.064.052,0a.82.82,0,0,0,.769-.163,1,1,0,0,0,.272-.581,1.57,1.57,0,0,0-.046-.647,2.9,2.9,0,0,0-.168-.457l-.062-.128-.138-.034-.594-.149a3.131,3.131,0,0,0-.723-.083,15.1,15.1,0,0,0-1.69-.074h-1.671l-3.611.629.022-.04.462-1.45c.145-.436.317-.891.512-1.352s.387-.884.577-1.267a7.913,7.913,0,0,0,.541-1.158c.147-.392.275-.775.369-1.108a21.18,21.18,0,0,1,.988-2.123q.548-1.023,1.088-2.1a27.57,27.57,0,0,1,3.526-5.8l.026-.041a3.581,3.581,0,0,1,1.1-1.233l.041-.034a1.553,1.553,0,0,1,1.061-.5.619.619,0,0,1,.309.278l.028.045a3.133,3.133,0,0,1,.682,1.468,1.662,1.662,0,0,0,.472,1.287,7.236,7.236,0,0,0,1.008.738l.086.037A1.276,1.276,0,0,0-559,261.1a1.352,1.352,0,0,0,.3-1.366,4.152,4.152,0,0,0-.474-1.784,6.481,6.481,0,0,0-1.56-2.142,5.357,5.357,0,0,0-2.517-1.146l-.1-.006a1.99,1.99,0,0,0-1.144.019,2.968,2.968,0,0,0-.765.4l-.817.52-.052.042c-.4.4-.772.8-1.092,1.167a12.464,12.464,0,0,0-.952,1.256l-.45.9a12.333,12.333,0,0,0-1.084,1.611c-.323.571-.633,1.13-.942,1.7-.193.434-.391.855-.588,1.25l-.585,1.171a16.947,16.947,0,0,0-.908,1.777q-.371.853-.741,1.667l-.011.029a8.9,8.9,0,0,1-.359.9,7.258,7.258,0,0,0-.381,1.023l-.591,1.257a6,6,0,0,1-.318.671c-.121.217-.229.4-.321.537l-.019.032a.906.906,0,0,0-.106.37.421.421,0,0,1-.06.071l-.069.069-.016.1a6.405,6.405,0,0,1-.177.78c-.064.216-.141.438-.229.661a1.748,1.748,0,0,0-.484.894q-.066.357-.13.685l-.172.172v.126a.194.194,0,0,1-.088.193,3.126,3.126,0,0,0-.322.245h-.4a.993.993,0,0,0-.655.31,9.178,9.178,0,0,0-1.471.3l-1.29.369a2.6,2.6,0,0,0-.695.226c-.051.012-.159.033-.387.065l-.084.024a2.968,2.968,0,0,1-1.062.344,5.254,5.254,0,0,0-1.238.225.375.375,0,0,0-.225.1l-.031.019c-.368.221-.491.653-.364,1.286l.016.054c.087.216.059.287.058.287a.6.6,0,0,0,.138.761c.186.249.518.306,1,.167l.938-.313.039-.029a1.113,1.113,0,0,1,.264-.162.542.542,0,0,1,.161.021l.223.075a1,1,0,0,0,.678-.111c.435-.145.964-.293,1.571-.438s1.206-.268,1.8-.367l.1-.016.046-.046a.518.518,0,0,1,.1-.008h.035l0,.036c-.026.252-.086.324-.1.336l-.089.089v.1a1.942,1.942,0,0,0-.364.743c-.05.226-.1.463-.149.706-.1.448-.212.907-.332,1.363s-.227.869-.323,1.252l-.267.4a1.931,1.931,0,0,0-.269.705,3.777,3.777,0,0,0-.08.727v.613a5.332,5.332,0,0,0-.371,1.8l-.882,3.454-.026.115.01.02a.564.564,0,0,0-.142.386l.009.074a1.317,1.317,0,0,1-.023.849,2.8,2.8,0,0,0-.207.981,1.244,1.244,0,0,0-.155,1.013l-.439,3.656,0,1.187a8.926,8.926,0,0,1-.072,1.113l-.009.069.022.066a2.553,2.553,0,0,1,.135,1.128l-.008.069.17.511.685,1.377.041.062a1.7,1.7,0,0,0,1.345.626,3.513,3.513,0,0,0,.869-.077.544.544,0,0,0,.443-.316.616.616,0,0,0,.023-.514.366.366,0,0,0-.146-.227,4.158,4.158,0,0,1-.333-1.01c-.075-.4-.137-.793-.184-1.175l-.071-.5c0-.456-.013-.9-.038-1.332a3.989,3.989,0,0,1,.09-1.119,1.061,1.061,0,0,0,.1-.916v-.529c.046-.371.107-.744.18-1.11a6.161,6.161,0,0,0,.117-1.156,7.231,7.231,0,0,0,.33-1.228c.073-.413.157-.811.25-1.185a2.116,2.116,0,0,0,.162-.762,3.124,3.124,0,0,1,.066-.6q.37-1.559.742-3.08c.247-1.015.495-2.043.741-3.077.244-.927.517-1.872.813-2.808s.622-1.89.968-2.83l.133-.465c.131-.173.266-.34.4-.5a.747.747,0,0,1,.445-.239c.874-.242,1.813-.453,2.793-.625s1.821-.307,2.532-.41a7.2,7.2,0,0,1,1.241-.068A4.883,4.883,0,0,0-565.821,277.675Z" transform="translate(-400.809 -6.562)"/><path class="a" d="M-482.572,257.851a1.32,1.32,0,0,0-.289-.434l-.035-.036-.045-.023c-.3-.149-.628-.3-.982-.453a2.434,2.434,0,0,0-1.271-.171l-.05.01c-.637.191-.96.489-.96.886l.009.072a.516.516,0,0,1,.013.3,1.375,1.375,0,0,0-.1.487l-.14.629a16.232,16.232,0,0,1-.692,2.15c-.272.667-.556,1.346-.845,2.021a19.738,19.738,0,0,0-1.018,2.414q-.4,1.176-.844,2.423l-.006,0-.092.045-.046.092a9.618,9.618,0,0,0-.614,1.535,7.918,7.918,0,0,1-.644,1.5l-.021.049a6.686,6.686,0,0,1-.355.852,3.66,3.66,0,0,0-.316.858,9.877,9.877,0,0,0-.56,1.54c-.117.445-.272.935-.46,1.456a11.68,11.68,0,0,0-.572,1.452c-.319.881-.66,1.867-1.042,3.015q-.557,1.672-1.04,3.158c-.183.562-.328,1-.439,1.321a1.033,1.033,0,0,0-.208.208,4.272,4.272,0,0,1-.712.574,2.7,2.7,0,0,0-.781.772c-.632.681-1.284,1.331-1.936,1.934s-1.461,1.314-2.384,2.092q-.52.372-1.371.963c-.56.39-1.043.712-1.41.943-.482.242-.974.463-1.462.658a7.778,7.778,0,0,1-1.487.426,1.408,1.408,0,0,1-1.426-.514,4.226,4.226,0,0,1-.761-1.7l-.026-.074a3.016,3.016,0,0,1-.162-.531,2.773,2.773,0,0,1-.1-.52l0-.043a7.531,7.531,0,0,1-.036-1.927,9.755,9.755,0,0,1,.327-1.67q.148-.593.445-1.743a11.7,11.7,0,0,1,.578-1.771l.017-.05a5.061,5.061,0,0,0,.158-1.708,1.827,1.827,0,0,0-.428-.994l-.033-.039a3.209,3.209,0,0,0-.7-.533,6.685,6.685,0,0,0-.765-.359,1.335,1.335,0,0,0-1.5.379l-1.337,1.411-.026.032c-.245.342-.588.856-1.048,1.572a6.742,6.742,0,0,1-1.148,1.434c-.249.249-.5.515-.752.79a10.479,10.479,0,0,0-.75.935c-.25.249-.515.5-.79.754-.3.277-.581.543-.845.809a6.148,6.148,0,0,1-.779.778l-.856.714-1.18.815a.572.572,0,0,1-.215.035.9.9,0,0,0-.048-.255.165.165,0,0,1,.018-.047l.028-.087a7.488,7.488,0,0,1,.25-1c.125-.4.24-.835.341-1.287.1-.435.206-.851.328-1.238s.229-.7.326-.943l.094-.67,0-.038a5.172,5.172,0,0,0-.039-.633.889.889,0,0,0-.373-.646l-1.4-1.106a.634.634,0,0,0-.728-.087,1.118,1.118,0,0,0-.562.552l-.022.044-.007.049a18.322,18.322,0,0,1-.621,2.592q-.485,1.608-.716,2.682a7.221,7.221,0,0,0-.077,1.008v.817a1.9,1.9,0,0,0,.517,1.235,3.728,3.728,0,0,0,.77.726,9.017,9.017,0,0,0,.98.548,3.929,3.929,0,0,0,2.28.161,2.545,2.545,0,0,0,1.011-.549,4.59,4.59,0,0,1,.712-.532,9.259,9.259,0,0,0,1.906-1.676l.959-.885a1.5,1.5,0,0,1,.212-.184,1.257,1.257,0,0,0,.331-.361c.4-.5.868-1.042,1.4-1.619.42-.458.8-.892,1.135-1.3l-.252,1.953a8.463,8.463,0,0,0,0,1.617,15.076,15.076,0,0,0,.225,1.505,15.37,15.37,0,0,0,.379,1.7,3.83,3.83,0,0,0,.8,1.487,7.515,7.515,0,0,0,1.438,1.394,4.992,4.992,0,0,0,1.775.638,5.894,5.894,0,0,0,1.349.165,4.492,4.492,0,0,0,1.092-.13,8.452,8.452,0,0,0,2.135-.874,18.25,18.25,0,0,0,2.455-1.4,29.327,29.327,0,0,0,3.121-2.594l1.259-1.2-.135,1c-.095.38-.191.716-.286,1a3.348,3.348,0,0,0-.164,1.042,5.618,5.618,0,0,1-.244,1.075,2.669,2.669,0,0,0-.127,1.193v.834a1.778,1.778,0,0,1-.108.618.9.9,0,0,0-.115.878,9.2,9.2,0,0,0,.115,1.374,3.783,3.783,0,0,1-.035,1.341l-.014.068.017.067c.1.411.2.768.3,1.092a1.962,1.962,0,0,0,.762,1,2.437,2.437,0,0,0,1.757.74,1.988,1.988,0,0,0,1.353-.374,1.3,1.3,0,0,0,.472-.826.913.913,0,0,0-.328-.822.75.75,0,0,0-.764-.134l-.169-.169a8.277,8.277,0,0,1-.3-1.257,2.953,2.953,0,0,1,.026-1.157,2.485,2.485,0,0,1,.132-.331.763.763,0,0,0,.027-.567,4.1,4.1,0,0,1,.072-1.285,6.5,6.5,0,0,0,.155-1.428,6.031,6.031,0,0,1,.142-1.8q.22-.988.511-2.227a4.847,4.847,0,0,0,.42-1.236c.077-.412.163-.832.262-1.276a6.8,6.8,0,0,1,.25-1.066c.123-.4.235-.771.337-1.124.153-.561.352-1.232.591-1.995l.743-2.376c.243-.778.479-1.486.7-2.1.234-.649.386-1.059.479-1.289l.013-.04a5.837,5.837,0,0,1,.352-1.023,7.3,7.3,0,0,0,.377-1.011,9.563,9.563,0,0,0,.9-2.155,11.35,11.35,0,0,1,.79-2.05,8.917,8.917,0,0,0,.615-1.346c.144-.408.31-.848.494-1.308a.637.637,0,0,0,.192-.427.383.383,0,0,1,.051-.142l1.712-4.094c.383-1.006.769-1.991,1.149-2.928.369-.911.706-1.868,1-2.846A.709.709,0,0,0-482.572,257.851Z" transform="translate(-442.658 -8.047)"/><path class="a" d="M-1104.632,307.785a4.391,4.391,0,0,0,.83-.4,6.787,6.787,0,0,0,.737-.523,10.245,10.245,0,0,0,1.522-1.383q.692-.768,1.306-1.568a1.929,1.929,0,0,0,.492-1.138.285.285,0,0,0-.031-.215.476.476,0,0,0-.153-.184.3.3,0,0,0-.215-.061.3.3,0,0,0-.215.061l-.507.507q-.262.262-.507.538-.339.4-.646.83a5.192,5.192,0,0,1-.707.8,4.814,4.814,0,0,1-.676.615q-.37.277-.738.523a1.354,1.354,0,0,1-.446.215q-.23.062-.477.123a.435.435,0,0,1-.584-.369,8.131,8.131,0,0,1-.184-1.353,4.1,4.1,0,0,0-.184-1.029,1.551,1.551,0,0,0-.677-.815,2.113,2.113,0,0,0,.077-.4,2.076,2.076,0,0,1,.077-.4,3.56,3.56,0,0,0-.092-1.537,1.886,1.886,0,0,0-1.875-1.414,2.853,2.853,0,0,0-1.629.522,6.39,6.39,0,0,0-1.783,1.63,11.559,11.559,0,0,0-1.107,1.875c-.023.049-.042.1-.064.149-.434.376-.867.753-1.289,1.142q-.8.737-1.629,1.445-.431.369-.861.677l-.86.615a3.975,3.975,0,0,1-1.629.615.93.93,0,0,1-1.107-.8,2.208,2.208,0,0,1,.016-.938q.107-.445.261-.907l.492-.107c.143-.031.287-.066.43-.108a5.062,5.062,0,0,0,1.814-1.014,4.667,4.667,0,0,0,1.2-1.66,1.952,1.952,0,0,0,.154-1,1.762,1.762,0,0,0-.338-.845,1.681,1.681,0,0,0-.738-.554,1.861,1.861,0,0,0-1.014-.092,2.524,2.524,0,0,0-1.23.492,7.606,7.606,0,0,0-2.306,2.736c-.074.156-.14.315-.2.477-.056.05-.111.1-.167.153q-.461.415-.953.846a3.474,3.474,0,0,1-1.937.83.488.488,0,0,1-.553-.4,2.762,2.762,0,0,1-.031-1.353q.092-.368.169-.753t.138-.753a2.029,2.029,0,0,0,0-.86,1.041,1.041,0,0,0-.553-.677.865.865,0,0,0-.83.062,1.112,1.112,0,0,0-.215.138,2.183,2.183,0,0,1-.184.138q-.431.338-.83.676t-.8.707q-.584.553-1.137,1.122t-1.137,1.122a.06.06,0,0,1-.046-.016.065.065,0,0,0-.046-.015l.184-.492.184-.492q.246-.553.477-1.107t.476-1.107a3.834,3.834,0,0,0,.138-.538,1.21,1.21,0,0,0-.016-.507.751.751,0,0,0-.384-.554.691.691,0,0,0-.661-.03,1.577,1.577,0,0,0-.584.492,8.432,8.432,0,0,0-.615,1.076c-.22.472-.424.947-.618,1.422a7.393,7.393,0,0,1-1.718.469,11.5,11.5,0,0,1-1.968.108q-.154-.277-.277-.538a2.088,2.088,0,0,0-.277-.446,1.106,1.106,0,0,0-.384-.338q-.23-.123-.476-.277a.3.3,0,0,1-.031-.138.315.315,0,0,0-.031-.139,1.369,1.369,0,0,0-.584-.907,1.316,1.316,0,0,0-1.076-.077,2.187,2.187,0,0,0-.738.43,4.663,4.663,0,0,0-.784.707,5.827,5.827,0,0,0-.63.861,9.1,9.1,0,0,0-1.26,3.874,4.9,4.9,0,0,0,.062,1.537,2.942,2.942,0,0,0,.43,1.06h-.03c-.123.011-.257.016-.4.016a3.723,3.723,0,0,1-2.306-.615,10.564,10.564,0,0,1-1.168-.83,17.1,17.1,0,0,1-2.121-2.2,8.886,8.886,0,0,1-1.476-2.69,5.042,5.042,0,0,0-.215-.584q-.123-.276-.246-.584-.154-.368-.338-.737t-.369-.769a.467.467,0,0,1-.077-.2.77.77,0,0,0-.077-.23,7.4,7.4,0,0,1,.83-.246,5.981,5.981,0,0,0,.8-.246q.43-.153.83-.292t.83-.292a35.52,35.52,0,0,0,14.326-10.7q.153-.215.277-.415t.246-.415a.573.573,0,0,0-.062-.707.611.611,0,0,0-.707-.185,1.971,1.971,0,0,0-.83.461q-.4.369-.784.738t-.753.768a30.182,30.182,0,0,1-2.705,2.674q-1.414,1.23-2.92,2.367a32.324,32.324,0,0,1-2.967,1.967,29.11,29.11,0,0,1-3.151,1.6,11.134,11.134,0,0,1-1.045.43l-1.045.369a.6.6,0,0,1-.292.046,1.479,1.479,0,0,0-.353.016q.092-.215.169-.369t.138-.307l.615-1.107.615-1.107q.615-1.137,1.245-2.259t1.215-2.26a8.146,8.146,0,0,0,.522-1.138q.215-.584.43-1.2a2.738,2.738,0,0,0,.123-.861,1.7,1.7,0,0,0-.354-1.091,1.729,1.729,0,0,0-.968-.6,4.31,4.31,0,0,0-1.168-.031,6.444,6.444,0,0,0-1.322.261,8.334,8.334,0,0,0-1.26.507,30.657,30.657,0,0,0-4.365,2.352,40.318,40.318,0,0,0-3.966,2.936,8.369,8.369,0,0,0-1.045,1.045,12.191,12.191,0,0,0-.861,1.168,3.827,3.827,0,0,0-.492.83,4.343,4.343,0,0,0-.215.861,2.047,2.047,0,0,0,.061.86,1.52,1.52,0,0,0,.523.907,1.441,1.441,0,0,0,1.014.292,1.515,1.515,0,0,0,.369-.046.409.409,0,0,0,.277-.261.624.624,0,0,0-.184-.707.159.159,0,0,1-.077-.061.176.176,0,0,0-.077-.062.7.7,0,0,1-.292-.43,1.287,1.287,0,0,1,.015-.522,3.61,3.61,0,0,1,.369-.8q.338-.4.63-.815a4.651,4.651,0,0,1,.661-.753,28.326,28.326,0,0,1,3.889-3,30.433,30.433,0,0,1,4.319-2.29,7.072,7.072,0,0,1,.845-.246q.415-.093.845-.184a.489.489,0,0,1,.292-.031q.138.031.292.061a1.132,1.132,0,0,0-.077.277.765.765,0,0,1-.077.246q-.308.677-.615,1.368t-.646,1.337q-.738,1.476-1.507,2.889t-1.537,2.89q-.247.461-.476.938t-.477.937a3.084,3.084,0,0,0-.876.292.84.84,0,0,0-.384.4.719.719,0,0,0,0,.507,3.54,3.54,0,0,0,.308.646q-.431.984-.876,1.952t-.876,1.952a20.169,20.169,0,0,0-.769,1.891q-.339.968-.584,1.952-.062.339-.092.677t-.062.676a1.2,1.2,0,0,0,.4.861.812.812,0,0,0,.63.215.655.655,0,0,0,.538-.369,2.256,2.256,0,0,0,.184-.646,6.037,6.037,0,0,0,.138-.753,3.778,3.778,0,0,1,.169-.753q.491-1.506,1.107-2.92t1.322-2.8a1.068,1.068,0,0,1,.138-.169,2.8,2.8,0,0,0,.2-.23,4.47,4.47,0,0,1,.246.507q.092.231.184.446.185.431.354.815t.354.814a11.351,11.351,0,0,0,2.105,3.29,17.42,17.42,0,0,0,2.967,2.552,9.775,9.775,0,0,0,1.291.676,5.158,5.158,0,0,0,2.551.461,4.376,4.376,0,0,0,.953-.215.9.9,0,0,0,.4-.446.935.935,0,0,0,.08-.38,2.066,2.066,0,0,0,.9-.019,2.727,2.727,0,0,0,1.168-.661,6.475,6.475,0,0,0,1.66-2.152q.245-.584.492-1.168t.522-1.23q.43-.061.876-.108t.876-.107q.78-.127,1.534-.321c-.123.342-.241.685-.351,1.028q-.6,1.875-1.122,3.812a2.561,2.561,0,0,0-.092.677.674.674,0,0,0,.461.676.677.677,0,0,0,.8-.185,3.27,3.27,0,0,0,.4-.584q.645-1.076,1.414-2.121t1.6-2.029a10.467,10.467,0,0,1,.922-.983q.491-.462.984-.953a.505.505,0,0,1,.185-.107,2.609,2.609,0,0,0,.246-.108,3.722,3.722,0,0,1,.031.446,2.883,2.883,0,0,0,.031.415l.184.8a4.777,4.777,0,0,0,.246.769,1.722,1.722,0,0,0,.723.891,1.83,1.83,0,0,0,1.122.215c.164-.02.338-.046.523-.077a1.843,1.843,0,0,0,.522-.169c.246-.123.487-.251.722-.384a7.123,7.123,0,0,0,.692-.446c.133-.1.261-.207.393-.308a8.252,8.252,0,0,0-.024,1.354,3.053,3.053,0,0,0,.185.845,3.78,3.78,0,0,0,.4.784,2.055,2.055,0,0,0,2.244,1.014,5.439,5.439,0,0,0,1.537-.522q.491-.246.953-.523a6.547,6.547,0,0,0,.861-.615q1.137-.922,2.229-1.891c.067-.059.132-.12.2-.179a6.626,6.626,0,0,0-.092,1.639,2.238,2.238,0,0,0,.077.569,2.817,2.817,0,0,0,.2.538,1.523,1.523,0,0,0,.723.753,1.394,1.394,0,0,0,1.061.046,4.249,4.249,0,0,0,.553-.231,2.483,2.483,0,0,0,.523-.353q.553-.461,1.076-.969t1.045-1q.154-.154.308-.323t.369-.415q.153.338.262.553c.071.143.148.287.23.43a2.316,2.316,0,0,0,1.169,1.137A2.092,2.092,0,0,0-1104.632,307.785Zm-13.465-5.841a.568.568,0,0,1,.246-.138c.1-.031.2-.066.308-.108a1.169,1.169,0,0,1,.03.43,1.586,1.586,0,0,1-.307.6,3.992,3.992,0,0,1-.461.476,2.8,2.8,0,0,1-.538.354,4.19,4.19,0,0,1-.753.23A5.153,5.153,0,0,1-1118.1,301.944Zm-20.382,4.473a5.689,5.689,0,0,1-1.383,1.737,2.889,2.889,0,0,1-.246.154q-.584.276-.769-.308a1.522,1.522,0,0,1-.138-.707,5.105,5.105,0,0,1,.077-.707q.154-.615.338-1.214a5.044,5.044,0,0,1,.522-1.153q.185-.338.4-.66t.461-.63a.5.5,0,0,1,.184-.2,1.41,1.41,0,0,0,.246-.2c.041.246.077.446.108.6a1.2,1.2,0,0,0,.138.384,1.714,1.714,0,0,0,.261.323l.446.446A6.586,6.586,0,0,1-1138.478,306.417Zm27.3.63c-.1.062-.21.134-.323.215a.476.476,0,0,1-.415.062,4,4,0,0,1,.231-1.814,13.5,13.5,0,0,1,.753-1.66,11.01,11.01,0,0,1,.953-1.383,4.115,4.115,0,0,1,1.383-1.076,1.592,1.592,0,0,1,.292.569,2.249,2.249,0,0,1,.077.569c0,.184,0,.369.015.553a1.08,1.08,0,0,0,.169.523A14.661,14.661,0,0,1-1111.18,307.047Z" transform="translate(0 -27.753)"/><path class="a" d="M-748.719,433.434q.014.66.014,1.777,0,.642,0,1.246t0,1.141a2.805,2.805,0,0,1-.178,1.1,1.714,1.714,0,0,1-.528.684,2.134,2.134,0,0,1-.768.367,7.71,7.71,0,0,1-1.027.185l.426,1.836a7.941,7.941,0,0,0,1.959-.4,4.158,4.158,0,0,0,1.352-.765,2.852,2.852,0,0,0,.786-1.124,4.167,4.167,0,0,0,.255-1.516v-2.829q0-.956.007-1.659t.007-1.268h-2.312Q-748.733,432.774-748.719,433.434Z" transform="translate(-285.38 -130.121)"/><path class="a" d="M-705.029,439.874a3.43,3.43,0,0,0-1.195-.734,4.306,4.306,0,0,0-1.46-.237,4.174,4.174,0,0,0-1.477.258,3.442,3.442,0,0,0-1.205.761,3.54,3.54,0,0,0-.845,1.226,3.964,3.964,0,0,0-.272,1.5,4,4,0,0,0,.318,1.585,3.533,3.533,0,0,0,.9,1.271,3.393,3.393,0,0,0,1.173.681,4.331,4.331,0,0,0,1.411.227,4.273,4.273,0,0,0,1.418-.227,3.367,3.367,0,0,0,1.159-.688,3.6,3.6,0,0,0,.915-1.289,3.987,3.987,0,0,0,.307-1.547,4.008,4.008,0,0,0-.286-1.54A3.613,3.613,0,0,0-705.029,439.874Zm-1.132,3.758a2.071,2.071,0,0,1-.44.761,1.364,1.364,0,0,1-.485.322,1.6,1.6,0,0,1-.59.112,1.653,1.653,0,0,1-.559-.094,1.221,1.221,0,0,1-.461-.29,1.88,1.88,0,0,1-.507-.793,3.2,3.2,0,0,1-.15-1,3.05,3.05,0,0,1,.15-.936,1.888,1.888,0,0,1,.43-.755,1.487,1.487,0,0,1,.492-.359,1.54,1.54,0,0,1,.6-.108,1.616,1.616,0,0,1,.566.1,1.284,1.284,0,0,1,.468.3,1.9,1.9,0,0,1,.486.817,3.339,3.339,0,0,1,.15.985A2.925,2.925,0,0,1-706.16,443.632Z" transform="translate(-313.017 -134.782)"/><path class="a" d="M-656.111,439.5h-2.144q0,.2.014,1.142t.014,1.659q0,.825-.007,1.481t-.007.706a4.583,4.583,0,0,1-.793.4,2.584,2.584,0,0,1-.989.227.711.711,0,0,1-.678-.332,1.983,1.983,0,0,1-.2-.946q0-.3-.007-.95t-.007-1.076q0-.538.01-1.338t.011-.975h-2.145q0,.182.014,1.023t.014,1.491q0,.357-.01,1.128t-.011,1.435a2.318,2.318,0,0,0,.562,1.649,2.062,2.062,0,0,0,1.582.6,3.838,3.838,0,0,0,1.421-.3,11.147,11.147,0,0,0,1.254-.58l.007.007v.678h2.089q-.007-1.495-.014-2.225t-.007-1.659q0-1.341.01-2.2T-656.111,439.5Z" transform="translate(-346.72 -135.197)"/><path class="a" d="M-611.308,439.251a14.142,14.142,0,0,0-1.425.772l-.014-.007.007-1.027h-2.1q.007,1.132.014,2.151t.007,1.691q0,1.4-.01,2.242t-.011,1.048h2.144q0-.174-.014-1.09t-.014-1.656q0-.475,0-.936t0-.636q1.138-.517,1.851-.782t1.285-.44l-.545-1.816A8.935,8.935,0,0,0-611.308,439.251Z" transform="translate(-380.248 -134.686)"/><path class="a" d="M-569.244,443.464q0-.384.01-.947t.011-1.407a2.237,2.237,0,0,0-.569-1.61,2.018,2.018,0,0,0-1.533-.6,4.242,4.242,0,0,0-1.306.244,8.063,8.063,0,0,0-1.4.615l-.007-.014.007-.664h-2.1q.007,1.006.014,1.939t.007,1.834q0,1.565-.01,2.382t-.011.978h2.145q0-.1-.014-1.153t-.014-1.809q0-.5,0-1.243t0-.782a5.945,5.945,0,0,1,.891-.423,2.385,2.385,0,0,1,.821-.178.837.837,0,0,1,.73.29,1.711,1.711,0,0,1,.22.933q.007.329.01.968t0,.988q0,.5-.01,1.345t-.01,1.065h2.144q0-.21-.014-1.156T-569.244,443.464Z" transform="translate(-407.167 -134.782)"/><path class="a" d="M-523.271,440.967a3,3,0,0,0-.733-1.212,2.723,2.723,0,0,0-1.02-.639,3.978,3.978,0,0,0-1.348-.213,3.991,3.991,0,0,0-1.4.258,3.1,3.1,0,0,0-1.159.741,3.707,3.707,0,0,0-.817,1.215,3.9,3.9,0,0,0-.251,1.446,3.266,3.266,0,0,0,.342,1.494,3.5,3.5,0,0,0,.9,1.139,4.393,4.393,0,0,0,1.61.814,7.921,7.921,0,0,0,2.162.269q.447,0,.793-.018t.492-.031l.216-1.53-.482.021q-.328.014-.776.014a6.191,6.191,0,0,1-1.037-.08,3.778,3.778,0,0,1-.9-.269,2.112,2.112,0,0,1-.9-.744,1.836,1.836,0,0,1-.3-1h4.848A5.448,5.448,0,0,0-523.271,440.967Zm-4.715.744a1.983,1.983,0,0,1,.517-1.093,1.365,1.365,0,0,1,1.013-.4,1.254,1.254,0,0,1,.988.4,1.849,1.849,0,0,1,.423,1.09Z" transform="translate(-439.258 -134.782)"/><path class="a" d="M-482.052,442.051q-.5,1.247-.625,1.589h-.042q-.105-.273-.668-1.663T-484.523,439l-2.15.587q1.034,2.347,1.869,4.324t.933,2.221l-1.278,2.843,1.99.5q.189-.447,1.561-3.636t2.734-6.276l-2.017-.545Q-481.552,440.8-482.052,442.051Z" transform="translate(-469.401 -134.846)"/><path class="a" d="M-443.3,445.587a.38.38,0,0,0-.331-.424.38.38,0,0,0-.424.331,4.594,4.594,0,0,1-.367,1.314,1.786,1.786,0,0,0-.319-.5.38.38,0,0,0-.537-.022.381.381,0,0,0-.023.538,1.04,1.04,0,0,1,.206,1.078,4.868,4.868,0,0,1-1.954,2.145.38.38,0,0,0-.135.52.38.38,0,0,0,.328.188.381.381,0,0,0,.192-.052,5.636,5.636,0,0,0,2.232-2.431A5.357,5.357,0,0,0-443.3,445.587Z" transform="translate(-496.833 -139.135)"/><path class="a" d="M-443.975,434.316c-1.035-.24-1.82.666-2.392,1.327-.107.123-.208.24-.3.341-.85.9-2.621,2.764-1.338,4.553a.381.381,0,0,0,.531.087.38.38,0,0,0,.087-.531c-.846-1.179.213-2.469,1.272-3.586.1-.108.212-.234.327-.366.472-.544,1.059-1.221,1.645-1.084.557.129.838.931,1.021,1.616.436,1.645.356,3.924-.853,5.042a1.809,1.809,0,0,1-.329.243,1.262,1.262,0,0,1-.648.179h-.015a.38.38,0,0,0-.38.377.381.381,0,0,0,.377.384h.018a2.022,2.022,0,0,0,1.033-.283,2.558,2.558,0,0,0,.461-.341c1.448-1.339,1.581-3.875,1.072-5.8C-442.544,435.905-442.9,434.565-443.975,434.316Z" transform="translate(-495.982 -131.564)"/><path class="a" d="M-788.1,432.363c-.573-.661-1.359-1.568-2.393-1.327-1.075.25-1.432,1.59-1.584,2.162-.509,1.92-.376,4.456,1.071,5.794a2.568,2.568,0,0,0,.457.338,2.027,2.027,0,0,0,1.038.286h.018a.38.38,0,0,0,.377-.384.381.381,0,0,0-.38-.377h0a1.3,1.3,0,0,1-.664-.181,1.8,1.8,0,0,1-.326-.24c-1.208-1.117-1.289-3.4-.853-5.041.182-.684.463-1.487,1.021-1.616.588-.138,1.174.54,1.646,1.085.114.132.223.258.326.366,1.059,1.117,2.117,2.407,1.272,3.586a.381.381,0,0,0,.087.531.381.381,0,0,0,.531-.088c1.282-1.788-.487-3.655-1.338-4.553C-787.889,432.6-787.99,432.486-788.1,432.363Z" transform="translate(-256.768 -129.282)"/><path class="a" d="M-781.93,446.772a4.855,4.855,0,0,1-1.946-2.128,1.047,1.047,0,0,1,.2-1.1.38.38,0,0,0-.022-.537.381.381,0,0,0-.538.022,1.776,1.776,0,0,0-.318.5,4.591,4.591,0,0,1-.368-1.315.379.379,0,0,0-.424-.331.38.38,0,0,0-.331.424,5.363,5.363,0,0,0,1.128,2.684,5.622,5.622,0,0,0,2.236,2.437.378.378,0,0,0,.192.052.38.38,0,0,0,.328-.188A.381.381,0,0,0-781.93,446.772Z" transform="translate(-261.402 -136.852)"/></g></svg>