<svg xmlns="http://www.w3.org/2000/svg" width="184" height="184" viewBox="0 0 184 184"><defs><style>.a{fill:#f4fff4;stroke:#1863c9;stroke-width:4px;}.b{fill:#cce8cc;}.c{fill:#203a84;}.d{stroke:none;}.e{fill:none;}</style></defs><g transform="translate(-150 -3028)"><g class="a" transform="translate(150 3028)"><circle class="d" cx="92" cy="92" r="92"/><circle class="e" cx="92" cy="92" r="90"/></g><g transform="translate(108.946 3059.355)"><g transform="translate(67.054 -15.356)"><path class="b" d="M145.681,152.053a2.228,2.228,0,0,1-2.016-1.281c-2.01-4.278-6.589-6.484-11.435-8.821-4.013-1.935-8.164-3.935-11.016-7.285a15.01,15.01,0,0,1-3.521-10.163,15.014,15.014,0,0,1-10.561,2.031c-4.329-.794-8.135-3.388-11.819-5.9-4.447-3.03-8.647-5.891-13.356-5.492a2.228,2.228,0,0,1-2.017-3.493c2.7-3.879,2.323-8.949,1.923-14.314-.331-4.443-.675-9.038.8-13.183a15.012,15.012,0,0,1,7.041-8.13A15.015,15.015,0,0,1,82.664,67.9c-1.476-4.146-1.132-8.741-.8-13.183.4-5.366.778-10.435-1.923-14.314a2.228,2.228,0,0,1,2.017-3.493c4.709.4,8.909-2.463,13.356-5.493,3.684-2.508,7.49-5.1,11.819-5.9a15.012,15.012,0,0,1,10.56,2.031,15.087,15.087,0,0,1,3.087-9.629c2.593-3.34,6.5-5.415,10.283-7.254a2.227,2.227,0,1,1,1.949,4.006c-6.866,3.339-11.481,6.267-10.812,14.242a52.62,52.62,0,0,1,46.958,0c.7-8.7-4.966-11.43-11.959-14.8-4.226-2.037-8.568-4.13-11.522-7.752a19.874,19.874,0,0,1-4.128,3.716,2.228,2.228,0,0,1-2.528-3.668,12.868,12.868,0,0,0,4.644-5.13,2.227,2.227,0,0,1,4.031,0c2.01,4.279,6.589,6.485,11.435,8.822,4.013,1.935,8.163,3.935,11.016,7.285a15.009,15.009,0,0,1,3.521,10.163,15.015,15.015,0,0,1,10.561-2.031c4.329.794,8.135,3.388,11.819,5.9,4.447,3.03,8.648,5.892,13.357,5.493a2.228,2.228,0,0,1,2.016,3.493c-2.7,3.879-2.323,8.948-1.923,14.314.332,4.442.675,9.037-.8,13.183a15.007,15.007,0,0,1-7.041,8.129,15.02,15.02,0,0,1,7.041,8.13c1.476,4.145,1.133,8.74.8,13.183-.4,5.365-.778,10.435,1.923,14.314a2.228,2.228,0,0,1-2.016,3.493c-4.709-.4-8.91,2.462-13.357,5.492-3.684,2.509-7.49,5.1-11.819,5.9a15.012,15.012,0,0,1-10.557-2.029c.036,9.283-6.145,13.269-12.15,16.279a2.228,2.228,0,1,1-2-3.983c5.816-2.914,10.273-5.855,9.634-13.667a52.6,52.6,0,0,1-46.955,0c-.7,8.7,4.965,11.43,11.959,14.8,4.224,2.037,8.564,4.129,11.518,7.746a21.111,21.111,0,0,1,5.228-4.43,2.228,2.228,0,0,1,2.361,3.779,13.8,13.8,0,0,0-5.575,5.738,2.227,2.227,0,0,1-2.015,1.281ZM97.534,58.808a2.251,2.251,0,0,1,.663.1A2.228,2.228,0,0,1,99.662,61.7a48.2,48.2,0,1,0,3.77-8.862,2.227,2.227,0,0,1-3.9-2.146,52.669,52.669,0,0,1,17.088-18.551c-7.183-4.952-12.38-1.411-18.795,2.958-3.876,2.641-7.856,5.352-12.467,6.1,1.656,4.368,1.3,9.171.949,13.846-.578,7.74-1.046,14.011,6.834,17.755a52.4,52.4,0,0,1,2.268-12.426,2.229,2.229,0,0,1,2.126-1.565Zm77.2,61.1c7.189,4.966,12.388,1.425,18.807-2.948,3.876-2.641,7.856-5.352,12.468-6.1-1.655-4.368-1.3-9.171-.949-13.847.576-7.739,1.044-14.01-6.835-17.755A52.656,52.656,0,0,1,174.732,119.9Zm-89.376-9.05c4.61.75,8.591,3.462,12.467,6.1,6.42,4.372,11.617,7.914,18.809,2.948A52.657,52.657,0,0,1,93.14,79.252C85.26,83,85.727,89.268,86.305,97.008c.349,4.676.707,9.48-.949,13.847ZM174.73,32.149A52.659,52.659,0,0,1,198.223,72.8c7.879-3.744,7.411-10.015,6.833-17.755-.348-4.676-.707-9.479.95-13.846-4.611-.75-8.591-3.462-12.468-6.1-6.419-4.373-11.617-7.915-18.809-2.948ZM145.681,116.43" transform="translate(-79.542 0)"/></g><g transform="translate(100.848 41.571)"><path class="c" d="M142.2,102.415h-.049a2.859,2.859,0,0,1-2.049-.914L116.567,76.176a2.864,2.864,0,0,1,4.2-3.9l21.5,23.141L176.773,60.7a2.864,2.864,0,1,1,4.064,4.038l-36.608,36.833A2.865,2.865,0,0,1,142.2,102.415Z" transform="translate(-115.801 -59.853)"/></g></g></g></svg>