<svg xmlns="http://www.w3.org/2000/svg" width="184" height="184" viewBox="0 0 184 184"><defs><style>.a{fill:#f4f7ff;stroke:#1863c9;stroke-width:4px;}.b,.c{fill:#203a84;}.b{font-size:127px;font-family:GothamNarrow-Black, Gotham;font-weight:800;opacity:0.3;}.d{stroke:none;}.e{fill:none;}</style></defs><g transform="translate(-0.123 -0.078)"><g class="a" transform="translate(0.123 0.078)"><circle class="d" cx="92" cy="92" r="92"/><circle class="e" cx="92" cy="92" r="90"/></g><text class="b" transform="translate(90.123 141.078)"><tspan x="-34.417" y="0">3</tspan></text><path class="c" d="M187.987,56.45A12.769,12.769,0,0,0,175.244,69.2V75.56h-.231a6.041,6.041,0,0,0-6.055,6.054v19.894a6.042,6.042,0,0,0,6.055,6.055h25.949a6.042,6.042,0,0,0,6.055-6.055V81.614a6.041,6.041,0,0,0-6.055-6.054h-.228V69.2A12.773,12.773,0,0,0,187.987,56.45Zm0,4.662a8.016,8.016,0,0,1,8.085,8.085V75.56H179.9V69.2a8.016,8.016,0,0,1,8.086-8.085Zm0,22.164a4.289,4.289,0,0,1,1.591,8.272v6.314a1.591,1.591,0,0,1-3.182,0V91.547a4.288,4.288,0,0,1,1.591-8.27Zm0,0" transform="translate(-96.392 10.108)"/></g></svg>