<svg xmlns="http://www.w3.org/2000/svg" width="776.28" height="228.273" viewBox="0 0 776.28 228.273"><defs><style>.a{fill:#fff;}</style></defs><g transform="translate(1161.462 -245.146)"><path class="a" d="M-791.408,315.734A40.777,40.777,0,0,1-790.057,311c.545-1.541,1.014-3.086,1.4-4.6a18.272,18.272,0,0,0,.855-2.727,15.649,15.649,0,0,1,.783-2.473,18.414,18.414,0,0,0,.879-2.79c.183-.836.371-1.716.568-2.713a17.1,17.1,0,0,1,2.083-6.542l.944-3.6.029-.243c0-.715.142-1.22.389-1.385l.245-.165.116-.271a21.269,21.269,0,0,0,1.308-4.215c.281-1.4.6-2.832.938-4.173l1.108-3.324.035-.138c.359-1.983.818-3.954,1.363-5.859s1.013-3.915,1.39-5.955a8.822,8.822,0,0,0,.587-3.184,6.774,6.774,0,0,1,.481-2.535l.073-.18v-.193a15.677,15.677,0,0,0-.3-3.542c-.562-2.512-1.872-3.306-2.914-3.518a16.576,16.576,0,0,0-3.011-.85c-1.009-.18-1.971-.364-2.906-.553-3.093-.562-4.537.709-5.164,1.811q-.551.822-1.23,1.778c-.469.659-.892,1.265-1.233,1.781a44.842,44.842,0,0,0-4.282,6.875,14.857,14.857,0,0,1-1.166,2.335,8.193,8.193,0,0,1-1.853,1.965l-.178.182c-.559.747-1.074,1.447-1.536,2.1a16.617,16.617,0,0,0-1.327,2.211l-.077.2a8.543,8.543,0,0,1-1.2,2.382,4.048,4.048,0,0,0-1.175,2.125,3.334,3.334,0,0,1-.539,1.277l-.062.107q-.837,1.676-1.676,3.491a14.49,14.49,0,0,1-1.778,2.938,11.78,11.78,0,0,0-1.466,1.769c-.355.526-.7,1.053-1.053,1.58l-.056.083a7.784,7.784,0,0,0-.949,1.9,6.051,6.051,0,0,1-.715,1.424q-1.11,1.664-2.215,3.324c-.751,1.124-1.509,2.356-2.253,3.66s-1.441,2.556-2.09,3.762a20.121,20.121,0,0,1-2.183,3.23l-.276.278-2.821,4.732a5.171,5.171,0,0,0-2.172,3.988,17.79,17.79,0,0,1-1.654,1.8l-1.06,1.395-.045.223a2.4,2.4,0,0,1-.613,1.356,6.983,6.983,0,0,0-1.4,1.527,4.23,4.23,0,0,0-.954,1.248,2.678,2.678,0,0,0-.655,1.744.725.725,0,0,1-.26.539l-.123.149a4.2,4.2,0,0,1-.877,1,11.139,11.139,0,0,0-1.217,1.065l-.145.144-.076.19a5.888,5.888,0,0,1-1.3,2.02,9.078,9.078,0,0,0-1.685,2.288l-2.472,3.844c-.892,1.426-1.856,2.85-2.867,4.233a34.046,34.046,0,0,1-3.363,3.9l-2.076,3.217-.05.09a21.731,21.731,0,0,1-1.854,3.044,15.227,15.227,0,0,1-2.519,2.66,2.974,2.974,0,0,0-1.1.971,5.818,5.818,0,0,1-.709.821l-.226.226-.053.315a6.2,6.2,0,0,1-1.937,3.059l-2.26,2.818-7.989,9.094a45.208,45.208,0,0,1-4.471,3.929,38.537,38.537,0,0,1-4.671,3.075c-.95.383-1.771.749-2.511,1.12a9.823,9.823,0,0,1-1.889.723,8.087,8.087,0,0,1-1.684-.206,9.827,9.827,0,0,1-2.253-2.04,25.863,25.863,0,0,1-2.005-3.08,25.6,25.6,0,0,1-3.739-12l-.039-.235a17.569,17.569,0,0,1-.657-3.409,15.447,15.447,0,0,0-.741-3.553l-.055-.135a.938.938,0,0,1,.057-.624,2.857,2.857,0,0,0,.025-1.961,33.426,33.426,0,0,1-.252-4.028v-4.294a2.736,2.736,0,0,0-.409-1.469s.015,0,.027-.024l.075-.205a13.764,13.764,0,0,0,.3-4.93,17.742,17.742,0,0,1,0-4.327l.007-5.291c.179-.922.317-1.851.411-2.769a10.52,10.52,0,0,0-.134-2.963c0-1.086-.05-2.244-.141-3.448a7.675,7.675,0,0,1,.367-3.067,6.971,6.971,0,0,0,.051-4.053,25.363,25.363,0,0,0-.145-2.609,11.987,11.987,0,0,1,.135-2.928l.02-.143-.02-.143c-.181-1.252-.319-2.487-.408-3.677-.09-1.126-.136-2.357-.136-3.659a7.791,7.791,0,0,0-1.5-4.925,6.035,6.035,0,0,0-4.214-3.793,21.581,21.581,0,0,0-4.651-.729c-1.7-.093-3.3-.14-4.764-.14a13.8,13.8,0,0,0-4.333.744,9.743,9.743,0,0,0-3.854,2.318c-1.319,1.321-2.5,2.6-3.518,3.8s-2.11,2.582-3.221,4.063l-.119.206a21.66,21.66,0,0,1-1.853,3.439c-.76,1.139-1.593,2.341-2.509,3.626-.911,1.457-1.8,2.962-2.655,4.473-.832,1.482-1.711,3.05-2.654,4.752-.548,1.1-1.1,2.15-1.646,3.154a20.659,20.659,0,0,0-1.424,3.252c-.7,1.214-1.413,2.377-2.13,3.457a9.789,9.789,0,0,0-1.524,4.137l-1.032,2.065c-.714,1.428-1.446,2.754-2.173,3.94a24.288,24.288,0,0,0-2.049,4.264,12.292,12.292,0,0,1-1.4,3.2,15.355,15.355,0,0,0-1.61,3.347l-3.29,6.855a23.606,23.606,0,0,0-1.445,3.614,13.672,13.672,0,0,1-1.243,2.9,14.207,14.207,0,0,0-2.082,4.027q-.541,1.755-1.077,3.633l-.753,1.256a31.543,31.543,0,0,0-2.431,4.719c-.619,1.5-1.285,2.968-1.983,4.374a3.455,3.455,0,0,0-.849,1.795,1.518,1.518,0,0,1-.414.847l-.188.188-.07.256c-.543,2-1.1,3.946-1.655,5.793a18.576,18.576,0,0,1-2.631,5.254l-.074.123a5.473,5.473,0,0,0-.653,1.927c-1.089,3.262-2.376,6.936-3.794,10.846-1.116,2.42-2.105,4.823-2.941,7.143-.816,2.268-1.787,4.719-2.861,7.229a7.772,7.772,0,0,0-.791,2.538,9.454,9.454,0,0,1-.63,2.25l-.184.461,1.086,1.81.151.192a8.308,8.308,0,0,0,3.139,1.758,11.106,11.106,0,0,0,3.662.752h3.047l.243-.03a5.606,5.606,0,0,0,3.663-2.4l.927-3.815c.936-3,1.824-5.989,2.639-8.891a67.417,67.417,0,0,1,3.139-8.735l.047-.131a87.251,87.251,0,0,1,5.478-14.24l.047-.118c.913-2.74,1.974-5.508,3.155-8.228,1.207-2.787,2.375-5.591,3.44-8.26.925-1.852,1.776-3.741,2.527-5.616.707-1.773,1.511-3.565,2.391-5.328a2.3,2.3,0,0,0,.727-1.553,1.5,1.5,0,0,1,.2-.59c1.265-3.078,2.656-6.232,4.135-9.372l4.439-9.433c1.653-3.67,3.326-7.249,4.973-10.637,1.66-3.411,3.512-6.884,5.509-10.329,1.419-2.484,2.861-4.948,4.283-7.322q2.074-3.456,4.293-7.064a50.551,50.551,0,0,1,6.4-8.287l.455-.227a9.2,9.2,0,0,1,.153,1.906l.006.108c.179,1.638.317,3.3.412,4.933.09,1.653.136,3.312.136,4.93v1.888a48.493,48.493,0,0,0-.017,10.205,4.318,4.318,0,0,0-.108,1.92,2.412,2.412,0,0,1-.08,1.127,8.425,8.425,0,0,0-.626,3.143l0,2.678a25.4,25.4,0,0,0,.146,6.057,16.855,16.855,0,0,1-.134,5.491l-.016.178a2.154,2.154,0,0,1-.083.643,3.929,3.929,0,0,0-.194,1.295v.191l.071.178a5.643,5.643,0,0,1,.348,2.593,7.044,7.044,0,0,0,.76,3.779,2,2,0,0,1-.2,1.886l-.143.238v.277a8.148,8.148,0,0,0,.554,3.27v1.993l.008.123a42.513,42.513,0,0,0,1.986,8.65c.921,2.676,1.954,5.355,3.073,7.964l.061.118a26.682,26.682,0,0,0,1.869,2.733,9.461,9.461,0,0,0,2.553,2.275,22.761,22.761,0,0,0,15.272,5.729,20.882,20.882,0,0,0,6.257-.878,28.806,28.806,0,0,0,5.353-2.321c1.5-.934,2.873-1.884,4.1-2.825a36.731,36.731,0,0,0,3.6-3.177c1.434-1.615,3-3.224,4.647-4.783a29.322,29.322,0,0,0,4.59-5.593l.157-.245v-.077a8.74,8.74,0,0,1,.814-.892,19.722,19.722,0,0,0,2.6-3.455c2.2-3.12,4.52-6.177,6.884-9.087,2.425-2.986,4.769-6.08,6.966-9.195l.057-.091q1.379-2.486,2.9-5.11a22.538,22.538,0,0,1,3.58-4.641l.107-.125c.928-1.3,1.823-2.617,2.659-3.918s1.709-2.682,2.626-4.148l5.218-7.968a54.653,54.653,0,0,0,3.667-5.362c1.107-1.841,2.306-3.686,3.558-5.474a66.264,66.264,0,0,0,4.922-8.015,49.168,49.168,0,0,1,5.023-7.737l2-3.971c1.516-2.461,3-4.832,4.424-7.049,1.041-1.628,2.052-3.258,3.018-4.867a4.42,4.42,0,0,0-.152,1.142,7.37,7.37,0,0,1-.6,3.049,28.137,28.137,0,0,1-1.471,2.807l-.072.143a27.946,27.946,0,0,0-1.005,3.018,13.127,13.127,0,0,0-.451,3.449,3.568,3.568,0,0,1-.108.861,5.478,5.478,0,0,0-.167,1.219l-1.348,5.122a6.54,6.54,0,0,1-1.683,2.892c-.363.361-.563.92-.572,2.8l-.763,3.054a11.706,11.706,0,0,0-1.72,4.409l-.024.167.032.165a4.65,4.65,0,0,1-.115,2.291,10.8,10.8,0,0,0-.449,2.65,6.235,6.235,0,0,0-1.669,4.156c-.173.687-.347,1.332-.516,1.93a11.175,11.175,0,0,1-.737,1.852,11.794,11.794,0,0,0-1.8,6.6,11.615,11.615,0,0,1-.767,4.082,23.878,23.878,0,0,1-2.128,4.252l-.152.243v.286a2.8,2.8,0,0,1-.661,1.659,4.164,4.164,0,0,0-.724,2.358,3.706,3.706,0,0,1-.449,1.631l-.1.211v.236a23.616,23.616,0,0,1-.517,4.425,11.223,11.223,0,0,0-.725,3.1,2.776,2.776,0,0,1-1.152,1.944l-.206.223a2.034,2.034,0,0,0-.178,2.274,4.909,4.909,0,0,1-.217,1.29l-.555,1.664c-.546,1.641-1.1,3.213-1.649,4.674a20.548,20.548,0,0,0-1.165,4.66l-.007.123a3.251,3.251,0,0,1-1.092,2.34l-.206.205-.063.285a92.165,92.165,0,0,0-1.681,10.361l-.005.105a3.034,3.034,0,0,1-.592,1.84c-1.3,1.32-1.753,2.536-1.35,3.62a6.534,6.534,0,0,1-.722,2.68,5.187,5.187,0,0,0-.421,3.8q-.523,2.087-1.039,4.163l-1.109,4.432c-.367,1.463-.743,3.056-1.114,4.734a23.884,23.884,0,0,0-.578,5.08c-.362,1.457-.675,2.986-.956,4.67a29.934,29.934,0,0,0-.428,4.747c-.359,1.418-.764,2.9-1.207,4.413a13.21,13.21,0,0,0-.481,4.932,13.246,13.246,0,0,0-1.1,7.576,7.843,7.843,0,0,0-.534,2.318v1.938a44.773,44.773,0,0,1-.271,4.875l-.093.831c-.155,1.386-.31,2.773-.451,4.087a19.531,19.531,0,0,0-.144,6.277,41.269,41.269,0,0,1,.405,5.813l.03.242a8.129,8.129,0,0,0,1.848,3.71c1.843,2.821,4.251,4.25,7.156,4.25,2.678,0,4.527-.491,5.654-1.5a4.23,4.23,0,0,0,1.574-3.607,4.008,4.008,0,0,0-1.827-3.093,2.929,2.929,0,0,0-2.626-.442,3.866,3.866,0,0,1-.4-1.864c-.189-2.065-.424-4.041-.7-5.873a11.633,11.633,0,0,1,.384-5.105l.042-.287c0-.084,0-.144.006-.184a2.2,2.2,0,0,0,.271-1.2l-.024-.219a9.135,9.135,0,0,1,.127-4.5,14.284,14.284,0,0,0,.463-5.182,20.534,20.534,0,0,0,.542-4.778,18.361,18.361,0,0,1,.5-4.4,15.56,15.56,0,0,0,.739-3.557c.089-1.075.226-2.266.4-3.486l3.882-19.408c.362-2,.778-3.986,1.236-5.9.461-1.949.884-3.97,1.235-5.912.744-2.614,1.357-5.159,1.821-7.566a50,50,0,0,1,2.054-7.384c.921-3.136,1.72-6.331,2.375-9.5a59.593,59.593,0,0,1,2.879-9.583,10.888,10.888,0,0,0,.6-3.164,27.007,27.007,0,0,0,1.357-4.1c1.481-4.819,2.923-9.7,4.286-14.517,1.372-4.845,2.9-9.72,4.553-14.488Z"/><path class="a" d="M-772.97,321.917c.33.333.578.582.73.73a3.585,3.585,0,0,0,1.008.685l.207.1h.148a7.251,7.251,0,0,1,.858.383l.21.105h.235a4.8,4.8,0,0,0,4.054-2.109,1.322,1.322,0,0,0,.9-1,1.17,1.17,0,0,0-.11-.744,17.521,17.521,0,0,1,2.5-3.812l.143-.214a6.617,6.617,0,0,1,.428-.749,2.483,2.483,0,0,0,.406-1.295c.155-.793.274-1.471.358-2.041a2.522,2.522,0,0,0-1.466-2.517,11.682,11.682,0,0,0-4.454-2.842l-.155-.051h-.162a6.019,6.019,0,0,0-2.428.62,1.173,1.173,0,0,0-.687.06,1.537,1.537,0,0,0-.8,1.446,11.823,11.823,0,0,0-1.929,4l-.987,3.95a6.8,6.8,0,0,0,.865,5.12Z"/><path class="a" d="M-587.429,404.221a2.573,2.573,0,0,0-1.861-.309c-.129-.037-.306-.09-.543-.169a7.663,7.663,0,0,1-1.919-1.287,20.5,20.5,0,0,0-1.542-2.715l-.069-.1a3.592,3.592,0,0,1-.886-1.7c-.086-.668-.213-1.428-.371-2.234-.164-.97-.327-1.98-.486-3.037s-.326-2.467-.477-4.117a3.863,3.863,0,0,0-.349-1.505l.09-.179.013-.2c.484-6.937,1.1-13.446,1.826-19.345a103.4,103.4,0,0,1,2.789-14.911l2.439-10.981.024-.216a3.563,3.563,0,0,1,.674-2.111,22.371,22.371,0,0,0,1.629-2.746c1.474-2.125,2.891-4.109,4.211-5.895,1.4-1.887,2.681-3.754,3.768-5.47a75.35,75.35,0,0,0,6.058-9.027c1.71-3.01,3.377-5.982,4.977-8.863,1.156-1.82,2.193-3.562,3.082-5.178.915-1.668,1.865-3.485,2.8-5.365l2.44-4.393c.815-1.469,1.642-3.041,2.46-4.673s1.6-3.284,2.335-4.916c.729-1.617,1.437-3.364,2.1-5.193l.061-.166v-.176a2.366,2.366,0,0,1,.163-1.07,36.323,36.323,0,0,0,2.258-7.4c.479-2.474.893-4.912,1.228-7.241a9.026,9.026,0,0,0-3.76-8.965,2.869,2.869,0,0,0-1.46-.587,3.294,3.294,0,0,1-.93-.271l-.21-.078a23.188,23.188,0,0,0-3.7-.637c-1.037-.079-2.21-.2-3.489-.361l-.125-.008a1.445,1.445,0,0,0-1.27.557,10.236,10.236,0,0,0-2.987,2.83q-2.2,3.425-4.274,6.718c-1.382,2.193-2.745,4.463-4.049,6.747l-.1.233a18.75,18.75,0,0,1-2.785,5.549l-.178.257v.313a1.351,1.351,0,0,1-.44,1l-.188.188-.07.257a39.157,39.157,0,0,1-1.665,4.876q-.955,2.274-2.141,4.893a55.291,55.291,0,0,0-3.6,7.7,45.264,45.264,0,0,0-2.346,8.587,4.762,4.762,0,0,0-.517,1.567c-.507,1.361-.933,2.565-1.3,3.673L-591.2,309.7l-1.46,4.866c-.984,3.115-1.89,6.163-2.694,9.06-.818,2.939-1.562,5.912-2.2,8.81a22.716,22.716,0,0,1-2.07,5.315,13.89,13.89,0,0,0-1.27,2.043c-.327.651-.725,1.368-1.183,2.13l-.091.2a1.267,1.267,0,0,1-.38.614,9.709,9.709,0,0,0-1.086.948l-.167.166-.075.223a8.607,8.607,0,0,1-1.646,2.724,16.058,16.058,0,0,0-1.882,2.608c-.436.431-.868.824-1.29,1.174a7.284,7.284,0,0,0-1.39,1.526c-.8,1.119-1.607,2.167-2.4,3.114a9.066,9.066,0,0,1-2.187,1.979l-.192.151a28.574,28.574,0,0,0-2.656,3.035,24.212,24.212,0,0,1-2.237,2.59,108.19,108.19,0,0,1-14.2,12.281,19.626,19.626,0,0,0-3.143,1.9,7.285,7.285,0,0,1-2.79,1.13h-.621a4,4,0,0,0-1.348.214c-.306-.607-.607-1.255-.911-1.941a1.853,1.853,0,0,1,.015-1.535l.072-.18v-.194a8.068,8.068,0,0,1,.215-1.956,9.191,9.191,0,0,0,.272-2.074,51.77,51.77,0,0,1,1.892-6.237c.786-2.128,1.586-4.091,2.378-5.838.623-.934,1.273-1.865,1.926-2.794a1,1,0,0,0,.292-.423c.92-1.3,1.86-2.592,2.825-3.863,1.807-2.381,3.6-4.7,5.322-6.894l2.884-2.885a5.6,5.6,0,0,1,1.537-.9,1.384,1.384,0,0,1,1.028-.139,2.684,2.684,0,0,0,.174.889l.093.277.228.183a4.263,4.263,0,0,1,1.394,1.879q.459,1.268.92,2.425a2.745,2.745,0,0,0,.4,1.444,9.678,9.678,0,0,1,.641,1.412l.077.188.144.144a4.625,4.625,0,0,0,3.39,1.025,5.3,5.3,0,0,0,2.336-.562,5.575,5.575,0,0,0,1.718-1.01,1.939,1.939,0,0,0,.8-1.382,1.5,1.5,0,0,0-.331-1.018l-1.125-2.7a18.183,18.183,0,0,0-1.659-4.434,9.555,9.555,0,0,0-3.4-3.672l-.161-.082c-.771-.307-1.624-.7-2.606-1.185a7.074,7.074,0,0,0-3.131-.838h-3.173a2.39,2.39,0,0,0-1.835.64c-.387.13-.774.26-1.165.388a14.349,14.349,0,0,0-1.839.785,13.443,13.443,0,0,0-3.823,2.9c-1.015,1.091-2.075,2.192-3.154,3.274l-.64.319-.15.3a7.955,7.955,0,0,1-.971,1.515c-.392.47-.742.859-1.038,1.156l-.15.193A21.013,21.013,0,0,1-642,347.656a34.406,34.406,0,0,0-2.232,2.97,22.435,22.435,0,0,0-2.136,3.025c-.559.961-1.239,2-2.022,3.092l-.116.214c-.191.48-.381,1.016-.574,1.605a93.725,93.725,0,0,1-10.32,7.967,18.006,18.006,0,0,1-3.109,1.965,30.548,30.548,0,0,0-3.343,1.851,19.9,19.9,0,0,1-7.71,1.353,10.1,10.1,0,0,1-7.467-3.122l-.085-.076a8.228,8.228,0,0,1-1.742-1.847l-1.819-2.73-.169-.111a2.633,2.633,0,0,1-.86-1.162q-.471-1.05-.935-1.991A29.228,29.228,0,0,0-688,355.986a9.846,9.846,0,0,1-.541-4.516v-1.708l-.008-.125a8.448,8.448,0,0,1-.015-2.711,13.055,13.055,0,0,0,.266-2.7,10.058,10.058,0,0,0-.013-3.174,30.358,30.358,0,0,0-.748-3.252,4.5,4.5,0,0,0-1.873-3.028,15.658,15.658,0,0,0-6.7-3.317l-1.43-.022-.125.007c-1.333.168-2.667.377-3.963.62a12.413,12.413,0,0,0-4.3,1.756,30.88,30.88,0,0,0-3.785,3.278c-1.062,1.061-2.084,2.027-3.082,2.911.005-.077.013-.165.025-.265.077-.7.2-1.5.356-2.372.161-.9.287-1.738.375-2.508.122-1.111.006-1.734-.452-2.2a7.656,7.656,0,0,0-6.493-1.693c-2.506.56-2.8,2-2.752,2.819q-.23.7-.551,1.774c-.248.83-.495,1.736-.743,2.728-.242.969-.485,1.9-.727,2.786a10.361,10.361,0,0,1-.542,1.65l-1,2.731a26.772,26.772,0,0,0-1.587,4.109,8.044,8.044,0,0,1-.863.515l-.146.073-.115.115a20.526,20.526,0,0,1-2.09,1.738,22.954,22.954,0,0,0-2.251,1.871l-2.381,1.786a2.132,2.132,0,0,1-.263.174,1.707,1.707,0,0,0-1.067.532c-.065.064-.354.331-1.626,1.39a49.473,49.473,0,0,1-5.859,3.944,81.274,81.274,0,0,1-7.472,3.856,75.72,75.72,0,0,1-8.069,3.131,44.893,44.893,0,0,1-7.4,1.792,24.584,24.584,0,0,1-7.151-.121,3.623,3.623,0,0,1-3.42-3.827l-.023-.161a7.939,7.939,0,0,1,.111-3.907c.388-1.4.834-2.865,1.294-4.259l4.119-9.449a6.222,6.222,0,0,0,1.2-3.741,5.633,5.633,0,0,0-1.873-3.288l-.118-.118-.151-.073-.075-.038a2.212,2.212,0,0,0-.38-.5l-.162-.134a14.924,14.924,0,0,0-1.572-.917l-.342-.17c-.406-.2-.86-.427-1.373-.686a2.564,2.564,0,0,0-1.976-.05,2.591,2.591,0,0,0-1.482,1.1,1.291,1.291,0,0,0-.3.828,1.288,1.288,0,0,0,.081.44,35.376,35.376,0,0,1-1.8,4.228c-.807,1.61-1.621,3.158-2.421,4.6l-2.3,8.086a15.417,15.417,0,0,0,1.014,9.579c.867,2.935,1.911,4.938,3.186,6.12a26.908,26.908,0,0,0,5.581,3.69l.225.086c1.291.326,2.416.648,3.343.956a9.631,9.631,0,0,0,2.925.538,22.7,22.7,0,0,0,3.3.243,22.726,22.726,0,0,0,6.7-1.018c3.1-.955,5.923-1.773,8.383-2.43l.164-.06a58.393,58.393,0,0,1,5.75-2.4,9.835,9.835,0,0,0,4.25-2.875,5.4,5.4,0,0,1,1-.265,3.025,3.025,0,0,0,1.807-.8c1.032-.732,1.926-1.326,2.661-1.766a24,24,0,0,0,2.417-1.653c.708-.55,1.551-1.151,2.5-1.787.114-.076.246-.17.367-.254-.091.183-.181.371-.275.54a3.547,3.547,0,0,0-.669,2.253,3.235,3.235,0,0,0,.471,3.856l2.858,2.022a1.073,1.073,0,0,0-.051.642c.207.868,1.163.868,1.622.868a3.459,3.459,0,0,0,2.96-1.082c.438-.435.889-.847,1.336-1.222a7.316,7.316,0,0,0,1.361-1.477,7.78,7.78,0,0,0,1.5-2.6l1.22-3.173c.385-1.007.788-1.973,1.2-2.872a14.12,14.12,0,0,1,1.007-1.914,33.7,33.7,0,0,1,3.792-4.5l.1-.116a49.5,49.5,0,0,1,5.619-6.458c1.989-1.91,4.139-3.776,6.374-5.534.653-.491,1.353-1.021,2.086-1.595a7.325,7.325,0,0,1,1.535-.9,6.122,6.122,0,0,1-.082,1.638,5.464,5.464,0,0,0,.28,3.059,6.424,6.424,0,0,1,.293,1.2l-.1.2v.233a51.53,51.53,0,0,0,.745,8.09,24.322,24.322,0,0,0,2.776,8.217,27.474,27.474,0,0,0,3.545,5.442c1.288,1.534,2.691,3.143,4.171,4.784l.117.11a27.072,27.072,0,0,0,7.1,3.812,21.207,21.207,0,0,0,7.681,1.563q.525,0,1.041-.032l.131-.017a12.887,12.887,0,0,1,2.49-.226,10.143,10.143,0,0,0,3.176-.516,20.029,20.029,0,0,0,5.323-1.784,44.419,44.419,0,0,0,4.744-2.747l.085-.064c.561-.467,1.139-.9,1.724-1.306l-.194,2.246a3.873,3.873,0,0,0,.266,1.483,7.562,7.562,0,0,0,2.868,5.015,6,6,0,0,0,2.7,2.83,19.427,19.427,0,0,0,3.819,1.179,18.351,18.351,0,0,0,6.87-.246,20.845,20.845,0,0,0,9.748-4.357l1.259-1.008c1.45-1.287,2.91-2.5,4.342-3.618a34.736,34.736,0,0,0,4.485-4.231c2.086-2.085,4.164-4.041,6.176-5.812a46.963,46.963,0,0,0,5.735-6.074,8.738,8.738,0,0,0,2.5-2.8,16.134,16.134,0,0,1,1.321-1.823c-.4,1.823-.756,3.63-1.072,5.372-.326,1.786-.652,3.416-.967,4.84a17.8,17.8,0,0,0-.512,3.3c-.159.944-.318,1.852-.473,2.715a19.728,19.728,0,0,1-.7,2.67l-.05.154v.161a11.717,11.717,0,0,1-.341,2.581,5.807,5.807,0,0,0,.03,3.01,1.435,1.435,0,0,0-.127.329,1.905,1.905,0,0,0-.226,1.887.391.391,0,0,1,.035.289l-.15.3.065.333a7.441,7.441,0,0,1,.109,2.145,9.012,9.012,0,0,0,.065,2.347,4.786,4.786,0,0,0-.031,3.526,5.014,5.014,0,0,1,.133,2.943l-.051.154v.161a2.892,2.892,0,0,0,.408,1.646c.111.17.224.362.337.575a1.868,1.868,0,0,0,.477,1.122,7.116,7.116,0,0,0,1.221,3.8l-.218.218.32.644a7.633,7.633,0,0,0,1.816,2.253,17.3,17.3,0,0,1,1.96,2.076l.073.081a10.2,10.2,0,0,0,4.05,2.437,8.219,8.219,0,0,0,2.622.414,10.921,10.921,0,0,0,2.885-.412l.186-.061a8.4,8.4,0,0,0,.92-.152l.193-.039.164-.109a5.389,5.389,0,0,0,1.664-1.935,2.249,2.249,0,0,0,.277-1.778A2.049,2.049,0,0,0-587.429,404.221Zm27.949-142.857a6.9,6.9,0,0,1-.008,2.984,60.222,60.222,0,0,0-1.957,6.621l-1.441,6.246q-2.418,5.318-4.593,10.03c-1.442,3.128-2.995,6.272-4.613,9.347l-.115.219v.978s-.017.092-.194.27a13.821,13.821,0,0,0-2.1,2.633c-.493.823-1.15,1.969-1.988,3.48a11.3,11.3,0,0,0-.8,2.006c-.14.487-.35,1.089-.625,1.791a13.388,13.388,0,0,0-1.3,1.562,14.759,14.759,0,0,0-1.151,1.907q-1.934,2.9-3.742,5.553-.673.988-1.365,2.045c.555-2,1.235-4.1,2.032-6.261,1.13-3.069,2.277-6.1,3.409-9.01l.055-.2a11.758,11.758,0,0,1,.674-2.475,13.659,13.659,0,0,1,1.593-2.716l.132-.257a105.991,105.991,0,0,1,5.317-12.811c2.007-4.015,4.139-8.2,6.324-12.406q1.223-2.205,2.573-4.779a51.486,51.486,0,0,1,2.753-4.668l.082-.15A10.044,10.044,0,0,1-559.48,261.364Z"/><path class="a" d="M-521.356,330.458l.621-.209c.059.006.115.011.169.014a2.7,2.7,0,0,0,2.525-.534,3.288,3.288,0,0,0,.9-1.91,5.165,5.165,0,0,0-.152-2.125,9.552,9.552,0,0,0-.551-1.5l-.205-.42-.455-.112c-.65-.16-1.3-.324-1.951-.489a10.292,10.292,0,0,0-2.374-.273,49.611,49.611,0,0,0-5.551-.243h-5.49l-11.864,2.066c.025-.045.049-.089.071-.133l1.518-4.765c.477-1.431,1.042-2.926,1.682-4.443.624-1.488,1.271-2.9,1.9-4.162a26.046,26.046,0,0,0,1.776-3.8c.484-1.288.9-2.545,1.213-3.64a69.492,69.492,0,0,1,3.247-6.975q1.8-3.361,3.573-6.9a90.6,90.6,0,0,1,11.586-19.063l.087-.134a11.766,11.766,0,0,1,3.6-4.051l.134-.113a5.1,5.1,0,0,1,3.487-1.655,2.034,2.034,0,0,1,1.014.912l.092.148a10.3,10.3,0,0,1,2.24,4.822,5.459,5.459,0,0,0,1.551,4.227,23.784,23.784,0,0,0,3.313,2.424l.284.12a4.191,4.191,0,0,0,4.419-1.538,4.441,4.441,0,0,0,.971-4.487,13.637,13.637,0,0,0-1.558-5.862,21.293,21.293,0,0,0-5.125-7.036,17.6,17.6,0,0,0-8.27-3.766l-.321-.02a6.536,6.536,0,0,0-3.757.061,9.756,9.756,0,0,0-2.512,1.315l-2.684,1.708-.17.137c-1.328,1.329-2.535,2.619-3.586,3.833A40.971,40.971,0,0,0-529.095,266l-1.479,2.942a40.506,40.506,0,0,0-3.561,5.293c-1.063,1.877-2.079,3.712-3.094,5.577-.634,1.426-1.285,2.808-1.932,4.108l-1.921,3.846a55.618,55.618,0,0,0-2.982,5.839q-1.219,2.8-2.434,5.477l-.037.094a29.185,29.185,0,0,1-1.18,2.95,23.873,23.873,0,0,0-1.251,3.36l-1.942,4.129a19.718,19.718,0,0,1-1.043,2.2c-.4.714-.753,1.307-1.056,1.763l-.062.106a2.976,2.976,0,0,0-.348,1.215,1.409,1.409,0,0,1-.2.234l-.226.226-.054.315a21.21,21.21,0,0,1-.581,2.564c-.212.708-.465,1.438-.752,2.172a5.749,5.749,0,0,0-1.591,2.936q-.216,1.173-.428,2.25l-.566.566v.414a.639.639,0,0,1-.289.634,10.232,10.232,0,0,0-1.057.8h-1.313a3.262,3.262,0,0,0-2.152,1.019,30.182,30.182,0,0,0-4.833.972l-4.239,1.213a8.559,8.559,0,0,0-2.282.742c-.166.038-.524.108-1.273.213l-.276.08a9.751,9.751,0,0,1-3.489,1.13,17.266,17.266,0,0,0-4.066.74,1.23,1.23,0,0,0-.74.318l-.1.061c-1.209.726-1.612,2.147-1.2,4.225l.052.177c.286.711.193.942.192.943a1.965,1.965,0,0,0,.454,2.5c.612.819,1.7,1.007,3.282.55l3.081-1.028.129-.1a3.664,3.664,0,0,1,.866-.533,1.78,1.78,0,0,1,.529.068c.248.085.5.167.734.245a3.3,3.3,0,0,0,2.226-.364c1.429-.477,3.166-.962,5.162-1.44,1.974-.474,3.963-.88,5.911-1.207l.315-.053.15-.15a1.687,1.687,0,0,1,.345-.027h.114l-.01.118c-.086.828-.284,1.064-.323,1.1l-.293.293v.317a6.366,6.366,0,0,0-1.2,2.44c-.166.741-.332,1.522-.489,2.318-.33,1.472-.7,2.979-1.089,4.478s-.745,2.856-1.06,4.115l-.877,1.316a6.357,6.357,0,0,0-.884,2.317,12.44,12.44,0,0,0-.262,2.388v2.013a17.52,17.52,0,0,0-1.22,5.912l-2.9,11.348-.085.378.033.065a1.853,1.853,0,0,0-.467,1.269l.03.244a4.33,4.33,0,0,1-.077,2.79,9.189,9.189,0,0,0-.679,3.223,4.087,4.087,0,0,0-.51,3.329l-1.441,12.011-.007,3.9a29.3,29.3,0,0,1-.236,3.657l-.029.226.072.216a8.392,8.392,0,0,1,.445,3.706l-.028.225.559,1.679,2.25,4.524.136.2a5.6,5.6,0,0,0,4.419,2.057,11.543,11.543,0,0,0,2.856-.252,1.789,1.789,0,0,0,1.456-1.038,2.023,2.023,0,0,0,.077-1.688,1.2,1.2,0,0,0-.481-.746,13.678,13.678,0,0,1-1.1-3.317c-.247-1.315-.449-2.607-.6-3.86l-.233-1.638c0-1.5-.043-2.97-.124-4.376a13.1,13.1,0,0,1,.3-3.677,3.486,3.486,0,0,0,.316-3.01v-1.737c.151-1.218.35-2.445.591-3.647a20.224,20.224,0,0,0,.384-3.8,23.78,23.78,0,0,0,1.084-4.033c.24-1.357.517-2.666.823-3.894a6.955,6.955,0,0,0,.534-2.5,10.27,10.27,0,0,1,.217-1.965q1.216-5.121,2.439-10.12c.812-3.334,1.625-6.713,2.435-10.109.8-3.045,1.7-6.149,2.67-9.225q1.473-4.658,3.181-9.3l.436-1.528c.432-.568.873-1.118,1.312-1.632a2.454,2.454,0,0,1,1.461-.786c2.87-.8,5.958-1.487,9.177-2.053,3.2-.56,5.984-1.009,8.318-1.346a23.636,23.636,0,0,1,4.076-.225A16.047,16.047,0,0,0-521.356,330.458Z"/><path class="a" d="M-385.335,260.448a4.341,4.341,0,0,0-.948-1.425l-.116-.118-.148-.074c-.979-.489-2.064-.99-3.225-1.488a8,8,0,0,0-4.176-.562l-.165.034c-2.092.628-3.153,1.607-3.153,2.911l.029.238a1.7,1.7,0,0,1,.044.974,4.527,4.527,0,0,0-.315,1.6l-.46,2.068a53.322,53.322,0,0,1-2.273,7.063c-.895,2.191-1.826,4.423-2.775,6.64a64.869,64.869,0,0,0-3.346,7.93q-1.328,3.863-2.772,7.96l-.019.009-.3.148-.15.3a31.6,31.6,0,0,0-2.016,5.042,26.007,26.007,0,0,1-2.115,4.931l-.07.161a21.971,21.971,0,0,1-1.168,2.8,12.04,12.04,0,0,0-1.038,2.82,32.463,32.463,0,0,0-1.84,5.058c-.385,1.463-.894,3.072-1.511,4.784a38.367,38.367,0,0,0-1.878,4.769c-1.048,2.895-2.168,6.135-3.425,9.906q-1.83,5.494-3.418,10.377c-.6,1.845-1.079,3.286-1.441,4.34a3.4,3.4,0,0,0-.684.683,14.026,14.026,0,0,1-2.338,1.885,8.855,8.855,0,0,0-2.567,2.538c-2.077,2.236-4.217,4.373-6.359,6.355s-4.8,4.317-7.831,6.874q-1.707,1.221-4.505,3.165c-1.84,1.282-3.427,2.34-4.634,3.1-1.584.794-3.2,1.521-4.8,2.162a25.558,25.558,0,0,1-4.885,1.4,4.627,4.627,0,0,1-4.684-1.69,13.882,13.882,0,0,1-2.5-5.58l-.086-.243a9.9,9.9,0,0,1-.532-1.743,9.127,9.127,0,0,1-.337-1.709l-.01-.142a24.741,24.741,0,0,1-.118-6.331,32.033,32.033,0,0,1,1.075-5.485q.486-1.949,1.462-5.727a38.452,38.452,0,0,1,1.9-5.82l.056-.165a16.628,16.628,0,0,0,.518-5.61A6,6,0,0,0-472.8,334.3l-.109-.128a10.549,10.549,0,0,0-2.3-1.752,21.994,21.994,0,0,0-2.514-1.181,4.387,4.387,0,0,0-4.917,1.246l-4.392,4.636-.087.106c-.8,1.124-1.931,2.813-3.444,5.166a22.153,22.153,0,0,1-3.771,4.713c-.818.819-1.65,1.692-2.472,2.6a34.421,34.421,0,0,0-2.465,3.073c-.821.819-1.693,1.651-2.594,2.476-.995.911-1.909,1.783-2.776,2.657a20.192,20.192,0,0,1-2.558,2.557L-510,362.807l-3.876,2.676a1.879,1.879,0,0,1-.706.115,2.977,2.977,0,0,0-.157-.838.549.549,0,0,1,.059-.154l.093-.286a24.577,24.577,0,0,1,.822-3.281c.41-1.322.787-2.744,1.12-4.229.316-1.428.677-2.795,1.076-4.067s.752-2.3,1.071-3.1l.308-2.2.007-.124a17.005,17.005,0,0,0-.13-2.079,2.923,2.923,0,0,0-1.225-2.121l-4.6-3.632a2.083,2.083,0,0,0-2.39-.286,3.672,3.672,0,0,0-1.845,1.815l-.072.145-.023.16a60.181,60.181,0,0,1-2.041,8.515q-1.594,5.281-2.351,8.812a23.709,23.709,0,0,0-.254,3.311v2.684a6.233,6.233,0,0,0,1.7,4.057,12.245,12.245,0,0,0,2.53,2.386,29.585,29.585,0,0,0,3.219,1.8,12.906,12.906,0,0,0,7.492.528,8.363,8.363,0,0,0,3.323-1.8,15.088,15.088,0,0,1,2.338-1.749,30.42,30.42,0,0,0,6.262-5.505l3.15-2.908a4.959,4.959,0,0,1,.7-.6,4.122,4.122,0,0,0,1.086-1.187c1.308-1.633,2.853-3.422,4.594-5.318,1.379-1.505,2.628-2.931,3.729-4.256l-.827,6.417a27.813,27.813,0,0,0,0,5.314,49.555,49.555,0,0,0,.74,4.946,50.5,50.5,0,0,0,1.246,5.6,12.584,12.584,0,0,0,2.637,4.885,24.691,24.691,0,0,0,4.723,4.579,16.4,16.4,0,0,0,5.832,2.1,19.367,19.367,0,0,0,4.431.543,14.763,14.763,0,0,0,3.588-.427,27.776,27.776,0,0,0,7.016-2.872,59.967,59.967,0,0,0,8.065-4.591,96.336,96.336,0,0,0,10.254-8.522l4.135-3.938-.444,3.272c-.311,1.249-.627,2.354-.94,3.287a11,11,0,0,0-.54,3.424,18.469,18.469,0,0,1-.8,3.531,8.767,8.767,0,0,0-.417,3.919v2.739a5.84,5.84,0,0,1-.354,2.03,2.948,2.948,0,0,0-.378,2.883,30.253,30.253,0,0,0,.378,4.514,12.426,12.426,0,0,1-.114,4.406l-.045.222.055.22c.34,1.349.664,2.522.991,3.587a6.447,6.447,0,0,0,2.5,3.277,8.008,8.008,0,0,0,5.773,2.43c2.065,0,3.52-.4,4.445-1.227a4.267,4.267,0,0,0,1.551-2.713,3,3,0,0,0-1.077-2.7,2.465,2.465,0,0,0-2.511-.441l-.556-.556a27.206,27.206,0,0,1-.986-4.131,9.7,9.7,0,0,1,.084-3.8,8.152,8.152,0,0,1,.435-1.089,2.505,2.505,0,0,0,.089-1.862,13.461,13.461,0,0,1,.235-4.221,21.341,21.341,0,0,0,.508-4.692,19.811,19.811,0,0,1,.467-5.921q.721-3.244,1.679-7.318a15.934,15.934,0,0,0,1.379-4.061c.253-1.352.537-2.735.86-4.192a22.32,22.32,0,0,1,.82-3.5c.4-1.306.773-2.534,1.107-3.693.5-1.843,1.156-4.047,1.942-6.553l2.44-7.807c.8-2.557,1.574-4.883,2.3-6.914.768-2.132,1.268-3.478,1.573-4.236l.043-.131a19.192,19.192,0,0,1,1.157-3.361,23.979,23.979,0,0,0,1.24-3.321,31.4,31.4,0,0,0,2.965-7.081,37.311,37.311,0,0,1,2.594-6.734,29.284,29.284,0,0,0,2.02-4.422c.474-1.34,1.02-2.785,1.623-4.3a2.094,2.094,0,0,0,.63-1.4,1.259,1.259,0,0,1,.167-.468l5.624-13.45c1.258-3.3,2.528-6.54,3.774-9.618,1.213-2.993,2.318-6.138,3.286-9.352A2.33,2.33,0,0,0-385.335,260.448Z"/><path class="a" d="M-974.75,359.761a14.417,14.417,0,0,0,2.728-1.312,22.366,22.366,0,0,0,2.423-1.717,33.668,33.668,0,0,0,5-4.545q2.273-2.525,4.292-5.151a6.341,6.341,0,0,0,1.617-3.738.936.936,0,0,0-.1-.707,1.557,1.557,0,0,0-.5-.605.992.992,0,0,0-.707-.2.984.984,0,0,0-.707.2l-1.667,1.666q-.859.859-1.666,1.767-1.113,1.314-2.122,2.728a17.114,17.114,0,0,1-2.323,2.626,15.832,15.832,0,0,1-2.221,2.019q-1.214.91-2.425,1.717a4.454,4.454,0,0,1-1.464.707q-.758.2-1.566.4a1.43,1.43,0,0,1-1.919-1.212,26.707,26.707,0,0,1-.6-4.445,13.448,13.448,0,0,0-.606-3.382,5.1,5.1,0,0,0-2.223-2.677,6.966,6.966,0,0,0,.253-1.314,6.813,6.813,0,0,1,.252-1.312,11.7,11.7,0,0,0-.3-5.05,6.2,6.2,0,0,0-6.162-4.646,9.37,9.37,0,0,0-5.353,1.716,20.993,20.993,0,0,0-5.858,5.354,37.986,37.986,0,0,0-3.636,6.161c-.075.16-.138.327-.21.489-1.427,1.236-2.849,2.475-4.233,3.753q-2.628,2.422-5.353,4.746-1.416,1.213-2.828,2.223t-2.827,2.019a13.058,13.058,0,0,1-5.353,2.021,3.055,3.055,0,0,1-3.637-2.626,7.265,7.265,0,0,1,.051-3.081q.352-1.463.859-2.98c.6-.133,1.144-.252,1.615-.353s.943-.218,1.414-.354a16.628,16.628,0,0,0,5.959-3.333,15.343,15.343,0,0,0,3.939-5.454,6.413,6.413,0,0,0,.505-3.282,5.778,5.778,0,0,0-1.111-2.777,5.524,5.524,0,0,0-2.424-1.819,6.115,6.115,0,0,0-3.333-.3,8.292,8.292,0,0,0-4.04,1.616,24.985,24.985,0,0,0-7.575,8.989c-.245.511-.461,1.035-.662,1.568-.183.165-.366.338-.549.5q-1.515,1.365-3.131,2.778a11.414,11.414,0,0,1-6.363,2.726,1.605,1.605,0,0,1-1.818-1.312,9.075,9.075,0,0,1-.1-4.445q.3-1.211.555-2.474t.455-2.475a6.669,6.669,0,0,0,0-2.827,3.419,3.419,0,0,0-1.818-2.223,2.842,2.842,0,0,0-2.727.2,3.659,3.659,0,0,0-.707.455,7.045,7.045,0,0,1-.606.454q-1.416,1.111-2.727,2.221t-2.626,2.324q-1.92,1.818-3.737,3.686t-3.737,3.687a.2.2,0,0,1-.151-.051.212.212,0,0,0-.152-.05l.606-1.616q.3-.807.606-1.616.807-1.818,1.566-3.636t1.565-3.637a12.541,12.541,0,0,0,.455-1.766,3.975,3.975,0,0,0-.051-1.667,2.469,2.469,0,0,0-1.262-1.819,2.269,2.269,0,0,0-2.172-.1,5.186,5.186,0,0,0-1.919,1.616,27.548,27.548,0,0,0-2.02,3.535c-.723,1.552-1.392,3.11-2.032,4.671a24.279,24.279,0,0,1-5.644,1.54,37.785,37.785,0,0,1-6.464.354q-.506-.909-.909-1.768a6.856,6.856,0,0,0-.909-1.464,3.641,3.641,0,0,0-1.263-1.111q-.756-.4-1.565-.909a.99.99,0,0,1-.1-.455,1.032,1.032,0,0,0-.1-.455,4.5,4.5,0,0,0-1.919-2.979,4.323,4.323,0,0,0-3.535-.252,7.186,7.186,0,0,0-2.424,1.414,15.32,15.32,0,0,0-2.575,2.322,19.1,19.1,0,0,0-2.071,2.828,29.9,29.9,0,0,0-4.141,12.727,16.087,16.087,0,0,0,.2,5.05,9.663,9.663,0,0,0,1.414,3.482c-.033,0-.068,0-.1,0-.4.035-.843.051-1.313.051a12.228,12.228,0,0,1-7.575-2.021,34.748,34.748,0,0,1-3.838-2.726,56.181,56.181,0,0,1-6.969-7.222,29.2,29.2,0,0,1-4.848-8.838,16.523,16.523,0,0,0-.707-1.919q-.405-.908-.808-1.919-.507-1.21-1.111-2.423t-1.212-2.525a1.542,1.542,0,0,1-.253-.657,2.535,2.535,0,0,0-.252-.757,24.358,24.358,0,0,1,2.727-.808,19.614,19.614,0,0,0,2.626-.808q1.413-.5,2.727-.96t2.727-.959a116.694,116.694,0,0,0,47.066-35.148q.5-.705.909-1.364t.808-1.363a1.884,1.884,0,0,0-.2-2.323,2.007,2.007,0,0,0-2.323-.607,6.481,6.481,0,0,0-2.727,1.516q-1.314,1.212-2.576,2.424t-2.474,2.525a99.171,99.171,0,0,1-8.888,8.786q-4.647,4.043-9.595,7.778a106.143,106.143,0,0,1-9.747,6.463,95.626,95.626,0,0,1-10.352,5.252,36.535,36.535,0,0,1-3.434,1.414l-3.434,1.212a1.953,1.953,0,0,1-.96.152,4.873,4.873,0,0,0-1.161.051q.3-.705.555-1.212t.455-1.01q1.008-1.818,2.02-3.636t2.02-3.637q2.019-3.735,4.09-7.422t3.99-7.424a26.819,26.819,0,0,0,1.717-3.738q.705-1.917,1.414-3.938a8.994,8.994,0,0,0,.4-2.828,5.6,5.6,0,0,0-1.162-3.586,5.684,5.684,0,0,0-3.181-1.969,14.166,14.166,0,0,0-3.838-.1,21.169,21.169,0,0,0-4.343.858,27.437,27.437,0,0,0-4.141,1.667,100.755,100.755,0,0,0-14.342,7.727,132.529,132.529,0,0,0-13.029,9.645,27.506,27.506,0,0,0-3.434,3.434,40.126,40.126,0,0,0-2.828,3.838,12.615,12.615,0,0,0-1.616,2.727,14.366,14.366,0,0,0-.707,2.828,6.716,6.716,0,0,0,.2,2.827,4.991,4.991,0,0,0,1.717,2.98,4.736,4.736,0,0,0,3.333.96,4.981,4.981,0,0,0,1.212-.152,1.347,1.347,0,0,0,.909-.858,2.051,2.051,0,0,0-.606-2.323.523.523,0,0,1-.252-.2.58.58,0,0,0-.253-.2,2.288,2.288,0,0,1-.96-1.414,4.241,4.241,0,0,1,.051-1.716,11.837,11.837,0,0,1,1.212-2.626q1.11-1.311,2.07-2.677a15.329,15.329,0,0,1,2.172-2.475,93.091,93.091,0,0,1,12.776-9.846,99.974,99.974,0,0,1,14.191-7.525,23.232,23.232,0,0,1,2.777-.808q1.363-.3,2.778-.606a1.607,1.607,0,0,1,.96-.1c.3.068.621.135.959.2a3.669,3.669,0,0,0-.252.909,2.521,2.521,0,0,1-.253.807q-1.011,2.225-2.02,4.5t-2.121,4.393q-2.424,4.848-4.949,9.493t-5.05,9.494q-.81,1.515-1.565,3.082t-1.566,3.08a10.133,10.133,0,0,0-2.879.96,2.757,2.757,0,0,0-1.262,1.312,2.364,2.364,0,0,0,0,1.667,11.636,11.636,0,0,0,1.01,2.121q-1.416,3.232-2.879,6.413t-2.878,6.413a66.215,66.215,0,0,0-2.525,6.212q-1.113,3.182-1.919,6.413-.2,1.114-.3,2.223t-.2,2.222a3.957,3.957,0,0,0,1.313,2.828,2.666,2.666,0,0,0,2.071.707,2.151,2.151,0,0,0,1.767-1.212A7.367,7.367,0,0,0-1142,363.2a19.825,19.825,0,0,0,.454-2.475,12.488,12.488,0,0,1,.556-2.474q1.614-4.947,3.636-9.6t4.343-9.192a3.586,3.586,0,0,1,.454-.555,9.34,9.34,0,0,0,.657-.757,14.829,14.829,0,0,1,.808,1.666q.3.758.606,1.465.606,1.414,1.161,2.677t1.162,2.675a37.306,37.306,0,0,0,6.918,10.808,57.229,57.229,0,0,0,9.747,8.383,32.1,32.1,0,0,0,4.242,2.221,16.948,16.948,0,0,0,8.383,1.516,14.388,14.388,0,0,0,3.131-.707,2.945,2.945,0,0,0,1.313-1.465,3.1,3.1,0,0,0,.262-1.25,6.789,6.789,0,0,0,2.969-.063,8.964,8.964,0,0,0,3.838-2.171,21.275,21.275,0,0,0,5.454-7.07q.807-1.919,1.616-3.838t1.717-4.04q1.413-.2,2.879-.354t2.878-.353q2.562-.418,5.041-1.056c-.4,1.124-.792,2.25-1.153,3.379q-1.969,6.16-3.686,12.523a8.419,8.419,0,0,0-.3,2.223,2.216,2.216,0,0,0,1.515,2.222,2.223,2.223,0,0,0,2.626-.606,10.712,10.712,0,0,0,1.313-1.919q2.121-3.534,4.646-6.97t5.252-6.666a34.427,34.427,0,0,1,3.03-3.231q1.615-1.517,3.232-3.131a1.662,1.662,0,0,1,.606-.353,8.555,8.555,0,0,0,.808-.354,12.2,12.2,0,0,1,.1,1.464,9.484,9.484,0,0,0,.1,1.363l.606,2.627a15.652,15.652,0,0,0,.808,2.525,5.648,5.648,0,0,0,2.374,2.928,6.011,6.011,0,0,0,3.686.707c.538-.065,1.111-.151,1.717-.252a6.057,6.057,0,0,0,1.717-.555q1.212-.607,2.373-1.263a23.335,23.335,0,0,0,2.273-1.464c.436-.327.858-.679,1.29-1.013a27.162,27.162,0,0,0-.079,4.447,10.056,10.056,0,0,0,.606,2.777,12.448,12.448,0,0,0,1.313,2.575,6.753,6.753,0,0,0,7.373,3.333,17.861,17.861,0,0,0,5.05-1.716q1.616-.809,3.131-1.717a21.5,21.5,0,0,0,2.828-2.02q3.737-3.03,7.323-6.212c.219-.194.434-.393.653-.588a21.738,21.738,0,0,0-.3,5.386,7.381,7.381,0,0,0,.253,1.868,9.233,9.233,0,0,0,.656,1.768,5.006,5.006,0,0,0,2.374,2.474,4.579,4.579,0,0,0,3.484.152,13.886,13.886,0,0,0,1.818-.758,8.155,8.155,0,0,0,1.718-1.161q1.816-1.515,3.534-3.182t3.434-3.282q.505-.505,1.011-1.061t1.211-1.363q.5,1.111.859,1.818c.235.471.488.944.757,1.414A7.611,7.611,0,0,0-980,360.065,6.874,6.874,0,0,0-974.75,359.761Zm-44.237-19.189a1.864,1.864,0,0,1,.808-.454c.337-.1.673-.218,1.011-.354a3.857,3.857,0,0,1,.1,1.413,5.207,5.207,0,0,1-1.01,1.97,13.147,13.147,0,0,1-1.515,1.565,9.183,9.183,0,0,1-1.767,1.163,13.773,13.773,0,0,1-2.474.756A16.932,16.932,0,0,1-1018.987,340.572Zm-66.962,14.7a18.708,18.708,0,0,1-4.545,5.707,9.408,9.408,0,0,1-.808.505q-1.92.908-2.525-1.011a4.99,4.99,0,0,1-.454-2.322,16.6,16.6,0,0,1,.252-2.323q.5-2.019,1.111-3.99a16.6,16.6,0,0,1,1.717-3.788q.606-1.11,1.313-2.17t1.515-2.071a1.625,1.625,0,0,1,.606-.657,4.639,4.639,0,0,0,.808-.656c.134.807.252,1.465.354,1.969a3.961,3.961,0,0,0,.454,1.263,5.611,5.611,0,0,0,.859,1.061l1.464,1.464A21.66,21.66,0,0,1-1085.949,355.267Zm89.686,2.07c-.337.2-.691.44-1.06.707a1.563,1.563,0,0,1-1.364.2,13.147,13.147,0,0,1,.758-5.959,44.438,44.438,0,0,1,2.474-5.455,36.075,36.075,0,0,1,3.131-4.544,13.52,13.52,0,0,1,4.545-3.536,5.237,5.237,0,0,1,.96,1.87,7.381,7.381,0,0,1,.253,1.868c0,.606.015,1.212.05,1.818a3.548,3.548,0,0,0,.556,1.717A48.151,48.151,0,0,1-996.263,357.337Z"/><path class="a" d="M-743.02,436.249q.045,2.168.046,5.837,0,2.109-.011,4.093t-.012,3.75a9.212,9.212,0,0,1-.585,3.6,5.634,5.634,0,0,1-1.733,2.247,7.011,7.011,0,0,1-2.524,1.2,25.307,25.307,0,0,1-3.374.608l1.4,6.031a26.092,26.092,0,0,0,6.437-1.319,13.663,13.663,0,0,0,4.441-2.514,9.371,9.371,0,0,0,2.581-3.694,13.688,13.688,0,0,0,.838-4.98v-9.3q0-3.143.023-5.45t.023-4.165h-7.6Q-743.066,434.081-743.02,436.249Z"/><path class="a" d="M-690.278,442.093a11.27,11.27,0,0,0-3.925-2.41,14.145,14.145,0,0,0-4.8-.78,13.715,13.715,0,0,0-4.854.849,11.309,11.309,0,0,0-3.959,2.5,11.63,11.63,0,0,0-2.776,4.028,13.023,13.023,0,0,0-.895,4.923,13.156,13.156,0,0,0,1.044,5.209,11.609,11.609,0,0,0,2.972,4.177,11.15,11.15,0,0,0,3.855,2.237,14.23,14.23,0,0,0,4.636.746,14.041,14.041,0,0,0,4.659-.746,11.068,11.068,0,0,0,3.809-2.26,11.816,11.816,0,0,0,3.007-4.234,13.1,13.1,0,0,0,1.009-5.084,13.17,13.17,0,0,0-.941-5.06A11.874,11.874,0,0,0-690.278,442.093ZM-694,454.439a6.8,6.8,0,0,1-1.446,2.5A4.479,4.479,0,0,1-697.037,458a5.248,5.248,0,0,1-1.939.367,5.429,5.429,0,0,1-1.836-.31,4.012,4.012,0,0,1-1.515-.952,6.179,6.179,0,0,1-1.664-2.6,10.507,10.507,0,0,1-.493-3.293,10.018,10.018,0,0,1,.493-3.076,6.206,6.206,0,0,1,1.412-2.479,4.885,4.885,0,0,1,1.618-1.181,5.057,5.057,0,0,1,1.985-.356,5.311,5.311,0,0,1,1.859.333,4.221,4.221,0,0,1,1.537.976,6.246,6.246,0,0,1,1.6,2.684,10.973,10.973,0,0,1,.494,3.236A9.611,9.611,0,0,1-694,454.439Z"/><path class="a" d="M-640.29,439.5h-7.045q0,.644.045,3.753t.046,5.45q0,2.709-.023,4.865t-.023,2.319a15.053,15.053,0,0,1-2.6,1.319,8.49,8.49,0,0,1-3.248.745,2.335,2.335,0,0,1-2.226-1.09,6.517,6.517,0,0,1-.642-3.109q0-.986-.023-3.121t-.023-3.534q0-1.767.034-4.4t.035-3.2h-7.046q0,.6.046,3.362t.046,4.9q0,1.172-.034,3.707t-.035,4.716a7.614,7.614,0,0,0,1.847,5.416,6.773,6.773,0,0,0,5.2,1.973,12.61,12.61,0,0,0,4.67-.986,36.65,36.65,0,0,0,4.119-1.9l.023.022v2.227h6.862q-.024-4.911-.046-7.31t-.023-5.45q0-4.407.034-7.24T-640.29,439.5Z"/><path class="a" d="M-603.246,440.36a46.447,46.447,0,0,0-4.681,2.536l-.046-.023.023-3.374h-6.885q.023,3.719.046,7.068t.023,5.555q0,4.611-.034,7.366t-.035,3.443h7.045q0-.573-.045-3.58t-.046-5.44q0-1.56.011-3.074t.012-2.089q3.739-1.7,6.081-2.57t4.223-1.447l-1.79-5.966A29.356,29.356,0,0,0-603.246,440.36Z"/><path class="a" d="M-553.487,453.889q0-1.262.034-3.11t.035-4.624a7.35,7.35,0,0,0-1.871-5.29,6.63,6.63,0,0,0-5.037-1.962,13.937,13.937,0,0,0-4.291.8,26.5,26.5,0,0,0-4.613,2.02l-.023-.046.023-2.181h-6.908q.023,3.3.046,6.369t.023,6.024q0,5.141-.034,7.826t-.035,3.213h7.046q0-.321-.046-3.787t-.046-5.944q0-1.652.012-4.085t.011-2.57a19.523,19.523,0,0,1,2.926-1.389,7.834,7.834,0,0,1,2.7-.585,2.75,2.75,0,0,1,2.4.952,5.617,5.617,0,0,1,.723,3.064q.023,1.08.034,3.179t.011,3.247q0,1.631-.034,4.418t-.034,3.5h7.045q0-.689-.046-3.8T-553.487,453.889Z"/><path class="a" d="M-507.882,445.685a9.845,9.845,0,0,0-2.41-3.983,8.947,8.947,0,0,0-3.351-2.1,13.073,13.073,0,0,0-4.429-.7,13.112,13.112,0,0,0-4.613.849,10.191,10.191,0,0,0-3.809,2.433,12.176,12.176,0,0,0-2.685,3.993,12.826,12.826,0,0,0-.826,4.751,10.729,10.729,0,0,0,1.124,4.91,11.5,11.5,0,0,0,2.961,3.741,14.432,14.432,0,0,0,5.29,2.674,26.022,26.022,0,0,0,7.1.884q1.469,0,2.605-.058t1.618-.1l.711-5.027q-.506.024-1.583.07t-2.548.045a20.336,20.336,0,0,1-3.407-.263,12.408,12.408,0,0,1-2.95-.884,6.938,6.938,0,0,1-2.971-2.444,6.031,6.031,0,0,1-1-3.27h15.927A17.911,17.911,0,0,0-507.882,445.685Zm-15.491,2.443a6.514,6.514,0,0,1,1.7-3.591,4.485,4.485,0,0,1,3.328-1.319,4.119,4.119,0,0,1,3.247,1.33,6.075,6.075,0,0,1,1.389,3.58Z"/><path class="a" d="M-471.491,449.035q-1.641,4.1-2.055,5.221h-.138q-.345-.9-2.194-5.462t-3.732-9.8l-7.063,1.928q3.4,7.71,6.14,14.2t3.064,7.3l-4.2,9.341,6.538,1.652q.619-1.47,5.129-11.945t8.984-20.62l-6.627-1.791Q-469.848,444.939-471.491,449.035Z"/><path class="a" d="M-434.3,446.563a1.25,1.25,0,0,0-1.089-1.393,1.25,1.25,0,0,0-1.393,1.088,15.1,15.1,0,0,1-1.207,4.318,5.877,5.877,0,0,0-1.047-1.629,1.25,1.25,0,0,0-1.766-.073,1.251,1.251,0,0,0-.074,1.767,3.416,3.416,0,0,1,.678,3.542,15.993,15.993,0,0,1-6.419,7.046,1.25,1.25,0,0,0-.445,1.71,1.249,1.249,0,0,0,1.079.618,1.25,1.25,0,0,0,.632-.172,18.516,18.516,0,0,0,7.332-7.986A17.6,17.6,0,0,0-434.3,446.563Z"/><path class="a" d="M-433.723,434.406c-3.4-.789-5.978,2.188-7.86,4.361-.351.4-.684.789-1,1.12-2.794,2.948-8.61,9.082-4.4,14.958a1.252,1.252,0,0,0,1.745.287,1.25,1.25,0,0,0,.287-1.744c-2.778-3.873.7-8.113,4.179-11.781.338-.356.7-.768,1.073-1.2,1.549-1.787,3.479-4.011,5.406-3.561,1.831.425,2.754,3.06,3.353,5.308,1.434,5.4,1.168,12.891-2.8,16.564a5.939,5.939,0,0,1-1.082.8,4.145,4.145,0,0,1-2.128.587c-.016,0-.034,0-.048,0a1.249,1.249,0,0,0-1.25,1.239,1.251,1.251,0,0,0,1.239,1.261h.059a6.645,6.645,0,0,0,3.394-.931,8.4,8.4,0,0,0,1.515-1.119c4.756-4.4,5.2-12.731,3.521-19.04C-429.021,439.628-430.194,435.225-433.723,434.406Z"/><path class="a" d="M-778.39,435.487c-1.884-2.173-4.465-5.151-7.861-4.361-3.532.82-4.7,5.223-5.205,7.1-1.673,6.308-1.234,14.641,3.518,19.037a8.435,8.435,0,0,0,1.5,1.112,6.658,6.658,0,0,0,3.411.94h.059a1.248,1.248,0,0,0,1.238-1.26,1.25,1.25,0,0,0-1.25-1.24h-.011a4.267,4.267,0,0,1-2.181-.6,5.928,5.928,0,0,1-1.07-.79c-3.969-3.671-4.234-11.159-2.8-16.561.6-2.248,1.521-4.884,3.354-5.309,1.933-.453,3.857,1.775,5.407,3.563.376.435.734.846,1.071,1.2,3.478,3.669,6.956,7.908,4.179,11.78a1.25,1.25,0,0,0,.287,1.745,1.25,1.25,0,0,0,1.744-.288c4.213-5.875-1.6-12.009-4.4-14.958C-777.708,436.275-778.04,435.892-778.39,435.487Z"/><path class="a" d="M-773.355,457.954a15.953,15.953,0,0,1-6.394-6.992,3.439,3.439,0,0,1,.652-3.6,1.249,1.249,0,0,0-.073-1.766,1.253,1.253,0,0,0-1.767.073,5.838,5.838,0,0,0-1.045,1.63,15.093,15.093,0,0,1-1.209-4.32,1.246,1.246,0,0,0-1.394-1.087,1.25,1.25,0,0,0-1.088,1.393,17.623,17.623,0,0,0,3.706,8.819,18.471,18.471,0,0,0,7.346,8.008,1.243,1.243,0,0,0,.632.172,1.248,1.248,0,0,0,1.079-.617A1.251,1.251,0,0,0-773.355,457.954Z"/></g></svg>