<svg xmlns="http://www.w3.org/2000/svg" xmlns:xlink="http://www.w3.org/1999/xlink" width="200" height="200" viewBox="0 0 200 200"><defs><style>.a{fill:#f4f7ff;}.b{clip-path:url(#a);}.c{fill:#203a84;}</style><clipPath id="a"><circle class="a" cx="100" cy="100" r="100" transform="translate(860 288)"/></clipPath></defs><g transform="translate(-860 -375)"><circle class="a" cx="100" cy="100" r="100" transform="translate(860 375)"/><g class="b" transform="translate(0 87)"><g transform="translate(865.954 286.361)"><path class="c" d="M94.667,184.855a9.114,9.114,0,0,1-6.858-3.118,3.47,3.47,0,0,1,5.229-4.564,2.14,2.14,0,0,0,1.629.742h0a2.136,2.136,0,0,0,1.632-.747,3.47,3.47,0,0,1,5.236,4.554,9.1,9.1,0,0,1-6.86,3.133Zm0,0" transform="translate(-26.034 -59.298)"/><path class="c" d="M178.819,184.777a9.1,9.1,0,0,1-6.858-3.121,3.469,3.469,0,0,1,5.226-4.564,2.153,2.153,0,0,0,1.632.745h0a2.155,2.155,0,0,0,1.631-.747,3.47,3.47,0,0,1,5.237,4.555,9.11,9.11,0,0,1-6.861,3.133Zm0,0" transform="translate(-58.274 -59.268)"/><path class="c" d="M135.334,191.641a12.158,12.158,0,0,1-9.169-4.176A3.47,3.47,0,1,1,131.4,182.9a5.211,5.211,0,0,0,7.875,0,3.47,3.47,0,1,1,5.231,4.562,12.158,12.158,0,0,1-9.169,4.176Zm0,0" transform="translate(-40.729 -61.496)"/><path class="c" d="M146.21,130.526a17.383,17.383,0,0,0-3.657-10.975,22.5,22.5,0,0,1-1.541-2.5,14.981,14.981,0,0,0-1.938-24.108V84.731A56.528,56.528,0,0,0,71.7,29.28C69.391,24.353,64.991,21.2,60.129,21.2,53.67,21.2,48.274,26.74,47.1,34.052c-4.894-1.551-9.932-.635-13.258,2.692-4.711,4.711-4.452,12.794.306,18.866a56.262,56.262,0,0,0-8.079,29.121V92.98A14.981,14.981,0,0,0,24.2,117.046a22.141,22.141,0,0,1-1.541,2.506,18.308,18.308,0,0,0,0,21.953c1.484,2.2,2.656,3.929,2.656,7.706s-1.172,5.512-2.656,7.708A17.4,17.4,0,0,0,19,167.895c0,.377.008.752.026,1.111a21.606,21.606,0,0,0,14.049,19.086,18.571,18.571,0,0,0,2.617,6.175,14.667,14.667,0,0,0,9.046,26.217h75.734a14.667,14.667,0,0,0,9.044-26.217,18.568,18.568,0,0,0,2.619-6.177,21.616,21.616,0,0,0,14.047-19.084c.018-.359.029-.734.029-1.111a17.385,17.385,0,0,0-3.657-10.977c-1.484-2.2-2.656-3.931-2.656-7.708s1.171-5.51,2.656-7.706a17.385,17.385,0,0,0,3.657-10.977Zm-12.9-15.9a51.616,51.616,0,0,0,0-17.838,9.162,9.162,0,0,1,0,17.838ZM31.91,84.731a50.432,50.432,0,0,1,8.316-27.814,2.922,2.922,0,0,0-.385-3.682l-.057-.054c-3.888-3.9-4.7-9.419-1.81-12.31,2.351-2.351,6.581-2.289,10.28.152a2.919,2.919,0,0,0,4.515-2.712c-.043-.446-.063-.862-.063-1.271,0-5.516,3.331-10,7.423-10,3.037,0,5.822,2.589,6.931,6.44a2.919,2.919,0,0,0,3.495,2.029,50.7,50.7,0,0,1,62.682,49.226v6.112a15.217,15.217,0,0,0-2.029-.14c-.482,0-.969.026-1.45.073-6.708-1.1-13.175-2.481-19.747-4.227a2.92,2.92,0,1,0-1.5,5.644c6.252,1.658,12.409,3,18.758,4.089A45.641,45.641,0,1,1,38.324,94.62c.576-1.413,5.905-13.656,18.146-16.37,6.582-1.462,14.736,1.475,26.019,5.542,4.32,1.557,9.218,3.323,14.659,5.066A2.92,2.92,0,0,0,98.931,83.3c-5.342-1.711-10.187-3.456-14.462-5C72.262,73.9,63.444,70.723,55.2,72.549,42.389,75.392,35.889,86.195,33.683,90.711a15.088,15.088,0,0,0-1.772.14v-6.12Zm94.849,100.085a12.542,12.542,0,0,1-7.619,10.838c-5.437,2.532-12.455,2.062-15.354.055a4.076,4.076,0,0,1-1.913-4.261c.485-2.69,3.489-6.043,9.109-7.473a2.92,2.92,0,0,0,2.19-2.57c.048-.551,1.058-13.179-6.368-30.275q2.037-1.088,3.959-2.349c5.483,7.622,17.021,25.124,16,36.036Zm-19.046,20.995a8.845,8.845,0,0,1-8.835,8.835H94.311a14.638,14.638,0,0,0,0-17.667h2.9a10.659,10.659,0,0,0,3.256,3.532,16.188,16.188,0,0,0,6.779,2.457,8.792,8.792,0,0,1,.47,2.845Zm-41.38,8.835a8.835,8.835,0,0,1-8.365-11.679,16.188,16.188,0,0,0,6.779-2.457,10.62,10.62,0,0,0,3.377-3.744,2.907,2.907,0,0,0,1.09.213h13.39a8.834,8.834,0,1,1,0,17.667Zm1.7-59.566a14.594,14.594,0,0,0,29.144,0q2.208-.651,4.33-1.49a67.6,67.6,0,0,1,5.887,25.381c-6.046,2.153-10.376,6.483-11.27,11.442-.043.243-.077.486-.1.728H69.189c-.026-.241-.061-.485-.105-.728-.892-4.961-5.222-9.291-11.267-11.442A67.565,67.565,0,0,1,63.7,153.589q2.12.839,4.33,1.49Zm6.1,1.4a51.532,51.532,0,0,0,16.944,0,8.757,8.757,0,0,1-16.944,0ZM31.906,96.787a51.616,51.616,0,0,0,0,17.838,9.162,9.162,0,0,1,0-17.838Zm-7.047,71.927c-.012-.264-.02-.537-.02-.819,0-3.777,1.172-5.512,2.656-7.708a18.3,18.3,0,0,0,0-21.953c-1.484-2.2-2.656-3.929-2.656-7.706s1.172-5.512,2.656-7.708a29.55,29.55,0,0,0,1.775-2.88,14.972,14.972,0,0,0,4.085.752,51.611,51.611,0,0,0,16.4,24.615c-2.011,2.787-4.523,6.45-7.008,10.568a2.92,2.92,0,0,0,5,3.018c2.374-3.933,4.774-7.438,6.7-10.114q1.922,1.259,3.959,2.351c-7.426,17.1-6.416,29.722-6.368,30.275a2.92,2.92,0,0,0,2.19,2.57c5.619,1.427,8.624,4.78,9.109,7.471a4.075,4.075,0,0,1-1.913,4.263c-2.9,2.007-9.918,2.477-15.354-.055a12.549,12.549,0,0,1-7.619-10.838c-.375-3.993.928-9.3,3.876-15.782a2.92,2.92,0,0,0-5.316-2.416,46.274,46.274,0,0,0-4.369,14.819,15.7,15.7,0,0,1-7.785-12.725Zm11.047,37.1a8.843,8.843,0,0,1,3.789-7.245,20.486,20.486,0,0,0,3.911,2.382,25.254,25.254,0,0,0,8.309,2.163,14.59,14.59,0,0,0,2.711,11.535H44.738a8.843,8.843,0,0,1-8.832-8.835Zm84.567,8.835h-9.887a14.606,14.606,0,0,0,2.966-8.835,14.78,14.78,0,0,0-.251-2.7,25.294,25.294,0,0,0,8.307-2.163,20.435,20.435,0,0,0,3.909-2.384,8.832,8.832,0,0,1-5.044,16.082Zm17.243-76.411a18.308,18.308,0,0,0,0,21.953c1.484,2.2,2.656,3.931,2.656,7.708,0,.282-.006.555-.02.819a15.709,15.709,0,0,1-7.789,12.727c-1.075-12.3-11.182-27.923-17.1-36.134a51.644,51.644,0,0,0,16.4-24.615,14.957,14.957,0,0,0,4.083-.752,30.054,30.054,0,0,0,1.775,2.88c1.484,2.2,2.656,3.929,2.656,7.706s-1.172,5.512-2.656,7.708Zm0,0" transform="translate(12 18.799)"/></g></g></g></svg>