<svg xmlns="http://www.w3.org/2000/svg" width="389.799" height="82.919" viewBox="0 0 389.799 82.919"><defs><style>.a{fill:#1f489a;}.b{fill:none;stroke:#1f489a;}.c{fill:#facd35;}.d{fill:#f41b60;}.e{fill:#ffde52;}.f{fill:#e09528;}.g{fill:#af0068;}.h{fill:#48b5ff;}.i{fill:#216bd6;}.j{fill:#86d61e;}.k{fill:#ffe33e;}</style></defs><g transform="translate(-458.185 -817.022)"><g transform="translate(-286 154)"><path class="a" d="M-70.263-58.978a22.439,22.439,0,0,1,2.368.259,14.609,14.609,0,0,1,2.22.555,5.878,5.878,0,0,1,4.144,5.7,7.828,7.828,0,0,1-.148,2.627,12.558,12.558,0,0,1-.888,2.553q-.814,1.776-1.665,3.515t-1.739,3.441q-1.258,2.294-2.553,4.551t-2.553,4.625q-.592,1.11-1.11,2.22t-1.11,2.146a1.868,1.868,0,0,0-.222.444,1.868,1.868,0,0,1-.222.444,1.934,1.934,0,0,1-1.776.814A1.632,1.632,0,0,1-77-26.418a3.04,3.04,0,0,1,0-1.628,6.249,6.249,0,0,1,.814-1.628q1.036-1.85,2.109-3.663t2.183-3.589q1.48-2.516,2.849-5.106a58.121,58.121,0,0,0,2.479-5.328,11.649,11.649,0,0,0,.7-1.961A8.373,8.373,0,0,0-65.6-51.43a3.124,3.124,0,0,0-.407-1.813,2.338,2.338,0,0,0-1.665-.7,10.156,10.156,0,0,0-3.256.074q-1.406.222-2.775.555a21.4,21.4,0,0,0-2.7.851q-1.924.74-3.737,1.591t-3.663,1.887A70.9,70.9,0,0,0-99.863-36.63q-.814.814-1.554,1.7t-1.48,1.85a8.264,8.264,0,0,0-.666,1.11,12.325,12.325,0,0,0-.518,1.184,1.543,1.543,0,0,0,.74,2q1.184.666,2.738,1.406,2,.814,4,1.591t4,1.591q1.48.666,2.96,1.369t2.886,1.517a13.1,13.1,0,0,1,2.072,1.369q.962.777,1.85,1.591a10.822,10.822,0,0,1,1.887,2.109,15.98,15.98,0,0,1,1.369,2.479,9.1,9.1,0,0,1-.518,8.51,14.791,14.791,0,0,1-3.219,4,20.537,20.537,0,0,1-4.255,2.812,22.935,22.935,0,0,1-3.478,1.332,28.892,28.892,0,0,1-3.7.814q-2.368.37-4.662.555a15.779,15.779,0,0,1-4.662-.333q-.814-.148-1.665-.37a10.3,10.3,0,0,1-1.665-.592A5.4,5.4,0,0,1-110,.666a5.965,5.965,0,0,1-.666-3.4,5.415,5.415,0,0,1,1.3-2.886,5.911,5.911,0,0,1,2.627-1.924,2.635,2.635,0,0,1,1.406-.074,1.218,1.218,0,0,1,.851.74,1.334,1.334,0,0,1-.037,1.184,3.245,3.245,0,0,1-.481.629,3.245,3.245,0,0,0-.481.629,8.019,8.019,0,0,0-1.036,1.85,1.408,1.408,0,0,0,.888,1.924,4.219,4.219,0,0,0,.74.222,4.219,4.219,0,0,1,.74.222,12.963,12.963,0,0,0,4.218.333q2.072-.185,4.218-.555,1.332-.3,2.664-.7t2.664-.925a11.283,11.283,0,0,0,3.219-1.85,17.892,17.892,0,0,0,2.627-2.664,4.849,4.849,0,0,0,.592-5.476,10.044,10.044,0,0,0-3.478-4.07q-1.258-.814-2.516-1.517t-2.59-1.3q-1.48-.666-3.034-1.221T-98.6-21.312q-1.332-.518-2.664-.962a23.614,23.614,0,0,1-2.59-1.036,18.824,18.824,0,0,1-3.182-1.924,5.813,5.813,0,0,1-2.368-5.772,13.269,13.269,0,0,1,.481-2.183,6.409,6.409,0,0,1,1-1.961q.74-1.184,1.517-2.331a18.238,18.238,0,0,1,1.739-2.183,76.891,76.891,0,0,1,10.8-9.509A64.65,64.65,0,0,1-81.363-56.24a30.975,30.975,0,0,1,3.737-1.369,38.8,38.8,0,0,1,3.885-.925q.814-.148,1.7-.222T-70.263-58.978ZM-67.6-9.546q-.37,1.11-.629,2.183a5.335,5.335,0,0,0-.037,2.257A2.238,2.238,0,0,0-65.6-3.182a9.572,9.572,0,0,0,3.922-1.48l2.072-1.48q1.036-.74,2.072-1.628,2-1.7,3.922-3.478t3.922-3.478A7.46,7.46,0,0,1-48.4-15.762q.7-.444,1.369-.814a.561.561,0,0,1,.518-.074,1.017,1.017,0,0,1,.518.222.645.645,0,0,1,.37.555,1.894,1.894,0,0,1-.148.7l-.148.3-.148.3a5.58,5.58,0,0,0-.629.74,3.206,3.206,0,0,1-.629.666q-2.59,2.368-5.217,4.7T-57.9-3.922a15.727,15.727,0,0,1-2.072,1.48q-1.11.666-2.294,1.258a13.108,13.108,0,0,1-3.7,1.258,4.948,4.948,0,0,1-5.4-2.442,9.069,9.069,0,0,1-.962-1.887,7.338,7.338,0,0,1-.444-2.035,16.776,16.776,0,0,1,1.48-8.436,18.3,18.3,0,0,1,5.55-6.586,6.068,6.068,0,0,1,2.96-1.184,4.48,4.48,0,0,1,2.442.222,4.04,4.04,0,0,1,1.776,1.332,4.233,4.233,0,0,1,.814,2.035,4.688,4.688,0,0,1-.37,2.4,11.248,11.248,0,0,1-2.886,4,12.209,12.209,0,0,1-4.366,2.442q-.518.148-1.036.259T-67.6-9.546Zm1.48-3.478a10.229,10.229,0,0,0,1.813-.555,6.737,6.737,0,0,0,1.295-.851,9.787,9.787,0,0,0,1.11-1.147,3.824,3.824,0,0,0,.74-1.443,2.8,2.8,0,0,0-.074-1.036q-.37.148-.74.259a1.38,1.38,0,0,0-.592.333A12.415,12.415,0,0,0-66.119-13.024ZM-50.949-5.7q.148-2.664.481-5.069a45.261,45.261,0,0,1,.925-4.773,109.624,109.624,0,0,1,14.43-31.3,28.235,28.235,0,0,1,2.22-3.034q1.184-1.406,2.368-2.886a4.5,4.5,0,0,1,.888-.925q.518-.407,1.036-.777a2.128,2.128,0,0,1,2.442-.222,1.916,1.916,0,0,1,.814.962,2.171,2.171,0,0,1,.074,1.258q-.222.962-.518,1.924t-.666,1.85q-1.036,2.368-2.109,4.7t-2.331,4.625q-2.368,4.292-4.773,8.547t-4.847,8.547a13.321,13.321,0,0,1-1.332,1.924,13.32,13.32,0,0,0-1.332,1.924,3.631,3.631,0,0,0-.814,1.628q-.666,2.368-1.258,4.736t-.962,4.81l-.222,3.774a6.085,6.085,0,0,0,.074.925,5.623,5.623,0,0,0,.222.925q.444,1.7,1.924.888.592-.3,1.073-.592A7.964,7.964,0,0,0-42.217-2l2.109-1.961q1.073-1,2.109-2.109,1.85-2.146,3.552-4.292a34.814,34.814,0,0,0,3.108-4.662,4.092,4.092,0,0,1,.666-.777q.37-.333.814-.7a.661.661,0,0,1,.481-.148,1.778,1.778,0,0,1,.555.074,1.12,1.12,0,0,1,.555.444.885.885,0,0,1,.111.666q-.074.37-.148.7a2.72,2.72,0,0,1-.222.629,6.558,6.558,0,0,1-.888,1.406q-1.7,2.146-3.367,4.329T-36.223-4.07q-.888,1.036-1.887,2.035T-40.145-.074q-.666.592-1.443,1.184a12.513,12.513,0,0,1-1.591,1.036,4.55,4.55,0,0,1-3.589.518,4.691,4.691,0,0,1-2.7-2.442A10.142,10.142,0,0,1-50.5-2.368a11.121,11.121,0,0,1-.3-1.776Q-50.875-5.032-50.949-5.7Zm17.02-34.484q-.592,1.184-1.258,2.294a26.681,26.681,0,0,0-1.258,2.368,3.593,3.593,0,0,0-.333.629q-.259.555-.518,1.184t-.444,1.147q-.185.518-.037.592.074.074.37-.407t.629-1.073q.333-.592.592-1.147a3.46,3.46,0,0,0,.259-.629q.666-1.184,1.3-2.331t1.221-2.331a3.649,3.649,0,0,0,.333-.555q.259-.481.518-1.036a8.113,8.113,0,0,0,.407-1.036q.148-.481.074-.481t-.333.407q-.259.407-.592.925t-.592.962A3.8,3.8,0,0,1-33.929-40.182ZM-20.165-8.288q-.518.592-.888,1t-.74.777q-1.258,1.184-2.516,2.405T-26.9-1.776a5.947,5.947,0,0,1-1.258.851,10.172,10.172,0,0,1-1.332.555,3.356,3.356,0,0,1-2.553-.111,3.666,3.666,0,0,1-1.739-1.813,6.7,6.7,0,0,1-.481-1.3,5.369,5.369,0,0,1-.185-1.369,15.607,15.607,0,0,1,.3-4.366,21.453,21.453,0,0,1,1.628-5.032,27.8,27.8,0,0,1,2.664-4.514,15.367,15.367,0,0,1,4.292-3.922,6.857,6.857,0,0,1,3.922-1.258,4.538,4.538,0,0,1,4.514,3.4,8.556,8.556,0,0,1,.222,3.7,5.05,5.05,0,0,0-.185.962,5.05,5.05,0,0,1-.185.962,3.724,3.724,0,0,1,1.628,1.961,9.823,9.823,0,0,1,.444,2.479,19.775,19.775,0,0,0,.444,3.256,1.048,1.048,0,0,0,1.406.888q.592-.148,1.147-.3a3.311,3.311,0,0,0,1.073-.518q.888-.592,1.776-1.258A11.6,11.6,0,0,0-7.733-9.99a12.514,12.514,0,0,0,1.7-1.924q.74-1.036,1.554-2,.592-.666,1.221-1.3l1.221-1.221a.722.722,0,0,1,.518-.148A.722.722,0,0,1-1-16.428a1.117,1.117,0,0,1,.37.444.674.674,0,0,1,.074.518,4.647,4.647,0,0,1-1.184,2.738Q-3.219-10.8-4.884-8.954a24.678,24.678,0,0,1-3.663,3.33,16.242,16.242,0,0,1-1.776,1.258,10.621,10.621,0,0,1-2,.962,5.037,5.037,0,0,1-3.848.222A5.575,5.575,0,0,1-18.981-5.92q-.3-.518-.555-1.036T-20.165-8.288Zm-1.7-10.508a9.893,9.893,0,0,0-3.33,2.59,26.516,26.516,0,0,0-2.294,3.33,32.451,32.451,0,0,0-1.813,4,9.631,9.631,0,0,0-.555,4.366,1.149,1.149,0,0,0,1-.148q.407-.3.777-.518a35.287,35.287,0,0,0,7.548-8.288,2.616,2.616,0,0,1-.407-1.258q-.037-.666-.037-1.332a5.369,5.369,0,0,0-.185-1.369A3.815,3.815,0,0,0-21.867-18.8ZM18.315-12.95a8.655,8.655,0,0,0-1.184.74A13.135,13.135,0,0,0,15.1-10.36a22.278,22.278,0,0,0-1.739,2.22q-.444.666-.888,1.369T11.507-5.4A3.7,3.7,0,0,1,10.4-4.218a1.863,1.863,0,0,1-1.813.481A2.1,2.1,0,0,1,7.141-5.032a3.725,3.725,0,0,1-.333-1.3,4.683,4.683,0,0,1,.111-1.3q.3-1.628.555-3.219t.481-3.219q.074-.37.111-.7t.111-.925a3.509,3.509,0,0,1-.777.518.943.943,0,0,0-.481.444q-1.258,1.332-2.442,2.664T2.183-9.25Q.7-7.326-.666-5.365T-3.441-1.48q-.222.3-.407.592a1.913,1.913,0,0,1-.481.518A1.728,1.728,0,0,1-6.142.148a1.842,1.842,0,0,1-1.3-1.406,3.357,3.357,0,0,1-.074-1.85q.37-2.442.777-4.847a30.128,30.128,0,0,1,1.221-4.773q.592-1.7,1.184-3.293t1.184-3.293q.222-.592.444-1.11a3.891,3.891,0,0,1,.592-.962A5.366,5.366,0,0,1-.7-22.94a1.948,1.948,0,0,1,2.59-.222A2.2,2.2,0,0,1,3-20.794q-.148.592-.259,1.073a5.928,5.928,0,0,1-.333,1q-.518,1.332-1.036,2.7t-1.11,2.7a3.537,3.537,0,0,0-.222,1.628l1.332-1.554q1.48-1.7,3-3.441t3-3.441q.518-.518,1.036-1a7.365,7.365,0,0,1,1.11-.851,2.96,2.96,0,0,1,2.923-.333,2.715,2.715,0,0,1,1.517,2.479,11.146,11.146,0,0,1-.074,2.22l-.3,2.22a4.788,4.788,0,0,1-.222.851,1.162,1.162,0,0,0,.222,1q.814-.666,1.517-1.332t1.443-1.258q.592-.444,1.147-.888a12.107,12.107,0,0,1,1.147-.814,2.832,2.832,0,0,1,2.442-.333,3.254,3.254,0,0,1,1.85,1.739,5.969,5.969,0,0,1,.666,2q.148,1.036.222,2.072.074.814.074,1.554t.074,1.48a11.913,11.913,0,0,0,.518,2.516,1.467,1.467,0,0,0,2.146.888,9.435,9.435,0,0,0,1.85-.962,7.042,7.042,0,0,0,1.554-1.406q2.886-3.256,5.846-6.734.3-.37.592-.7a5.408,5.408,0,0,1,.666-.629,1.377,1.377,0,0,1,.888-.3,1.377,1.377,0,0,1,.888.3q.814.518.3,1.7a13.253,13.253,0,0,1-.814,1.332q-1.924,2.072-3.848,4.107T30.821-5.106a13.53,13.53,0,0,1-1.369,1.184,12.513,12.513,0,0,1-1.591,1.036,5.388,5.388,0,0,1-3.922.666,5.427,5.427,0,0,1-3.256-2.368A11.333,11.333,0,0,1,19.61-6.7a13.749,13.749,0,0,1-.629-2.183q-.222-.962-.37-1.924T18.315-12.95Zm28.86,4.662q-.518.592-.888,1t-.74.777q-1.258,1.184-2.516,2.405t-2.59,2.331a5.947,5.947,0,0,1-1.258.851,10.172,10.172,0,0,1-1.332.555A3.356,3.356,0,0,1,35.3-.481a3.666,3.666,0,0,1-1.739-1.813,6.7,6.7,0,0,1-.481-1.3,5.369,5.369,0,0,1-.185-1.369,15.607,15.607,0,0,1,.3-4.366,21.453,21.453,0,0,1,1.628-5.032,27.8,27.8,0,0,1,2.664-4.514,15.367,15.367,0,0,1,4.292-3.922,6.857,6.857,0,0,1,3.922-1.258,4.538,4.538,0,0,1,4.514,3.4,8.556,8.556,0,0,1,.222,3.7,5.05,5.05,0,0,0-.185.962,5.05,5.05,0,0,1-.185.962,3.725,3.725,0,0,1,1.628,1.961,9.823,9.823,0,0,1,.444,2.479,19.775,19.775,0,0,0,.444,3.256,1.048,1.048,0,0,0,1.406.888q.592-.148,1.147-.3A3.311,3.311,0,0,0,56.2-7.252q.888-.592,1.776-1.258a11.6,11.6,0,0,0,1.628-1.48,12.514,12.514,0,0,0,1.7-1.924q.74-1.036,1.554-2,.592-.666,1.221-1.3l1.221-1.221a.722.722,0,0,1,.518-.148.722.722,0,0,1,.518.148,1.117,1.117,0,0,1,.37.444.674.674,0,0,1,.074.518A4.647,4.647,0,0,1,65.6-12.728q-1.48,1.924-3.145,3.774a24.678,24.678,0,0,1-3.663,3.33,16.242,16.242,0,0,1-1.776,1.258,10.621,10.621,0,0,1-2,.962,5.037,5.037,0,0,1-3.848.222A5.575,5.575,0,0,1,48.359-5.92q-.3-.518-.555-1.036T47.175-8.288ZM45.473-18.8a9.893,9.893,0,0,0-3.33,2.59,26.516,26.516,0,0,0-2.294,3.33,32.452,32.452,0,0,0-1.813,4,9.631,9.631,0,0,0-.555,4.366,1.149,1.149,0,0,0,1-.148q.407-.3.777-.518a35.286,35.286,0,0,0,7.548-8.288,2.616,2.616,0,0,1-.407-1.258q-.037-.666-.037-1.332a5.369,5.369,0,0,0-.185-1.369A3.815,3.815,0,0,0,45.473-18.8ZM70.633-35q-1.628.074-3,.111t-2.7.185q-1.332.148-2.7.222t-2.7.222h-.925a5.621,5.621,0,0,1-.925-.074,2.11,2.11,0,0,1-1.406-.851,2.507,2.507,0,0,1-.518-1.517,2.325,2.325,0,0,1,.444-1.369A2.559,2.559,0,0,1,57.461-39a7.6,7.6,0,0,1,1.85-.222q2.886-.148,5.735-.259t5.735-.259h1.258q.666,0,1.406-.074.37-.592.7-1.073a8.787,8.787,0,0,0,.629-1.073q1.628-2.738,3.4-5.328t3.774-5.032a5.816,5.816,0,0,1,.814-1.036q.444-.444.888-.962a5.028,5.028,0,0,1,1.258-.962,2.429,2.429,0,0,1,1.036-.333,1.317,1.317,0,0,1,.962.333,1.618,1.618,0,0,1,.888,2,16.354,16.354,0,0,1-1.036,3.108q-1.036,2.146-2.109,4.292t-2.109,4.292q-.148.37-.333.74a4.784,4.784,0,0,0-.333.962,5.073,5.073,0,0,1,.962.074,1.868,1.868,0,0,0,.74,0q4.218,0,8.325-.074t8.325-.074q4.662-.074,9.25-.111t9.25.037a15.09,15.09,0,0,1,2.553.222q1.3.222,2.553.37a7.036,7.036,0,0,1,1.332.444q.37.148.333.7a.725.725,0,0,1-.407.7,2.5,2.5,0,0,1-1.11.3q-1.85.074-3.7.111t-3.774.037q-2.59.074-5.254.074T106-36.926q-5.4.222-10.767.518l-10.767.592-2.553.148q-1.3.074-2.553.222-1.036,1.85-2.035,3.589t-1.961,3.441q-.962,1.628-1.887,3.219T71.669-21.9a10.757,10.757,0,0,0-.629,1.147,3.494,3.494,0,0,1-.7,1,7.183,7.183,0,0,0-1.517,2.4q-.481,1.3-.851,2.627-.518,1.776-.962,3.515T66.193-7.7a11.9,11.9,0,0,0-.185,2.442,9.722,9.722,0,0,0,.407,2.442A1.105,1.105,0,0,0,67.821-2a6.072,6.072,0,0,0,2.146-.666,14.68,14.68,0,0,0,1.85-1.184A39.9,39.9,0,0,0,77.4-8.621q2.553-2.627,4.921-5.587.37-.444.777-.962a10.756,10.756,0,0,1,.851-.962q.74-.814,1.48-.222a1.2,1.2,0,0,1,.444,1.406,9.431,9.431,0,0,1-.592,1.258A88.37,88.37,0,0,1,72.631-.592,12.333,12.333,0,0,1,70.115,1a8.522,8.522,0,0,1-2.812.777,4.539,4.539,0,0,1-4.514-1.85,6.409,6.409,0,0,1-1-1.961,13.269,13.269,0,0,1-.481-2.183,18.708,18.708,0,0,1,0-4.07,41.074,41.074,0,0,1,.666-4.07,47.475,47.475,0,0,1,1.7-5.809q1.036-2.849,2.146-5.735.962-2.368,2-4.7t2.072-4.7q.148-.37.3-.7Zm15.1,31.746a2.821,2.821,0,0,0,.111-.592,2.714,2.714,0,0,1,.185-.74q1.48-4.218,2.886-8.288T91.8-21.164q1.11-3.108,2.22-6.068t2.22-5.994q1.85-5.18,3.922-10.175t4.44-9.879a31.529,31.529,0,0,1,1.554-2.886,4.609,4.609,0,0,1,.481-.666q.259-.3.555-.592a2.113,2.113,0,0,1,2.442-.222,1.894,1.894,0,0,1,1.036,2.146,5.355,5.355,0,0,1-.222.777q-.148.407-.3.777-.74,1.406-1.7,3.034-1.48,2.59-2.775,5.254t-2.553,5.4Q100.011-33.448,97.5-26.6t-4.81,13.949L90.021-4.44l-.3.888a4.09,4.09,0,0,1-.37.814A2.353,2.353,0,0,1,88.467-1.7a1.786,1.786,0,0,1-1.776.444A1.966,1.966,0,0,1,85.729-3.256ZM82.473,9.028a20.62,20.62,0,0,1,.481-2.59,14.1,14.1,0,0,1,.925-2.59q.148-.222.259-.407a1.72,1.72,0,0,1,.259-.333,1.508,1.508,0,0,1,1.776-.3,1.8,1.8,0,0,1,1.11,1.332.82.82,0,0,0,.037.259.168.168,0,0,1-.037.185q-.518,1.48-.925,2.886a25.561,25.561,0,0,1-1,2.812,1.11,1.11,0,0,1-.74.74,2.116,2.116,0,0,1-1.11,0Q82.4,10.8,82.473,9.028Z" transform="translate(943 722)"/><line class="b" x2="204" transform="translate(848.5 745.441)"/></g><g transform="translate(690.177 747.967)"><g transform="translate(98.008 89.818)"><path class="c" d="M128.8,236.221c-5.778-5.9-16.341-7.017-16.341-7.017-.247.247-.506.534-.773.853A157.926,157.926,0,0,0,98.042,262.67c-.008.057-.017.114-.024.171l0,.021h0a7.4,7.4,0,0,0,4.145,4.145A183.421,183.421,0,0,0,135.125,253.2c.255-.219.487-.432.692-.637C135.817,252.562,134.7,242,128.8,236.221Z" transform="translate(-98.013 -223.754)"/><path class="d" d="M154.006,276.878c-1.077,2.146-2.066,4.246-2.97,6.267.869,6.921,9.4,15.928,14.119,18.333,1.428-.606,2.913-1.257,4.445-1.953C161.186,295.662,153.188,284.307,154.006,276.878Z" transform="translate(-143.486 -264.64)"/><path class="d" d="M119.511,371.362c-.644,1.644-1.217,3.182-1.721,4.589,1.076,3.556,4.412,7.97,8.569,10.587,1.2-.431,2.534-.922,3.971-1.474C125.867,382.686,120.365,376.188,119.511,371.362Z" transform="translate(-114.973 -345.671)"/><ellipse class="e" cx="7.636" cy="16.517" rx="7.636" ry="16.517" transform="translate(9.097 10.799) rotate(-45)"/><ellipse class="f" cx="6.696" cy="15.255" rx="6.696" ry="15.255" transform="matrix(0.707, -0.707, 0.707, 0.707, 10.816, 10.864)"/><path class="d" d="M98.772,446.7c-.395,1.279-.637,2.143-.734,2.493-.008.058-.018.118-.026.176l0,.021h0s-.09,1.1,1.409,2.6a4.587,4.587,0,0,0,2.735,1.546s.592-.168,1.673-.507A12.373,12.373,0,0,1,98.772,446.7Z" transform="translate(-98.008 -410.285)"/></g><g transform="translate(113.998 79.441)"><g transform="translate(0 0)"><path class="d" d="M215.3,141.718c3.192-2.636,7.163-6.21,7.9-10.551a4.843,4.843,0,0,0-1.706-4.624,5.236,5.236,0,0,0-3.694-.963c-1.7.131-3.336,1.624-5.039,1.207a1.714,1.714,0,0,1-1.124-1.961,3.216,3.216,0,0,1,.829-1.347,7.953,7.953,0,0,1,2.776-1.717,18.807,18.807,0,0,1,5.971-1.378c.563-.039,0-2.4-.808-2.342a18.934,18.934,0,0,0-5.255,1.1c-1.585.583-3.383,1.4-4.28,2.914a4.707,4.707,0,0,0-.2,4.069,3.467,3.467,0,0,0,1.964,2.149c.466.185,1.194-.109,1.785-.118,1.6-.024,3.052-.632,4.65-.676.865-.024,2.6.693,2.963,1.605.236.6-.625,2.235-.976,2.885a26.83,26.83,0,0,1-6.8,7.58c-.519.428.412,2.683,1.032,2.171Z" transform="translate(-210.313 -118.04)"/></g><g transform="translate(1.224 7.238)"><path class="g" d="M228.8,170.292a4.99,4.99,0,0,0-3.626-1.112c-1.7.131-3.565.943-5.267.526-.6-.148-.926-.373-.949-.828a3.032,3.032,0,0,0,1.057,2.989,4.1,4.1,0,0,0,1.587.267c1.6-.024,3.138-.59,4.736-.635.865-.024,2.713.269,3.074,1.181a.7.7,0,0,1,.04.259A2.525,2.525,0,0,0,228.8,170.292Z" transform="translate(-218.911 -168.878)"/></g></g><g transform="translate(125.764 89.405)"><path class="h" d="M320.884,188.224c-.282-.525-2.482.154-2.472.173.676,1.258.468,3.183-.98,3.824-.028-.018-.244-.013-.282-.04-.165-.117-.306-.173-.48-.291a7.828,7.828,0,0,1-1.048-.683c-.56-.549-.764-1.25-1.457-1.639a5.123,5.123,0,0,0-3.517-.319,3.027,3.027,0,0,0-2.34,2.7c-.149.737-.149,1.494-.3,2.23a5.173,5.173,0,0,1-.33,1.073,2.961,2.961,0,0,1-.421.672,1.071,1.071,0,0,1-.135.134c-.166-.086-.538-.018-.6-.061a8.314,8.314,0,0,1-.831-.48c-.494-.439-.631-1.181-1.217-1.5a5.361,5.361,0,0,0-3.431-.433c-1.424.228-1.9.99-2.027,2.4a10.222,10.222,0,0,0,.13,2.729,9.679,9.679,0,0,1,.322,2.227c-.038.7-.5,1.838-1.32,1.936-.8.1-2.282-.8-2.905-1.211-.366-.243-.756-.105-1.163-.054-.1.013-1.274-.009-1.055.135a8.049,8.049,0,0,0,4.431,1.667c1.321.016,3.1-.138,3.987-1.267,1.018-1.3.187-3.059.05-4.512a9.722,9.722,0,0,1,.092-2.558,1.55,1.55,0,0,1,.435-.831,1.343,1.343,0,0,1,.909.275c1.163.915,1.87,2,3.447,2.109a4.624,4.624,0,0,0,2.7-.325,2.459,2.459,0,0,0,.914-.91c.948-1.652.286-3.862,1.52-5.381a1.293,1.293,0,0,1,.241-.189c.018.009.181,0,.192.005.272.229.684.415.953.656.347.312.419.664.751.992a4.71,4.71,0,0,0,1.231.932C317.564,193.725,322.859,191.9,320.884,188.224Z" transform="translate(-292.988 -188.025)"/><g transform="translate(0 1.377)"><path class="i" d="M295.364,281.568a2.7,2.7,0,0,0-1.531-.053c-.1.013-1.061.2-.843.342,1.292.857,3.671,1.7,5.033,1.132C297.219,283,295.964,281.967,295.364,281.568Z" transform="translate(-292.957 -269.507)"/><path class="i" d="M429.735,200.143a6.559,6.559,0,0,1-.843-.735,8.821,8.821,0,0,0-1.763-1.545c-.089-.05-.181-.094-.275-.136a3.026,3.026,0,0,0-2.144.4,3.778,3.778,0,0,1,.9.664c.732.657,1.954,2.653,4.784,1.726A4.516,4.516,0,0,1,429.735,200.143Z" transform="translate(-405.951 -197.696)"/><path class="i" d="M361.449,230.8c-.166-.086-.324-.169-.386-.211a7.962,7.962,0,0,1-.734-.6,8.56,8.56,0,0,0-1.528-1.233c-.1-.053-.2-.1-.3-.142a2.518,2.518,0,0,0-2.159.375,4.446,4.446,0,0,1,.7.464c1.163.915,1.978,1.969,3.555,2.077a5.014,5.014,0,0,0,2.8-.484A2.958,2.958,0,0,1,361.449,230.8Z" transform="translate(-347.319 -224.137)"/></g></g><path class="d" d="M297.19,339.283c-2.526-2.3-6.246-3.3-9.558-3.653a23.282,23.282,0,0,0-15.338,3.742l-.009.007c.508.389,1.017.755,1.524,1.095a24.118,24.118,0,0,1,13.463-2.67,19.7,19.7,0,0,1,9.329,3.672C297.221,341.913,297.545,339.75,297.19,339.283Z" transform="translate(-149.464 -225.095)"/><path class="d" d="M420.59,271.368l-.493-2.082a.406.406,0,0,1,.186-.449,7.472,7.472,0,0,1,3.676-.626.624.624,0,0,1,.458.311,4.885,4.885,0,0,1,.482,2.174.229.229,0,0,1-.241.2,16.328,16.328,0,0,0-3.728.627A.239.239,0,0,1,420.59,271.368Z" transform="translate(-276.22 -167.357)"/><path class="j" d="M393.344,401.49l-1.958-2.059a.551.551,0,0,1-.087-.639,8.671,8.671,0,0,1,3.13-3.009.829.829,0,0,1,.734.051,6.488,6.488,0,0,1,2.007,2.173.3.3,0,0,1-.141.394,14.666,14.666,0,0,0-3.189,3.045A.318.318,0,0,1,393.344,401.49Z" transform="translate(-251.477 -276.744)"/><path class="k" d="M336.93,78.656l.741,1.953a.873.873,0,0,1-1.2,1.092l-1.853-.919a.279.279,0,0,0-.3.033l-1.645,1.323a.873.873,0,0,1-1.41-.813l.317-2.054a.279.279,0,0,0-.126-.278l-1.773-1.133a.873.873,0,0,1,.325-1.6l2.075-.35a.279.279,0,0,0,.224-.207l.511-2.015a.873.873,0,0,1,1.616-.2l1,1.861a.279.279,0,0,0,.263.147l2.065-.121a.873.873,0,0,1,.682,1.475l-1.445,1.508A.279.279,0,0,0,336.93,78.656Z" transform="translate(-198.338)"/><path class="k" d="M477.227,297.81l-.451,1.348a.594.594,0,0,1-1.1.057l-.581-1.282a.19.19,0,0,0-.172-.112l-1.436-.011a.594.594,0,0,1-.393-1.035l1.051-.945a.19.19,0,0,0,.054-.2l-.446-1.36a.594.594,0,0,1,.858-.7l1.244.709a.189.189,0,0,0,.207-.012l1.136-.841a.594.594,0,0,1,.936.591l-.276,1.409a.19.19,0,0,0,.075.19l1.14.825a.594.594,0,0,1-.276,1.071l-1.41.172A.19.19,0,0,0,477.227,297.81Z" transform="translate(-321.51 -188.91)"/><ellipse class="j" cx="1.532" cy="1.379" rx="1.532" ry="1.379" transform="translate(133.431 87.819) rotate(-41.858)"/><ellipse class="k" cx="1.377" cy="1.53" rx="1.377" ry="1.53" transform="translate(108.663 80.804) rotate(-34.46)"/><ellipse class="h" cx="1.701" cy="1.89" rx="1.701" ry="1.89" transform="matrix(0.782, -0.623, 0.623, 0.782, 151.641, 117.228)"/><path class="j" d="M165.429,174.958l-2.091.854a.538.538,0,0,1-.613-.139,4.709,4.709,0,0,1-1.236-2.9.808.808,0,0,1,.3-.653,4.308,4.308,0,0,1,2.212-.86.3.3,0,0,1,.312.264,8,8,0,0,0,1.249,2.963A.31.31,0,0,1,165.429,174.958Z" transform="translate(-54.442 -84.244)"/><path class="k" d="M430.412,118.291l1.122,2.949a.871.871,0,0,1-.16.961,5.7,5.7,0,0,1-4.062,1.677,1.257,1.257,0,0,1-.951-.537,6.112,6.112,0,0,1-1.138-3.142.4.4,0,0,1,.357-.469,9.623,9.623,0,0,0,4.155-1.69A.453.453,0,0,1,430.412,118.291Z" transform="translate(-280.624 -38.533)"/><path class="d" d="M441.636,99.226l-1.27,1.843a.523.523,0,0,1-.576.207,4.584,4.584,0,0,1-2.532-1.73.787.787,0,0,1-.1-.691,4.334,4.334,0,0,1,1.366-1.911.289.289,0,0,1,.394.053,7.783,7.783,0,0,0,2.577,1.777A.3.3,0,0,1,441.636,99.226Z" transform="translate(-290.83 -20.459)"/></g><g transform="translate(458.185 821)"><g transform="translate(16.545 16.785)"><path class="c" d="M105.031,236.221c5.778-5.9,16.341-7.017,16.341-7.017.247.247.506.534.773.853a157.925,157.925,0,0,1,13.644,32.613c.008.057.017.114.024.171l0,.021h0a7.4,7.4,0,0,1-4.145,4.145A183.418,183.418,0,0,1,98.706,253.2c-.255-.219-.487-.432-.692-.637C98.014,252.562,99.13,242,105.031,236.221Z" transform="translate(-92.564 -223.754)"/><path class="d" d="M166.63,276.878c1.077,2.146,2.066,4.246,2.97,6.267-.869,6.921-9.4,15.928-14.119,18.333-1.428-.606-2.913-1.257-4.444-1.953C159.45,295.662,167.447,284.307,166.63,276.878Z" transform="translate(-133.896 -264.64)"/><path class="d" d="M128.608,371.362c.644,1.644,1.217,3.182,1.721,4.589-1.076,3.556-4.412,7.97-8.569,10.587-1.2-.431-2.534-.922-3.971-1.474C122.253,382.686,127.754,376.188,128.608,371.362Z" transform="translate(-89.892 -345.671)"/><ellipse class="e" cx="7.636" cy="16.517" rx="7.636" ry="16.517" transform="translate(10.799 34.157) rotate(-135)"/><ellipse class="f" cx="6.696" cy="15.255" rx="6.696" ry="15.255" transform="translate(10.864 32.438) rotate(-135)"/><path class="d" d="M103.062,446.7c.395,1.279.637,2.143.734,2.493.008.058.018.118.026.176l0,.021h0s.09,1.1-1.409,2.6a4.587,4.587,0,0,1-2.735,1.546s-.592-.168-1.673-.507A12.373,12.373,0,0,0,103.062,446.7Z" transform="translate(-60.572 -410.286)"/></g><g transform="translate(30.847 6.408)"><g transform="translate(0 0)"><path class="d" d="M218.289,141.718c-3.192-2.636-7.162-6.21-7.9-10.551a4.843,4.843,0,0,1,1.706-4.624,5.236,5.236,0,0,1,3.694-.963c1.7.131,3.336,1.624,5.039,1.207a1.714,1.714,0,0,0,1.124-1.961,3.216,3.216,0,0,0-.829-1.347,7.953,7.953,0,0,0-2.776-1.717,18.806,18.806,0,0,0-5.971-1.378c-.563-.039,0-2.4.808-2.342a18.934,18.934,0,0,1,5.255,1.1c1.585.583,3.383,1.4,4.28,2.914a4.707,4.707,0,0,1,.2,4.069,3.467,3.467,0,0,1-1.964,2.149c-.466.185-1.194-.109-1.785-.118-1.6-.024-3.052-.632-4.65-.676-.865-.024-2.6.693-2.963,1.605-.236.6.625,2.235.976,2.885a26.831,26.831,0,0,0,6.8,7.58c.519.428-.412,2.683-1.032,2.171Z" transform="translate(-210.313 -118.04)"/></g><g transform="translate(1.077 7.238)"><path class="g" d="M219.678,170.292a4.99,4.99,0,0,1,3.626-1.112c1.7.131,3.565.943,5.267.526.6-.148.926-.373.949-.828a3.032,3.032,0,0,1-1.057,2.989,4.1,4.1,0,0,1-1.587.267c-1.6-.024-3.138-.59-4.736-.635-.865-.024-2.713.269-3.074,1.181a.7.7,0,0,0-.04.259A2.525,2.525,0,0,1,219.678,170.292Z" transform="translate(-218.911 -168.878)"/></g></g><g transform="translate(3.715 16.372)"><path class="h" d="M293.425,188.224c.282-.525,2.482.154,2.472.173-.676,1.258-.468,3.183.98,3.824.028-.018.244-.013.282-.04.165-.117.306-.173.48-.291a7.828,7.828,0,0,0,1.048-.683c.56-.549.764-1.25,1.457-1.639a5.123,5.123,0,0,1,3.517-.319,3.027,3.027,0,0,1,2.34,2.7c.149.737.149,1.494.3,2.23a5.173,5.173,0,0,0,.33,1.073,2.96,2.96,0,0,0,.421.672,1.071,1.071,0,0,0,.135.134c.166-.086.538-.018.6-.061a8.314,8.314,0,0,0,.831-.48c.494-.439.631-1.181,1.217-1.5a5.361,5.361,0,0,1,3.431-.433c1.424.228,1.9.99,2.027,2.4a10.222,10.222,0,0,1-.13,2.729,9.679,9.679,0,0,0-.322,2.227c.038.7.5,1.838,1.32,1.936.8.1,2.282-.8,2.905-1.211.366-.243.756-.105,1.163-.054.1.013,1.274-.009,1.055.135a8.049,8.049,0,0,1-4.431,1.667c-1.321.016-3.1-.138-3.987-1.267-1.018-1.3-.187-3.059-.05-4.512a9.722,9.722,0,0,0-.092-2.558,1.55,1.55,0,0,0-.435-.831,1.343,1.343,0,0,0-.909.275c-1.163.915-1.87,2-3.447,2.109a4.624,4.624,0,0,1-2.7-.325,2.459,2.459,0,0,1-.914-.91c-.948-1.652-.286-3.862-1.52-5.381a1.293,1.293,0,0,0-.241-.189c-.018.009-.181,0-.192.005-.272.229-.684.415-.953.656-.347.312-.419.664-.751.992a4.71,4.71,0,0,1-1.231.932C296.744,193.725,291.449,191.9,293.425,188.224Z" transform="translate(-292.993 -188.025)"/><g transform="translate(3.883 1.377)"><path class="i" d="M295.615,281.568a2.7,2.7,0,0,1,1.531-.053c.1.013,1.061.2.843.342-1.292.857-3.671,1.7-5.033,1.132C293.759,283,295.014,281.967,295.615,281.568Z" transform="translate(-273.577 -269.507)"/><path class="i" d="M425.371,200.143a6.557,6.557,0,0,0,.843-.735,8.821,8.821,0,0,1,1.763-1.545c.089-.05.181-.094.275-.136a3.025,3.025,0,0,1,2.144.4,3.777,3.777,0,0,0-.9.664c-.732.657-1.954,2.653-4.784,1.726A4.516,4.516,0,0,0,425.371,200.143Z" transform="translate(-424.71 -197.696)"/><path class="i" d="M358.3,230.8c.166-.086.324-.169.386-.211a7.962,7.962,0,0,0,.734-.6,8.561,8.561,0,0,1,1.528-1.233c.1-.053.2-.1.3-.142a2.518,2.518,0,0,1,2.159.375,4.446,4.446,0,0,0-.7.464c-1.163.915-1.978,1.969-3.555,2.077a5.014,5.014,0,0,1-2.8-.484A2.958,2.958,0,0,0,358.3,230.8Z" transform="translate(-347.984 -224.137)"/></g></g><path class="d" d="M272.432,339.283c2.526-2.3,6.246-3.3,9.558-3.653a23.282,23.282,0,0,1,15.338,3.742l.009.007c-.508.389-1.017.755-1.524,1.095a24.117,24.117,0,0,0-13.463-2.67,19.7,19.7,0,0,0-9.329,3.672C272.4,341.913,272.077,339.75,272.432,339.283Z" transform="translate(-262.352 -298.128)"/><path class="d" d="M424.4,271.368l.493-2.082a.406.406,0,0,0-.186-.449,7.472,7.472,0,0,0-3.676-.626.624.624,0,0,0-.458.311,4.885,4.885,0,0,0-.482,2.174.229.229,0,0,0,.241.2,16.328,16.328,0,0,1,3.728.627A.239.239,0,0,0,424.4,271.368Z" transform="translate(-410.96 -240.39)"/><path class="j" d="M395.088,401.489l1.958-2.059a.551.551,0,0,0,.087-.639,8.671,8.671,0,0,0-3.13-3.009.829.829,0,0,0-.734.051,6.487,6.487,0,0,0-2.006,2.173.3.3,0,0,0,.141.394,14.667,14.667,0,0,1,3.189,3.045A.318.318,0,0,0,395.088,401.489Z" transform="translate(-379.148 -349.777)"/><path class="k" d="M331.023,78.656l-.741,1.953a.873.873,0,0,0,1.2,1.092l1.853-.919a.279.279,0,0,1,.3.033l1.645,1.323a.873.873,0,0,0,1.41-.813l-.317-2.054a.279.279,0,0,1,.126-.278l1.773-1.133a.873.873,0,0,0-.325-1.6l-2.075-.35a.279.279,0,0,1-.224-.207l-.511-2.015a.873.873,0,0,0-1.616-.2l-1,1.861a.279.279,0,0,1-.263.147L330.2,75.38a.873.873,0,0,0-.682,1.475l1.445,1.508A.279.279,0,0,1,331.023,78.656Z" transform="translate(-311.807 -73.033)"/><path class="k" d="M474.984,297.81l.45,1.348a.594.594,0,0,0,1.1.057l.581-1.282a.19.19,0,0,1,.172-.112l1.436-.011a.594.594,0,0,0,.392-1.035l-1.051-.945a.19.19,0,0,1-.054-.2l.446-1.36a.594.594,0,0,0-.858-.7l-1.244.709a.189.189,0,0,1-.207-.012l-1.136-.841a.594.594,0,0,0-.936.591l.276,1.409a.19.19,0,0,1-.075.19l-1.14.825a.594.594,0,0,0,.276,1.071l1.41.172A.19.19,0,0,1,474.984,297.81Z" transform="translate(-472.894 -261.943)"/><ellipse class="j" cx="1.532" cy="1.379" rx="1.532" ry="1.379" transform="translate(22.536 16.84) rotate(-138.142)"/><ellipse class="k" cx="1.377" cy="1.53" rx="1.377" ry="1.53" transform="matrix(-0.825, -0.566, 0.566, -0.825, 47.412, 10.294)"/><ellipse class="h" cx="1.701" cy="1.89" rx="1.701" ry="1.89" transform="matrix(-0.782, -0.623, 0.623, -0.782, 3.81, 47.152)"/><path class="j" d="M161.676,174.958l2.091.854a.538.538,0,0,0,.613-.139,4.709,4.709,0,0,0,1.236-2.9.808.808,0,0,0-.3-.653,4.308,4.308,0,0,0-2.212-.86.3.3,0,0,0-.312.264,8,8,0,0,1-1.249,2.963A.31.31,0,0,0,161.676,174.958Z" transform="translate(-114.856 -157.277)"/><path class="k" d="M426.417,118.291l-1.122,2.949a.871.871,0,0,0,.16.961,5.7,5.7,0,0,0,4.062,1.677,1.257,1.257,0,0,0,.951-.537,6.112,6.112,0,0,0,1.138-3.142.4.4,0,0,0-.357-.469,9.622,9.622,0,0,1-4.155-1.69A.453.453,0,0,0,426.417,118.291Z" transform="translate(-418.399 -111.566)"/><path class="d" d="M437.173,99.226l1.27,1.843a.523.523,0,0,0,.576.207,4.584,4.584,0,0,0,2.532-1.73.787.787,0,0,0,.1-.691,4.334,4.334,0,0,0-1.366-1.911.289.289,0,0,0-.394.053,7.783,7.783,0,0,1-2.577,1.777A.3.3,0,0,0,437.173,99.226Z" transform="translate(-430.172 -93.492)"/></g></g></svg>