<svg xmlns="http://www.w3.org/2000/svg" width="21.136" height="17.199" viewBox="0 0 21.136 17.199"><defs><style>.a{fill:#1f489a;}</style></defs><path class="a" d="M22.55,6.538a8.767,8.767,0,0,1-2.49.685,4.352,4.352,0,0,0,1.908-2.4,8.616,8.616,0,0,1-2.755,1.053,4.335,4.335,0,0,0-7.5,2.965,4.245,4.245,0,0,0,.112.99,12.289,12.289,0,0,1-8.94-4.537,4.345,4.345,0,0,0,1.348,5.8,4.235,4.235,0,0,1-1.971-.542V10.6a4.34,4.34,0,0,0,3.48,4.255,4.365,4.365,0,0,1-1.142.152,4.091,4.091,0,0,1-.815-.081,4.343,4.343,0,0,0,4.053,3.014A8.694,8.694,0,0,1,2.448,19.8a8.79,8.79,0,0,1-1.035-.063A12.121,12.121,0,0,0,8.051,21.7,12.265,12.265,0,0,0,20.4,9.346c0-.188,0-.376-.013-.56A8.827,8.827,0,0,0,22.55,6.538Z" transform="translate(-1.413 -4.5)"/></svg>