<svg xmlns="http://www.w3.org/2000/svg" width="22.929" height="17.2" viewBox="0 0 22.929 17.2"><defs><style>.a{fill:#1f489a;}</style></defs><path class="a" d="M22.78,8.3a3.482,3.482,0,0,0-3.314-3.637c-2.481-.116-5.012-.161-7.6-.161h-.806c-2.58,0-5.115.045-7.6.161A3.489,3.489,0,0,0,.157,8.307C.045,9.9,0,11.5,0,13.091s.045,3.189.152,4.788a3.493,3.493,0,0,0,3.31,3.65c2.607.121,5.281.175,8,.17s5.388-.045,8-.17a3.494,3.494,0,0,0,3.314-3.65c.107-1.6.157-3.194.152-4.793S22.887,9.9,22.78,8.3ZM9.271,17.485v-8.8l6.495,4.4Z" transform="translate(0 -4.5)"/></svg>